# Blender 5.1.0
# www.blender.org
mtllib BossEnemyCore_Enrage.mtl
o 球
v 0.000000 1.000000 0.000000
v 0.000000 0.831470 -0.555570
v 0.000000 0.555570 -0.831470
v 0.000000 0.195090 -0.980785
v 0.000000 0.000000 -1.000000
v 0.000000 -0.195090 -0.980785
v 0.000000 -0.555570 -0.831470
v 0.000000 -1.000000 -0.000000
v 0.038060 0.980785 -0.191342
v 0.074658 0.923880 -0.375330
v 0.108386 0.831470 -0.544895
v 0.137950 0.707107 -0.693520
v 0.162212 0.555570 -0.815493
v 0.180240 0.382683 -0.906127
v 0.191342 0.195090 -0.961940
v 0.195090 0.000000 -0.980785
v 0.191342 -0.195090 -0.961940
v 0.180240 -0.382683 -0.906127
v 0.162212 -0.555570 -0.815493
v 0.137950 -0.707107 -0.693520
v 0.108386 -0.831470 -0.544895
v 0.074658 -0.923880 -0.375330
v 0.038060 -0.980785 -0.191342
v 0.074658 0.980785 -0.180240
v 0.146447 0.923880 -0.353553
v 0.212608 0.831470 -0.513280
v 0.270598 0.707107 -0.653281
v 0.318190 0.555570 -0.768178
v 0.353553 0.382683 -0.853553
v 0.375330 0.195090 -0.906127
v 0.382683 0.000000 -0.923879
v 0.375330 -0.195090 -0.906127
v 0.353553 -0.382683 -0.853553
v 0.318190 -0.555570 -0.768178
v 0.270598 -0.707107 -0.653281
v 0.212608 -0.831470 -0.513280
v 0.146447 -0.923880 -0.353553
v 0.074658 -0.980785 -0.180240
v 0.108386 0.980785 -0.162212
v 0.212608 0.923880 -0.318190
v 0.308658 0.831470 -0.461940
v 0.392847 0.707107 -0.587938
v 0.461940 0.555570 -0.691342
v 0.513280 0.382683 -0.768178
v 0.544895 0.195090 -0.815493
v 0.555570 0.000000 -0.831469
v 0.544895 -0.195090 -0.815493
v 0.513280 -0.382683 -0.768178
v 0.461940 -0.555570 -0.691342
v 0.392847 -0.707107 -0.587938
v 0.308658 -0.831470 -0.461940
v 0.212608 -0.923880 -0.318190
v 0.108386 -0.980785 -0.162212
v 0.137950 0.980785 -0.137950
v 0.270598 0.923880 -0.270598
v 0.392847 0.831470 -0.392847
v 0.500000 0.707107 -0.500000
v 0.587938 0.555570 -0.587938
v 0.653281 0.382683 -0.653281
v 0.693520 0.195090 -0.693520
v 0.707107 0.000000 -0.707107
v 0.693520 -0.195090 -0.693520
v 0.653281 -0.382683 -0.653281
v 0.587938 -0.555570 -0.587938
v 0.500000 -0.707107 -0.500000
v 0.392847 -0.831470 -0.392847
v 0.270598 -0.923880 -0.270598
v 0.137950 -0.980785 -0.137950
v 0.162212 0.980785 -0.108386
v 0.318190 0.923880 -0.212608
v 0.461940 0.831470 -0.308658
v 0.587938 0.707107 -0.392847
v 0.691342 0.555570 -0.461940
v 0.768178 0.382683 -0.513280
v 0.815493 0.195090 -0.544895
v 0.831470 0.000000 -0.555570
v 0.815493 -0.195090 -0.544895
v 0.768178 -0.382683 -0.513280
v 0.691342 -0.555570 -0.461940
v 0.587938 -0.707107 -0.392847
v 0.461940 -0.831470 -0.308658
v 0.318190 -0.923880 -0.212608
v 0.162212 -0.980785 -0.108386
v 0.180240 0.980785 -0.074658
v 0.353553 0.923880 -0.146447
v 0.513280 0.831470 -0.212607
v 0.653281 0.707107 -0.270598
v 0.768178 0.555570 -0.318190
v 0.853553 0.382683 -0.353553
v 0.906127 0.195090 -0.375330
v 0.923879 0.000000 -0.382683
v 0.906127 -0.195090 -0.375330
v 0.853553 -0.382683 -0.353553
v 0.768178 -0.555570 -0.318190
v 0.653281 -0.707107 -0.270598
v 0.513280 -0.831470 -0.212607
v 0.353553 -0.923880 -0.146447
v 0.180240 -0.980785 -0.074658
v 0.191342 0.980785 -0.038060
v 0.375330 0.923880 -0.074658
v 0.544895 0.831470 -0.108386
v 0.693520 0.707107 -0.137950
v 0.815493 0.555570 -0.162212
v 0.906127 0.382683 -0.180240
v 0.961940 0.195090 -0.191342
v 0.980785 0.000000 -0.195090
v 0.961940 -0.195090 -0.191342
v 0.906127 -0.382683 -0.180240
v 0.815493 -0.555570 -0.162212
v 0.693520 -0.707107 -0.137950
v 0.544895 -0.831470 -0.108386
v 0.375330 -0.923880 -0.074658
v 0.191342 -0.980785 -0.038060
v 0.195090 0.980785 0.000000
v 0.382683 0.923880 0.000000
v 0.555570 0.831470 0.000000
v 0.707107 0.707107 0.000000
v 0.831469 0.555570 0.000000
v 0.923879 0.382683 0.000000
v 0.980785 0.195090 0.000000
v 1.000000 0.000000 0.000000
v 0.980785 -0.195090 -0.000000
v 0.923879 -0.382683 -0.000000
v 0.831469 -0.555570 -0.000000
v 0.707107 -0.707107 -0.000000
v 0.555570 -0.831470 -0.000000
v 0.382683 -0.923880 -0.000000
v 0.195090 -0.980785 -0.000000
v 0.191342 0.980785 0.038060
v 0.375330 0.923880 0.074658
v 0.544895 0.831470 0.108386
v 0.693520 0.707107 0.137950
v 0.815493 0.555570 0.162212
v 0.906127 0.382683 0.180240
v 0.961940 0.195090 0.191342
v 0.980785 -0.000000 0.195090
v 0.961940 -0.195090 0.191342
v 0.906127 -0.382683 0.180240
v 0.815493 -0.555570 0.162212
v 0.693520 -0.707107 0.137950
v 0.544895 -0.831470 0.108386
v 0.375330 -0.923880 0.074658
v 0.191342 -0.980785 0.038060
v 0.180240 0.980785 0.074658
v 0.353553 0.923880 0.146447
v 0.513280 0.831470 0.212608
v 0.653281 0.707107 0.270598
v 0.768178 0.555570 0.318190
v 0.853553 0.382683 0.353553
v 0.906127 0.195090 0.375330
v 0.923879 -0.000000 0.382683
v 0.906127 -0.195090 0.375330
v 0.853553 -0.382683 0.353553
v 0.768178 -0.555570 0.318190
v 0.653281 -0.707107 0.270598
v 0.513280 -0.831470 0.212608
v 0.353553 -0.923880 0.146447
v 0.180240 -0.980785 0.074658
v 0.162212 0.980785 0.108386
v 0.318190 0.923880 0.212608
v 0.461940 0.831470 0.308658
v 0.587938 0.707107 0.392847
v 0.691341 0.555570 0.461940
v 0.768178 0.382683 0.513280
v 0.815493 0.195090 0.544895
v 0.831469 -0.000000 0.555570
v 0.815493 -0.195090 0.544895
v 0.768178 -0.382683 0.513280
v 0.691341 -0.555570 0.461940
v 0.587938 -0.707107 0.392847
v 0.461940 -0.831470 0.308658
v 0.318190 -0.923880 0.212608
v 0.162212 -0.980785 0.108386
v 0.137950 0.980785 0.137950
v 0.270598 0.923880 0.270598
v 0.392847 0.831470 0.392847
v 0.500000 0.707107 0.500000
v 0.587938 0.555570 0.587938
v 0.653281 0.382683 0.653281
v 0.693520 0.195090 0.693520
v 0.707106 -0.000000 0.707107
v 0.693520 -0.195090 0.693520
v 0.653281 -0.382683 0.653281
v 0.587938 -0.555570 0.587938
v 0.500000 -0.707107 0.500000
v 0.392847 -0.831470 0.392847
v 0.270598 -0.923880 0.270598
v 0.137950 -0.980785 0.137950
v 0.108386 0.980785 0.162212
v 0.212607 0.923880 0.318190
v 0.308658 0.831470 0.461940
v 0.392847 0.707107 0.587938
v 0.461940 0.555570 0.691342
v 0.513280 0.382683 0.768178
v 0.544895 0.195090 0.815493
v 0.555570 -0.000000 0.831469
v 0.544895 -0.195090 0.815493
v 0.513280 -0.382683 0.768178
v 0.461940 -0.555570 0.691342
v 0.392847 -0.707107 0.587938
v 0.308658 -0.831470 0.461940
v 0.212607 -0.923880 0.318190
v 0.108386 -0.980785 0.162212
v 0.074658 0.980785 0.180240
v 0.146447 0.923880 0.353553
v 0.212607 0.831470 0.513280
v 0.270598 0.707107 0.653281
v 0.318189 0.555570 0.768178
v 0.353553 0.382683 0.853553
v 0.375330 0.195090 0.906127
v 0.382683 -0.000000 0.923879
v 0.375330 -0.195090 0.906127
v 0.353553 -0.382683 0.853553
v 0.318189 -0.555570 0.768178
v 0.270598 -0.707107 0.653281
v 0.212607 -0.831470 0.513280
v 0.146447 -0.923880 0.353553
v 0.074658 -0.980785 0.180240
v 0.038060 0.980785 0.191342
v 0.074658 0.923880 0.375330
v 0.108386 0.831470 0.544895
v 0.137950 0.707107 0.693520
v 0.162212 0.555570 0.815493
v 0.180240 0.382683 0.906127
v 0.191342 0.195090 0.961939
v 0.195090 -0.000000 0.980785
v 0.191342 -0.195090 0.961939
v 0.180240 -0.382683 0.906127
v 0.162212 -0.555570 0.815493
v 0.137950 -0.707107 0.693520
v 0.108386 -0.831470 0.544895
v 0.074658 -0.923880 0.375330
v 0.038060 -0.980785 0.191342
v 0.000000 0.980785 0.195090
v 0.000000 0.923880 0.382683
v 0.000000 0.831470 0.555570
v 0.000000 0.707107 0.707107
v 0.000000 0.555570 0.831469
v 0.000000 0.382683 0.923879
v 0.000000 0.195090 0.980785
v 0.000000 -0.000000 0.999999
v 0.000000 -0.195090 0.980785
v 0.000000 -0.382683 0.923879
v 0.000000 -0.555570 0.831469
v 0.000000 -0.707107 0.707107
v 0.000000 -0.831470 0.555570
v 0.000000 -0.923880 0.382683
v 0.000000 -0.980785 0.195090
v -0.038060 0.980785 0.191342
v -0.074658 0.923880 0.375330
v -0.108386 0.831470 0.544895
v -0.137950 0.707107 0.693520
v -0.162212 0.555570 0.815493
v -0.180240 0.382683 0.906127
v -0.191342 0.195090 0.961939
v -0.195091 -0.000000 0.980785
v -0.191342 -0.195090 0.961939
v -0.180240 -0.382683 0.906127
v -0.162212 -0.555570 0.815493
v -0.137950 -0.707107 0.693520
v -0.108386 -0.831470 0.544895
v -0.074658 -0.923880 0.375330
v -0.038060 -0.980785 0.191342
v -0.074658 0.980785 0.180240
v -0.146447 0.923880 0.353553
v -0.212608 0.831470 0.513280
v -0.270598 0.707107 0.653281
v -0.318190 0.555570 0.768177
v -0.353553 0.382683 0.853553
v -0.375330 0.195090 0.906127
v -0.382683 -0.000000 0.923879
v -0.375330 -0.195090 0.906127
v -0.353553 -0.382683 0.853553
v -0.318190 -0.555570 0.768177
v -0.270598 -0.707107 0.653281
v -0.212608 -0.831470 0.513280
v -0.146447 -0.923880 0.353553
v -0.074658 -0.980785 0.180240
v -0.108386 0.980785 0.162212
v -0.212608 0.923880 0.318190
v -0.308658 0.831470 0.461939
v -0.392847 0.707107 0.587938
v -0.461940 0.555570 0.691341
v -0.513280 0.382683 0.768178
v -0.544895 0.195090 0.815493
v -0.555570 -0.000000 0.831469
v -0.544895 -0.195090 0.815493
v -0.513280 -0.382683 0.768178
v -0.461940 -0.555570 0.691341
v -0.392847 -0.707107 0.587938
v -0.308658 -0.831470 0.461939
v -0.212608 -0.923880 0.318190
v -0.108386 -0.980785 0.162212
v -0.137950 0.980785 0.137950
v -0.270598 0.923880 0.270598
v -0.392847 0.831470 0.392847
v -0.500000 0.707107 0.500000
v -0.587938 0.555570 0.587937
v -0.653281 0.382683 0.653281
v -0.693520 0.195090 0.693520
v -0.707106 -0.000000 0.707106
v -0.693520 -0.195090 0.693520
v -0.653281 -0.382683 0.653281
v -0.587938 -0.555570 0.587937
v -0.500000 -0.707107 0.500000
v -0.392847 -0.831470 0.392847
v -0.270598 -0.923880 0.270598
v -0.137950 -0.980785 0.137950
v -0.162212 0.980785 0.108386
v -0.318190 0.923880 0.212607
v -0.461940 0.831470 0.308658
v -0.587938 0.707107 0.392847
v -0.691341 0.555570 0.461939
v -0.768177 0.382683 0.513280
v -0.815493 0.195090 0.544895
v -0.831469 -0.000000 0.555569
v -0.815493 -0.195090 0.544895
v -0.768177 -0.382683 0.513280
v -0.691341 -0.555570 0.461939
v -0.587938 -0.707107 0.392847
v -0.461940 -0.831470 0.308658
v -0.318190 -0.923880 0.212607
v -0.162212 -0.980785 0.108386
v -0.180240 0.980785 0.074658
v -0.353553 0.923880 0.146447
v -0.513280 0.831470 0.212607
v -0.653281 0.707107 0.270598
v -0.768177 0.555570 0.318189
v -0.853553 0.382683 0.353553
v -0.906127 0.195090 0.375330
v -0.923879 -0.000000 0.382683
v -0.906127 -0.195090 0.375330
v -0.853553 -0.382683 0.353553
v -0.768177 -0.555570 0.318189
v -0.653281 -0.707107 0.270598
v -0.513280 -0.831470 0.212607
v -0.353553 -0.923880 0.146447
v -0.180240 -0.980785 0.074658
v -0.191342 0.980785 0.038060
v -0.375330 0.923880 0.074658
v -0.544895 0.831470 0.108386
v -0.693520 0.707107 0.137950
v -0.815493 0.555570 0.162211
v -0.906127 0.382683 0.180240
v -0.961939 0.195090 0.191341
v -0.980784 -0.000000 0.195090
v -0.961939 -0.195090 0.191341
v -0.906127 -0.382683 0.180240
v -0.815493 -0.555570 0.162211
v -0.693520 -0.707107 0.137950
v -0.544895 -0.831470 0.108386
v -0.375330 -0.923880 0.074658
v -0.191342 -0.980785 0.038060
v -0.195090 0.980785 0.000000
v -0.382683 0.923880 0.000000
v -0.555570 0.831470 0.000000
v -0.707107 0.707107 0.000000
v -0.831469 0.555570 0.000000
v -0.923879 0.382683 0.000000
v -0.980785 0.195090 0.000000
v -0.999999 0.000000 0.000000
v -0.980785 -0.195090 -0.000000
v -0.923879 -0.382683 -0.000000
v -0.831469 -0.555570 -0.000000
v -0.707107 -0.707107 -0.000000
v -0.555570 -0.831470 -0.000000
v -0.382683 -0.923880 -0.000000
v -0.195090 -0.980785 -0.000000
v -0.191342 0.980785 -0.038060
v -0.375330 0.923880 -0.074658
v -0.544895 0.831470 -0.108386
v -0.693520 0.707107 -0.137950
v -0.815493 0.555570 -0.162212
v -0.906127 0.382683 -0.180240
v -0.961939 0.195090 -0.191342
v -0.980784 0.000000 -0.195091
v -0.961939 -0.195090 -0.191342
v -0.906127 -0.382683 -0.180240
v -0.815493 -0.555570 -0.162212
v -0.693520 -0.707107 -0.137950
v -0.544895 -0.831470 -0.108386
v -0.375330 -0.923880 -0.074658
v -0.191342 -0.980785 -0.038060
v -0.180240 0.980785 -0.074658
v -0.353553 0.923880 -0.146447
v -0.513279 0.831470 -0.212607
v -0.653281 0.707107 -0.270598
v -0.768177 0.555570 -0.318190
v -0.853553 0.382683 -0.353553
v -0.906127 0.195090 -0.375330
v -0.923878 0.000000 -0.382683
v -0.906127 -0.195090 -0.375330
v -0.853553 -0.382683 -0.353553
v -0.768177 -0.555570 -0.318190
v -0.653281 -0.707107 -0.270598
v -0.513279 -0.831470 -0.212607
v -0.353553 -0.923880 -0.146447
v -0.180240 -0.980785 -0.074658
v -0.162212 0.980785 -0.108386
v -0.318189 0.923880 -0.212607
v -0.461939 0.831470 -0.308658
v -0.587938 0.707107 -0.392847
v -0.691341 0.555570 -0.461940
v -0.768177 0.382683 -0.513280
v -0.815493 0.195090 -0.544895
v -0.831468 0.000000 -0.555570
v -0.815493 -0.195090 -0.544895
v -0.768177 -0.382683 -0.513280
v -0.691341 -0.555570 -0.461940
v -0.587938 -0.707107 -0.392847
v -0.461939 -0.831470 -0.308658
v -0.318189 -0.923880 -0.212607
v -0.162212 -0.980785 -0.108386
v -0.137950 0.980785 -0.137950
v -0.270598 0.923880 -0.270598
v -0.392847 0.831470 -0.392847
v -0.500000 0.707107 -0.500000
v -0.587937 0.555570 -0.587938
v -0.653281 0.382683 -0.653281
v -0.693519 0.195090 -0.693520
v -0.707106 0.000000 -0.707106
v -0.693519 -0.195090 -0.693520
v -0.653281 -0.382683 -0.653281
v -0.587937 -0.555570 -0.587938
v -0.500000 -0.707107 -0.500000
v -0.392847 -0.831470 -0.392847
v -0.270598 -0.923880 -0.270598
v -0.137950 -0.980785 -0.137950
v -0.108386 0.980785 -0.162212
v -0.212607 0.923880 -0.318190
v -0.308658 0.831470 -0.461939
v -0.392847 0.707107 -0.587938
v -0.461939 0.555570 -0.691341
v -0.513280 0.382683 -0.768177
v -0.544895 0.195090 -0.815493
v -0.555569 0.000000 -0.831469
v -0.544895 -0.195090 -0.815493
v -0.513280 -0.382683 -0.768177
v -0.461939 -0.555570 -0.691341
v -0.392847 -0.707107 -0.587938
v -0.308658 -0.831470 -0.461939
v -0.212607 -0.923880 -0.318190
v -0.108386 -0.980785 -0.162212
v -0.074658 0.980785 -0.180240
v -0.146446 0.923880 -0.353553
v -0.212607 0.831470 -0.513279
v -0.270598 0.707107 -0.653281
v -0.318189 0.555570 -0.768177
v -0.353553 0.382683 -0.853553
v -0.375330 0.195090 -0.906127
v -0.382683 0.000000 -0.923879
v -0.375330 -0.195090 -0.906127
v -0.353553 -0.382683 -0.853553
v -0.318189 -0.555570 -0.768177
v -0.270598 -0.707107 -0.653281
v -0.212607 -0.831470 -0.513279
v -0.146446 -0.923880 -0.353553
v -0.074658 -0.980785 -0.180240
v -0.038060 0.980785 -0.191342
v -0.074658 0.923880 -0.375330
v -0.108386 0.831470 -0.544895
v -0.137950 0.707107 -0.693520
v -0.162211 0.555570 -0.815493
v -0.180240 0.382683 -0.906127
v -0.191341 0.195090 -0.961939
v -0.195090 0.000000 -0.980784
v -0.191341 -0.195090 -0.961939
v -0.180240 -0.382683 -0.906127
v -0.162211 -0.555570 -0.815493
v -0.137950 -0.707107 -0.693520
v -0.108386 -0.831470 -0.544895
v -0.074658 -0.923880 -0.375330
v -0.038060 -0.980785 -0.191342
v 0.000000 0.980785 -0.195090
v 0.000000 0.923880 -0.382683
v 0.000000 0.707107 -0.707107
v 0.000000 0.382683 -0.923879
v 0.000000 -0.382683 -0.923879
v 0.000000 -0.707107 -0.707107
v 0.000000 -0.831470 -0.555570
v 0.000000 -0.923880 -0.382683
v 0.000000 -0.980785 -0.195090
vn 0.0938 0.2890 -0.9527
vn 0.0286 -0.9566 -0.2902
vn 0.0975 0.0975 -0.9904
vn 0.0976 0.0976 -0.9904
vn 0.0097 0.9951 -0.0980
vn 0.0097 -0.9951 -0.0980
vn 0.0975 -0.0975 -0.9904
vn 0.0975 -0.0976 -0.9904
vn 0.0286 0.9566 -0.2902
vn 0.0938 -0.2890 -0.9527
vn 0.0464 0.8810 -0.4709
vn 0.0865 -0.4696 -0.8786
vn 0.0624 0.7715 -0.6332
vn 0.0759 -0.6326 -0.7708
vn 0.0759 0.6326 -0.7708
vn 0.0624 -0.7715 -0.6332
vn 0.0865 0.4696 -0.8786
vn 0.0464 -0.8810 -0.4709
vn 0.1847 -0.7715 -0.6088
vn 0.2563 0.4696 -0.8449
vn 0.2563 0.4696 -0.8448
vn 0.1374 -0.8810 -0.4528
vn 0.2779 0.2890 -0.9161
vn 0.0846 -0.9566 -0.2790
vn 0.2889 0.0975 -0.9524
vn 0.0286 0.9951 -0.0942
vn 0.0286 -0.9951 -0.0942
vn 0.2889 -0.0975 -0.9524
vn 0.0846 0.9566 -0.2790
vn 0.2779 -0.2890 -0.9161
vn 0.1374 0.8810 -0.4528
vn 0.2563 -0.4696 -0.8449
vn 0.2563 -0.4696 -0.8448
vn 0.1847 0.7715 -0.6088
vn 0.2248 -0.6326 -0.7412
vn 0.2248 0.6326 -0.7412
vn 0.4513 -0.2890 -0.8443
vn 0.2230 0.8810 -0.4173
vn 0.2231 0.8810 -0.4173
vn 0.4162 -0.4696 -0.7786
vn 0.2999 0.7715 -0.5611
vn 0.3651 -0.6326 -0.6831
vn 0.3651 0.6326 -0.6831
vn 0.2999 -0.7715 -0.5611
vn 0.4162 0.4696 -0.7786
vn 0.2230 -0.8810 -0.4173
vn 0.4513 0.2890 -0.8443
vn 0.1374 -0.9566 -0.2571
vn 0.4691 0.0975 -0.8777
vn 0.0464 0.9951 -0.0869
vn 0.0464 -0.9951 -0.0869
vn 0.4691 -0.0975 -0.8777
vn 0.1374 0.9566 -0.2571
vn 0.3002 -0.8810 -0.3658
vn 0.6073 0.2890 -0.7400
vn 0.1850 -0.9566 -0.2254
vn 0.6314 0.0975 -0.7693
vn 0.6314 0.0976 -0.7693
vn 0.0625 0.9951 -0.0761
vn 0.0625 -0.9951 -0.0761
vn 0.6314 -0.0975 -0.7693
vn 0.1850 0.9565 -0.2254
vn 0.1850 0.9566 -0.2254
vn 0.6073 -0.2890 -0.7400
vn 0.3002 0.8810 -0.3658
vn 0.5601 -0.4696 -0.6825
vn 0.4036 0.7715 -0.4918
vn 0.4913 -0.6326 -0.5987
vn 0.4913 0.6326 -0.5987
vn 0.4036 -0.7715 -0.4918
vn 0.5601 0.4696 -0.6825
vn 0.3658 0.8810 -0.3002
vn 0.6825 -0.4696 -0.5601
vn 0.4918 0.7715 -0.4036
vn 0.5987 -0.6326 -0.4913
vn 0.5987 0.6326 -0.4913
vn 0.4918 -0.7715 -0.4036
vn 0.6825 0.4696 -0.5601
vn 0.3658 -0.8810 -0.3002
vn 0.7400 0.2890 -0.6073
vn 0.2254 -0.9566 -0.1850
vn 0.7693 0.0976 -0.6314
vn 0.0761 0.9951 -0.0625
vn 0.0761 -0.9951 -0.0625
vn 0.7693 -0.0976 -0.6314
vn 0.2254 0.9566 -0.1850
vn 0.7400 -0.2890 -0.6073
vn 0.8443 0.2890 -0.4513
vn 0.2571 -0.9566 -0.1374
vn 0.8777 0.0976 -0.4691
vn 0.8777 0.0975 -0.4691
vn 0.0869 0.9951 -0.0464
vn 0.0869 -0.9951 -0.0464
vn 0.8777 -0.0976 -0.4691
vn 0.2571 0.9566 -0.1374
vn 0.8443 -0.2890 -0.4513
vn 0.4173 0.8810 -0.2230
vn 0.7786 -0.4696 -0.4162
vn 0.5611 0.7715 -0.2999
vn 0.6831 -0.6326 -0.3651
vn 0.6831 0.6326 -0.3651
vn 0.5611 -0.7715 -0.2999
vn 0.7786 0.4696 -0.4162
vn 0.4173 -0.8810 -0.2230
vn 0.8448 -0.4696 -0.2563
vn 0.6088 0.7715 -0.1847
vn 0.7412 -0.6326 -0.2248
vn 0.7412 0.6326 -0.2248
vn 0.6088 -0.7715 -0.1847
vn 0.8448 0.4696 -0.2563
vn 0.4528 -0.8810 -0.1374
vn 0.9161 0.2890 -0.2779
vn 0.2790 -0.9566 -0.0846
vn 0.9524 0.0975 -0.2889
vn 0.0942 0.9951 -0.0286
vn 0.0942 -0.9951 -0.0286
vn 0.9524 -0.0975 -0.2889
vn 0.2790 0.9566 -0.0846
vn 0.9161 -0.2890 -0.2779
vn 0.4528 0.8810 -0.1374
vn 0.2902 -0.9566 -0.0286
vn 0.9904 0.0975 -0.0975
vn 0.9904 0.0976 -0.0976
vn 0.0980 0.9951 -0.0096
vn 0.0980 -0.9951 -0.0097
vn 0.9904 -0.0975 -0.0975
vn 0.2902 0.9566 -0.0286
vn 0.9527 -0.2890 -0.0938
vn 0.4709 0.8810 -0.0464
vn 0.8786 -0.4696 -0.0865
vn 0.6332 0.7715 -0.0624
vn 0.7708 -0.6326 -0.0759
vn 0.7708 0.6326 -0.0759
vn 0.6332 -0.7715 -0.0624
vn 0.8786 0.4696 -0.0865
vn 0.4709 -0.8810 -0.0464
vn 0.9527 0.2890 -0.0938
vn 0.6332 0.7715 0.0624
vn 0.7708 -0.6326 0.0759
vn 0.7708 0.6326 0.0759
vn 0.6332 -0.7715 0.0624
vn 0.8786 0.4696 0.0865
vn 0.4709 -0.8810 0.0464
vn 0.9527 0.2890 0.0938
vn 0.2902 -0.9566 0.0286
vn 0.9904 0.0975 0.0975
vn 0.9904 0.0975 0.0976
vn 0.0980 0.9951 0.0097
vn 0.0980 -0.9951 0.0097
vn 0.9904 -0.0975 0.0975
vn 0.9904 -0.0976 0.0975
vn 0.2902 0.9566 0.0286
vn 0.9527 -0.2890 0.0938
vn 0.4709 0.8810 0.0464
vn 0.8786 -0.4696 0.0865
vn 0.9524 0.0975 0.2889
vn 0.0942 0.9951 0.0286
vn 0.0942 -0.9951 0.0286
vn 0.9524 -0.0975 0.2889
vn 0.2790 0.9566 0.0846
vn 0.9161 -0.2890 0.2779
vn 0.4528 0.8810 0.1374
vn 0.8448 -0.4696 0.2563
vn 0.8449 -0.4696 0.2563
vn 0.6088 0.7715 0.1847
vn 0.7412 -0.6326 0.2248
vn 0.7412 0.6326 0.2248
vn 0.6088 -0.7715 0.1847
vn 0.8448 0.4696 0.2563
vn 0.4528 -0.8810 0.1374
vn 0.9161 0.2890 0.2779
vn 0.2790 -0.9566 0.0846
vn 0.6831 -0.6326 0.3651
vn 0.6831 0.6326 0.3651
vn 0.5611 -0.7715 0.2999
vn 0.7786 0.4696 0.4162
vn 0.4173 -0.8810 0.2231
vn 0.4173 -0.8810 0.2230
vn 0.8443 0.2890 0.4513
vn 0.2571 -0.9566 0.1374
vn 0.8777 0.0975 0.4691
vn 0.0869 0.9951 0.0464
vn 0.0869 -0.9951 0.0464
vn 0.8777 -0.0975 0.4691
vn 0.2571 0.9566 0.1374
vn 0.8443 -0.2890 0.4513
vn 0.4173 0.8810 0.2231
vn 0.4173 0.8810 0.2230
vn 0.7786 -0.4696 0.4162
vn 0.5611 0.7715 0.2999
vn 0.0761 -0.9951 0.0625
vn 0.7693 -0.0975 0.6314
vn 0.2254 0.9566 0.1850
vn 0.7400 -0.2890 0.6073
vn 0.3658 0.8810 0.3002
vn 0.6825 -0.4696 0.5601
vn 0.4918 0.7715 0.4036
vn 0.5987 -0.6326 0.4913
vn 0.5987 0.6326 0.4913
vn 0.4918 -0.7715 0.4036
vn 0.6825 0.4696 0.5601
vn 0.3658 -0.8810 0.3002
vn 0.7400 0.2890 0.6073
vn 0.2254 -0.9566 0.1850
vn 0.7693 0.0975 0.6314
vn 0.0761 0.9951 0.0625
vn 0.4036 -0.7715 0.4918
vn 0.5601 0.4696 0.6825
vn 0.3002 -0.8810 0.3658
vn 0.6073 0.2890 0.7400
vn 0.1850 -0.9566 0.2254
vn 0.1850 -0.9565 0.2254
vn 0.6314 0.0975 0.7693
vn 0.0625 0.9951 0.0761
vn 0.0625 -0.9951 0.0761
vn 0.6314 -0.0975 0.7693
vn 0.1850 0.9566 0.2254
vn 0.1850 0.9565 0.2254
vn 0.6073 -0.2890 0.7400
vn 0.3002 0.8810 0.3658
vn 0.5601 -0.4696 0.6825
vn 0.4036 0.7715 0.4918
vn 0.4913 -0.6326 0.5987
vn 0.4913 0.6326 0.5987
vn 0.1374 0.9566 0.2571
vn 0.4513 -0.2890 0.8443
vn 0.2230 0.8810 0.4173
vn 0.4162 -0.4696 0.7786
vn 0.2999 0.7715 0.5611
vn 0.3651 -0.6326 0.6831
vn 0.3651 0.6326 0.6831
vn 0.2999 -0.7715 0.5611
vn 0.4162 0.4696 0.7786
vn 0.2230 -0.8810 0.4173
vn 0.4513 0.2890 0.8443
vn 0.1374 -0.9566 0.2571
vn 0.4691 0.0975 0.8777
vn 0.0464 0.9951 0.0869
vn 0.0464 -0.9951 0.0869
vn 0.4691 -0.0975 0.8777
vn 0.2563 0.4696 0.8448
vn 0.1374 -0.8810 0.4528
vn 0.2779 0.2890 0.9161
vn 0.0846 -0.9566 0.2790
vn 0.2889 0.0976 0.9524
vn 0.0286 0.9951 0.0942
vn 0.0286 -0.9951 0.0942
vn 0.2889 -0.0976 0.9524
vn 0.2889 -0.0975 0.9524
vn 0.0846 0.9566 0.2790
vn 0.2779 -0.2890 0.9161
vn 0.1374 0.8810 0.4528
vn 0.2563 -0.4696 0.8448
vn 0.1847 0.7715 0.6088
vn 0.2248 -0.6326 0.7412
vn 0.2248 0.6326 0.7412
vn 0.1847 -0.7715 0.6088
vn 0.0938 -0.2890 0.9527
vn 0.0464 0.8810 0.4709
vn 0.0865 -0.4696 0.8786
vn 0.0624 0.7715 0.6332
vn 0.0759 -0.6326 0.7708
vn 0.0759 0.6326 0.7708
vn 0.0624 -0.7715 0.6332
vn 0.0865 0.4696 0.8786
vn 0.0464 -0.8810 0.4709
vn 0.0938 0.2890 0.9527
vn 0.0286 -0.9566 0.2902
vn 0.0975 0.0975 0.9904
vn 0.0097 0.9951 0.0980
vn 0.0097 -0.9951 0.0980
vn 0.0975 -0.0975 0.9904
vn 0.0976 -0.0976 0.9904
vn 0.0286 0.9566 0.2902
vn -0.0464 -0.8810 0.4709
vn -0.0938 0.2890 0.9527
vn -0.0286 -0.9566 0.2902
vn -0.0975 0.0975 0.9904
vn -0.0975 0.0976 0.9904
vn -0.0097 0.9951 0.0980
vn -0.0097 -0.9951 0.0980
vn -0.0975 -0.0975 0.9904
vn -0.0976 -0.0975 0.9904
vn -0.0286 0.9566 0.2902
vn -0.0938 -0.2890 0.9527
vn -0.0464 0.8810 0.4709
vn -0.0865 -0.4696 0.8786
vn -0.0624 0.7715 0.6332
vn -0.0759 -0.6326 0.7708
vn -0.0759 0.6326 0.7708
vn -0.0624 -0.7715 0.6332
vn -0.0865 0.4696 0.8786
vn -0.1374 0.8810 0.4528
vn -0.2563 -0.4696 0.8448
vn -0.1847 0.7715 0.6088
vn -0.2248 -0.6326 0.7412
vn -0.2248 0.6326 0.7412
vn -0.1847 -0.7715 0.6088
vn -0.2563 0.4696 0.8448
vn -0.1374 -0.8810 0.4528
vn -0.2779 0.2890 0.9161
vn -0.0846 -0.9566 0.2790
vn -0.2889 0.0976 0.9524
vn -0.2889 0.0975 0.9524
vn -0.0286 0.9951 0.0942
vn -0.0286 -0.9951 0.0942
vn -0.2889 -0.0976 0.9524
vn -0.0846 0.9566 0.2790
vn -0.2779 -0.2890 0.9161
vn -0.4513 0.2890 0.8443
vn -0.1374 -0.9566 0.2571
vn -0.4691 0.0975 0.8777
vn -0.0464 0.9951 0.0869
vn -0.0464 -0.9951 0.0869
vn -0.4691 -0.0975 0.8777
vn -0.1374 0.9566 0.2571
vn -0.4513 -0.2890 0.8443
vn -0.2230 0.8810 0.4173
vn -0.2231 0.8810 0.4173
vn -0.4162 -0.4696 0.7786
vn -0.2999 0.7715 0.5611
vn -0.3651 -0.6326 0.6831
vn -0.3651 0.6326 0.6831
vn -0.2999 -0.7715 0.5611
vn -0.4162 0.4696 0.7786
vn -0.2231 -0.8810 0.4173
vn -0.2230 -0.8810 0.4173
vn -0.5601 -0.4696 0.6825
vn -0.4036 0.7715 0.4918
vn -0.4913 -0.6326 0.5987
vn -0.4913 0.6326 0.5987
vn -0.4036 -0.7715 0.4918
vn -0.5601 0.4696 0.6825
vn -0.3002 -0.8810 0.3658
vn -0.6073 0.2890 0.7400
vn -0.1850 -0.9565 0.2254
vn -0.1850 -0.9566 0.2254
vn -0.6314 0.0975 0.7693
vn -0.0625 0.9951 0.0761
vn -0.0625 -0.9951 0.0761
vn -0.6314 -0.0975 0.7693
vn -0.1850 0.9565 0.2254
vn -0.1850 0.9566 0.2254
vn -0.6073 -0.2890 0.7400
vn -0.3002 0.8810 0.3658
vn -0.2254 -0.9566 0.1850
vn -0.7693 0.0975 0.6314
vn -0.0761 0.9951 0.0625
vn -0.0761 -0.9951 0.0625
vn -0.7693 -0.0975 0.6314
vn -0.2254 0.9566 0.1850
vn -0.7400 -0.2890 0.6073
vn -0.3658 0.8810 0.3002
vn -0.6825 -0.4696 0.5601
vn -0.4918 0.7715 0.4036
vn -0.5987 -0.6326 0.4913
vn -0.5987 0.6326 0.4913
vn -0.4918 -0.7715 0.4036
vn -0.6825 0.4696 0.5601
vn -0.3658 -0.8810 0.3002
vn -0.7400 0.2890 0.6073
vn -0.6831 -0.6326 0.3651
vn -0.6831 0.6326 0.3651
vn -0.5611 -0.7715 0.2999
vn -0.7786 0.4696 0.4162
vn -0.4173 -0.8810 0.2230
vn -0.8443 0.2890 0.4513
vn -0.2571 -0.9566 0.1374
vn -0.8777 0.0975 0.4691
vn -0.8777 0.0975 0.4692
vn -0.0869 0.9951 0.0464
vn -0.0869 -0.9951 0.0464
vn -0.8777 -0.0975 0.4691
vn -0.2571 0.9566 0.1374
vn -0.8443 -0.2890 0.4513
vn -0.4173 0.8810 0.2230
vn -0.7786 -0.4696 0.4162
vn -0.5611 0.7715 0.2999
vn -0.0942 0.9951 0.0286
vn -0.0942 -0.9951 0.0286
vn -0.9524 -0.0975 0.2889
vn -0.2790 0.9566 0.0846
vn -0.9161 -0.2890 0.2779
vn -0.4528 0.8810 0.1374
vn -0.8448 -0.4696 0.2563
vn -0.6088 0.7715 0.1847
vn -0.7412 -0.6326 0.2248
vn -0.7412 0.6326 0.2248
vn -0.6088 -0.7715 0.1847
vn -0.8448 0.4696 0.2563
vn -0.4528 -0.8810 0.1374
vn -0.9161 0.2890 0.2779
vn -0.2790 -0.9566 0.0846
vn -0.9524 0.0975 0.2889
vn -0.7708 0.6326 0.0759
vn -0.6332 -0.7715 0.0624
vn -0.8786 0.4696 0.0865
vn -0.4709 -0.8810 0.0464
vn -0.9527 0.2890 0.0938
vn -0.2902 -0.9566 0.0286
vn -0.9904 0.0975 0.0976
vn -0.0980 0.9951 0.0097
vn -0.0980 -0.9951 0.0097
vn -0.9904 -0.0975 0.0976
vn -0.2902 0.9566 0.0286
vn -0.9527 -0.2890 0.0938
vn -0.4709 0.8810 0.0464
vn -0.8786 -0.4696 0.0865
vn -0.6332 0.7715 0.0624
vn -0.7708 -0.6326 0.0759
vn -0.9904 -0.0975 -0.0976
vn -0.2902 0.9566 -0.0286
vn -0.9527 -0.2890 -0.0938
vn -0.4709 0.8810 -0.0464
vn -0.8786 -0.4696 -0.0865
vn -0.6332 0.7715 -0.0624
vn -0.7708 -0.6326 -0.0759
vn -0.7708 0.6326 -0.0759
vn -0.6332 -0.7715 -0.0624
vn -0.8786 0.4696 -0.0865
vn -0.4709 -0.8810 -0.0464
vn -0.9527 0.2890 -0.0938
vn -0.2902 -0.9566 -0.0286
vn -0.9904 0.0975 -0.0976
vn -0.0980 0.9951 -0.0096
vn -0.0980 -0.9951 -0.0097
vn -0.6088 -0.7715 -0.1847
vn -0.8448 0.4696 -0.2563
vn -0.4528 -0.8810 -0.1374
vn -0.9161 0.2890 -0.2779
vn -0.2790 -0.9566 -0.0846
vn -0.9524 0.0975 -0.2889
vn -0.0942 0.9951 -0.0286
vn -0.0942 -0.9951 -0.0286
vn -0.9524 -0.0975 -0.2889
vn -0.2790 0.9566 -0.0846
vn -0.9161 -0.2890 -0.2779
vn -0.4528 0.8810 -0.1374
vn -0.8448 -0.4696 -0.2563
vn -0.6088 0.7715 -0.1847
vn -0.7412 -0.6326 -0.2248
vn -0.7412 0.6326 -0.2248
vn -0.2571 0.9566 -0.1374
vn -0.8443 -0.2890 -0.4513
vn -0.4173 0.8810 -0.2231
vn -0.4173 0.8810 -0.2230
vn -0.7786 -0.4696 -0.4162
vn -0.5611 0.7715 -0.2999
vn -0.6831 -0.6326 -0.3651
vn -0.6831 0.6326 -0.3651
vn -0.5611 -0.7715 -0.2999
vn -0.7786 0.4696 -0.4162
vn -0.4173 -0.8810 -0.2231
vn -0.4173 -0.8810 -0.2230
vn -0.8443 0.2890 -0.4513
vn -0.2571 -0.9566 -0.1374
vn -0.8777 0.0975 -0.4691
vn -0.0869 0.9951 -0.0464
vn -0.0869 -0.9951 -0.0464
vn -0.8777 -0.0975 -0.4691
vn -0.6825 0.4696 -0.5601
vn -0.3658 -0.8810 -0.3002
vn -0.7400 0.2890 -0.6073
vn -0.2254 -0.9566 -0.1850
vn -0.7693 0.0975 -0.6314
vn -0.0761 0.9951 -0.0625
vn -0.0761 -0.9951 -0.0625
vn -0.7693 -0.0975 -0.6314
vn -0.2254 0.9566 -0.1850
vn -0.7400 -0.2890 -0.6073
vn -0.3658 0.8810 -0.3002
vn -0.6825 -0.4696 -0.5601
vn -0.4918 0.7715 -0.4036
vn -0.5987 -0.6326 -0.4913
vn -0.5987 0.6326 -0.4913
vn -0.4918 -0.7715 -0.4036
vn -0.6073 -0.2890 -0.7400
vn -0.3002 0.8810 -0.3658
vn -0.5601 -0.4696 -0.6825
vn -0.4036 0.7715 -0.4918
vn -0.4913 -0.6326 -0.5987
vn -0.4913 0.6326 -0.5987
vn -0.4036 -0.7715 -0.4918
vn -0.5601 0.4696 -0.6825
vn -0.3002 -0.8810 -0.3658
vn -0.6073 0.2890 -0.7400
vn -0.1850 -0.9566 -0.2254
vn -0.1850 -0.9565 -0.2254
vn -0.6314 0.0975 -0.7693
vn -0.0625 0.9951 -0.0761
vn -0.0625 -0.9951 -0.0761
vn -0.6314 -0.0975 -0.7693
vn -0.1850 0.9566 -0.2254
vn -0.2230 -0.8810 -0.4173
vn -0.4513 0.2890 -0.8443
vn -0.1374 -0.9566 -0.2571
vn -0.4691 0.0975 -0.8777
vn -0.4692 0.0975 -0.8777
vn -0.0464 0.9951 -0.0869
vn -0.0464 -0.9951 -0.0869
vn -0.4691 -0.0975 -0.8777
vn -0.1374 0.9566 -0.2571
vn -0.4513 -0.2890 -0.8443
vn -0.2230 0.8810 -0.4173
vn -0.4162 -0.4696 -0.7786
vn -0.2999 0.7715 -0.5611
vn -0.3651 -0.6326 -0.6831
vn -0.3651 0.6326 -0.6831
vn -0.2999 -0.7715 -0.5611
vn -0.4162 0.4696 -0.7786
vn -0.2563 -0.4696 -0.8448
vn -0.1847 0.7715 -0.6088
vn -0.2248 -0.6326 -0.7412
vn -0.2248 0.6326 -0.7412
vn -0.1847 -0.7715 -0.6088
vn -0.2563 0.4696 -0.8448
vn -0.1374 -0.8810 -0.4528
vn -0.2779 0.2890 -0.9161
vn -0.0846 -0.9566 -0.2790
vn -0.2889 0.0975 -0.9524
vn -0.0286 0.9951 -0.0942
vn -0.0286 -0.9951 -0.0942
vn -0.2889 -0.0975 -0.9524
vn -0.0846 0.9566 -0.2790
vn -0.2779 -0.2890 -0.9161
vn -0.1374 0.8810 -0.4528
vn -0.0286 -0.9566 -0.2902
vn -0.0976 0.0975 -0.9904
vn -0.0976 0.0976 -0.9904
vn -0.0097 0.9951 -0.0980
vn -0.0097 -0.9951 -0.0980
vn -0.0976 -0.0975 -0.9904
vn -0.0286 0.9566 -0.2902
vn -0.0938 -0.2890 -0.9527
vn -0.0464 0.8810 -0.4709
vn -0.0865 -0.4696 -0.8786
vn -0.0624 0.7715 -0.6332
vn -0.0759 -0.6326 -0.7708
vn -0.0759 0.6326 -0.7708
vn -0.0624 -0.7715 -0.6332
vn -0.0865 0.4696 -0.8786
vn -0.0464 -0.8810 -0.4709
vn -0.0938 0.2890 -0.9527
vn 0.0976 -0.0975 -0.9904
vn 0.2231 -0.8810 -0.4173
vn 0.6314 -0.0976 -0.7693
vn 0.8777 -0.0975 -0.4691
vn 0.9904 -0.0976 -0.0976
vn 0.9904 0.0976 0.0975
vn 0.9904 -0.0975 0.0976
vn 0.8449 0.4696 0.2563
vn 0.2889 0.0975 0.9524
vn 0.0976 0.0976 0.9904
vn -0.0976 0.0975 0.9904
vn -0.0975 -0.0976 0.9904
vn -0.0286 0.9565 0.2902
vn -0.2889 -0.0975 0.9524
vn -0.8777 -0.0975 0.4692
vn -0.4692 -0.0975 -0.8777
vn -0.1374 0.9565 -0.2571
vn -0.0976 -0.0976 -0.9904
vn -0.0286 0.9565 -0.2902
vt 0.750000 0.562500
vt 0.718750 0.625000
vt 0.718750 0.562500
vt 0.750000 0.125000
vt 0.718750 0.062500
vt 0.750000 0.062500
vt 0.718750 0.500000
vt 0.750000 0.500000
vt 0.750000 0.937500
vt 0.734375 1.000000
vt 0.718750 0.937500
vt 0.734375 0.000000
vt 0.718750 0.437500
vt 0.750000 0.437500
vt 0.750000 0.875000
vt 0.718750 0.875000
vt 0.718750 0.375000
vt 0.750000 0.375000
vt 0.750000 0.812500
vt 0.718750 0.812500
vt 0.718750 0.312500
vt 0.750000 0.312500
vt 0.750000 0.750000
vt 0.718750 0.750000
vt 0.718750 0.250000
vt 0.750000 0.250000
vt 0.750000 0.687500
vt 0.718750 0.687500
vt 0.718750 0.187500
vt 0.750000 0.187500
vt 0.750000 0.625000
vt 0.718750 0.125000
vt 0.687500 0.250000
vt 0.687500 0.187500
vt 0.687500 0.625000
vt 0.687500 0.125000
vt 0.687500 0.562500
vt 0.687500 0.062500
vt 0.687500 0.500000
vt 0.703125 1.000000
vt 0.687500 0.937500
vt 0.703125 0.000000
vt 0.687500 0.437500
vt 0.687500 0.875000
vt 0.687500 0.375000
vt 0.687500 0.812500
vt 0.687500 0.312500
vt 0.687500 0.750000
vt 0.687500 0.687500
vt 0.656250 0.375000
vt 0.656250 0.812500
vt 0.656250 0.312500
vt 0.656250 0.750000
vt 0.656250 0.250000
vt 0.656250 0.687500
vt 0.656250 0.187500
vt 0.656250 0.625000
vt 0.656250 0.125000
vt 0.656250 0.562500
vt 0.656250 0.062500
vt 0.656250 0.500000
vt 0.671875 1.000000
vt 0.656250 0.937500
vt 0.671875 0.000000
vt 0.656250 0.437500
vt 0.656250 0.875000
vt 0.625000 0.125000
vt 0.625000 0.625000
vt 0.625000 0.562500
vt 0.625000 0.062500
vt 0.625000 0.500000
vt 0.640625 1.000000
vt 0.625000 0.937500
vt 0.640625 0.000000
vt 0.625000 0.437500
vt 0.625000 0.875000
vt 0.625000 0.375000
vt 0.625000 0.812500
vt 0.625000 0.312500
vt 0.625000 0.750000
vt 0.625000 0.250000
vt 0.625000 0.687500
vt 0.625000 0.187500
vt 0.593750 0.812500
vt 0.593750 0.375000
vt 0.593750 0.312500
vt 0.593750 0.750000
vt 0.593750 0.250000
vt 0.593750 0.687500
vt 0.593750 0.187500
vt 0.593750 0.625000
vt 0.593750 0.125000
vt 0.593750 0.562500
vt 0.593750 0.062500
vt 0.593750 0.500000
vt 0.609375 1.000000
vt 0.593750 0.937500
vt 0.609375 0.000000
vt 0.593750 0.437500
vt 0.593750 0.875000
vt 0.562500 0.625000
vt 0.562500 0.562500
vt 0.562500 0.125000
vt 0.562500 0.062500
vt 0.562500 0.500000
vt 0.578125 1.000000
vt 0.562500 0.937500
vt 0.578125 0.000000
vt 0.562500 0.437500
vt 0.562500 0.875000
vt 0.562500 0.375000
vt 0.562500 0.812500
vt 0.562500 0.312500
vt 0.562500 0.750000
vt 0.562500 0.250000
vt 0.562500 0.687500
vt 0.562500 0.187500
vt 0.531250 0.375000
vt 0.531250 0.312500
vt 0.531250 0.750000
vt 0.531250 0.250000
vt 0.531250 0.687500
vt 0.531250 0.187500
vt 0.531250 0.625000
vt 0.531250 0.125000
vt 0.531250 0.562500
vt 0.531250 0.062500
vt 0.531250 0.500000
vt 0.546875 1.000000
vt 0.531250 0.937500
vt 0.546875 0.000000
vt 0.531250 0.437500
vt 0.531250 0.875000
vt 0.531250 0.812500
vt 0.500000 0.062500
vt 0.500000 0.562500
vt 0.500000 0.500000
vt 0.515625 1.000000
vt 0.500000 0.937500
vt 0.515625 0.000000
vt 0.500000 0.437500
vt 0.500000 0.875000
vt 0.500000 0.375000
vt 0.500000 0.812500
vt 0.500000 0.312500
vt 0.500000 0.750000
vt 0.500000 0.250000
vt 0.500000 0.687500
vt 0.500000 0.187500
vt 0.500000 0.625000
vt 0.500000 0.125000
vt 0.468750 0.750000
vt 0.468750 0.250000
vt 0.468750 0.687500
vt 0.468750 0.187500
vt 0.468750 0.625000
vt 0.468750 0.125000
vt 0.468750 0.562500
vt 0.468750 0.062500
vt 0.468750 0.500000
vt 0.484375 1.000000
vt 0.468750 0.937500
vt 0.484375 0.000000
vt 0.468750 0.437500
vt 0.468750 0.875000
vt 0.468750 0.375000
vt 0.468750 0.812500
vt 0.468750 0.312500
vt 0.437500 0.562500
vt 0.437500 0.500000
vt 0.453125 1.000000
vt 0.437500 0.937500
vt 0.453125 0.000000
vt 0.437500 0.062500
vt 0.437500 0.437500
vt 0.437500 0.875000
vt 0.437500 0.375000
vt 0.437500 0.812500
vt 0.437500 0.312500
vt 0.437500 0.750000
vt 0.437500 0.250000
vt 0.437500 0.687500
vt 0.437500 0.187500
vt 0.437500 0.625000
vt 0.437500 0.125000
vt 0.406250 0.250000
vt 0.406250 0.750000
vt 0.406250 0.687500
vt 0.406250 0.187500
vt 0.406250 0.625000
vt 0.406250 0.125000
vt 0.406250 0.562500
vt 0.406250 0.062500
vt 0.406250 0.500000
vt 0.421875 1.000000
vt 0.406250 0.937500
vt 0.421875 0.000000
vt 0.406250 0.437500
vt 0.406250 0.875000
vt 0.406250 0.375000
vt 0.406250 0.812500
vt 0.406250 0.312500
vt 0.390625 0.000000
vt 0.375000 0.062500
vt 0.375000 0.437500
vt 0.375000 0.875000
vt 0.375000 0.375000
vt 0.375000 0.812500
vt 0.375000 0.312500
vt 0.375000 0.750000
vt 0.375000 0.250000
vt 0.375000 0.687500
vt 0.375000 0.187500
vt 0.375000 0.625000
vt 0.375000 0.125000
vt 0.375000 0.562500
vt 0.375000 0.500000
vt 0.390625 1.000000
vt 0.375000 0.937500
vt 0.343750 0.250000
vt 0.343750 0.187500
vt 0.343750 0.625000
vt 0.343750 0.125000
vt 0.343750 0.562500
vt 0.343750 0.062500
vt 0.343750 0.500000
vt 0.359375 1.000000
vt 0.343750 0.937500
vt 0.359375 0.000000
vt 0.343750 0.437500
vt 0.343750 0.875000
vt 0.343750 0.375000
vt 0.343750 0.812500
vt 0.343750 0.312500
vt 0.343750 0.750000
vt 0.343750 0.687500
vt 0.312500 0.875000
vt 0.312500 0.375000
vt 0.312500 0.812500
vt 0.312500 0.312500
vt 0.312500 0.750000
vt 0.312500 0.250000
vt 0.312500 0.687500
vt 0.312500 0.187500
vt 0.312500 0.625000
vt 0.312500 0.125000
vt 0.312500 0.562500
vt 0.312500 0.062500
vt 0.312500 0.500000
vt 0.328125 1.000000
vt 0.312500 0.937500
vt 0.328125 0.000000
vt 0.312500 0.437500
vt 0.281250 0.625000
vt 0.281250 0.125000
vt 0.281250 0.562500
vt 0.281250 0.062500
vt 0.281250 0.500000
vt 0.296875 1.000000
vt 0.281250 0.937500
vt 0.296875 0.000000
vt 0.281250 0.437500
vt 0.281250 0.875000
vt 0.281250 0.375000
vt 0.281250 0.812500
vt 0.281250 0.312500
vt 0.281250 0.750000
vt 0.281250 0.250000
vt 0.281250 0.687500
vt 0.281250 0.187500
vt 0.250000 0.375000
vt 0.250000 0.875000
vt 0.250000 0.812500
vt 0.250000 0.312500
vt 0.250000 0.750000
vt 0.250000 0.250000
vt 0.250000 0.687500
vt 0.250000 0.187500
vt 0.250000 0.625000
vt 0.250000 0.125000
vt 0.250000 0.562500
vt 0.250000 0.062500
vt 0.250000 0.500000
vt 0.265625 1.000000
vt 0.250000 0.937500
vt 0.265625 0.000000
vt 0.250000 0.437500
vt 0.218750 0.125000
vt 0.218750 0.625000
vt 0.218750 0.562500
vt 0.218750 0.062500
vt 0.218750 0.500000
vt 0.234375 1.000000
vt 0.218750 0.937500
vt 0.234375 0.000000
vt 0.218750 0.437500
vt 0.218750 0.875000
vt 0.218750 0.375000
vt 0.218750 0.812500
vt 0.218750 0.312500
vt 0.218750 0.750000
vt 0.218750 0.250000
vt 0.218750 0.687500
vt 0.218750 0.187500
vt 0.187500 0.812500
vt 0.187500 0.375000
vt 0.187500 0.312500
vt 0.187500 0.750000
vt 0.187500 0.250000
vt 0.187500 0.687500
vt 0.187500 0.187500
vt 0.187500 0.625000
vt 0.187500 0.125000
vt 0.187500 0.562500
vt 0.187500 0.062500
vt 0.187500 0.500000
vt 0.203125 1.000000
vt 0.187500 0.937500
vt 0.203125 0.000000
vt 0.187500 0.437500
vt 0.187500 0.875000
vt 0.156250 0.625000
vt 0.156250 0.562500
vt 0.156250 0.125000
vt 0.156250 0.062500
vt 0.156250 0.500000
vt 0.171875 1.000000
vt 0.156250 0.937500
vt 0.171875 0.000000
vt 0.156250 0.437500
vt 0.156250 0.875000
vt 0.156250 0.375000
vt 0.156250 0.812500
vt 0.156250 0.312500
vt 0.156250 0.750000
vt 0.156250 0.250000
vt 0.156250 0.687500
vt 0.156250 0.187500
vt 0.125000 0.375000
vt 0.125000 0.312500
vt 0.125000 0.750000
vt 0.125000 0.250000
vt 0.125000 0.687500
vt 0.125000 0.187500
vt 0.125000 0.625000
vt 0.125000 0.125000
vt 0.125000 0.562500
vt 0.125000 0.062500
vt 0.125000 0.500000
vt 0.140625 1.000000
vt 0.125000 0.937500
vt 0.140625 0.000000
vt 0.125000 0.437500
vt 0.125000 0.875000
vt 0.125000 0.812500
vt 0.093750 0.062500
vt 0.093750 0.562500
vt 0.093750 0.500000
vt 0.109375 1.000000
vt 0.093750 0.937500
vt 0.109375 0.000000
vt 0.093750 0.437500
vt 0.093750 0.875000
vt 0.093750 0.375000
vt 0.093750 0.812500
vt 0.093750 0.312500
vt 0.093750 0.750000
vt 0.093750 0.250000
vt 0.093750 0.687500
vt 0.093750 0.187500
vt 0.093750 0.625000
vt 0.093750 0.125000
vt 0.062500 0.250000
vt 0.062500 0.687500
vt 0.062500 0.187500
vt 0.062500 0.625000
vt 0.062500 0.125000
vt 0.062500 0.562500
vt 0.062500 0.062500
vt 0.062500 0.500000
vt 0.078125 1.000000
vt 0.062500 0.937500
vt 0.078125 0.000000
vt 0.062500 0.437500
vt 0.062500 0.875000
vt 0.062500 0.375000
vt 0.062500 0.812500
vt 0.062500 0.312500
vt 0.062500 0.750000
vt 0.046875 1.000000
vt 0.031250 0.937500
vt 0.046875 0.000000
vt 0.031250 0.062500
vt 0.031250 0.437500
vt 0.031250 0.875000
vt 0.031250 0.375000
vt 0.031250 0.812500
vt 0.031250 0.312500
vt 0.031250 0.750000
vt 0.031250 0.250000
vt 0.031250 0.687500
vt 0.031250 0.187500
vt 0.031250 0.625000
vt 0.031250 0.125000
vt 0.031250 0.562500
vt 0.031250 0.500000
vt 0.000000 0.750000
vt 0.000000 0.687500
vt 0.000000 0.250000
vt 0.000000 0.187500
vt 0.000000 0.625000
vt 0.000000 0.125000
vt 0.000000 0.562500
vt 0.000000 0.062500
vt 0.000000 0.500000
vt 0.015625 1.000000
vt 0.000000 0.937500
vt 0.015625 0.000000
vt 0.000000 0.437500
vt 0.000000 0.875000
vt 0.000000 0.375000
vt 0.000000 0.812500
vt 0.000000 0.312500
vt 1.000000 0.500000
vt 0.968750 0.437500
vt 1.000000 0.437500
vt 1.000000 0.937500
vt 0.968750 0.875000
vt 1.000000 0.875000
vt 0.968750 0.375000
vt 1.000000 0.375000
vt 1.000000 0.812500
vt 0.968750 0.812500
vt 1.000000 0.312500
vt 0.968750 0.312500
vt 0.968750 0.750000
vt 1.000000 0.750000
vt 0.968750 0.250000
vt 1.000000 0.250000
vt 1.000000 0.687500
vt 0.968750 0.687500
vt 1.000000 0.187500
vt 0.968750 0.187500
vt 0.968750 0.625000
vt 1.000000 0.625000
vt 0.968750 0.125000
vt 1.000000 0.125000
vt 1.000000 0.562500
vt 0.968750 0.562500
vt 0.968750 0.062500
vt 1.000000 0.062500
vt 0.968750 0.500000
vt 0.984375 1.000000
vt 0.968750 0.937500
vt 0.984375 0.000000
vt 0.937500 0.250000
vt 0.937500 0.187500
vt 0.937500 0.625000
vt 0.937500 0.125000
vt 0.937500 0.562500
vt 0.937500 0.062500
vt 0.937500 0.500000
vt 0.953125 1.000000
vt 0.937500 0.937500
vt 0.953125 0.000000
vt 0.937500 0.437500
vt 0.937500 0.875000
vt 0.937500 0.375000
vt 0.937500 0.812500
vt 0.937500 0.312500
vt 0.937500 0.750000
vt 0.937500 0.687500
vt 0.906250 0.937500
vt 0.906250 0.875000
vt 0.906250 0.375000
vt 0.906250 0.812500
vt 0.906250 0.312500
vt 0.906250 0.750000
vt 0.906250 0.250000
vt 0.906250 0.687500
vt 0.906250 0.187500
vt 0.906250 0.625000
vt 0.906250 0.125000
vt 0.906250 0.562500
vt 0.906250 0.062500
vt 0.906250 0.500000
vt 0.921875 1.000000
vt 0.921875 0.000000
vt 0.906250 0.437500
vt 0.875000 0.625000
vt 0.875000 0.125000
vt 0.875000 0.562500
vt 0.875000 0.062500
vt 0.875000 0.500000
vt 0.890625 1.000000
vt 0.875000 0.937500
vt 0.890625 0.000000
vt 0.875000 0.437500
vt 0.875000 0.875000
vt 0.875000 0.375000
vt 0.875000 0.812500
vt 0.875000 0.312500
vt 0.875000 0.750000
vt 0.875000 0.250000
vt 0.875000 0.687500
vt 0.875000 0.187500
vt 0.843750 0.375000
vt 0.843750 0.875000
vt 0.843750 0.812500
vt 0.843750 0.312500
vt 0.843750 0.750000
vt 0.843750 0.250000
vt 0.843750 0.687500
vt 0.843750 0.187500
vt 0.843750 0.625000
vt 0.843750 0.125000
vt 0.843750 0.562500
vt 0.843750 0.062500
vt 0.843750 0.500000
vt 0.859375 1.000000
vt 0.843750 0.937500
vt 0.859375 0.000000
vt 0.843750 0.437500
vt 0.812500 0.125000
vt 0.812500 0.625000
vt 0.812500 0.562500
vt 0.812500 0.062500
vt 0.812500 0.500000
vt 0.828125 1.000000
vt 0.812500 0.937500
vt 0.828125 0.000000
vt 0.812500 0.437500
vt 0.812500 0.875000
vt 0.812500 0.375000
vt 0.812500 0.812500
vt 0.812500 0.312500
vt 0.812500 0.750000
vt 0.812500 0.250000
vt 0.812500 0.687500
vt 0.812500 0.187500
vt 0.781250 0.375000
vt 0.781250 0.312500
vt 0.781250 0.750000
vt 0.781250 0.250000
vt 0.781250 0.687500
vt 0.781250 0.187500
vt 0.781250 0.625000
vt 0.781250 0.125000
vt 0.781250 0.562500
vt 0.781250 0.062500
vt 0.781250 0.500000
vt 0.796875 1.000000
vt 0.781250 0.937500
vt 0.796875 0.000000
vt 0.781250 0.437500
vt 0.781250 0.875000
vt 0.781250 0.812500
vt 0.765625 1.000000
vt 0.765625 0.000000
s 1
usemtl マテリアル
f 4/1/1 14/2/1 15/3/1
f 481/4/2 23/5/2 482/6/2
f 4/1/3 16/7/3 5/8/4
f 474/9/5 1/10/5 9/11/5
f 8/12/6 482/6/6 23/5/6
f 5/8/7 17/13/7 6/14/8
f 475/15/9 9/11/9 10/16/9
f 6/14/10 18/17/10 478/18/10
f 2/19/11 10/16/11 11/20/11
f 478/18/12 19/21/12 7/22/12
f 476/23/13 11/20/13 12/24/13
f 7/22/14 20/25/14 479/26/14
f 3/27/15 12/24/15 13/28/15
f 479/26/16 21/29/16 480/30/16
f 477/31/17 13/28/17 14/2/17
f 480/30/18 22/32/18 481/4/18
f 21/29/19 35/33/19 36/34/19
f 13/28/20 29/35/21 14/2/21
f 22/32/22 36/34/22 37/36/22
f 15/3/23 29/35/23 30/37/23
f 22/32/24 38/38/24 23/5/24
f 15/3/25 31/39/25 16/7/25
f 9/11/26 1/40/26 24/41/26
f 8/42/27 23/5/27 38/38/27
f 16/7/28 32/43/28 17/13/28
f 9/11/29 25/44/29 10/16/29
f 17/13/30 33/45/30 18/17/30
f 10/16/31 26/46/31 11/20/31
f 18/17/32 34/47/32 19/21/33
f 11/20/34 27/48/34 12/24/34
f 19/21/35 35/33/35 20/25/35
f 12/24/36 28/49/36 13/28/36
f 32/43/37 48/50/37 33/45/37
f 25/44/38 41/51/38 26/46/39
f 34/47/40 48/50/40 49/52/40
f 26/46/41 42/53/41 27/48/41
f 35/33/42 49/52/42 50/54/42
f 27/48/43 43/55/43 28/49/43
f 36/34/44 50/54/44 51/56/44
f 28/49/45 44/57/45 29/35/45
f 36/34/46 52/58/46 37/36/46
f 29/35/47 45/59/47 30/37/47
f 37/36/48 53/60/48 38/38/48
f 30/37/49 46/61/49 31/39/49
f 24/41/50 1/62/50 39/63/50
f 8/64/51 38/38/51 53/60/51
f 32/43/52 46/61/52 47/65/52
f 24/41/53 40/66/53 25/44/53
f 51/56/54 67/67/54 52/58/54
f 45/59/55 59/68/55 60/69/55
f 52/58/56 68/70/56 53/60/56
f 46/61/57 60/69/57 61/71/58
f 39/63/59 1/72/59 54/73/59
f 8/74/60 53/60/60 68/70/60
f 46/61/61 62/75/61 47/65/61
f 39/63/62 55/76/63 40/66/63
f 47/65/64 63/77/64 48/50/64
f 40/66/65 56/78/65 41/51/65
f 49/52/66 63/77/66 64/79/66
f 41/51/67 57/80/67 42/53/67
f 49/52/68 65/81/68 50/54/68
f 42/53/69 58/82/69 43/55/69
f 50/54/70 66/83/70 51/56/70
f 43/55/71 59/68/71 44/57/71
f 55/76/72 71/84/72 56/78/72
f 64/79/73 78/85/73 79/86/73
f 56/78/74 72/87/74 57/80/74
f 64/79/75 80/88/75 65/81/75
f 58/82/76 72/87/76 73/89/76
f 65/81/77 81/90/77 66/83/77
f 58/82/78 74/91/78 59/68/78
f 67/67/79 81/90/79 82/92/79
f 60/69/80 74/91/80 75/93/80
f 67/67/81 83/94/81 68/70/81
f 61/71/82 75/93/82 76/95/82
f 54/73/83 1/96/83 69/97/83
f 8/98/84 68/70/84 83/94/84
f 61/71/85 77/99/85 62/75/85
f 54/73/86 70/100/86 55/76/86
f 62/75/87 78/85/87 63/77/87
f 75/93/88 89/101/88 90/102/88
f 83/94/89 97/103/89 98/104/89
f 76/95/90 90/102/90 91/105/91
f 69/97/92 1/106/92 84/107/92
f 8/108/93 83/94/93 98/104/93
f 76/95/94 92/109/94 77/99/94
f 69/97/95 85/110/95 70/100/95
f 77/99/96 93/111/96 78/85/96
f 70/100/97 86/112/97 71/84/97
f 79/86/98 93/111/98 94/113/98
f 71/84/99 87/114/99 72/87/99
f 79/86/100 95/115/100 80/88/100
f 73/89/101 87/114/101 88/116/101
f 80/88/102 96/117/102 81/90/102
f 73/89/103 89/101/103 74/91/103
f 81/90/104 97/103/104 82/92/104
f 94/113/105 108/118/105 109/119/105
f 86/112/106 102/120/106 87/114/106
f 94/113/107 110/121/107 95/115/107
f 88/116/108 102/120/108 103/122/108
f 96/117/109 110/121/109 111/123/109
f 88/116/110 104/124/110 89/101/110
f 97/103/111 111/123/111 112/125/111
f 90/102/112 104/124/112 105/126/112
f 97/103/113 113/127/113 98/104/113
f 91/105/114 105/126/114 106/128/114
f 84/107/115 1/129/115 99/130/115
f 8/131/116 98/104/116 113/127/116
f 91/105/117 107/132/117 92/109/117
f 85/110/118 99/130/118 100/133/118
f 92/109/119 108/118/119 93/111/119
f 85/110/120 101/134/120 86/112/120
f 112/125/121 128/135/121 113/127/121
f 106/128/122 120/136/122 121/137/123
f 99/130/124 1/138/124 114/139/124
f 8/140/125 113/127/125 128/135/125
f 106/128/126 122/141/126 107/132/126
f 100/133/127 114/139/127 115/142/127
f 107/132/128 123/143/128 108/118/128
f 100/133/129 116/144/129 101/134/129
f 109/119/130 123/143/130 124/145/130
f 101/134/131 117/146/131 102/120/131
f 109/119/132 125/147/132 110/121/132
f 103/122/133 117/146/133 118/148/133
f 111/123/134 125/147/134 126/149/134
f 103/122/135 119/150/135 104/124/135
f 111/123/136 127/151/136 112/125/136
f 105/126/137 119/150/137 120/136/137
f 116/144/138 132/152/138 117/146/138
f 124/145/139 140/153/139 125/147/139
f 118/148/140 132/152/140 133/154/140
f 126/149/141 140/153/141 141/155/141
f 118/148/142 134/156/142 119/150/142
f 126/149/143 142/157/143 127/151/143
f 120/136/144 134/156/144 135/158/144
f 127/151/145 143/159/145 128/135/145
f 121/137/146 135/158/146 136/160/147
f 114/139/148 1/161/148 129/162/148
f 8/163/149 128/135/149 143/159/149
f 121/137/150 137/164/150 122/141/151
f 114/139/152 130/165/152 115/142/152
f 122/141/153 138/166/153 123/143/153
f 115/142/154 131/167/154 116/144/154
f 124/145/155 138/166/155 139/168/155
f 136/160/156 150/169/156 151/170/156
f 129/162/157 1/171/157 144/172/157
f 8/173/158 143/159/158 158/174/158
f 136/160/159 152/175/159 137/164/159
f 129/162/160 145/176/160 130/165/160
f 137/164/161 153/177/161 138/166/161
f 131/167/162 145/176/162 146/178/162
f 139/168/163 153/177/163 154/179/164
f 131/167/165 147/180/165 132/152/165
f 139/168/166 155/181/166 140/153/166
f 133/154/167 147/180/167 148/182/167
f 141/155/168 155/181/168 156/183/168
f 133/154/169 149/184/169 134/156/169
f 141/155/170 157/185/170 142/157/170
f 135/158/171 149/184/171 150/169/171
f 143/159/172 157/185/172 158/174/172
f 154/179/173 170/186/173 155/181/173
f 148/182/174 162/187/174 163/188/174
f 156/183/175 170/186/175 171/189/175
f 148/182/176 164/190/176 149/184/176
f 156/183/177 172/191/178 157/185/178
f 150/169/179 164/190/179 165/192/179
f 157/185/180 173/193/180 158/174/180
f 151/170/181 165/192/181 166/194/181
f 144/172/182 1/195/182 159/196/182
f 8/197/183 158/174/183 173/193/183
f 151/170/184 167/198/184 152/175/184
f 144/172/185 160/199/185 145/176/185
f 152/175/186 168/200/186 153/177/186
f 146/178/187 160/199/188 161/201/187
f 154/179/189 168/200/189 169/202/189
f 146/178/190 162/187/190 147/180/190
f 8/203/191 173/193/191 188/204/191
f 166/194/192 182/205/192 167/198/192
f 159/196/193 175/206/193 160/199/193
f 167/198/194 183/207/194 168/200/194
f 160/199/195 176/208/195 161/201/195
f 169/202/196 183/207/196 184/209/196
f 161/201/197 177/210/197 162/187/197
f 169/202/198 185/211/198 170/186/198
f 163/188/199 177/210/199 178/212/199
f 170/186/200 186/213/200 171/189/200
f 163/188/201 179/214/201 164/190/201
f 172/191/202 186/213/202 187/215/202
f 165/192/203 179/214/203 180/216/203
f 173/193/204 187/215/204 188/204/204
f 166/194/205 180/216/205 181/217/205
f 159/196/206 1/218/206 174/219/206
f 186/213/207 200/220/207 201/221/207
f 178/212/208 194/222/208 179/214/208
f 186/213/209 202/223/209 187/215/209
f 180/216/210 194/222/210 195/224/210
f 187/215/211 203/225/212 188/204/212
f 181/217/213 195/224/213 196/226/213
f 174/219/214 1/227/214 189/228/214
f 8/229/215 188/204/215 203/225/215
f 181/217/216 197/230/216 182/205/216
f 175/206/217 189/228/218 190/231/217
f 182/205/219 198/232/219 183/207/219
f 176/208/220 190/231/220 191/233/220
f 184/209/221 198/232/221 199/234/221
f 176/208/222 192/235/222 177/210/222
f 184/209/223 200/220/223 185/211/223
f 178/212/224 192/235/224 193/236/224
f 189/228/225 205/237/225 190/231/225
f 197/230/226 213/238/226 198/232/226
f 190/231/227 206/239/227 191/233/227
f 199/234/228 213/238/228 214/240/228
f 191/233/229 207/241/229 192/235/229
f 199/234/230 215/242/230 200/220/230
f 193/236/231 207/241/231 208/243/231
f 201/221/232 215/242/232 216/244/232
f 193/236/233 209/245/233 194/222/233
f 201/221/234 217/246/234 202/223/234
f 195/224/235 209/245/235 210/247/235
f 202/223/236 218/248/236 203/225/236
f 196/226/237 210/247/237 211/249/237
f 189/228/238 1/250/238 204/251/238
f 8/252/239 203/225/239 218/248/239
f 196/226/240 212/253/240 197/230/240
f 208/243/241 224/254/241 209/245/241
f 216/244/242 232/255/242 217/246/242
f 210/247/243 224/254/243 225/256/243
f 217/246/244 233/257/244 218/248/244
f 211/249/245 225/256/245 226/258/245
f 204/251/246 1/259/246 219/260/246
f 8/261/247 218/248/247 233/257/247
f 211/249/248 227/262/248 212/253/249
f 204/251/250 220/263/250 205/237/250
f 212/253/251 228/264/251 213/238/251
f 205/237/252 221/265/252 206/239/252
f 214/240/253 228/264/253 229/266/253
f 206/239/254 222/267/254 207/241/254
f 214/240/255 230/268/255 215/242/255
f 208/243/256 222/267/256 223/269/256
f 216/244/257 230/268/257 231/270/257
f 227/262/258 243/271/258 228/264/258
f 221/265/259 235/272/259 236/273/259
f 229/266/260 243/271/260 244/274/260
f 221/265/261 237/275/261 222/267/261
f 229/266/262 245/276/262 230/268/262
f 223/269/263 237/275/263 238/277/263
f 231/270/264 245/276/264 246/278/264
f 223/269/265 239/279/265 224/254/265
f 231/270/266 247/280/266 232/255/266
f 225/256/267 239/279/267 240/281/267
f 233/257/268 247/280/268 248/282/268
f 226/258/269 240/281/269 241/283/269
f 219/260/270 1/284/270 234/285/270
f 8/286/271 233/257/271 248/282/271
f 226/258/272 242/287/272 227/262/273
f 219/260/274 235/272/274 220/263/274
f 246/278/275 262/288/275 247/280/275
f 240/281/276 254/289/276 255/290/276
f 247/280/277 263/291/277 248/282/277
f 241/283/278 255/290/278 256/292/279
f 234/285/280 1/293/280 249/294/280
f 8/295/281 248/282/281 263/291/281
f 241/283/282 257/296/282 242/287/283
f 234/285/284 250/297/284 235/272/284
f 242/287/285 258/298/285 243/271/285
f 235/272/286 251/299/286 236/273/286
f 244/274/287 258/298/287 259/300/287
f 236/273/288 252/301/288 237/275/288
f 244/274/289 260/302/289 245/276/289
f 238/277/290 252/301/290 253/303/290
f 246/278/291 260/302/291 261/304/291
f 238/277/292 254/289/292 239/279/292
f 250/297/293 266/305/293 251/299/293
f 259/300/294 273/306/294 274/307/294
f 251/299/295 267/308/295 252/301/295
f 259/300/296 275/309/296 260/302/296
f 253/303/297 267/308/297 268/310/297
f 261/304/298 275/309/298 276/311/298
f 253/303/299 269/312/299 254/289/299
f 261/304/300 277/313/300 262/288/300
f 255/290/301 269/312/301 270/314/301
f 262/288/302 278/315/302 263/291/302
f 256/292/303 270/314/303 271/316/304
f 249/294/305 1/317/305 264/318/305
f 8/319/306 263/291/306 278/315/306
f 256/292/307 272/320/307 257/296/307
f 250/297/308 264/318/308 265/321/308
f 257/296/309 273/306/309 258/298/309
f 270/314/310 284/322/310 285/323/310
f 278/315/311 292/324/311 293/325/311
f 271/316/312 285/323/312 286/326/312
f 264/318/313 1/327/313 279/328/313
f 8/329/314 278/315/314 293/325/314
f 271/316/315 287/330/315 272/320/315
f 265/321/316 279/328/316 280/331/316
f 272/320/317 288/332/317 273/306/317
f 265/321/318 281/333/319 266/305/319
f 274/307/320 288/332/320 289/334/320
f 266/305/321 282/335/321 267/308/321
f 274/307/322 290/336/322 275/309/322
f 268/310/323 282/335/323 283/337/323
f 276/311/324 290/336/324 291/338/324
f 268/310/325 284/322/325 269/312/325
f 276/311/326 292/324/327 277/313/327
f 289/334/328 303/339/328 304/340/328
f 281/333/329 297/341/329 282/335/329
f 289/334/330 305/342/330 290/336/330
f 283/337/331 297/341/331 298/343/331
f 291/338/332 305/342/332 306/344/332
f 283/337/333 299/345/333 284/322/333
f 291/338/334 307/346/334 292/324/334
f 285/323/335 299/345/335 300/347/335
f 293/325/336 307/346/337 308/348/336
f 286/326/338 300/347/338 301/349/338
f 279/328/339 1/350/339 294/351/339
f 8/352/340 293/325/340 308/348/340
f 286/326/341 302/353/341 287/330/341
f 279/328/342 295/354/343 280/331/343
f 287/330/344 303/339/344 288/332/344
f 280/331/345 296/355/345 281/333/345
f 307/346/346 323/356/346 308/348/346
f 301/349/347 315/357/347 316/358/347
f 294/351/348 1/359/348 309/360/348
f 8/361/349 308/348/349 323/356/349
f 301/349/350 317/362/350 302/353/350
f 294/351/351 310/363/351 295/354/351
f 302/353/352 318/364/352 303/339/352
f 295/354/353 311/365/353 296/355/353
f 304/340/354 318/364/354 319/366/354
f 296/355/355 312/367/355 297/341/355
f 304/340/356 320/368/356 305/342/356
f 298/343/357 312/367/357 313/369/357
f 306/344/358 320/368/358 321/370/358
f 298/343/359 314/371/359 299/345/359
f 306/344/360 322/372/360 307/346/360
f 300/347/361 314/371/361 315/357/361
f 319/366/362 335/373/362 320/368/362
f 312/367/363 328/374/363 313/369/363
f 321/370/364 335/373/364 336/375/364
f 313/369/365 329/376/365 314/371/365
f 321/370/366 337/377/366 322/372/366
f 315/357/367 329/376/367 330/378/367
f 322/372/368 338/379/368 323/356/368
f 316/358/369 330/378/369 331/380/370
f 309/360/371 1/381/371 324/382/371
f 8/383/372 323/356/372 338/379/372
f 316/358/373 332/384/373 317/362/373
f 309/360/374 325/385/374 310/363/374
f 317/362/375 333/386/375 318/364/375
f 310/363/376 326/387/376 311/365/376
f 319/366/377 333/386/377 334/388/377
f 311/365/378 327/389/378 312/367/378
f 324/382/379 1/390/379 339/391/379
f 8/392/380 338/379/380 353/393/380
f 331/380/381 347/394/381 332/384/381
f 324/382/382 340/395/382 325/385/382
f 332/384/383 348/396/383 333/386/383
f 325/385/384 341/397/384 326/387/384
f 334/388/385 348/396/385 349/398/385
f 326/387/386 342/399/386 327/389/386
f 334/388/387 350/400/387 335/373/387
f 328/374/388 342/399/388 343/401/388
f 336/375/389 350/400/389 351/402/389
f 328/374/390 344/403/390 329/376/390
f 336/375/391 352/404/391 337/377/391
f 330/378/392 344/403/392 345/405/392
f 337/377/393 353/393/393 338/379/393
f 331/380/394 345/405/394 346/406/394
f 343/401/395 357/407/395 358/408/395
f 351/402/396 365/409/396 366/410/396
f 343/401/397 359/411/397 344/403/397
f 351/402/398 367/412/398 352/404/398
f 345/405/399 359/411/399 360/413/399
f 352/404/400 368/414/400 353/393/400
f 346/406/401 360/413/401 361/415/401
f 339/391/402 1/416/402 354/417/402
f 8/418/403 353/393/403 368/414/403
f 346/406/404 362/419/404 347/394/404
f 339/391/405 355/420/405 340/395/405
f 347/394/406 363/421/406 348/396/406
f 341/397/407 355/420/407 356/422/407
f 349/398/408 363/421/408 364/423/408
f 341/397/409 357/407/409 342/399/409
f 349/398/410 365/409/410 350/400/410
f 361/424/411 377/425/411 362/426/411
f 354/427/412 370/428/412 355/429/412
f 362/426/413 378/430/413 363/431/413
f 356/432/414 370/428/414 371/433/414
f 364/434/415 378/430/415 379/435/415
f 356/432/416 372/436/416 357/437/416
f 364/434/417 380/438/417 365/439/417
f 358/440/418 372/436/418 373/441/418
f 366/442/419 380/438/419 381/443/419
f 358/440/420 374/444/420 359/445/420
f 366/442/421 382/446/421 367/447/421
f 360/448/422 374/444/422 375/449/422
f 367/447/423 383/450/423 368/451/423
f 361/424/424 375/449/424 376/452/424
f 354/427/425 1/453/425 369/454/425
f 8/455/426 368/451/426 383/450/426
f 381/443/427 395/456/427 396/457/427
f 373/441/428 389/458/428 374/444/428
f 381/443/429 397/459/429 382/446/429
f 375/449/430 389/458/430 390/460/430
f 382/446/431 398/461/431 383/450/431
f 376/452/432 390/460/432 391/462/432
f 369/454/433 1/463/433 384/464/433
f 8/465/434 383/450/434 398/461/434
f 376/452/435 392/466/435 377/425/435
f 369/454/436 385/467/436 370/428/436
f 377/425/437 393/468/437 378/430/437
f 371/433/438 385/467/438 386/469/438
f 379/435/439 393/468/439 394/470/439
f 371/433/440 387/471/440 372/436/440
f 379/435/441 395/456/441 380/438/441
f 373/441/442 387/471/442 388/472/442
f 385/467/443 399/473/443 400/474/443
f 392/466/444 408/475/444 393/468/444
f 385/467/445 401/476/446 386/469/446
f 394/470/447 408/475/447 409/477/447
f 386/469/448 402/478/448 387/471/448
f 394/470/449 410/479/449 395/456/449
f 388/472/450 402/478/450 403/480/450
f 396/457/451 410/479/451 411/481/451
f 388/472/452 404/482/452 389/458/452
f 397/459/453 411/481/454 412/483/453
f 390/460/455 404/482/455 405/484/455
f 397/459/456 413/485/456 398/461/456
f 391/462/457 405/484/457 406/486/457
f 384/464/458 1/487/458 399/473/458
f 8/488/459 398/461/459 413/485/459
f 391/462/460 407/489/460 392/466/460
f 403/480/461 419/490/461 404/482/461
f 411/481/462 427/491/462 412/483/462
f 405/484/463 419/490/463 420/492/463
f 412/483/464 428/493/464 413/485/464
f 406/486/465 420/492/465 421/494/465
f 399/473/466 1/495/466 414/496/466
f 8/497/467 413/485/467 428/493/467
f 406/486/468 422/498/468 407/489/468
f 399/473/469 415/499/469 400/474/469
f 407/489/470 423/500/470 408/475/470
f 401/476/471 415/499/471 416/501/471
f 409/477/472 423/500/472 424/502/472
f 401/476/473 417/503/473 402/478/473
f 409/477/474 425/504/474 410/479/474
f 403/480/475 417/503/475 418/505/475
f 411/481/476 425/504/476 426/506/476
f 422/498/477 438/507/477 423/500/477
f 416/501/478 430/508/478 431/509/478
f 424/502/479 438/507/479 439/510/479
f 416/501/480 432/511/480 417/503/480
f 424/502/481 440/512/481 425/504/481
f 418/505/482 432/511/482 433/513/482
f 426/506/483 440/512/483 441/514/483
f 418/505/484 434/515/484 419/490/484
f 426/506/485 442/516/485 427/491/485
f 420/492/486 434/515/486 435/517/486
f 427/491/487 443/518/488 428/493/488
f 421/494/489 435/517/489 436/519/489
f 414/496/490 1/520/490 429/521/490
f 8/522/491 428/493/491 443/518/491
f 421/494/492 437/523/492 422/498/492
f 414/496/493 430/508/493 415/499/493
f 441/514/494 457/524/494 442/516/494
f 435/517/495 449/525/495 450/526/495
f 442/516/496 458/527/496 443/518/496
f 436/519/497 450/526/497 451/528/498
f 429/521/499 1/529/499 444/530/499
f 8/531/500 443/518/500 458/527/500
f 436/519/501 452/532/501 437/523/501
f 430/508/502 444/530/502 445/533/502
f 437/523/503 453/534/503 438/507/503
f 430/508/504 446/535/504 431/509/504
f 439/510/505 453/534/505 454/536/505
f 431/509/506 447/537/506 432/511/506
f 439/510/507 455/538/507 440/512/507
f 433/513/508 447/537/508 448/539/508
f 441/514/509 455/538/509 456/540/509
f 433/513/510 449/525/510 434/515/510
f 454/536/511 468/541/511 469/542/511
f 446/535/512 462/543/512 447/537/512
f 454/536/513 470/544/513 455/538/513
f 448/539/514 462/543/514 463/545/514
f 456/540/515 470/544/515 471/546/515
f 448/539/516 464/547/516 449/525/516
f 456/540/517 472/548/517 457/524/517
f 450/526/518 464/547/518 465/549/518
f 458/527/519 472/548/519 473/550/519
f 451/528/520 465/549/520 466/551/520
f 444/530/521 1/552/521 459/553/521
f 8/554/522 458/527/522 473/550/522
f 451/528/523 467/555/523 452/532/523
f 444/530/524 460/556/524 445/533/524
f 452/532/525 468/541/525 453/534/525
f 446/535/526 460/556/526 461/557/526
f 472/548/527 482/6/527 473/550/527
f 466/551/528 4/1/528 5/8/529
f 459/553/530 1/558/530 474/9/530
f 8/559/531 473/550/531 482/6/531
f 466/551/532 6/14/532 467/555/532
f 460/556/533 474/9/533 475/15/533
f 467/555/534 478/18/534 468/541/534
f 461/557/535 475/15/535 2/19/535
f 468/541/536 7/22/536 469/542/536
f 462/543/537 2/19/537 476/23/537
f 469/542/538 479/26/538 470/544/538
f 463/545/539 476/23/539 3/27/539
f 471/546/540 479/26/540 480/30/540
f 464/547/541 3/27/541 477/31/541
f 471/546/542 481/4/542 472/548/542
f 465/549/543 477/31/543 4/1/543
f 4/1/1 477/31/1 14/2/1
f 481/4/2 22/32/2 23/5/2
f 4/1/3 15/3/3 16/7/3
f 5/8/7 16/7/544 17/13/7
f 475/15/9 474/9/9 9/11/9
f 6/14/10 17/13/10 18/17/10
f 2/19/11 475/15/11 10/16/11
f 478/18/12 18/17/12 19/21/12
f 476/23/13 2/19/13 11/20/13
f 7/22/14 19/21/14 20/25/14
f 3/27/15 476/23/15 12/24/15
f 479/26/16 20/25/16 21/29/16
f 477/31/17 3/27/17 13/28/17
f 480/30/18 21/29/18 22/32/18
f 21/29/19 20/25/19 35/33/19
f 13/28/20 28/49/20 29/35/21
f 22/32/22 21/29/22 36/34/22
f 15/3/23 14/2/23 29/35/23
f 22/32/24 37/36/24 38/38/24
f 15/3/25 30/37/25 31/39/25
f 16/7/28 31/39/28 32/43/28
f 9/11/29 24/41/29 25/44/29
f 17/13/30 32/43/30 33/45/30
f 10/16/31 25/44/31 26/46/31
f 18/17/32 33/45/32 34/47/32
f 11/20/34 26/46/34 27/48/34
f 19/21/35 34/47/35 35/33/35
f 12/24/36 27/48/36 28/49/36
f 32/43/37 47/65/37 48/50/37
f 25/44/38 40/66/38 41/51/38
f 34/47/40 33/45/40 48/50/40
f 26/46/41 41/51/41 42/53/41
f 35/33/42 34/47/42 49/52/42
f 27/48/43 42/53/43 43/55/43
f 36/34/44 35/33/44 50/54/44
f 28/49/45 43/55/45 44/57/45
f 36/34/46 51/56/545 52/58/46
f 29/35/47 44/57/47 45/59/47
f 37/36/48 52/58/48 53/60/48
f 30/37/49 45/59/49 46/61/49
f 32/43/52 31/39/52 46/61/52
f 24/41/53 39/63/53 40/66/53
f 51/56/54 66/83/54 67/67/54
f 45/59/55 44/57/55 59/68/55
f 52/58/56 67/67/56 68/70/56
f 46/61/57 45/59/57 60/69/57
f 46/61/61 61/71/546 62/75/61
f 39/63/62 54/73/62 55/76/63
f 47/65/64 62/75/64 63/77/64
f 40/66/65 55/76/65 56/78/65
f 49/52/66 48/50/66 63/77/66
f 41/51/67 56/78/67 57/80/67
f 49/52/68 64/79/68 65/81/68
f 42/53/69 57/80/69 58/82/69
f 50/54/70 65/81/70 66/83/70
f 43/55/71 58/82/71 59/68/71
f 55/76/72 70/100/72 71/84/72
f 64/79/73 63/77/73 78/85/73
f 56/78/74 71/84/74 72/87/74
f 64/79/75 79/86/75 80/88/75
f 58/82/76 57/80/76 72/87/76
f 65/81/77 80/88/77 81/90/77
f 58/82/78 73/89/78 74/91/78
f 67/67/79 66/83/79 81/90/79
f 60/69/80 59/68/80 74/91/80
f 67/67/81 82/92/81 83/94/81
f 61/71/82 60/69/82 75/93/82
f 61/71/85 76/95/85 77/99/85
f 54/73/86 69/97/86 70/100/86
f 62/75/87 77/99/87 78/85/87
f 75/93/88 74/91/88 89/101/88
f 83/94/89 82/92/89 97/103/89
f 76/95/90 75/93/90 90/102/90
f 76/95/94 91/105/547 92/109/94
f 69/97/95 84/107/95 85/110/95
f 77/99/96 92/109/96 93/111/96
f 70/100/97 85/110/97 86/112/97
f 79/86/98 78/85/98 93/111/98
f 71/84/99 86/112/99 87/114/99
f 79/86/100 94/113/100 95/115/100
f 73/89/101 72/87/101 87/114/101
f 80/88/102 95/115/102 96/117/102
f 73/89/103 88/116/103 89/101/103
f 81/90/104 96/117/104 97/103/104
f 94/113/105 93/111/105 108/118/105
f 86/112/106 101/134/106 102/120/106
f 94/113/107 109/119/107 110/121/107
f 88/116/108 87/114/108 102/120/108
f 96/117/109 95/115/109 110/121/109
f 88/116/110 103/122/110 104/124/110
f 97/103/111 96/117/111 111/123/111
f 90/102/112 89/101/112 104/124/112
f 97/103/113 112/125/113 113/127/113
f 91/105/114 90/102/114 105/126/114
f 91/105/117 106/128/117 107/132/117
f 85/110/118 84/107/118 99/130/118
f 92/109/119 107/132/119 108/118/119
f 85/110/120 100/133/120 101/134/120
f 112/125/121 127/151/121 128/135/121
f 106/128/122 105/126/122 120/136/122
f 106/128/126 121/137/548 122/141/126
f 100/133/127 99/130/127 114/139/127
f 107/132/128 122/141/128 123/143/128
f 100/133/129 115/142/129 116/144/129
f 109/119/130 108/118/130 123/143/130
f 101/134/131 116/144/131 117/146/131
f 109/119/132 124/145/132 125/147/132
f 103/122/133 102/120/133 117/146/133
f 111/123/134 110/121/134 125/147/134
f 103/122/135 118/148/135 119/150/135
f 111/123/136 126/149/136 127/151/136
f 105/126/137 104/124/137 119/150/137
f 116/144/138 131/167/138 132/152/138
f 124/145/139 139/168/139 140/153/139
f 118/148/140 117/146/140 132/152/140
f 126/149/141 125/147/141 140/153/141
f 118/148/142 133/154/142 134/156/142
f 126/149/143 141/155/143 142/157/143
f 120/136/144 119/150/144 134/156/144
f 127/151/145 142/157/145 143/159/145
f 121/137/146 120/136/549 135/158/146
f 121/137/150 136/160/550 137/164/150
f 114/139/152 129/162/152 130/165/152
f 122/141/153 137/164/153 138/166/153
f 115/142/154 130/165/154 131/167/154
f 124/145/155 123/143/155 138/166/155
f 136/160/156 135/158/156 150/169/156
f 136/160/159 151/170/159 152/175/159
f 129/162/160 144/172/160 145/176/160
f 137/164/161 152/175/161 153/177/161
f 131/167/162 130/165/162 145/176/162
f 139/168/163 138/166/163 153/177/163
f 131/167/165 146/178/165 147/180/165
f 139/168/166 154/179/166 155/181/166
f 133/154/167 132/152/167 147/180/167
f 141/155/168 140/153/168 155/181/168
f 133/154/169 148/182/551 149/184/169
f 141/155/170 156/183/170 157/185/170
f 135/158/171 134/156/171 149/184/171
f 143/159/172 142/157/172 157/185/172
f 154/179/173 169/202/173 170/186/173
f 148/182/174 147/180/174 162/187/174
f 156/183/175 155/181/175 170/186/175
f 148/182/176 163/188/176 164/190/176
f 156/183/177 171/189/177 172/191/178
f 150/169/179 149/184/179 164/190/179
f 157/185/180 172/191/180 173/193/180
f 151/170/181 150/169/181 165/192/181
f 151/170/184 166/194/184 167/198/184
f 144/172/185 159/196/185 160/199/185
f 152/175/186 167/198/186 168/200/186
f 146/178/187 145/176/188 160/199/188
f 154/179/189 153/177/189 168/200/189
f 146/178/190 161/201/190 162/187/190
f 166/194/192 181/217/192 182/205/192
f 159/196/193 174/219/193 175/206/193
f 167/198/194 182/205/194 183/207/194
f 160/199/195 175/206/195 176/208/195
f 169/202/196 168/200/196 183/207/196
f 161/201/197 176/208/197 177/210/197
f 169/202/198 184/209/198 185/211/198
f 163/188/199 162/187/199 177/210/199
f 170/186/200 185/211/200 186/213/200
f 163/188/201 178/212/201 179/214/201
f 172/191/202 171/189/202 186/213/202
f 165/192/203 164/190/203 179/214/203
f 173/193/204 172/191/204 187/215/204
f 166/194/205 165/192/205 180/216/205
f 186/213/207 185/211/207 200/220/207
f 178/212/208 193/236/208 194/222/208
f 186/213/209 201/221/209 202/223/209
f 180/216/210 179/214/210 194/222/210
f 187/215/211 202/223/211 203/225/212
f 181/217/213 180/216/213 195/224/213
f 181/217/216 196/226/216 197/230/216
f 175/206/217 174/219/218 189/228/218
f 182/205/219 197/230/219 198/232/219
f 176/208/220 175/206/220 190/231/220
f 184/209/221 183/207/221 198/232/221
f 176/208/222 191/233/222 192/235/222
f 184/209/223 199/234/223 200/220/223
f 178/212/224 177/210/224 192/235/224
f 189/228/225 204/251/225 205/237/225
f 197/230/226 212/253/226 213/238/226
f 190/231/227 205/237/227 206/239/227
f 199/234/228 198/232/228 213/238/228
f 191/233/229 206/239/229 207/241/229
f 199/234/230 214/240/230 215/242/230
f 193/236/231 192/235/231 207/241/231
f 201/221/232 200/220/232 215/242/232
f 193/236/233 208/243/233 209/245/233
f 201/221/234 216/244/234 217/246/234
f 195/224/235 194/222/235 209/245/235
f 202/223/236 217/246/236 218/248/236
f 196/226/237 195/224/237 210/247/237
f 196/226/240 211/249/240 212/253/240
f 208/243/241 223/269/241 224/254/241
f 216/244/242 231/270/242 232/255/242
f 210/247/243 209/245/243 224/254/243
f 217/246/244 232/255/244 233/257/244
f 211/249/245 210/247/552 225/256/245
f 211/249/248 226/258/248 227/262/248
f 204/251/250 219/260/250 220/263/250
f 212/253/251 227/262/251 228/264/251
f 205/237/252 220/263/252 221/265/252
f 214/240/253 213/238/253 228/264/253
f 206/239/254 221/265/254 222/267/254
f 214/240/255 229/266/255 230/268/255
f 208/243/256 207/241/256 222/267/256
f 216/244/257 215/242/257 230/268/257
f 227/262/258 242/287/258 243/271/258
f 221/265/259 220/263/259 235/272/259
f 229/266/260 228/264/260 243/271/260
f 221/265/261 236/273/261 237/275/261
f 229/266/262 244/274/262 245/276/262
f 223/269/263 222/267/263 237/275/263
f 231/270/264 230/268/264 245/276/264
f 223/269/265 238/277/265 239/279/265
f 231/270/266 246/278/266 247/280/266
f 225/256/267 224/254/267 239/279/267
f 233/257/268 232/255/268 247/280/268
f 226/258/269 225/256/553 240/281/269
f 226/258/272 241/283/272 242/287/272
f 219/260/274 234/285/274 235/272/274
f 246/278/275 261/304/275 262/288/275
f 240/281/276 239/279/276 254/289/276
f 247/280/277 262/288/277 263/291/277
f 241/283/278 240/281/554 255/290/278
f 241/283/282 256/292/555 257/296/282
f 234/285/284 249/294/556 250/297/284
f 242/287/285 257/296/285 258/298/285
f 235/272/286 250/297/286 251/299/286
f 244/274/287 243/271/287 258/298/287
f 236/273/288 251/299/288 252/301/288
f 244/274/289 259/300/289 260/302/289
f 238/277/290 237/275/290 252/301/290
f 246/278/291 245/276/291 260/302/291
f 238/277/292 253/303/292 254/289/292
f 250/297/293 265/321/293 266/305/293
f 259/300/294 258/298/294 273/306/294
f 251/299/295 266/305/295 267/308/295
f 259/300/296 274/307/296 275/309/296
f 253/303/297 252/301/297 267/308/297
f 261/304/298 260/302/298 275/309/298
f 253/303/299 268/310/299 269/312/299
f 261/304/300 276/311/300 277/313/300
f 255/290/301 254/289/301 269/312/301
f 262/288/302 277/313/302 278/315/302
f 256/292/303 255/290/303 270/314/303
f 256/292/307 271/316/557 272/320/307
f 250/297/308 249/294/308 264/318/308
f 257/296/309 272/320/309 273/306/309
f 270/314/310 269/312/310 284/322/310
f 278/315/311 277/313/311 292/324/311
f 271/316/312 270/314/312 285/323/312
f 271/316/315 286/326/315 287/330/315
f 265/321/316 264/318/316 279/328/316
f 272/320/317 287/330/317 288/332/317
f 265/321/318 280/331/318 281/333/319
f 274/307/320 273/306/320 288/332/320
f 266/305/321 281/333/321 282/335/321
f 274/307/322 289/334/322 290/336/322
f 268/310/323 267/308/323 282/335/323
f 276/311/324 275/309/324 290/336/324
f 268/310/325 283/337/325 284/322/325
f 276/311/326 291/338/326 292/324/327
f 289/334/328 288/332/328 303/339/328
f 281/333/329 296/355/329 297/341/329
f 289/334/330 304/340/330 305/342/330
f 283/337/331 282/335/331 297/341/331
f 291/338/332 290/336/332 305/342/332
f 283/337/333 298/343/333 299/345/333
f 291/338/334 306/344/334 307/346/334
f 285/323/335 284/322/335 299/345/335
f 293/325/336 292/324/337 307/346/337
f 286/326/338 285/323/338 300/347/338
f 286/326/341 301/349/341 302/353/341
f 279/328/342 294/351/342 295/354/343
f 287/330/344 302/353/344 303/339/344
f 280/331/345 295/354/345 296/355/345
f 307/346/346 322/372/346 323/356/346
f 301/349/347 300/347/347 315/357/347
f 301/349/350 316/358/350 317/362/350
f 294/351/351 309/360/351 310/363/351
f 302/353/352 317/362/352 318/364/352
f 295/354/353 310/363/353 311/365/353
f 304/340/354 303/339/354 318/364/354
f 296/355/355 311/365/355 312/367/355
f 304/340/356 319/366/356 320/368/356
f 298/343/357 297/341/357 312/367/357
f 306/344/358 305/342/358 320/368/358
f 298/343/359 313/369/359 314/371/359
f 306/344/360 321/370/360 322/372/360
f 300/347/361 299/345/361 314/371/361
f 319/366/362 334/388/362 335/373/362
f 312/367/363 327/389/363 328/374/363
f 321/370/364 320/368/364 335/373/364
f 313/369/365 328/374/365 329/376/365
f 321/370/366 336/375/366 337/377/366
f 315/357/367 314/371/367 329/376/367
f 322/372/368 337/377/368 338/379/368
f 316/358/369 315/357/369 330/378/369
f 316/358/373 331/380/558 332/384/373
f 309/360/374 324/382/374 325/385/374
f 317/362/375 332/384/375 333/386/375
f 310/363/376 325/385/376 326/387/376
f 319/366/377 318/364/377 333/386/377
f 311/365/378 326/387/378 327/389/378
f 331/380/381 346/406/381 347/394/381
f 324/382/382 339/391/382 340/395/382
f 332/384/383 347/394/383 348/396/383
f 325/385/384 340/395/384 341/397/384
f 334/388/385 333/386/385 348/396/385
f 326/387/386 341/397/386 342/399/386
f 334/388/387 349/398/387 350/400/387
f 328/374/388 327/389/388 342/399/388
f 336/375/389 335/373/389 350/400/389
f 328/374/390 343/401/390 344/403/390
f 336/375/391 351/402/391 352/404/391
f 330/378/392 329/376/392 344/403/392
f 337/377/393 352/404/393 353/393/393
f 331/380/394 330/378/394 345/405/394
f 343/401/395 342/399/395 357/407/395
f 351/402/396 350/400/396 365/409/396
f 343/401/397 358/408/397 359/411/397
f 351/402/398 366/410/398 367/412/398
f 345/405/399 344/403/399 359/411/399
f 352/404/400 367/412/400 368/414/400
f 346/406/401 345/405/401 360/413/401
f 346/406/404 361/415/404 362/419/404
f 339/391/405 354/417/405 355/420/405
f 347/394/406 362/419/406 363/421/406
f 341/397/407 340/395/407 355/420/407
f 349/398/408 348/396/408 363/421/408
f 341/397/409 356/422/409 357/407/409
f 349/398/410 364/423/410 365/409/410
f 361/424/411 376/452/411 377/425/411
f 354/427/412 369/454/412 370/428/412
f 362/426/413 377/425/413 378/430/413
f 356/432/414 355/429/414 370/428/414
f 364/434/415 363/431/415 378/430/415
f 356/432/416 371/433/416 372/436/416
f 364/434/417 379/435/417 380/438/417
f 358/440/418 357/437/418 372/436/418
f 366/442/419 365/439/419 380/438/419
f 358/440/420 373/441/420 374/444/420
f 366/442/421 381/443/421 382/446/421
f 360/448/422 359/445/422 374/444/422
f 367/447/423 382/446/423 383/450/423
f 361/424/424 360/448/424 375/449/424
f 381/443/427 380/438/427 395/456/427
f 373/441/428 388/472/428 389/458/428
f 381/443/429 396/457/429 397/459/429
f 375/449/430 374/444/430 389/458/430
f 382/446/431 397/459/431 398/461/431
f 376/452/432 375/449/432 390/460/432
f 376/452/435 391/462/435 392/466/435
f 369/454/436 384/464/436 385/467/436
f 377/425/437 392/466/437 393/468/437
f 371/433/438 370/428/438 385/467/438
f 379/435/439 378/430/439 393/468/439
f 371/433/440 386/469/440 387/471/440
f 379/435/441 394/470/441 395/456/441
f 373/441/442 372/436/442 387/471/442
f 385/467/443 384/464/443 399/473/443
f 392/466/444 407/489/444 408/475/444
f 385/467/445 400/474/445 401/476/446
f 394/470/447 393/468/447 408/475/447
f 386/469/448 401/476/448 402/478/448
f 394/470/449 409/477/449 410/479/449
f 388/472/450 387/471/450 402/478/450
f 396/457/451 395/456/451 410/479/451
f 388/472/452 403/480/452 404/482/452
f 397/459/453 396/457/454 411/481/454
f 390/460/455 389/458/455 404/482/455
f 397/459/456 412/483/456 413/485/456
f 391/462/457 390/460/457 405/484/457
f 391/462/460 406/486/460 407/489/460
f 403/480/461 418/505/461 419/490/461
f 411/481/462 426/506/462 427/491/462
f 405/484/463 404/482/463 419/490/463
f 412/483/464 427/491/464 428/493/464
f 406/486/465 405/484/465 420/492/465
f 406/486/468 421/494/468 422/498/468
f 399/473/469 414/496/469 415/499/469
f 407/489/470 422/498/470 423/500/470
f 401/476/471 400/474/471 415/499/471
f 409/477/472 408/475/472 423/500/472
f 401/476/473 416/501/473 417/503/473
f 409/477/474 424/502/474 425/504/474
f 403/480/475 402/478/475 417/503/475
f 411/481/476 410/479/476 425/504/476
f 422/498/477 437/523/477 438/507/477
f 416/501/478 415/499/478 430/508/478
f 424/502/479 423/500/479 438/507/479
f 416/501/480 431/509/480 432/511/480
f 424/502/481 439/510/481 440/512/481
f 418/505/482 417/503/482 432/511/482
f 426/506/483 425/504/483 440/512/483
f 418/505/484 433/513/484 434/515/484
f 426/506/485 441/514/485 442/516/485
f 420/492/486 419/490/486 434/515/486
f 427/491/487 442/516/487 443/518/488
f 421/494/489 420/492/489 435/517/489
f 421/494/492 436/519/492 437/523/492
f 414/496/493 429/521/493 430/508/493
f 441/514/494 456/540/494 457/524/494
f 435/517/495 434/515/495 449/525/495
f 442/516/496 457/524/496 458/527/496
f 436/519/497 435/517/497 450/526/497
f 436/519/501 451/528/559 452/532/501
f 430/508/502 429/521/560 444/530/502
f 437/523/503 452/532/503 453/534/503
f 430/508/504 445/533/504 446/535/504
f 439/510/505 438/507/505 453/534/505
f 431/509/506 446/535/506 447/537/506
f 439/510/507 454/536/507 455/538/507
f 433/513/508 432/511/508 447/537/508
f 441/514/509 440/512/509 455/538/509
f 433/513/510 448/539/510 449/525/510
f 454/536/511 453/534/511 468/541/511
f 446/535/512 461/557/512 462/543/512
f 454/536/513 469/542/513 470/544/513
f 448/539/514 447/537/514 462/543/514
f 456/540/515 455/538/515 470/544/515
f 448/539/516 463/545/516 464/547/516
f 456/540/517 471/546/517 472/548/517
f 450/526/518 449/525/518 464/547/518
f 458/527/519 457/524/519 472/548/519
f 451/528/520 450/526/520 465/549/520
f 451/528/523 466/551/523 467/555/523
f 444/530/524 459/553/524 460/556/524
f 452/532/525 467/555/525 468/541/525
f 446/535/526 445/533/526 460/556/526
f 472/548/527 481/4/527 482/6/527
f 466/551/528 465/549/528 4/1/528
f 466/551/532 5/8/561 6/14/532
f 460/556/533 459/553/562 474/9/533
f 467/555/534 6/14/534 478/18/534
f 461/557/535 460/556/535 475/15/535
f 468/541/536 478/18/536 7/22/536
f 462/543/537 461/557/537 2/19/537
f 469/542/538 7/22/538 479/26/538
f 463/545/539 462/543/539 476/23/539
f 471/546/540 470/544/540 479/26/540
f 464/547/541 463/545/541 3/27/541
f 471/546/542 480/30/542 481/4/542
f 465/549/543 464/547/543 477/31/543
