# Blender 4.1.1
# www.blender.org
mtllib downPlayer.mtl
o Cube.003
v -1.000002 1.000000 1.494564
v -1.000002 -1.000000 1.494564
v -1.000001 1.000000 -1.428541
v 0.999998 1.000000 1.494565
v 0.999998 -1.000000 1.494565
v 0.999999 1.000000 -1.428540
v 0.999999 -1.000000 -1.428540
v -1.000001 -1.000000 -1.428541
v 0.041798 0.359213 -1.302896
v 0.041798 -0.359213 -1.302896
v 0.696607 0.359213 -4.151715
v 0.696607 -0.359213 -4.151715
v 0.758418 0.359213 -1.138178
v 0.758418 -0.359213 -1.138178
v 1.413228 0.359213 -3.986998
v 1.413228 -0.359213 -3.986998
v -1.000000 1.000000 3.906149
v -1.000000 -1.000000 3.906149
v -1.000000 1.000000 1.906149
v 1.000000 1.000000 3.906149
v 1.000000 -1.000000 3.906149
v 1.000000 1.000000 1.906150
v 1.000000 -1.000000 1.906150
v -1.000000 -1.000000 1.906149
v -0.625553 0.494767 2.110749
v -0.625553 -0.494767 2.110749
v -0.625553 0.494767 1.406035
v 0.625554 0.494767 2.110749
v 0.625554 -0.494767 2.110749
v 0.625554 0.494767 1.406035
v 0.625554 -0.494767 1.406035
v -0.625553 -0.494767 1.406035
v -2.046506 0.359213 0.911734
v -2.046506 -0.359213 0.911734
v -2.046507 0.359213 0.150728
v -1.000567 0.359213 0.911735
v -1.000567 -0.359213 0.911735
v -1.000567 0.359213 0.150728
v -1.000567 -0.359213 0.150728
v -2.046507 -0.359213 0.150728
v -2.571073 0.359213 3.079315
v -2.571073 -0.359213 3.079315
v -2.571073 0.359213 0.156209
v -1.894458 0.359213 3.079314
v -1.894458 -0.359213 3.079314
v -1.894458 0.359213 0.156209
v -1.894458 -0.359213 0.156209
v -2.571073 -0.359213 0.156209
v 1.775114 0.359213 0.911540
v 1.775114 -0.359213 0.911540
v 1.775115 0.359213 -2.011566
v 2.522455 0.359213 0.911539
v 2.522455 -0.359213 0.911539
v 2.522455 0.359213 -2.011566
v 2.522455 -0.359213 -2.011566
v 1.775115 -0.359213 -2.011566
v 0.909228 0.359213 0.911734
v 0.909228 -0.359213 0.911734
v 0.909228 0.359213 0.150728
v 1.955168 0.359213 0.911734
v 1.955168 -0.359213 0.911734
v 1.955168 0.359213 0.150728
v 1.955168 -0.359213 0.150728
v 0.909228 -0.359213 0.150728
v -0.946952 0.359213 -1.147549
v -0.946952 -0.359213 -1.147549
v -1.334564 0.359213 -4.044841
v -0.218138 0.359213 -1.245052
v -0.218138 -0.359213 -1.245052
v -0.605750 0.359213 -4.142344
v -0.605750 -0.359213 -4.142344
v -1.334564 -0.359213 -4.044841
vn -0.0000 -0.0000 1.0000
vn -1.0000 -0.0000 -0.0000
vn -0.0000 1.0000 -0.0000
vn 1.0000 -0.0000 -0.0000
vn -0.0000 -0.0000 -1.0000
vn -0.0000 -1.0000 -0.0000
vn 0.2240 -0.0000 -0.9746
vn 0.9746 -0.0000 0.2240
vn -0.9746 -0.0000 -0.2240
vn -0.2240 -0.0000 0.9746
vn 0.1326 -0.0000 0.9912
vn -0.9912 -0.0000 0.1326
vn 0.9912 -0.0000 -0.1326
vn -0.1326 -0.0000 -0.9912
vt 0.625000 0.250000
vt 0.375000 0.500000
vt 0.375000 0.250000
vt 0.625000 0.500000
vt 0.375000 0.750000
vt 0.875000 0.750000
vt 0.625000 0.750000
vt 0.625000 0.000000
vt 0.375000 0.000000
vt 0.375000 1.000000
vt 0.125000 0.750000
vt 0.125000 0.500000
vt 0.875000 0.500000
vt 0.625000 1.000000
s 0
usemtl Material.009
f 9/4/3 15/6/3 11/7/3
f 11/7/7 16/10/7 12/5/7
f 15/8/8 14/3/8 16/9/8
f 10/2/6 16/11/6 14/12/6
f 9/4/9 12/5/9 10/2/9
f 13/1/10 10/2/10 14/3/10
f 9/4/3 13/13/3 15/6/3
f 11/7/7 15/14/7 16/10/7
f 15/8/8 13/1/8 14/3/8
f 10/2/6 12/5/6 16/11/6
f 9/4/9 11/7/9 12/5/9
f 13/1/10 9/4/10 10/2/10
usemtl Material
f 20/1/1 18/2/1 21/3/1
f 17/4/2 24/5/2 18/2/2
f 17/4/3 22/6/3 19/7/3
f 22/8/4 21/3/4 23/9/4
f 19/7/5 23/10/5 24/5/5
f 18/2/6 23/11/6 21/12/6
f 20/1/1 17/4/1 18/2/1
f 17/4/2 19/7/2 24/5/2
f 17/4/3 20/13/3 22/6/3
f 22/8/4 20/1/4 21/3/4
f 19/7/5 22/14/5 23/10/5
f 18/2/6 24/5/6 23/11/6
usemtl Material.001
f 28/1/1 26/2/1 29/3/1
f 25/4/2 32/5/2 26/2/2
f 25/4/3 30/6/3 27/7/3
f 30/8/4 29/3/4 31/9/4
f 27/7/5 31/10/5 32/5/5
f 26/2/6 31/11/6 29/12/6
f 28/1/1 25/4/1 26/2/1
f 25/4/2 27/7/2 32/5/2
f 25/4/3 28/13/3 30/6/3
f 30/8/4 28/1/4 29/3/4
f 27/7/5 30/14/5 31/10/5
f 26/2/6 32/5/6 31/11/6
usemtl Material.002
f 4/1/1 2/2/1 5/3/1
f 1/4/2 8/5/2 2/2/2
f 1/4/3 6/6/3 3/7/3
f 6/8/4 5/3/4 7/9/4
f 3/7/5 7/10/5 8/5/5
f 2/2/6 7/11/6 5/12/6
f 4/1/1 1/4/1 2/2/1
f 1/4/2 3/7/2 8/5/2
f 1/4/3 4/13/3 6/6/3
f 6/8/4 4/1/4 5/3/4
f 3/7/5 6/14/5 7/10/5
f 2/2/6 8/5/6 7/11/6
usemtl Material.004
f 36/1/1 34/2/1 37/3/1
f 33/4/2 40/5/2 34/2/2
f 33/4/3 38/6/3 35/7/3
f 38/8/4 37/3/4 39/9/4
f 35/7/5 39/10/5 40/5/5
f 34/2/6 39/11/6 37/12/6
f 36/1/1 33/4/1 34/2/1
f 33/4/2 35/7/2 40/5/2
f 33/4/3 36/13/3 38/6/3
f 38/8/4 36/1/4 37/3/4
f 35/7/5 38/14/5 39/10/5
f 34/2/6 40/5/6 39/11/6
usemtl Material.005
f 44/1/1 42/2/1 45/3/1
f 41/4/2 48/5/2 42/2/2
f 41/4/3 46/6/3 43/7/3
f 46/8/4 45/3/4 47/9/4
f 43/7/5 47/10/5 48/5/5
f 42/2/6 47/11/6 45/12/6
f 44/1/1 41/4/1 42/2/1
f 41/4/2 43/7/2 48/5/2
f 41/4/3 44/13/3 46/6/3
f 46/8/4 44/1/4 45/3/4
f 43/7/5 46/14/5 47/10/5
f 42/2/6 48/5/6 47/11/6
usemtl Material.006
f 52/1/1 50/2/1 53/3/1
f 49/4/2 56/5/2 50/2/2
f 49/4/3 54/6/3 51/7/3
f 54/8/4 53/3/4 55/9/4
f 51/7/5 55/10/5 56/5/5
f 50/2/6 55/11/6 53/12/6
f 52/1/1 49/4/1 50/2/1
f 49/4/2 51/7/2 56/5/2
f 49/4/3 52/13/3 54/6/3
f 54/8/4 52/1/4 53/3/4
f 51/7/5 54/14/5 55/10/5
f 50/2/6 56/5/6 55/11/6
usemtl Material.008
f 60/1/1 58/2/1 61/3/1
f 57/4/2 64/5/2 58/2/2
f 57/4/3 62/6/3 59/7/3
f 62/8/4 61/3/4 63/9/4
f 59/7/5 63/10/5 64/5/5
f 58/2/6 63/11/6 61/12/6
f 60/1/1 57/4/1 58/2/1
f 57/4/2 59/7/2 64/5/2
f 57/4/3 60/13/3 62/6/3
f 62/8/4 60/1/4 61/3/4
f 59/7/5 62/14/5 63/10/5
f 58/2/6 64/5/6 63/11/6
usemtl Material.011
f 68/1/11 66/2/11 69/3/11
f 65/4/12 72/5/12 66/2/12
f 65/4/3 70/6/3 67/7/3
f 70/8/13 69/3/13 71/9/13
f 67/7/14 71/10/14 72/5/14
f 66/2/6 71/11/6 69/12/6
f 68/1/11 65/4/11 66/2/11
f 65/4/12 67/7/12 72/5/12
f 65/4/3 68/13/3 70/6/3
f 70/8/13 68/1/13 69/3/13
f 67/7/14 70/14/14 71/10/14
f 66/2/6 72/5/6 71/11/6
