# Blender 5.0.0
# www.blender.org
mtllib downHuman.mtl
o BaseHuman
v -0.634813 0.463526 0.626893
v -0.420830 0.569537 0.626893
v -0.382147 0.252288 3.919432
v -0.390109 0.165566 2.019023
v -0.480829 0.154575 3.919432
v -0.566987 0.098153 2.044560
v -0.528921 0.063099 3.919432
v -0.634761 -0.082929 2.069675
v -0.514656 -0.074636 3.913541
v -0.546672 -0.247119 2.105084
v -0.391391 -0.190776 3.913541
v -0.399675 -0.361109 2.118587
v -0.272844 -0.083966 3.913541
v -0.227897 -0.258989 2.100973
v -0.267491 0.052087 3.919432
v -0.121168 -0.078166 2.068642
v -0.317266 0.172929 3.919432
v -0.190964 0.109568 2.034592
v -0.776092 0.081635 0.626893
v -0.629002 -0.271091 0.626893
v -0.411844 -0.320886 0.626893
v -0.237705 -0.268111 0.626893
v -0.093839 -0.085007 0.626893
v -0.201397 0.464883 0.626893
v -0.665373 0.509860 0.081060
v -0.408903 0.673168 0.081060
v -0.769394 0.088568 0.081060
v -0.596821 -0.209307 0.081060
v -0.413508 -0.249839 0.081060
v -0.691631 0.563694 -1.972832
v -0.422636 0.652866 -1.821033
v -0.839175 0.130996 -1.991488
v -0.743557 -0.141233 -2.066450
v -0.420872 -0.223589 -1.971131
v 0.000000 -0.299462 0.084046
v 0.000000 -0.259990 -1.898054
v 0.000000 -0.277756 0.321913
v 0.000000 0.663002 0.080982
v 0.000000 -0.179851 0.402989
v 0.000000 -0.075390 0.482568
v 0.000000 0.492932 0.401532
v 0.000000 0.571407 -1.822437
v 0.000000 0.590063 0.313329
v -0.243194 -0.288648 0.325416
v -0.204446 0.636407 0.379237
v -0.382147 0.257102 4.259973
v -0.480829 0.213498 4.259973
v -0.532050 0.047453 4.259973
v -0.549879 -0.100166 4.259973
v -0.397130 -0.084544 4.259973
v -0.284352 -0.075658 4.259973
v -0.273072 0.060761 4.259973
v -0.317266 0.227826 4.259973
v -0.600731 -0.718736 4.164806
v -0.395720 -0.812288 4.164806
v -0.232552 -0.808951 4.164806
v -0.615994 -0.712162 4.259973
v -0.399920 -0.837145 4.259973
v -0.218942 -0.825308 4.259973
v -0.480829 0.182183 4.089088
v -0.531514 0.046360 4.089088
v -0.255201 -0.098610 4.089088
v -0.268866 0.047989 4.089088
v -0.317266 0.244515 4.089088
v -0.382147 0.281392 4.089088
v -0.549984 -0.098005 4.089088
v -0.220150 -0.832458 4.202780
v -0.617196 -0.719273 4.202780
v -0.400735 -0.841970 4.202780
v -0.394461 0.056194 4.259973
v -0.646619 0.512020 -2.303064
v -0.421175 0.510961 -2.406727
v -0.682287 0.060829 -2.379991
v -0.338123 -0.018608 -2.361620
v 0.000000 -0.057756 -2.350805
v 0.000000 0.474291 -2.401382
v -0.404005 -0.134431 -2.195963
v -0.692959 -0.069521 -2.204351
v 0.000000 -0.143153 -2.151397
v -0.421175 0.654446 -2.060365
v 0.000000 0.551759 -2.052348
v -0.682288 0.564519 -2.158400
v -0.424030 0.270472 -2.433474
v -0.687512 0.274938 -2.438241
v -0.226765 0.448530 -2.495508
v -0.222202 0.066332 -2.472899
v 0.000000 -0.050038 -2.474225
v 0.000000 0.445794 -2.497596
v -0.324333 0.238422 -2.495851
v -0.145015 0.317147 -2.867968
v -0.174395 -0.020426 -2.722105
v 0.000000 -0.138368 -2.667775
v 0.000000 0.372135 -2.887901
v -0.230602 0.169822 -2.790603
v -1.219107 0.130553 -1.329129
v -1.311538 0.061702 -1.346726
v -1.420940 0.092810 -1.367554
v -1.305305 0.384032 -1.345540
v -1.527457 0.329340 -1.387833
v -1.525621 0.189916 -1.387483
v -1.190881 0.305538 -1.323756
v -1.423359 0.389288 -1.368014
v -1.585030 0.159990 -0.339320
v -1.660857 0.122757 -0.353756
v -1.745428 0.097381 -0.369856
v -1.621825 0.292365 -0.346324
v -1.777393 0.244490 -0.375942
v -1.804228 0.158026 -0.381051
v -1.559550 0.246956 -0.334469
v -1.708575 0.286072 -0.362840
v -0.224981 -0.269055 -2.942269
v -0.211066 -0.244503 -3.487452
v -0.220903 0.248164 -2.943092
v -0.277294 0.276704 -3.526217
v 0.000000 0.374531 -3.619621
v -0.186463 0.342167 -3.587770
v -0.290313 0.309145 -3.404255
v -0.289429 0.318918 -3.238183
v -0.267277 0.287302 -3.086251
v -0.253579 -0.176774 -2.900483
v -0.271440 -0.027328 -2.896455
v -0.291804 0.132963 -2.902369
v -0.284324 0.164259 -3.553661
v -0.271804 -0.003317 -3.559621
v -0.245068 -0.151225 -3.529431
v -0.227781 -0.274102 -3.379715
v -0.237813 -0.293641 -3.252601
v -0.243225 -0.282346 -3.057187
v 0.000000 -0.379176 -2.860173
v -0.148108 -0.331396 -2.885921
v -0.138120 -0.282661 -3.519317
v 0.000000 -0.299162 -3.543736
v 0.000000 0.434799 -3.047873
v 0.000000 0.506505 -3.230084
v 0.000000 0.496793 -3.443029
v -0.168140 0.386936 -3.064725
v -0.188549 0.443489 -3.234258
v -0.194390 0.433974 -3.425910
v -0.332703 0.138236 -3.067041
v -0.334983 0.153201 -3.245656
v -0.323759 0.160985 -3.409559
v -0.313882 -0.029158 -3.059786
v -0.322298 -0.015608 -3.247894
v -0.314087 -0.002780 -3.415582
v -0.289701 -0.181612 -3.057726
v -0.292077 -0.174559 -3.249109
v -0.279583 -0.156930 -3.401682
v -0.132633 -0.348808 -3.050549
v -0.128691 -0.361053 -3.256067
v -0.134641 -0.347749 -3.385620
v 0.000000 -0.390194 -3.039919
v 0.000000 -0.386457 -3.260377
v 0.000000 -0.368297 -3.401225
v 0.000000 -0.277887 -2.726305
v -0.165483 -0.215936 -2.782370
v -0.183450 0.177146 -3.657125
v 0.000000 0.187932 -3.700284
v -0.172066 -0.008103 -3.660237
v 0.000000 -0.011593 -3.703394
v -0.150069 -0.170418 -3.612509
v 0.000000 -0.186934 -3.646163
v -0.701162 0.129562 -0.334012
v -0.585671 0.432808 -0.323623
v -0.357100 -0.300396 -0.325260
v -0.540712 -0.203613 -0.324831
v -0.379068 0.577851 -0.306696
v 0.000000 -0.354786 -0.325093
v 0.000000 0.584554 -0.314090
v -0.487349 0.372286 -0.903013
v -0.547766 -0.151434 -0.904582
v -0.349512 0.452246 -0.902392
v 0.000000 0.476018 -0.902741
v -0.587091 0.125594 -0.903118
v -0.362260 -0.308687 -0.903300
v 0.000000 -0.357821 -0.902946
v -0.648096 0.483500 -1.586714
v -0.676553 -0.174316 -1.586714
v -0.411311 0.603253 -1.586714
v 0.000000 0.554684 -1.586714
v -0.743248 0.111858 -1.586714
v -0.434086 -0.291282 -1.586714
v 0.000000 -0.334174 -1.586714
v -0.382618 0.247160 3.807054
v -0.485924 0.151239 3.808564
v -0.535179 0.054464 3.810049
v -0.516549 -0.084836 3.806600
v -0.391881 -0.200848 3.807399
v -0.270187 -0.094315 3.806357
v -0.258838 0.044385 3.809988
v -0.309797 0.169182 3.807975
v -0.174487 0.018294 -2.603051
v -0.256863 0.202032 -2.635008
v -0.162687 0.348291 -2.683173
v 0.000000 0.384594 -2.692216
v 0.000000 -0.079499 -2.559559
v -1.647266 0.209015 0.166047
v -1.720994 0.191956 0.177048
v -1.943204 0.114284 0.130932
v -1.887039 0.156272 0.149290
v -1.808790 0.186704 0.164503
v -1.659865 0.255747 0.153744
v -1.960767 0.173191 0.119123
v -1.744741 0.248771 0.181352
v -1.832555 0.243003 0.169381
v -1.910027 0.212972 0.153708
v -1.983088 0.103022 0.373501
v -1.969970 0.069568 0.375998
v -1.918895 0.090321 0.385722
v -1.932012 0.123775 0.383225
v -1.906418 0.110912 0.438694
v -1.855343 0.131665 0.448417
v -1.866939 0.161239 0.446209
v -1.918014 0.140486 0.436486
v -1.816061 0.117860 0.432626
v -1.764985 0.138613 0.442349
v -1.777281 0.169970 0.440008
v -1.828356 0.149217 0.430285
v -1.686041 0.183977 0.404874
v -1.672166 0.148593 0.407516
v -1.723242 0.127840 0.397791
v -1.737117 0.163225 0.395150
v -1.763450 0.152699 0.007261
v -1.724398 0.283849 0.003623
v -1.804102 0.262792 -0.012132
v -1.841028 0.115534 0.000214
v -1.937681 0.067915 0.021160
v -1.871958 0.232623 -0.025050
v -1.624865 0.217857 0.041955
v -1.689201 0.182744 0.023254
v -1.632529 0.261405 0.041549
v -1.952409 0.156222 -0.001713
v -1.710261 0.290332 -0.083695
v -1.828229 0.108741 -0.098023
v -1.606501 0.213917 -0.060297
v -1.743383 0.148886 -0.090190
v -1.790531 0.270224 -0.099165
v -1.959524 0.048941 -0.076457
v -1.858320 0.239897 -0.112072
v -1.669391 0.178800 -0.075550
v -1.609434 0.261143 -0.068606
v -1.950269 0.147358 -0.118690
v -2.030381 0.080987 -0.044934
v -1.994222 0.099585 0.014940
v -1.987258 0.119621 -0.089014
v -1.975896 0.132167 0.003985
v -2.070980 -0.069831 0.050450
v -2.035713 -0.052407 0.098607
v -2.112104 -0.035447 0.071310
v -2.076837 -0.018024 0.119468
v -2.026551 -0.021371 -0.009551
v -2.072097 0.019429 0.012489
v -2.032697 0.038794 0.064942
v -1.986417 -0.001518 0.045593
v -1.851917 0.221240 0.256897
v -1.859816 0.193326 0.357967
v -1.844131 0.153324 0.360954
v -1.832852 0.172620 0.260527
v -1.908588 0.198214 0.246109
v -1.916487 0.170300 0.347178
v -1.900802 0.130297 0.350164
v -1.889524 0.149593 0.249738
v -1.958875 0.107584 0.218927
v -1.967008 0.088514 0.302345
v -1.983897 0.131588 0.299129
v -1.978541 0.157739 0.215183
v -1.927226 0.154615 0.309918
v -1.921870 0.180766 0.225972
v -1.910336 0.111541 0.313134
v -1.902204 0.130610 0.229716
v -1.734930 0.216397 0.252799
v -1.739089 0.191169 0.328210
v -1.682417 0.214196 0.339000
v -1.676586 0.238750 0.260820
v -1.664928 0.169594 0.342330
v -1.657982 0.189818 0.265206
v -1.721600 0.146568 0.331541
v -1.715039 0.165599 0.256586
v -1.801833 0.156234 0.258335
v -1.811665 0.137042 0.350938
v -1.827904 0.178458 0.347847
v -1.821174 0.205561 0.254653
v -1.771233 0.201484 0.358635
v -1.764503 0.228588 0.265441
v -1.754993 0.160069 0.361727
v -1.745162 0.179261 0.269124
v -1.582568 0.209736 -0.183547
v -1.815668 0.098799 -0.241575
v -1.667900 0.295490 -0.206039
v -1.754988 0.275878 -0.230023
v -1.810031 0.251423 -0.240502
v -1.698740 0.132421 -0.219315
v -1.850758 0.178991 -0.248255
v -1.587805 0.261017 -0.184681
v 0.634813 0.463526 0.626893
v 0.420830 0.569537 0.626893
v 0.382147 0.252288 3.919432
v 0.390109 0.165566 2.019023
v 0.480829 0.154575 3.919432
v 0.566987 0.098153 2.044560
v 0.528921 0.063099 3.919432
v 0.634761 -0.082929 2.069675
v 0.514656 -0.074636 3.913541
v 0.546672 -0.247119 2.105084
v 0.391391 -0.190776 3.913541
v 0.399675 -0.361109 2.118587
v 0.272844 -0.083966 3.913541
v 0.227897 -0.258989 2.100973
v 0.267491 0.052087 3.919432
v 0.121168 -0.078166 2.068642
v 0.317266 0.172929 3.919432
v 0.190964 0.109568 2.034592
v 0.776092 0.081635 0.626893
v 0.629002 -0.271091 0.626893
v 0.411844 -0.320886 0.626893
v 0.237705 -0.268111 0.626893
v 0.093839 -0.085007 0.626893
v 0.201397 0.464883 0.626893
v 0.665373 0.509860 0.081060
v 0.408903 0.673168 0.081060
v 0.769394 0.088568 0.081060
v 0.596821 -0.209307 0.081060
v 0.413508 -0.249839 0.081060
v 0.691631 0.563694 -1.972832
v 0.422636 0.652866 -1.821033
v 0.839175 0.130996 -1.991488
v 0.743557 -0.141233 -2.066450
v 0.420872 -0.223589 -1.971131
v 0.243194 -0.288648 0.325416
v 0.204446 0.636407 0.379237
v 0.382147 0.257102 4.259973
v 0.480829 0.213498 4.259973
v 0.532050 0.047453 4.259973
v 0.549879 -0.100166 4.259973
v 0.397130 -0.084544 4.259973
v 0.284352 -0.075658 4.259973
v 0.273072 0.060761 4.259973
v 0.317266 0.227826 4.259973
v 0.600731 -0.718736 4.164806
v 0.395720 -0.812288 4.164806
v 0.232552 -0.808951 4.164806
v 0.615994 -0.712162 4.259973
v 0.399920 -0.837145 4.259973
v 0.218942 -0.825308 4.259973
v 0.480829 0.182183 4.089088
v 0.531514 0.046360 4.089088
v 0.255201 -0.098610 4.089088
v 0.268866 0.047989 4.089088
v 0.317266 0.244515 4.089088
v 0.382147 0.281392 4.089088
v 0.549984 -0.098005 4.089088
v 0.220150 -0.832458 4.202780
v 0.617196 -0.719273 4.202780
v 0.400735 -0.841970 4.202780
v 0.394461 0.056194 4.259973
v 0.646619 0.512020 -2.303064
v 0.421175 0.510961 -2.406727
v 0.682287 0.060829 -2.379991
v 0.338123 -0.018608 -2.361620
v 0.404005 -0.134431 -2.195963
v 0.692959 -0.069521 -2.204351
v 0.421175 0.654446 -2.060365
v 0.682288 0.564519 -2.158400
v 0.424030 0.270472 -2.433474
v 0.687512 0.274938 -2.438241
v 0.226765 0.448530 -2.495508
v 0.222202 0.066332 -2.472899
v 0.324333 0.238422 -2.495851
v 0.145015 0.317147 -2.867968
v 0.174395 -0.020426 -2.722105
v 0.230602 0.169822 -2.790603
v 1.218287 -0.020630 -3.252085
v 1.123978 -0.073577 -3.208541
v 1.031879 -0.025356 -3.157919
v 1.185425 0.242857 -3.214062
v 0.977970 0.224705 -3.110309
v 0.955430 0.087103 -3.110029
v 1.273783 0.147161 -3.266634
v 1.081131 0.267010 -3.159205
v 0.601182 0.110928 -4.098466
v 0.527152 0.086449 -4.062901
v 0.447387 0.075052 -4.023367
v 0.591346 0.247208 -4.082433
v 0.444410 0.225067 -4.009699
v 0.405503 0.144229 -3.996517
v 0.638968 0.192478 -4.111023
v 0.512947 0.254955 -4.042039
v 0.224981 -0.269055 -2.942269
v 0.211066 -0.244503 -3.487452
v 0.220903 0.248164 -2.943092
v 0.277294 0.276704 -3.526217
v 0.186463 0.342167 -3.587770
v 0.290313 0.309145 -3.404255
v 0.289429 0.318918 -3.238183
v 0.267277 0.287302 -3.086251
v 0.253579 -0.176774 -2.900483
v 0.271440 -0.027328 -2.896455
v 0.291804 0.132963 -2.902369
v 0.284324 0.164259 -3.553661
v 0.271804 -0.003317 -3.559621
v 0.245068 -0.151225 -3.529431
v 0.227781 -0.274102 -3.379715
v 0.237813 -0.293641 -3.252601
v 0.243225 -0.282346 -3.057187
v 0.148108 -0.331396 -2.885921
v 0.138120 -0.282661 -3.519317
v 0.168140 0.386936 -3.064725
v 0.188549 0.443489 -3.234258
v 0.194390 0.433974 -3.425910
v 0.332703 0.138236 -3.067041
v 0.334983 0.153201 -3.245656
v 0.323759 0.160985 -3.409559
v 0.313882 -0.029158 -3.059786
v 0.322298 -0.015608 -3.247894
v 0.314087 -0.002780 -3.415582
v 0.289701 -0.181612 -3.057726
v 0.292077 -0.174559 -3.249109
v 0.279583 -0.156930 -3.401682
v 0.132633 -0.348808 -3.050549
v 0.128691 -0.361053 -3.256067
v 0.134641 -0.347749 -3.385620
v 0.165483 -0.215936 -2.782370
v 0.183450 0.177146 -3.657125
v 0.172066 -0.008103 -3.660237
v 0.150069 -0.170418 -3.612509
v 0.701162 0.129562 -0.334012
v 0.585671 0.432808 -0.323623
v 0.357100 -0.300396 -0.325260
v 0.540712 -0.203613 -0.324831
v 0.379068 0.577851 -0.306696
v 0.487349 0.372286 -0.903013
v 0.547766 -0.151434 -0.904582
v 0.349512 0.452246 -0.902392
v 0.587091 0.125594 -0.903118
v 0.362260 -0.308687 -0.903300
v 0.648096 0.483500 -1.586714
v 0.676553 -0.174316 -1.586714
v 0.411311 0.603253 -1.586714
v 0.743248 0.111858 -1.586714
v 0.434086 -0.291282 -1.586714
v 0.382618 0.247160 3.807054
v 0.485924 0.151239 3.808564
v 0.535179 0.054464 3.810049
v 0.516549 -0.084836 3.806600
v 0.391881 -0.200848 3.807399
v 0.270187 -0.094315 3.806357
v 0.258838 0.044385 3.809988
v 0.309797 0.169182 3.807975
v 0.174487 0.018294 -2.603051
v 0.256863 0.202032 -2.635008
v 0.162687 0.348291 -2.683173
v 0.409662 0.190570 -4.566067
v 0.334003 0.186655 -4.555660
v 0.123578 0.145724 -4.448038
v 0.178767 0.178362 -4.481849
v 0.253688 0.195768 -4.518789
v 0.409305 0.238208 -4.551087
v 0.120508 0.206210 -4.432228
v 0.320227 0.246789 -4.553544
v 0.239644 0.255420 -4.517214
v 0.165655 0.238260 -4.480057
v 0.016164 0.151373 -4.669368
v 0.022053 0.116319 -4.675196
v 0.071167 0.128547 -4.699116
v 0.065279 0.163601 -4.693288
v 0.071715 0.148908 -4.753621
v 0.120829 0.161136 -4.777542
v 0.115624 0.192125 -4.772389
v 0.066509 0.179897 -4.748468
v 0.159945 0.140265 -4.773375
v 0.209060 0.152493 -4.797295
v 0.203540 0.185351 -4.791831
v 0.154426 0.173123 -4.767911
v 0.301952 0.182311 -4.784009
v 0.308181 0.145233 -4.790174
v 0.259066 0.133006 -4.766254
v 0.252837 0.170083 -4.760089
v 0.334558 0.148141 -4.380480
v 0.395195 0.270565 -4.389085
v 0.320677 0.262616 -4.351292
v 0.256820 0.124330 -4.351510
v 0.151434 0.094595 -4.343919
v 0.254976 0.243813 -4.319492
v 0.467033 0.190376 -4.453429
v 0.405415 0.165871 -4.417036
v 0.467460 0.234539 -4.451229
v 0.159231 0.183100 -4.318537
v 0.434074 0.270961 -4.309370
v 0.295186 0.111425 -4.260834
v 0.512271 0.179177 -4.360498
v 0.380083 0.136979 -4.292636
v 0.359107 0.264054 -4.271698
v 0.154800 0.075561 -4.243956
v 0.293439 0.245083 -4.239927
v 0.451054 0.154568 -4.327819
v 0.520012 0.225838 -4.352082
v 0.192409 0.169179 -4.206858
v 0.084631 0.120369 -4.254445
v 0.105269 0.135061 -4.322242
v 0.144374 0.149326 -4.224654
v 0.131287 0.163605 -4.317174
v -0.006519 -0.017375 -4.333251
v 0.016347 -0.004174 -4.389548
v -0.045224 0.024282 -4.341927
v -0.022357 0.037483 -4.398224
v 0.060611 0.020380 -4.288636
v 0.018513 0.069151 -4.297246
v 0.044418 0.083744 -4.358847
v 0.086542 0.035442 -4.353029
v 0.193126 0.240866 -4.595520
v 0.152577 0.218881 -4.690015
v 0.159619 0.176964 -4.696984
v 0.201685 0.189919 -4.603990
v 0.138630 0.227298 -4.568979
v 0.098082 0.205313 -4.663473
v 0.105123 0.163396 -4.670442
v 0.147189 0.176352 -4.577448
v 0.083023 0.145401 -4.527966
v 0.048722 0.131437 -4.605534
v 0.041139 0.176571 -4.598030
v 0.074194 0.197956 -4.519229
v 0.095635 0.190139 -4.624570
v 0.128690 0.211523 -4.545770
v 0.103217 0.145004 -4.632076
v 0.137519 0.158968 -4.554507
v 0.303908 0.216203 -4.624588
v 0.274530 0.195173 -4.695548
v 0.329025 0.208740 -4.722089
v 0.360641 0.228710 -4.648941
v 0.336877 0.162004 -4.729859
v 0.368499 0.177565 -4.658004
v 0.282381 0.148437 -4.703318
v 0.312827 0.162978 -4.633424
v 0.228749 0.168462 -4.610514
v 0.190254 0.155042 -4.696413
v 0.182964 0.198439 -4.689197
v 0.220066 0.220148 -4.601921
v 0.237459 0.212007 -4.715739
v 0.274561 0.233716 -4.628462
v 0.244750 0.168610 -4.722954
v 0.283244 0.182029 -4.637056
v 0.568594 0.165936 -4.248994
v 0.345447 0.093589 -4.126598
v 0.509166 0.263847 -4.204016
v 0.430227 0.258226 -4.156255
v 0.376935 0.242990 -4.130459
v 0.455477 0.107906 -4.181245
v 0.328081 0.178204 -4.110932
v 0.572859 0.217275 -4.246844
vn -0.4417 0.8915 0.1004
vn -0.6803 0.7328 0.0092
vn 0.2900 -0.9570 0.0040
vn -0.8910 0.4537 0.0152
vn 0.4174 0.8752 0.2447
vn -0.9906 -0.1332 0.0302
vn -0.6118 -0.7909 -0.0163
vn -0.6792 -0.7294 0.0816
vn -0.9379 0.3470 -0.0071
vn 0.9806 0.1918 0.0411
vn 0.6565 -0.7491 0.0886
vn -0.9186 -0.3831 -0.0975
vn -0.8848 -0.4625 0.0568
vn 0.9961 -0.0824 0.0327
vn 0.7862 -0.6177 0.0178
vn -0.3129 0.9160 0.2511
vn 0.9245 0.3783 0.0465
vn -0.2142 -0.9687 -0.1254
vn 0.7306 0.6819 -0.0342
vn -0.9222 0.3635 0.1318
vn -0.9417 0.2411 0.2346
vn -0.4281 -0.8874 -0.1710
vn -0.4206 0.8777 0.2297
vn -0.9288 -0.3552 0.1052
vn -0.0957 -0.9683 -0.2307
vn -0.0921 0.9786 0.1838
vn 0.7893 -0.3721 0.4884
vn 0.7363 0.0955 0.6699
vn 0.2895 -0.9553 0.0598
vn -0.0211 0.9806 -0.1947
vn 0.3930 -0.9179 0.0554
vn -0.1183 -0.9902 -0.0748
vn 0.3642 0.6261 0.6895
vn 0.0247 0.9941 0.1056
vn -0.9542 0.2943 -0.0539
vn 0.9836 0.0917 0.1555
vn 0.4097 0.9079 0.0887
vn -0.9919 0.1269 -0.0039
vn 0.9667 0.2557 0.0047
vn -0.0000 -0.0000 1.0000
vn -0.9173 0.0265 -0.3973
vn -0.4008 0.9070 0.1289
vn -0.4972 -0.8596 0.1173
vn 0.0524 -0.9952 0.0832
vn 0.9987 0.0436 -0.0265
vn -0.2948 -0.3128 -0.9029
vn 0.0077 -0.3748 -0.9271
vn 0.9949 0.0213 -0.0982
vn 0.0161 -0.7888 -0.6144
vn -0.4810 -0.8485 -0.2205
vn -0.7039 0.7001 -0.1201
vn -0.9942 0.1074 0.0075
vn 0.9245 0.3808 0.0167
vn -0.9945 -0.1019 -0.0253
vn 0.7480 0.6115 -0.2580
vn 0.9915 0.0924 -0.0919
vn -0.9354 0.3491 -0.0568
vn 0.2265 0.8999 -0.3728
vn -0.1481 -0.7819 -0.6056
vn -0.0934 -0.9152 -0.3919
vn -0.1736 0.9112 -0.3735
vn -0.0058 -0.9081 -0.4188
vn -0.1242 -0.9192 -0.3738
vn -0.3216 0.9468 -0.0120
vn 0.1893 0.9819 0.0076
vn -0.4150 0.1054 -0.9037
vn -0.0042 -0.2424 -0.9702
vn -0.4635 -0.8844 -0.0553
vn -0.4749 -0.3872 -0.7903
vn -0.4663 0.2180 -0.8573
vn 0.0833 0.8918 -0.4447
vn -0.9634 -0.2550 0.0822
vn -0.2238 0.9574 -0.1827
vn -0.8502 0.4683 -0.2404
vn -0.5216 -0.7494 0.4077
vn -0.8205 -0.1686 -0.5462
vn -0.7769 0.4076 -0.4799
vn 0.5312 -0.7908 0.3041
vn 0.4257 0.7578 0.4945
vn -0.6738 -0.5248 -0.5201
vn 0.8115 -0.1483 0.5652
vn -0.2816 -0.9583 0.0480
vn -0.7035 -0.5495 -0.4506
vn 0.5173 0.8211 0.2414
vn 0.8972 -0.2818 0.3401
vn 0.4018 -0.8944 0.1963
vn 0.0254 0.9947 0.0993
vn -0.6820 -0.7002 -0.2110
vn -0.9705 -0.0134 -0.2408
vn 0.2700 -0.9584 0.0922
vn -0.4912 0.8696 -0.0501
vn -0.2887 0.8909 0.3506
vn -0.3160 0.9480 -0.0374
vn -0.3012 0.7840 -0.5428
vn -0.7900 0.5663 -0.2350
vn -0.7762 0.6296 -0.0329
vn -0.7135 0.6579 0.2409
vn -0.7843 0.5499 0.2872
vn -0.2897 0.8908 0.3500
vn -0.9933 -0.1101 0.0365
vn -0.9958 -0.0741 -0.0544
vn -0.9876 -0.1566 0.0065
vn -0.9775 -0.1851 -0.1014
vn -0.7957 0.5660 0.2157
vn -0.9125 0.4064 0.0457
vn -0.9641 0.2655 -0.0105
vn -0.9613 0.2228 -0.1619
vn -0.9632 -0.0472 -0.2647
vn -0.9361 -0.2333 -0.2633
vn -0.8665 -0.4305 -0.2527
vn -0.9033 -0.4077 -0.1339
vn -0.9080 -0.4190 -0.0042
vn -0.8998 -0.3777 0.2183
vn -0.9666 -0.1216 0.2258
vn -0.9614 -0.1129 0.2511
vn -0.2967 -0.9548 -0.0162
vn -0.1958 -0.9764 -0.0913
vn -0.6391 -0.7688 0.0212
vn -0.5163 -0.8557 0.0352
vn -0.5260 -0.8482 -0.0629
vn -0.6038 -0.7398 -0.2969
vn -0.1846 -0.8856 -0.4263
vn -0.3156 -0.9471 0.0581
vn -0.4158 -0.3518 0.8386
vn -0.7748 0.5810 0.2492
vn -0.8695 -0.0815 0.4872
vn -0.8159 -0.2039 0.5410
vn -0.7378 -0.5088 0.4436
vn -0.3405 -0.7498 0.5673
vn -0.2291 0.0023 -0.9734
vn -0.2376 -0.3035 -0.9227
vn -0.7132 0.2080 -0.6694
vn -0.2332 0.3731 -0.8980
vn -0.2073 -0.6379 -0.7417
vn -0.6256 -0.4982 -0.6003
vn -0.6915 -0.2624 -0.6730
vn -0.7140 -0.0285 -0.6996
vn -0.0669 0.9812 -0.1809
vn -0.1192 -0.9872 0.1063
vn -0.8920 -0.4331 -0.1294
vn -0.5407 0.8004 -0.2589
vn -0.4657 -0.8838 0.0453
vn -0.9268 0.3570 -0.1171
vn 0.1148 0.9722 0.2042
vn -0.1506 -0.9886 0.0052
vn -0.9003 -0.4343 -0.0281
vn -0.4937 0.8523 -0.1728
vn -0.4662 -0.8845 0.0168
vn -0.9110 0.3684 -0.1852
vn 0.1863 0.9630 0.1949
vn -0.1343 -0.9904 -0.0342
vn -0.9722 -0.1390 0.1882
vn -0.4377 0.8655 0.2437
vn -0.6461 -0.7617 0.0485
vn -0.9469 0.2424 0.2114
vn 0.7738 0.6326 -0.0321
vn 0.9235 0.3804 0.0491
vn 0.9957 -0.0427 0.0817
vn 0.6668 -0.7400 0.0880
vn -0.6835 -0.7254 0.0813
vn -0.9923 -0.1056 0.0651
vn -0.8848 0.4652 0.0267
vn -0.7033 0.7103 -0.0295
vn -0.5215 -0.8066 0.2785
vn -0.8005 0.3569 -0.4815
vn 0.0063 0.8829 -0.4694
vn -0.8883 -0.4275 -0.1679
vn 0.2596 -0.9552 0.1418
vn 0.9779 0.0936 0.1867
vn -0.8859 0.2960 -0.3571
vn -0.5996 0.7993 -0.0398
vn 0.4060 -0.8962 0.1788
vn -0.9870 -0.1600 0.0179
vn 0.3897 -0.8705 0.3006
vn 0.3483 -0.9287 0.1276
vn -0.0183 0.9813 0.1916
vn 0.4738 -0.8803 0.0228
vn 0.5098 -0.8437 0.1681
vn -0.9194 -0.3704 -0.1323
vn 0.4739 -0.8024 0.3628
vn 0.9053 0.3705 0.2078
vn -0.9188 -0.3704 -0.1364
vn -0.4092 0.8377 0.3617
vn 0.9558 -0.2842 0.0757
vn 0.9554 0.1704 0.2414
vn -0.4086 0.8505 0.3311
vn 0.9037 0.3704 0.2148
vn 0.4023 -0.8904 -0.2129
vn -0.4068 0.8686 0.2830
vn 0.3988 -0.9008 -0.1719
vn -0.9183 -0.3705 -0.1394
vn -0.4077 0.8613 0.3033
vn 0.9046 0.3705 0.2107
vn 0.4003 -0.8967 -0.1890
vn 0.9026 0.3703 0.2195
vn 0.4043 -0.8827 -0.2395
vn -0.3656 0.9304 0.0244
vn -0.6553 0.6753 -0.3384
vn -0.6255 -0.3120 -0.7151
vn 0.6005 0.2593 0.7564
vn 0.6135 -0.7714 -0.1688
vn -0.6555 0.7205 0.2264
vn -0.7038 0.6772 0.2147
vn 0.8057 -0.5887 -0.0659
vn 0.5669 0.2788 0.7752
vn -0.4977 -0.3000 -0.8138
vn -0.9270 -0.3723 -0.0450
vn -0.9124 -0.3707 -0.1737
vn 0.3708 -0.9272 -0.0525
vn 0.3944 -0.9096 -0.1305
vn -0.3837 0.9109 0.1515
vn -0.4024 0.8900 0.2144
vn 0.8917 0.3517 0.2848
vn 0.9124 0.3707 0.1737
vn 0.6205 -0.7734 -0.1297
vn 0.3983 -0.9019 -0.1673
vn 0.8927 0.3388 0.2973
vn -0.6216 0.7833 0.0110
vn -0.4048 0.8800 0.2483
vn -0.9091 -0.3707 -0.1901
vn -0.9229 -0.3822 -0.0465
vn -0.9124 -0.3703 -0.1742
vn 0.1988 -0.9660 -0.1655
vn 0.4081 -0.8914 -0.1970
vn 0.9332 0.3026 0.1938
vn 0.9135 0.3637 0.1824
vn -0.3742 0.8243 0.4249
vn -0.4061 0.8731 0.2697
vn 0.1013 -0.9440 -0.3141
vn 0.3961 -0.9065 -0.1458
vn 0.8898 0.3497 0.2931
vn -0.1156 0.9037 0.4122
vn -0.4035 0.8860 0.2285
vn -0.9285 -0.3678 -0.0506
vn -0.3617 -0.7601 0.5399
vn -0.4350 -0.3202 -0.8416
vn -0.0893 0.9790 0.1830
vn -0.0187 0.2478 0.9686
vn -0.6766 0.7362 -0.0167
vn 0.2595 -0.9616 0.0893
vn 0.3787 0.9229 0.0696
vn 0.5846 0.8106 0.0342
vn -0.2112 0.9769 -0.0319
vn -0.6968 -0.3567 -0.6223
vn -0.3943 0.9165 -0.0675
vn -0.9201 -0.3703 -0.1275
vn -0.4105 0.9117 0.0138
vn -0.7163 0.6978 -0.0066
vn 0.4204 -0.8998 0.1170
vn -0.2607 0.9650 0.0294
vn -0.7066 0.7058 -0.0518
vn 0.3539 -0.9289 0.1092
vn 0.4598 -0.8788 0.1273
vn 0.4532 -0.8885 0.0713
vn 0.9707 0.1724 0.1677
vn -0.1870 -0.0000 0.9824
vn -0.6417 -0.6856 -0.3438
vn 0.2200 0.9745 0.0438
vn -0.3800 0.9146 -0.1384
vn -0.2192 0.9757 -0.0017
vn 0.3254 -0.9173 0.2295
vn 0.4417 0.8915 0.1004
vn 0.3610 0.9317 -0.0410
vn -0.5087 -0.8605 -0.0274
vn 0.9346 0.3543 0.0323
vn -0.2460 0.9402 0.2355
vn 0.8855 -0.4564 0.0867
vn 0.6118 -0.7909 -0.0163
vn 0.6792 -0.7294 0.0816
vn 0.9379 0.3470 -0.0071
vn -0.9362 0.3510 0.0161
vn -0.5154 -0.8534 0.0786
vn 0.9186 -0.3831 -0.0975
vn 0.8848 -0.4625 0.0568
vn -0.9961 -0.0824 0.0327
vn -0.8610 -0.5086 -0.0026
vn 0.3129 0.9160 0.2511
vn -0.9245 0.3783 0.0465
vn 0.2218 -0.9674 -0.1226
vn -0.2717 0.9623 -0.0141
vn 0.9222 0.3635 0.1318
vn 0.9417 0.2411 0.2346
vn 0.4281 -0.8874 -0.1710
vn 0.4416 0.8732 0.2062
vn 0.9511 -0.2217 0.2149
vn 0.0546 -0.9831 -0.1750
vn -0.3659 0.7672 0.5268
vn -0.6769 -0.5318 0.5089
vn -0.8225 0.1609 0.5455
vn -0.2895 -0.9553 0.0598
vn -0.0241 0.9712 -0.2369
vn -0.3930 -0.9179 0.0554
vn 0.1183 -0.9902 -0.0748
vn -0.3642 0.6261 0.6895
vn -0.2986 0.9106 0.2858
vn 0.9369 0.3496 -0.0052
vn -0.9836 0.0917 0.1555
vn -0.4904 0.8628 0.1226
vn 0.9919 0.1269 -0.0039
vn -0.9707 0.2391 0.0233
vn 0.9802 0.0570 -0.1897
vn 0.7031 0.6994 -0.1282
vn 0.4915 -0.8672 0.0802
vn -0.0524 -0.9952 0.0832
vn -0.9840 0.0859 0.1563
vn 0.2948 -0.3128 -0.9029
vn -0.2718 -0.3016 -0.9139
vn -0.9949 0.0213 -0.0982
vn -0.0161 -0.7888 -0.6144
vn 0.3296 -0.7222 -0.6081
vn 0.6990 0.7059 -0.1149
vn 0.9942 0.1079 0.0020
vn -0.9245 0.3808 0.0167
vn 0.9945 -0.1019 -0.0253
vn -0.7480 0.6115 -0.2580
vn -0.9992 -0.0396 0.0071
vn 0.8847 0.4651 0.0324
vn -0.2265 0.8999 -0.3728
vn 0.1598 -0.7880 -0.5945
vn -0.0440 -0.8269 -0.5606
vn 0.1736 0.9112 -0.3735
vn 0.0058 -0.9081 -0.4188
vn 0.1242 -0.9192 -0.3738
vn 0.3169 0.9485 0.0043
vn -0.1893 0.9819 0.0076
vn -0.0241 0.4920 -0.8702
vn 0.0042 -0.2424 -0.9702
vn 0.0670 -0.7582 -0.6486
vn 0.5752 -0.3542 -0.7373
vn 0.3845 0.1065 -0.9169
vn -0.0833 0.8918 -0.4447
vn 0.9061 -0.4178 -0.0664
vn 0.2238 0.9574 -0.1827
vn 0.8502 0.4683 -0.2404
vn 0.5216 -0.7494 0.4077
vn -0.9170 -0.0837 -0.3900
vn -0.8706 0.1216 -0.4767
vn 0.9354 0.3118 0.1665
vn -0.0759 0.9432 -0.3236
vn -0.5340 -0.8143 -0.2275
vn 0.7061 0.7074 -0.0324
vn 0.8824 -0.3846 0.2711
vn -0.8068 -0.4969 -0.3197
vn 0.5634 0.7313 -0.3843
vn 0.7546 -0.3002 -0.5835
vn 0.3197 -0.8728 -0.3688
vn 0.1687 0.9795 -0.1105
vn -0.6784 -0.6254 0.3856
vn -0.8515 0.1405 0.5052
vn -0.4096 -0.9048 0.1167
vn -0.2991 0.9371 0.1797
vn 0.2887 0.8909 0.3506
vn 0.3107 0.9495 -0.0433
vn 0.3012 0.7840 -0.5428
vn 0.6963 0.6092 -0.3796
vn 0.7934 0.6086 -0.0060
vn 0.7484 0.5969 0.2892
vn 0.7843 0.5499 0.2872
vn 0.2888 0.8914 0.3492
vn 0.9972 -0.0750 0.0064
vn 0.9959 -0.0562 -0.0709
vn 0.9819 -0.1869 0.0305
vn 0.9725 -0.2235 -0.0647
vn 0.8276 0.4123 0.3808
vn 0.9487 0.2522 0.1908
vn 0.9641 0.2655 -0.0105
vn 0.9613 0.2228 -0.1619
vn 0.9632 -0.0472 -0.2647
vn 0.9352 -0.2249 -0.2737
vn 0.8666 -0.4299 -0.2533
vn 0.8991 -0.4204 -0.1222
vn 0.9080 -0.4190 -0.0042
vn 0.8998 -0.3777 0.2183
vn 0.9567 -0.1484 0.2503
vn 0.9665 -0.0984 0.2369
vn 0.1916 -0.9799 0.0547
vn 0.1958 -0.9764 -0.0913
vn 0.5147 -0.8386 0.1787
vn 0.5163 -0.8557 0.0352
vn 0.6180 -0.7682 -0.1669
vn 0.6038 -0.7398 -0.2969
vn 0.1846 -0.8856 -0.4263
vn 0.3024 -0.9505 0.0721
vn 0.4537 -0.2813 0.8456
vn 0.7748 0.5810 0.2492
vn 0.8606 -0.0908 0.5012
vn 0.8658 -0.1166 0.4865
vn 0.7833 -0.4411 0.4380
vn 0.4503 -0.6327 0.6300
vn 0.2291 0.0023 -0.9734
vn 0.2376 -0.3035 -0.9227
vn 0.6681 0.2779 -0.6903
vn 0.2201 0.3871 -0.8954
vn 0.2332 -0.6555 -0.7183
vn 0.6256 -0.4982 -0.6003
vn 0.6915 -0.2624 -0.6730
vn 0.7139 -0.0285 -0.6996
vn 0.0213 0.9780 -0.2073
vn 0.1192 -0.9872 0.1063
vn 0.8498 -0.4923 -0.1883
vn 0.5212 0.8186 -0.2413
vn 0.2157 -0.9755 -0.0435
vn 0.9447 0.2333 -0.2305
vn -0.1148 0.9722 0.2042
vn 0.1344 -0.9908 0.0154
vn 0.9003 -0.4343 -0.0281
vn 0.5523 0.8098 -0.1981
vn 0.4662 -0.8845 0.0168
vn 0.9149 0.3550 -0.1923
vn -0.1863 0.9630 0.1949
vn 0.0983 -0.9950 -0.0150
vn 0.9722 -0.1390 0.1882
vn 0.4891 0.8414 0.2298
vn 0.6461 -0.7617 0.0485
vn 0.8930 0.3610 0.2687
vn -0.7305 0.6825 0.0260
vn -0.6575 -0.7504 0.0682
vn 0.6835 -0.7254 0.0813
vn 0.9923 -0.1056 0.0651
vn 0.8848 0.4652 0.0267
vn 0.7033 0.7103 -0.0295
vn 0.4576 -0.8755 0.1554
vn 0.7995 0.3720 -0.4717
vn -0.0063 0.8829 -0.4694
vn 0.8149 -0.5182 -0.2596
vn 0.0399 -0.9787 -0.2016
vn 0.8905 -0.0551 -0.4517
vn -0.6421 0.6201 0.4508
vn -0.4165 0.8866 0.2010
vn 0.2333 -0.8960 -0.3779
vn -0.9466 -0.1256 0.2969
vn 0.0198 -0.9193 -0.3930
vn -0.2047 -0.9561 -0.2096
vn 0.3289 0.9312 -0.1573
vn 0.2884 -0.9459 -0.1485
vn 0.2503 -0.9385 -0.2379
vn -0.8955 -0.2152 0.3895
vn 0.2103 -0.8521 -0.4792
vn 0.8611 0.2208 -0.4580
vn -0.8938 -0.2155 0.3934
vn -0.3423 0.9089 -0.2383
vn 0.8321 -0.4380 -0.3402
vn 0.8814 0.1477 -0.4487
vn -0.3310 0.9202 -0.2092
vn 0.8576 0.2213 -0.4643
vn 0.2850 -0.9535 0.0978
vn -0.3127 0.9357 -0.1637
vn 0.2684 -0.9615 0.0597
vn -0.8925 -0.2158 0.3961
vn -0.3204 0.9295 -0.1828
vn 0.8596 0.2210 -0.4606
vn 0.2754 -0.9584 0.0756
vn 0.8552 0.2216 -0.4685
vn 0.2956 -0.9474 0.1228
vn -0.2404 0.9677 0.0755
vn -0.6213 0.6149 0.4857
vn -0.4436 -0.2319 0.8657
vn 0.4007 0.1854 -0.8973
vn 0.4930 -0.8700 -0.0038
vn -0.5573 0.8294 -0.0379
vn -0.6072 0.7944 -0.0127
vn 0.6772 -0.7183 -0.1596
vn 0.3671 0.2110 -0.9060
vn -0.4164 -0.2030 0.8862
vn -0.9276 -0.2075 0.3108
vn -0.8773 -0.2184 0.4273
vn 0.2123 -0.9752 -0.0626
vn 0.2512 -0.9677 0.0212
vn -0.2545 0.9666 -0.0285
vn -0.2856 0.9532 -0.0992
vn 0.8248 0.2248 -0.5188
vn 0.8773 0.2184 -0.4273
vn 0.4882 -0.8716 -0.0445
vn 0.2665 -0.9622 0.0554
vn 0.8187 0.1954 -0.5400
vn -0.4542 0.8766 0.1586
vn -0.2991 0.9452 -0.1310
vn -0.8697 -0.2196 0.4421
vn -0.9260 -0.2075 0.3153
vn -0.8772 -0.2184 0.4276
vn 0.0665 -0.9916 0.1105
vn 0.2859 -0.9548 0.0810
vn 0.8796 0.1487 -0.4519
vn 0.8748 0.2116 -0.4359
vn -0.3292 0.8924 -0.3086
vn -0.3075 0.9395 -0.1511
vn 0.2070 -0.9756 -0.0737
vn 0.2576 -0.9656 0.0354
vn 0.8191 0.2065 -0.5353
vn -0.0677 0.9265 -0.3702
vn -0.2913 0.9500 -0.1125
vn -0.9265 -0.2078 0.3138
vn -0.6242 -0.6653 -0.4095
vn -0.2312 -0.2767 0.9327
vn 0.0343 0.9868 -0.1583
vn -0.2456 0.2872 -0.9259
vn -0.5066 0.8384 0.2011
vn 0.0534 -0.9871 -0.1511
vn 0.4982 0.8479 -0.1812
vn 0.6831 0.7012 -0.2045
vn -0.0507 0.9954 0.0815
vn -0.5106 -0.1316 0.8497
vn -0.1972 0.9657 0.1689
vn -0.8975 -0.2148 0.3851
vn -0.2335 0.9677 0.0952
vn -0.4454 0.8626 0.2398
vn 0.2022 -0.9529 -0.2259
vn -0.0812 0.9965 0.0212
vn -0.5304 0.8120 0.2434
vn 0.1426 -0.9699 -0.1972
vn 0.2463 -0.9378 -0.2448
vn 0.2155 -0.9499 -0.2264
vn 0.8797 -0.0609 -0.4716
vn -0.4512 0.0721 -0.8895
vn -0.4511 0.0721 -0.8895
vn -0.8337 -0.2612 0.4866
vn 0.3807 0.9050 -0.1902
vn -0.2918 0.9264 0.2378
vn 0.1244 0.9909 0.0515
vn 0.1503 -0.9270 -0.3437
vn -0.5313 0.8344 0.1468
vn -0.3610 0.9317 -0.0410
vn 0.5087 -0.8605 -0.0274
vn -0.9346 0.3543 0.0323
vn 0.2460 0.9402 0.2355
vn -0.8855 -0.4564 0.0867
vn -0.2234 -0.9743 0.0282
vn -0.6154 -0.7844 0.0773
vn -0.9681 0.2390 0.0745
vn 0.9362 0.3510 0.0161
vn 0.5154 -0.8534 0.0786
vn -0.8652 -0.5012 -0.0170
vn -0.9220 -0.3845 0.0465
vn 0.8645 -0.4919 0.1030
vn 0.8610 -0.5086 -0.0026
vn -0.4286 0.8651 0.2605
vn 0.9331 0.3561 0.0506
vn -0.2218 -0.9674 -0.1226
vn 0.2717 0.9623 -0.0141
vn -0.9295 0.3439 0.1331
vn -0.9349 0.3115 0.1701
vn -0.2378 -0.9707 -0.0337
vn -0.4416 0.8732 0.2062
vn -0.9511 -0.2217 0.2149
vn -0.0546 -0.9831 -0.1750
vn 0.3659 0.7672 0.5268
vn 0.6769 -0.5318 0.5089
vn 0.8225 0.1609 0.5455
vn -0.0409 -0.9908 -0.1288
vn 0.0241 0.9712 -0.2369
vn 0.0396 -0.6373 0.7696
vn 0.0459 -0.9948 0.0908
vn 0.4595 0.7328 0.5019
vn 0.2986 0.9106 0.2858
vn -0.9369 0.3496 -0.0052
vn 0.9961 -0.0824 0.0307
vn 0.4904 0.8628 0.1226
vn -0.9928 0.1199 0.0021
vn 0.9707 0.2391 0.0233
vn -0.9802 0.0570 -0.1897
vn -0.7031 0.6994 -0.1282
vn -0.4915 -0.8672 0.0802
vn 0.0648 -0.9904 0.1224
vn 0.9840 0.0859 0.1563
vn -0.1681 -0.3685 -0.9143
vn 0.2718 -0.3016 -0.9139
vn 0.9500 -0.0030 -0.3121
vn 0.0444 -0.8429 -0.5363
vn -0.3296 -0.7222 -0.6081
vn -0.6990 0.7059 -0.1149
vn -0.9942 0.1079 0.0020
vn 0.9661 0.2379 -0.1004
vn -0.9758 0.1248 -0.1798
vn 0.4887 0.8599 -0.1475
vn 0.9992 -0.0396 0.0071
vn -0.8847 0.4651 0.0324
vn 0.0874 0.9725 -0.2158
vn -0.1598 -0.7880 -0.5945
vn 0.0440 -0.8269 -0.5606
vn -0.1692 0.9105 -0.3772
vn 0.0204 -0.9299 -0.3672
vn -0.1753 -0.8457 -0.5041
vn -0.3169 0.9485 0.0043
vn 0.2375 0.9678 -0.0827
vn 0.0241 0.4920 -0.8702
vn 0.0130 -0.2622 -0.9649
vn -0.0670 -0.7582 -0.6486
vn -0.5752 -0.3542 -0.7373
vn -0.3845 0.1065 -0.9169
vn 0.0090 0.9588 -0.2840
vn -0.9061 -0.4178 -0.0664
vn -0.3610 0.9307 -0.0593
vn -0.8876 0.4328 -0.1578
vn -0.5945 -0.7648 0.2483
vn -0.3531 0.7826 -0.5126
vn 0.0571 0.9961 -0.0672
vn 0.8269 -0.3024 0.4741
vn -0.6878 0.6113 -0.3914
vn -0.6029 -0.7203 -0.3431
vn -0.4799 0.8771 -0.0203
vn 0.7953 0.1155 0.5951
vn -0.7020 -0.0110 -0.7121
vn 0.5403 0.8050 0.2450
vn 0.9280 -0.1600 0.3364
vn 0.5532 -0.8011 0.2284
vn -0.0868 0.9932 0.0774
vn -0.6441 -0.7366 -0.2061
vn -0.9216 0.3005 -0.2456
vn -0.2672 -0.9630 -0.0348
vn -0.5089 0.8592 -0.0537
vn -0.3054 0.8917 0.3342
vn -0.3107 0.9495 -0.0433
vn -0.2296 0.8417 -0.4887
vn -0.6963 0.6092 -0.3796
vn -0.7934 0.6086 -0.0060
vn -0.7484 0.5969 0.2892
vn -0.6935 0.6057 0.3902
vn -0.2888 0.8914 0.3492
vn -0.9972 -0.0750 0.0064
vn -0.9959 -0.0562 -0.0709
vn -0.9819 -0.1869 0.0305
vn -0.9725 -0.2235 -0.0647
vn -0.8276 0.4123 0.3808
vn -0.9487 0.2522 0.1908
vn -0.9735 0.2218 -0.0561
vn -0.9579 0.1232 -0.2593
vn -0.9578 -0.0616 -0.2809
vn -0.9352 -0.2249 -0.2737
vn -0.8666 -0.4299 -0.2533
vn -0.8991 -0.4204 -0.1222
vn -0.9100 -0.4146 -0.0012
vn -0.8920 -0.4105 0.1891
vn -0.9567 -0.1484 0.2503
vn -0.9665 -0.0984 0.2369
vn -0.1916 -0.9799 0.0547
vn -0.1639 -0.9784 -0.1262
vn -0.5147 -0.8386 0.1787
vn -0.5242 -0.8506 0.0406
vn -0.6180 -0.7682 -0.1669
vn -0.5502 -0.7563 -0.3539
vn -0.1816 -0.8848 -0.4292
vn -0.3024 -0.9505 0.0721
vn -0.4537 -0.2813 0.8456
vn -0.7856 0.5692 0.2425
vn -0.8606 -0.0908 0.5012
vn -0.8658 -0.1166 0.4865
vn -0.7833 -0.4411 0.4380
vn -0.4503 -0.6327 0.6300
vn -0.2430 0.0151 -0.9699
vn -0.2401 -0.3012 -0.9228
vn -0.6681 0.2779 -0.6903
vn -0.2201 0.3871 -0.8954
vn -0.2332 -0.6555 -0.7183
vn -0.5601 -0.5637 -0.6071
vn -0.6623 -0.2926 -0.6898
vn -0.7106 -0.0319 -0.7029
vn -0.0213 0.9780 -0.2073
vn -0.1493 -0.9799 0.1325
vn -0.8498 -0.4923 -0.1883
vn -0.5212 0.8186 -0.2413
vn -0.2157 -0.9755 -0.0435
vn -0.9447 0.2333 -0.2305
vn -0.0673 0.9912 0.1140
vn -0.1344 -0.9908 0.0154
vn -0.9715 -0.1369 -0.1938
vn -0.5523 0.8098 -0.1981
vn -0.6452 -0.7616 -0.0607
vn -0.9149 0.3550 -0.1923
vn 0.1170 0.9906 0.0703
vn -0.0983 -0.9950 -0.0150
vn -0.9497 -0.2213 0.2214
vn -0.4891 0.8414 0.2298
vn -0.4318 -0.8951 0.1115
vn -0.8930 0.3610 0.2687
vn 0.7305 0.6825 0.0260
vn 0.6575 -0.7504 0.0682
vn -0.6797 -0.7299 0.0724
vn -0.4576 -0.8755 0.1554
vn -0.7995 0.3720 -0.4717
vn -0.2237 0.9298 -0.2924
vn -0.8149 -0.5182 -0.2596
vn 0.2476 -0.9578 0.1462
vn 0.9778 0.1039 0.1821
vn -0.8382 0.4957 -0.2274
vn -0.7032 0.6958 -0.1463
vn 0.4781 -0.8388 0.2603
vn -0.9566 -0.2903 -0.0254
vn 0.2847 -0.8987 0.3335
vn 0.0271 -0.9754 0.2188
vn 0.1980 0.9753 0.0974
vn 0.2393 -0.9650 0.1073
vn 0.4618 -0.8789 0.1195
vn 0.4776 -0.7988 0.3657
vn -0.4092 0.8377 0.3618
vn 0.9791 0.1038 0.1749
vn 0.9342 0.3019 0.1902
vn 0.3987 -0.9008 -0.1720
vn 0.9046 0.3704 0.2107
vn -0.4115 0.9107 0.0348
vn -0.8276 0.4939 -0.2668
vn -0.6243 -0.3123 -0.7160
vn 0.5620 0.2700 0.7818
vn 0.6133 -0.7713 -0.1701
vn -0.6567 0.7213 0.2200
vn -0.6937 0.6655 0.2754
vn 0.6220 -0.7625 -0.1782
vn 0.0596 0.2938 0.9540
vn -0.6093 -0.2793 -0.7421
vn -0.9287 -0.3677 -0.0474
vn 0.3826 -0.9231 -0.0395
vn -0.3953 0.9081 0.1384
vn 0.8875 0.3686 0.2765
vn 0.3770 -0.9262 -0.0034
vn 0.8851 0.3683 0.2844
vn -0.4081 0.8569 0.3150
vn -0.9214 -0.3192 -0.2218
vn -0.9286 -0.3675 -0.0523
vn -0.9123 -0.3707 -0.1740
vn 0.4108 -0.8558 -0.3144
vn 0.4006 -0.8958 -0.1924
vn 0.9161 0.3635 0.1694
vn 0.9113 0.3707 0.1793
vn -0.0318 0.9879 0.1518
vn -0.3762 0.8916 0.2520
vn 0.3808 -0.9243 -0.0275
vn 0.8855 0.3684 0.2832
vn -0.3939 0.9105 0.1260
vn -0.9217 -0.3851 -0.0461
vn -0.5062 -0.3395 -0.7928
vn -0.2666 0.9618 0.0631
vn 0.0569 0.2893 0.9556
vn -0.7829 0.5427 0.3043
vn 0.4259 -0.8993 0.0995
vn 0.2578 0.9575 0.1296
vn 0.3704 0.9233 0.1011
vn -0.2388 0.9708 -0.0229
vn -0.7000 -0.2250 -0.6778
vn -0.3968 0.9155 -0.0670
vn -0.4082 0.9128 0.0123
vn -0.6338 0.7703 -0.0700
vn 0.4154 -0.9016 0.1208
vn -0.2506 0.9671 0.0435
vn -0.6972 0.7137 -0.0668
vn 0.3529 -0.9294 0.1078
vn 0.4500 -0.8856 0.1149
vn 0.4276 -0.8963 0.1177
vn 0.9742 0.0964 0.2040
vn -0.8807 -0.4057 -0.2445
vn 0.2606 0.9588 0.1134
vn -0.4989 0.8599 -0.1084
vn -0.0641 0.9970 -0.0433
vn 0.3953 -0.8841 0.2494
vn 0.5313 0.8344 0.1468
vn 0.6803 0.7328 0.0092
vn -0.2900 -0.9570 0.0040
vn 0.8910 0.4537 0.0152
vn -0.4174 0.8752 0.2447
vn 0.9906 -0.1332 0.0302
vn 0.2234 -0.9743 0.0282
vn 0.6154 -0.7844 0.0773
vn 0.9681 0.2390 0.0745
vn -0.9806 0.1918 0.0411
vn -0.6565 -0.7491 0.0886
vn 0.8652 -0.5012 -0.0170
vn 0.9220 -0.3845 0.0465
vn -0.8645 -0.4919 0.1030
vn -0.7862 -0.6177 0.0178
vn 0.4286 0.8651 0.2605
vn -0.9331 0.3561 0.0506
vn 0.2142 -0.9687 -0.1254
vn -0.7306 0.6819 -0.0342
vn 0.9295 0.3439 0.1331
vn 0.9349 0.3115 0.1701
vn 0.2378 -0.9707 -0.0337
vn 0.4206 0.8777 0.2297
vn 0.9288 -0.3552 0.1052
vn 0.0957 -0.9683 -0.2307
vn 0.0921 0.9786 0.1838
vn -0.7893 -0.3721 0.4884
vn -0.7363 0.0955 0.6699
vn 0.0409 -0.9908 -0.1288
vn 0.0211 0.9806 -0.1947
vn -0.0396 -0.6373 0.7696
vn -0.0459 -0.9948 0.0908
vn -0.4595 0.7328 0.5019
vn -0.0247 0.9941 0.1056
vn 0.9542 0.2943 -0.0539
vn -0.9961 -0.0824 0.0307
vn -0.4097 0.9079 0.0887
vn 0.9928 0.1199 0.0021
vn -0.9667 0.2557 0.0047
vn 0.9173 0.0265 -0.3973
vn 0.4008 0.9070 0.1289
vn 0.4972 -0.8596 0.1173
vn -0.0648 -0.9904 0.1224
vn -0.9987 0.0436 -0.0265
vn 0.1681 -0.3685 -0.9143
vn -0.0077 -0.3748 -0.9271
vn -0.9500 -0.0030 -0.3121
vn -0.0444 -0.8429 -0.5363
vn 0.4810 -0.8485 -0.2205
vn 0.7039 0.7001 -0.1201
vn 0.9942 0.1074 0.0075
vn -0.9661 0.2379 -0.1004
vn 0.9758 0.1248 -0.1798
vn -0.4887 0.8599 -0.1475
vn -0.9915 0.0924 -0.0919
vn 0.9354 0.3491 -0.0568
vn -0.0874 0.9725 -0.2158
vn 0.1481 -0.7819 -0.6056
vn 0.0934 -0.9152 -0.3919
vn 0.1692 0.9105 -0.3772
vn -0.0204 -0.9299 -0.3672
vn 0.1753 -0.8457 -0.5041
vn 0.3216 0.9468 -0.0120
vn -0.2375 0.9678 -0.0827
vn 0.4150 0.1054 -0.9037
vn -0.0130 -0.2622 -0.9649
vn 0.4635 -0.8844 -0.0553
vn 0.4749 -0.3872 -0.7903
vn 0.4663 0.2180 -0.8573
vn -0.0090 0.9588 -0.2840
vn 0.9634 -0.2550 0.0822
vn 0.3610 0.9307 -0.0593
vn 0.8876 0.4328 -0.1578
vn 0.5946 -0.7648 0.2483
vn -0.4711 0.8409 -0.2665
vn 0.1071 0.9689 -0.2229
vn 0.5879 -0.6165 0.5237
vn 0.7701 0.6118 0.1806
vn -0.8414 -0.4360 -0.3192
vn 0.8214 -0.2263 0.5236
vn -0.5477 -0.8045 -0.2301
vn -0.9276 0.1512 -0.3416
vn 0.5814 0.7118 -0.3942
vn 0.7033 -0.4148 -0.5773
vn 0.1695 -0.9405 -0.2946
vn 0.0686 0.9960 -0.0578
vn -0.7065 -0.5833 0.4007
vn -0.7496 0.4412 0.4934
vn 0.0630 -0.9856 -0.1569
vn -0.3166 0.9297 0.1882
vn 0.3054 0.8917 0.3342
vn 0.3160 0.9480 -0.0374
vn 0.2296 0.8417 -0.4887
vn 0.7900 0.5663 -0.2350
vn 0.7762 0.6296 -0.0329
vn 0.7135 0.6579 0.2409
vn 0.6935 0.6057 0.3902
vn 0.2897 0.8908 0.3500
vn 0.9933 -0.1101 0.0365
vn 0.9958 -0.0741 -0.0544
vn 0.9876 -0.1566 0.0065
vn 0.9775 -0.1851 -0.1014
vn 0.7957 0.5660 0.2157
vn 0.9125 0.4064 0.0457
vn 0.9735 0.2218 -0.0561
vn 0.9579 0.1232 -0.2593
vn 0.9578 -0.0616 -0.2809
vn 0.9361 -0.2333 -0.2633
vn 0.8665 -0.4305 -0.2527
vn 0.9033 -0.4077 -0.1339
vn 0.9100 -0.4146 -0.0012
vn 0.8920 -0.4105 0.1891
vn 0.9666 -0.1216 0.2258
vn 0.9614 -0.1129 0.2511
vn 0.2967 -0.9548 -0.0162
vn 0.1639 -0.9784 -0.1262
vn 0.6391 -0.7688 0.0212
vn 0.5242 -0.8506 0.0406
vn 0.5260 -0.8482 -0.0629
vn 0.5502 -0.7563 -0.3539
vn 0.1816 -0.8848 -0.4292
vn 0.3156 -0.9471 0.0581
vn 0.4158 -0.3518 0.8386
vn 0.7856 0.5692 0.2425
vn 0.8695 -0.0815 0.4872
vn 0.8159 -0.2039 0.5410
vn 0.7378 -0.5088 0.4436
vn 0.3405 -0.7498 0.5673
vn 0.2430 0.0151 -0.9699
vn 0.2401 -0.3012 -0.9228
vn 0.7132 0.2080 -0.6694
vn 0.2332 0.3731 -0.8980
vn 0.2073 -0.6379 -0.7417
vn 0.5601 -0.5637 -0.6071
vn 0.6623 -0.2926 -0.6897
vn 0.7106 -0.0319 -0.7029
vn 0.0669 0.9812 -0.1809
vn 0.1493 -0.9799 0.1325
vn 0.8920 -0.4331 -0.1294
vn 0.5407 0.8004 -0.2589
vn 0.4657 -0.8838 0.0453
vn 0.9268 0.3570 -0.1171
vn 0.0673 0.9912 0.1140
vn 0.1506 -0.9886 0.0052
vn 0.9715 -0.1369 -0.1938
vn 0.4937 0.8523 -0.1728
vn 0.6452 -0.7616 -0.0607
vn 0.9110 0.3684 -0.1852
vn -0.1170 0.9906 0.0703
vn 0.1343 -0.9904 -0.0342
vn 0.9497 -0.2213 0.2214
vn 0.4377 0.8655 0.2437
vn 0.4318 -0.8951 0.1115
vn 0.9469 0.2424 0.2114
vn -0.7738 0.6326 -0.0321
vn -0.9235 0.3804 0.0491
vn -0.9957 -0.0427 0.0817
vn -0.6668 -0.7400 0.0880
vn 0.6797 -0.7299 0.0724
vn 0.5215 -0.8066 0.2785
vn 0.8005 0.3569 -0.4815
vn 0.2237 0.9298 -0.2924
vn 0.8883 -0.4275 -0.1679
vn 0.0269 -0.9789 -0.2023
vn 0.8876 -0.0650 -0.4561
vn -0.6854 0.4262 0.5904
vn -0.5025 0.7977 0.3333
vn 0.1780 -0.9437 -0.2789
vn -0.9648 0.0096 0.2629
vn 0.1331 -0.9106 -0.3914
vn 0.1322 -0.9680 -0.2132
vn 0.0993 0.9774 -0.1866
vn 0.0287 -0.9863 -0.1626
vn 0.2881 -0.9099 -0.2984
vn 0.2070 -0.8551 -0.4753
vn 0.8937 -0.0556 -0.4452
vn 0.8643 0.0167 -0.5027
vn 0.2684 -0.9614 0.0597
vn 0.2957 -0.9474 0.1228
vn -0.1908 0.9790 0.0723
vn -0.4072 0.7616 0.5042
vn -0.4449 -0.2313 0.8652
vn 0.3591 0.2034 -0.9109
vn 0.4928 -0.8701 -0.0051
vn -0.5566 0.8302 -0.0314
vn -0.6167 0.7838 -0.0736
vn 0.5050 -0.8631 0.0015
vn -0.1594 0.3187 -0.9344
vn -0.2946 -0.2451 0.9237
vn -0.9274 -0.2122 0.3080
vn 0.2041 -0.9778 -0.0468
vn -0.2468 0.9681 -0.0443
vn 0.8235 0.2078 -0.5279
vn 0.1964 -0.9759 -0.0957
vn 0.8203 0.2252 -0.5258
vn -0.3249 0.9257 -0.1939
vn -0.8634 -0.1681 0.4756
vn -0.9248 -0.2227 0.3083
vn -0.8772 -0.2180 0.4278
vn 0.3274 -0.9251 0.1925
vn 0.2768 -0.9577 0.0787
vn 0.8808 0.2105 -0.4241
vn 0.8747 0.2188 -0.4324
vn 0.0988 0.9845 -0.1447
vn -0.2711 0.9519 -0.1427
vn 0.0198 -0.9597 0.2803
vn 0.8209 0.2252 -0.5247
vn -0.2493 0.9683 -0.0170
vn -0.9243 -0.2257 0.3076
vn -0.6242 -0.6653 -0.4096
vn -0.3154 -0.2817 0.9062
vn -0.1026 0.9947 0.0070
vn -0.1631 0.3147 -0.9351
vn -0.7303 0.6790 -0.0752
vn 0.2185 -0.9533 -0.2085
vn 0.3732 0.9048 -0.2049
vn 0.4817 0.8510 -0.2091
vn -0.0211 0.9964 0.0823
vn -0.5460 -0.2595 0.7966
vn -0.1946 0.9663 0.1687
vn -0.8975 -0.2148 0.3852
vn -0.2306 0.9683 0.0960
vn -0.5536 0.8077 0.2030
vn 0.2083 -0.9522 -0.2236
vn -0.0871 0.9955 0.0376
vn -0.5160 0.8177 0.2552
vn 0.1419 -0.9704 -0.1955
vn 0.2392 -0.9433 -0.2301
vn 0.2540 -0.9485 -0.1892
vn 0.8997 0.0130 -0.4364
vn -0.6288 -0.5812 0.5166
vn 0.3645 0.9244 -0.1121
vn -0.1616 0.9591 0.2326
vn -0.0374 0.9978 0.0556
vn 0.0841 -0.9488 -0.3046
vt 0.904465 0.899530
vt 0.924658 0.831033
vt 0.934085 0.895223
vt 0.535743 0.012872
vt 0.536108 0.239144
vt 0.518685 0.014979
vt 0.438766 0.230021
vt 0.446224 0.414874
vt 0.423565 0.412805
vt 0.510874 0.237063
vt 0.505234 0.016443
vt 0.561097 0.239294
vt 0.624385 0.412074
vt 0.596742 0.421448
vt 0.487082 0.232311
vt 0.487893 0.018405
vt 0.463705 0.229719
vt 0.466798 0.019302
vt 0.975359 0.823994
vt 0.983416 0.890010
vt 0.587084 0.232118
vt 0.684499 0.384248
vt 0.446387 0.017802
vt 0.972235 0.056605
vt 0.917340 0.118845
vt 0.925345 0.047894
vt 0.473702 0.418243
vt 0.429260 0.015112
vt 0.412429 0.231537
vt 0.394697 0.410172
vt 0.568179 0.424093
vt 0.610527 0.221135
vt 0.548681 0.011454
vt 0.565218 0.009276
vt 0.897218 0.045344
vt 0.892385 0.117732
vt 0.520126 0.422270
vt 0.925086 0.601813
vt 0.984688 0.557431
vt 0.974509 0.611134
vt 0.921944 0.336862
vt 0.887719 0.381305
vt 0.889527 0.334346
vt 0.891017 0.571871
vt 0.924940 0.550543
vt 0.964118 0.387620
vt 0.927700 0.396622
vt 0.837462 0.371572
vt 0.837072 0.333213
vt 0.870403 0.874613
vt 0.889785 0.834207
vt 0.851807 0.030112
vt 0.833995 0.061952
vt 0.833763 0.042264
vt 0.877725 0.911594
vt 0.838536 0.974099
vt 0.838536 0.893471
vt 0.870742 0.082020
vt 0.875968 0.042637
vt 0.888076 0.784630
vt 0.838535 0.836714
vt 0.838533 0.783098
vt 0.834626 0.115839
vt 0.838536 0.872169
vt 0.641572 0.638053
vt 0.645063 0.609993
vt 0.659975 0.626189
vt 0.518603 0.639788
vt 0.504621 0.618401
vt 0.526098 0.623692
vt 0.658440 0.655930
vt 0.668417 0.636949
vt 0.674206 0.643542
vt 0.615258 0.610254
vt 0.628341 0.624805
vt 0.673451 0.674184
vt 0.687990 0.659327
vt 0.491717 0.612893
vt 0.487741 0.531992
vt 0.517079 0.524665
vt 0.581099 0.542672
vt 0.584566 0.539446
vt 0.652903 0.649693
vt 0.560507 0.524094
vt 0.589060 0.534331
vt 0.543444 0.536988
vt 0.560732 0.531891
vt 0.537770 0.532082
vt 0.570139 0.624330
vt 0.596856 0.632141
vt 0.546574 0.540791
vt 0.560859 0.537139
vt 0.548725 0.637661
vt 0.638042 0.664168
vt 0.633047 0.595436
vt 0.646485 0.674244
vt 0.656829 0.686903
vt 0.614496 0.643290
vt 0.624868 0.652003
vt 0.471285 0.622636
vt 0.474679 0.605441
vt 0.470534 0.643006
vt 0.486338 0.628924
vt 0.479721 0.651692
vt 0.488050 0.651019
vt 0.499533 0.634368
vt 0.838421 0.545692
vt 0.884006 0.501239
vt 0.889026 0.543908
vt 0.885144 0.410172
vt 0.919203 0.443777
vt 0.876447 0.433780
vt 0.837753 0.404444
vt 0.837939 0.429232
vt 0.913965 0.507285
vt 0.920353 0.526695
vt 0.838465 0.574157
vt 0.885981 0.471384
vt 0.861466 0.447255
vt 0.838034 0.441861
vt 0.871690 0.468125
vt 0.861172 0.492419
vt 0.838311 0.505580
vt 0.849915 0.453513
vt 0.846745 0.465786
vt 0.844301 0.458605
vt 0.838204 0.480191
vt 0.842774 0.470360
vt 0.849092 0.477374
vt 0.855946 0.466199
vt 0.838202 0.455289
vt 0.838115 0.449272
vt 0.405565 0.743240
vt 0.561253 0.768210
vt 0.407852 0.770141
vt 0.561246 0.783312
vt 0.405565 0.804692
vt 0.446742 0.894010
vt 0.565157 0.822512
vt 0.569025 0.836465
vt 0.411887 0.823512
vt 0.561938 0.800797
vt 0.411932 0.698768
vt 0.563054 0.734412
vt 0.406180 0.717379
vt 0.414891 0.846470
vt 0.568248 0.701361
vt 0.565622 0.715807
vt 0.561750 0.752585
vt 0.692435 0.788818
vt 0.694604 0.799901
vt 0.697881 0.810077
vt 0.692556 0.779007
vt 0.697085 0.736839
vt 0.696451 0.747102
vt 0.694858 0.757919
vt 0.697531 0.725882
vt 0.693582 0.767934
vt 0.352629 0.662764
vt 0.375711 0.684516
vt 0.352629 0.685543
vt 0.373993 0.640144
vt 0.374999 0.661891
vt 0.352629 0.619924
vt 0.352629 0.640858
vt 0.390272 0.618482
vt 0.394687 0.637296
vt 0.395863 0.661381
vt 0.395139 0.683779
vt 0.391351 0.705783
vt 0.374801 0.713472
vt 0.352629 0.709297
vt 0.429977 0.487939
vt 0.411776 0.514664
vt 0.407449 0.490697
vt 0.435257 0.513038
vt 0.412904 0.537768
vt 0.391944 0.514942
vt 0.389435 0.493723
vt 0.391976 0.533639
vt 0.445689 0.461586
vt 0.423690 0.464370
vt 0.454843 0.485640
vt 0.460592 0.536773
vt 0.461318 0.510082
vt 0.455235 0.556696
vt 0.436814 0.537277
vt 0.436822 0.560636
vt 0.386559 0.552424
vt 0.376459 0.540914
vt 0.377584 0.528295
vt 0.377617 0.514860
vt 0.377999 0.495357
vt 0.376230 0.483944
vt 0.384507 0.477021
vt 0.401557 0.469375
vt 0.365546 0.495482
vt 0.352629 0.515249
vt 0.352629 0.494926
vt 0.365580 0.527419
vt 0.364983 0.514976
vt 0.366112 0.480220
vt 0.366623 0.542110
vt 0.352629 0.528572
vt 0.352629 0.479469
vt 0.352629 0.442862
vt 0.372220 0.465485
vt 0.352629 0.464150
vt 0.423586 0.443547
vt 0.454658 0.442462
vt 0.388734 0.442624
vt 0.352629 0.598935
vt 0.372703 0.577617
vt 0.373578 0.599225
vt 0.352629 0.577880
vt 0.369415 0.558031
vt 0.392550 0.601070
vt 0.372731 0.619408
vt 0.352629 0.543611
vt 0.392109 0.575830
vt 0.890158 0.699352
vt 0.838524 0.699444
vt 0.882884 0.172228
vt 0.956591 0.176057
vt 0.910157 0.172097
vt 0.920644 0.780869
vt 0.960541 0.774523
vt 0.838491 0.603886
vt 0.891257 0.601435
vt 0.836144 0.247980
vt 0.835284 0.172602
vt 0.915237 0.248700
vt 0.912988 0.699795
vt 0.883504 0.248073
vt 0.949929 0.701438
vt 0.951284 0.247889
vt 0.627829 0.673824
vt 0.636321 0.683824
vt 0.544999 0.658667
vt 0.535995 0.651040
vt 0.556903 0.648407
vt 0.590730 0.645046
vt 0.605372 0.653566
vt 0.615335 0.661972
vt 0.838268 0.495676
vt 0.561594 0.970556
vt 0.578891 0.974730
vt 0.572454 0.981661
vt 0.627329 0.952198
vt 0.623557 0.938649
vt 0.628823 0.938950
vt 0.582367 0.952749
vt 0.595135 0.967657
vt 0.586120 0.969873
vt 0.591229 0.920394
vt 0.578102 0.893469
vt 0.590702 0.882956
vt 0.566395 0.988467
vt 0.570318 0.893857
vt 0.574882 0.913811
vt 0.563973 0.904838
vt 0.522905 0.945370
vt 0.543485 0.945401
vt 0.539274 0.954456
vt 0.519247 0.954233
vt 0.534465 0.962370
vt 0.633788 0.912970
vt 0.613630 0.924354
vt 0.630237 0.894838
vt 0.517894 0.962378
vt 0.529731 0.969201
vt 0.550482 0.982121
vt 0.544114 0.968132
vt 0.560244 0.874416
vt 0.560263 0.880000
vt 0.557168 0.873717
vt 0.531874 0.930593
vt 0.544576 0.933068
vt 0.600463 0.846951
vt 0.605692 0.851516
vt 0.602058 0.853925
vt 0.640197 0.859223
vt 0.633440 0.859697
vt 0.640980 0.855953
vt 0.660360 0.901909
vt 0.654696 0.906012
vt 0.655055 0.900449
vt 0.621659 0.968165
vt 0.631418 0.969379
vt 0.631656 0.928299
vt 0.626939 0.926392
vt 0.564206 0.878230
vt 0.561673 0.871500
vt 0.567019 0.873664
vt 0.566849 0.869178
vt 0.512264 0.925963
vt 0.508719 0.916139
vt 0.515868 0.920270
vt 0.596004 0.854290
vt 0.596944 0.847057
vt 0.502502 0.934185
vt 0.495773 0.923155
vt 0.505721 0.927578
vt 0.591869 0.852282
vt 0.635306 0.863964
vt 0.643386 0.860927
vt 0.640454 0.867388
vt 0.645313 0.867580
vt 0.492129 0.942211
vt 0.502875 0.939514
vt 0.500470 0.945772
vt 0.659996 0.905356
vt 0.657209 0.909857
vt 0.493629 0.950452
vt 0.503054 0.947809
vt 0.500222 0.953888
vt 0.611677 0.882821
vt 0.590296 0.933471
vt 0.571847 0.931672
vt 0.543357 0.913391
vt 0.551606 0.915764
vt 0.548237 0.920457
vt 0.545076 0.906022
vt 0.553916 0.910121
vt 0.548955 0.910300
vt 0.542257 0.924164
vt 0.547928 0.912060
vt 0.563344 0.912601
vt 0.559498 0.920789
vt 0.557056 0.931144
vt 0.554531 0.903783
vt 0.584351 0.873068
vt 0.596017 0.866539
vt 0.590190 0.863425
vt 0.516556 0.933020
vt 0.527252 0.936954
vt 0.513365 0.939416
vt 0.603622 0.865693
vt 0.616566 0.871305
vt 0.609051 0.861899
vt 0.520143 0.930950
vt 0.523747 0.925256
vt 0.575258 0.878061
vt 0.575224 0.871752
vt 0.570931 0.883480
vt 0.565992 0.886117
vt 0.641642 0.890047
vt 0.646088 0.899086
vt 0.650325 0.893759
vt 0.508034 0.957580
vt 0.510648 0.951350
vt 0.646248 0.906701
vt 0.639321 0.916147
vt 0.649286 0.911726
vt 0.512454 0.943196
vt 0.510049 0.949454
vt 0.634442 0.877344
vt 0.641592 0.877776
vt 0.627680 0.872673
vt 0.625757 0.866329
vt 0.566505 0.926710
vt 0.569019 0.913847
vt 0.554351 0.950153
vt 0.571613 0.958364
vt 0.611804 0.951274
vt 0.621812 0.951546
vt 0.613235 0.967624
vt 0.600957 0.951532
vt 0.611236 0.935734
vt 0.593445 0.951587
vt 0.600560 0.934335
vt 0.658332 0.896645
vt 0.602286 0.921832
vt 0.549094 0.960356
vt 0.539452 0.974670
vt 0.663877 0.901351
vt 0.662746 0.906751
vt 0.645844 0.859267
vt 0.601569 0.844453
vt 0.595794 0.843981
vt 0.559970 0.869288
vt 0.603760 0.967346
vt 0.752415 0.831036
vt 0.772608 0.899530
vt 0.742989 0.895223
vt 0.173929 0.017464
vt 0.173565 0.243736
vt 0.148576 0.243886
vt 0.270907 0.234612
vt 0.263449 0.419466
vt 0.245968 0.234310
vt 0.190988 0.019570
vt 0.198799 0.241654
vt 0.085288 0.416666
vt 0.122589 0.236709
vt 0.204438 0.021034
vt 0.222591 0.236902
vt 0.242875 0.023894
vt 0.221780 0.022997
vt 0.701718 0.823998
vt 0.693661 0.890011
vt 0.025174 0.388840
vt 0.099146 0.225726
vt 0.752014 0.120776
vt 0.695686 0.059854
vt 0.742348 0.050045
vt 0.235971 0.422834
vt 0.280413 0.019703
vt 0.263286 0.022393
vt 0.297244 0.236129
vt 0.286108 0.417397
vt 0.141494 0.428685
vt 0.160991 0.016046
vt 0.144454 0.013868
vt 0.770403 0.046835
vt 0.189547 0.426862
vt 0.692422 0.557544
vt 0.751962 0.601876
vt 0.702578 0.611193
vt 0.787514 0.382295
vt 0.752438 0.338675
vt 0.784722 0.335461
vt 0.785974 0.571949
vt 0.785758 0.601481
vt 0.711571 0.390222
vt 0.716147 0.338423
vt 0.806668 0.874614
vt 0.799346 0.911594
vt 0.815439 0.030540
vt 0.791581 0.043630
vt 0.817634 0.978693
vt 0.797729 0.082876
vt 0.788992 0.784635
vt 0.787286 0.834210
vt 0.776931 0.119081
vt 0.065607 0.622003
vt 0.062116 0.593942
vt 0.078837 0.608754
vt 0.202557 0.602350
vt 0.188576 0.623737
vt 0.181081 0.607641
vt 0.048738 0.639879
vt 0.038761 0.620898
vt 0.054275 0.633643
vt 0.091920 0.594203
vt 0.033728 0.658133
vt 0.032973 0.627491
vt 0.215462 0.596842
vt 0.219437 0.515941
vt 0.232500 0.589390
vt 0.126080 0.526621
vt 0.110322 0.616091
vt 0.047203 0.610138
vt 0.122612 0.523396
vt 0.146672 0.508043
vt 0.146446 0.515840
vt 0.163734 0.520938
vt 0.169409 0.516031
vt 0.137040 0.608280
vt 0.160604 0.524741
vt 0.158454 0.621610
vt 0.146319 0.521089
vt 0.069136 0.648117
vt 0.082310 0.635952
vt 0.074132 0.579385
vt 0.060694 0.658193
vt 0.050349 0.670852
vt 0.092683 0.627239
vt 0.171183 0.634989
vt 0.235893 0.606586
vt 0.220841 0.612873
vt 0.236645 0.626955
vt 0.227458 0.635641
vt 0.219129 0.634968
vt 0.207646 0.618317
vt 0.792798 0.501449
vt 0.787927 0.544029
vt 0.790621 0.411026
vt 0.757367 0.444932
vt 0.755059 0.417467
vt 0.799687 0.434451
vt 0.763056 0.507591
vt 0.756691 0.526906
vt 0.748076 0.398337
vt 0.752108 0.550675
vt 0.790680 0.471800
vt 0.757080 0.472869
vt 0.814778 0.447731
vt 0.804896 0.468457
vt 0.815451 0.492568
vt 0.826283 0.453862
vt 0.829962 0.465924
vt 0.820655 0.466455
vt 0.833551 0.470432
vt 0.827376 0.477431
vt 0.300664 0.767698
vt 0.146765 0.750143
vt 0.302950 0.740797
vt 0.302950 0.802249
vt 0.147263 0.765768
vt 0.139491 0.834023
vt 0.293624 0.844027
vt 0.261774 0.891567
vt 0.296628 0.821070
vt 0.147270 0.780870
vt 0.302336 0.714937
vt 0.142893 0.713365
vt 0.296584 0.696326
vt 0.143359 0.820069
vt 0.140267 0.698919
vt 0.272742 0.669414
vt 0.145462 0.731970
vt 0.016081 0.786376
vt 0.146578 0.798355
vt 0.013912 0.797459
vt 0.015960 0.776565
vt 0.011431 0.734397
vt 0.013657 0.755477
vt 0.010985 0.723440
vt 0.014933 0.765492
vt 0.329547 0.684516
vt 0.331266 0.640144
vt 0.314986 0.618482
vt 0.332527 0.619408
vt 0.330259 0.661891
vt 0.310571 0.637296
vt 0.309396 0.661381
vt 0.313908 0.705783
vt 0.330458 0.713472
vt 0.275281 0.487939
vt 0.293482 0.514664
vt 0.270002 0.513038
vt 0.292355 0.537768
vt 0.268445 0.537277
vt 0.297810 0.490697
vt 0.313314 0.514942
vt 0.313283 0.533639
vt 0.259570 0.461586
vt 0.250416 0.485640
vt 0.243940 0.510082
vt 0.244666 0.536773
vt 0.250024 0.556696
vt 0.268436 0.560636
vt 0.318699 0.552424
vt 0.295333 0.560082
vt 0.328799 0.540914
vt 0.327675 0.528295
vt 0.327260 0.495357
vt 0.315824 0.493722
vt 0.329028 0.483944
vt 0.320752 0.477021
vt 0.303701 0.469374
vt 0.281569 0.464370
vt 0.339713 0.495482
vt 0.340276 0.514976
vt 0.339679 0.527419
vt 0.327642 0.514860
vt 0.338636 0.542110
vt 0.339147 0.480220
vt 0.333038 0.465485
vt 0.316525 0.442624
vt 0.281673 0.443547
vt 0.250601 0.442462
vt 0.332555 0.577617
vt 0.331680 0.599225
vt 0.335844 0.558031
vt 0.352629 0.558670
vt 0.313149 0.575830
vt 0.312709 0.601070
vt 0.786899 0.699366
vt 0.787696 0.173331
vt 0.714129 0.178874
vt 0.708117 0.127209
vt 0.760437 0.173832
vt 0.756427 0.780875
vt 0.788818 0.249146
vt 0.757130 0.250497
vt 0.716534 0.774531
vt 0.764074 0.699812
vt 0.721110 0.250523
vt 0.727144 0.701455
vt 0.079350 0.657773
vt 0.070857 0.667773
vt 0.060007 0.680509
vt 0.162180 0.642616
vt 0.150275 0.632357
vt 0.134873 0.625773
vt 0.116449 0.628995
vt 0.101807 0.637516
vt 0.091843 0.645921
vt 0.100529 0.969390
vt 0.117854 0.966555
vt 0.106363 0.976677
vt 0.053958 0.943742
vt 0.058616 0.930351
vt 0.059519 0.943432
vt 0.098717 0.947435
vt 0.084995 0.961271
vt 0.087813 0.945450
vt 0.108052 0.888533
vt 0.092484 0.914486
vt 0.096272 0.876756
vt 0.111829 0.983799
vt 0.127920 0.978716
vt 0.115874 0.889660
vt 0.109439 0.909304
vt 0.157438 0.944907
vt 0.137573 0.943343
vt 0.153960 0.936597
vt 0.160348 0.953749
vt 0.140931 0.952478
vt 0.050171 0.903569
vt 0.069656 0.916670
vt 0.056069 0.917717
vt 0.145011 0.960539
vt 0.161084 0.961739
vt 0.149128 0.967523
vt 0.135179 0.965459
vt 0.139269 0.972186
vt 0.127352 0.876590
vt 0.127897 0.870944
vt 0.131074 0.870526
vt 0.150085 0.930040
vt 0.089623 0.838819
vt 0.083715 0.843142
vt 0.088713 0.836058
vt 0.054779 0.849574
vt 0.047964 0.848555
vt 0.047431 0.845176
vt 0.024106 0.890234
vt 0.029522 0.894847
vt 0.024200 0.893758
vt 0.058606 0.960000
vt 0.048858 0.960585
vt 0.051146 0.919299
vt 0.044307 0.906358
vt 0.123530 0.874428
vt 0.126726 0.867859
vt 0.121709 0.865022
vt 0.121115 0.869545
vt 0.166464 0.921551
vt 0.176397 0.923468
vt 0.169418 0.927371
vt 0.093298 0.839291
vt 0.087294 0.845980
vt 0.176764 0.935742
vt 0.183247 0.926327
vt 0.185499 0.931792
vt 0.098041 0.845267
vt 0.094830 0.836192
vt 0.052547 0.853753
vt 0.044594 0.850028
vt 0.042110 0.856621
vt 0.047052 0.856815
vt 0.179131 0.946895
vt 0.185763 0.938428
vt 0.187460 0.944043
vt 0.026666 0.898545
vt 0.176497 0.948665
vt 0.185446 0.951892
vt 0.178813 0.954758
vt 0.075008 0.874789
vt 0.081270 0.915021
vt 0.092353 0.927645
vt 0.140829 0.911992
vt 0.132420 0.913488
vt 0.136444 0.910192
vt 0.130702 0.907649
vt 0.139916 0.904499
vt 0.135610 0.908340
vt 0.140793 0.922740
vt 0.145811 0.915584
vt 0.121079 0.909173
vt 0.124103 0.917695
vt 0.125530 0.928164
vt 0.137611 0.931264
vt 0.130749 0.901273
vt 0.135271 0.918476
vt 0.103630 0.867309
vt 0.092355 0.859573
vt 0.098626 0.856937
vt 0.093547 0.846932
vt 0.164223 0.933818
vt 0.166722 0.939882
vt 0.174265 0.929679
vt 0.084637 0.858013
vt 0.070970 0.862682
vt 0.079375 0.853657
vt 0.161364 0.931458
vt 0.158411 0.925638
vt 0.112366 0.873218
vt 0.112993 0.866837
vt 0.116232 0.879105
vt 0.120980 0.882238
vt 0.044037 0.879699
vt 0.038805 0.888511
vt 0.034934 0.882770
vt 0.029603 0.889176
vt 0.026583 0.885057
vt 0.170980 0.957785
vt 0.168886 0.951561
vt 0.038035 0.896220
vt 0.034552 0.901075
vt 0.055219 0.885470
vt 0.167711 0.943547
vt 0.169594 0.949777
vt 0.177248 0.940665
vt 0.052355 0.867392
vt 0.045069 0.867259
vt 0.059588 0.863194
vt 0.062042 0.856912
vt 0.116604 0.922921
vt 0.110872 0.927390
vt 0.121220 0.901339
vt 0.115292 0.909885
vt 0.108913 0.953801
vt 0.126551 0.947080
vt 0.069541 0.943832
vt 0.067013 0.960046
vt 0.080344 0.944850
vt 0.071214 0.928299
vt 0.082023 0.927700
vt 0.020584 0.889387
vt 0.130891 0.957483
vt 0.053280 0.930300
vt 0.021299 0.894953
vt 0.042234 0.848149
vt 0.128658 0.865781
vt 0.093753 0.964089
vt 0.076461 0.960389
vt 0.961389 0.124246
vt 0.958313 0.335766
vt 0.859438 0.978693
vt 0.834220 0.081183
vt 0.921026 0.416000
vt 0.919824 0.472099
vt 0.838207 0.471178
vt 0.435773 0.671856
vt 0.409926 0.560082
vt 0.647171 0.696560
vt 0.572306 0.641824
vt 0.505472 0.921270
vt 0.492894 0.929181
vt 0.494297 0.936571
vt 0.496181 0.944973
vt 0.537986 0.916463
vt 0.112931 0.426039
vt 0.314976 0.414763
vt 0.019189 0.643276
vt 0.190099 0.508614
vt 0.118118 0.518280
vt 0.831905 0.459007
vt 0.010635 0.807635
vt 0.012064 0.744660
vt 0.310119 0.683779
vt 0.173736 0.918222
vt 0.183359 0.946401
s 0
usemtl マテリアル
f 2/1/1 25/2/1 1/3/1
f 183/4/2 6/5/2 184/6/2
f 14/7/3 21/8/3 22/9/3
f 184/6/4 8/10/4 185/11/4
f 4/12/5 24/13/5 2/14/5
f 185/11/6 10/15/6 186/16/6
f 10/15/7 21/8/7 12/17/7
f 10/15/8 187/18/8 186/16/8
f 1/3/9 27/19/9 19/20/9
f 18/21/10 23/22/10 24/13/10
f 187/18/11 14/7/11 188/23/11
f 19/24/12 28/25/12 20/26/12
f 8/10/13 20/27/13 10/15/13
f 14/7/14 189/28/14 188/23/14
f 16/29/15 22/9/15 23/30/15
f 4/12/16 1/31/16 6/5/16
f 16/32/17 190/33/17 189/34/17
f 21/35/18 28/25/18 29/36/18
f 190/33/19 4/12/19 183/4/19
f 6/5/20 19/37/20 8/10/20
f 176/38/21 32/39/21 180/40/21
f 177/41/22 34/42/22 181/43/22
f 176/38/23 31/44/23 30/45/23
f 177/41/24 32/46/24 33/47/24
f 181/43/25 36/48/25 182/49/25
f 2/1/26 45/50/26 26/51/26
f 23/52/27 39/53/27 40/54/27
f 24/55/28 40/56/28 41/57/28
f 21/35/29 44/58/29 22/59/29
f 166/60/30 38/61/30 168/62/30
f 44/58/31 39/53/31 22/59/31
f 35/63/32 44/58/32 29/36/32
f 45/50/33 41/57/33 43/64/33
f 45/50/34 38/61/34 26/51/34
f 60/65/35 48/66/35 47/67/35
f 63/68/36 51/69/36 62/70/36
f 64/71/37 46/72/37 53/73/37
f 66/74/38 48/66/38 61/75/38
f 63/76/39 53/73/39 52/77/39
f 50/78/40 57/79/40 58/80/40
f 66/74/41 54/81/41 68/82/41
f 65/83/42 47/67/42 46/72/42
f 68/82/43 58/84/43 57/85/43
f 67/86/44 58/84/44 69/87/44
f 62/70/45 59/88/45 67/86/45
f 11/89/46 54/81/46 9/90/46
f 50/78/40 59/88/40 51/69/40
f 11/89/47 56/91/47 55/92/47
f 62/70/48 56/91/48 13/93/48
f 56/91/49 69/87/49 55/92/49
f 54/81/50 69/87/50 68/82/50
f 3/94/51 60/65/51 65/83/51
f 49/95/52 68/82/52 57/85/52
f 17/96/53 63/76/53 15/97/53
f 9/90/54 61/75/54 7/98/54
f 3/94/55 64/71/55 17/96/55
f 13/93/56 63/68/56 62/70/56
f 5/99/57 61/75/57 60/65/57
f 50/78/40 48/100/40 49/101/40
f 47/102/40 70/103/40 46/104/40
f 51/69/40 70/103/40 50/78/40
f 53/105/40 70/103/40 52/106/40
f 81/107/58 72/108/58 80/109/58
f 77/110/59 73/111/59 74/112/59
f 79/113/60 74/112/60 75/114/60
f 80/109/61 71/115/61 82/116/61
f 34/42/62 79/113/62 36/48/62
f 33/47/63 77/110/63 34/42/63
f 30/45/64 80/109/64 82/116/64
f 42/117/65 80/109/65 31/44/65
f 83/118/66 71/115/66 72/108/66
f 73/111/67 83/118/67 74/112/67
f 75/114/68 86/119/68 87/120/68
f 74/112/69 89/121/69 86/119/69
f 83/118/70 85/122/70 89/121/70
f 76/123/71 85/122/71 72/108/71
f 191/124/72 94/125/72 91/126/72
f 194/127/73 90/128/73 193/129/73
f 193/129/74 94/125/74 192/130/74
f 191/124/75 92/131/75 195/132/75
f 73/133/76 102/134/76 84/135/76
f 84/135/77 98/136/77 71/137/77
f 32/138/78 95/139/78 96/140/78
f 82/141/79 98/136/79 101/142/79
f 33/143/80 100/144/80 78/145/80
f 30/146/81 101/142/81 95/139/81
f 33/143/82 96/147/82 97/148/82
f 78/145/83 99/149/83 73/133/83
f 98/136/84 109/150/84 101/142/84
f 95/139/85 109/150/85 103/151/85
f 96/140/86 103/151/86 104/152/86
f 102/134/87 106/153/87 98/136/87
f 100/144/88 105/154/88 108/155/88
f 100/144/89 107/156/89 99/149/89
f 97/148/90 104/157/90 105/154/90
f 99/149/91 110/158/91 102/134/91
f 134/159/92 136/160/92 133/161/92
f 134/159/93 138/162/93 137/163/93
f 115/164/94 138/162/94 135/165/94
f 138/162/95 114/166/95 117/167/95
f 137/163/96 117/167/96 118/168/96
f 136/160/97 118/168/97 119/169/97
f 136/160/98 113/170/98 90/171/98
f 93/172/99 136/160/99 90/171/99
f 139/173/100 143/174/100 142/175/100
f 140/176/101 144/177/101 143/174/101
f 142/175/102 146/178/102 145/179/102
f 143/174/103 147/180/103 146/178/103
f 113/181/104 139/173/104 122/182/104
f 119/183/105 140/176/105 139/173/105
f 117/184/106 140/176/106 118/185/106
f 114/186/107 141/187/107 117/184/107
f 123/188/108 144/177/108 141/187/108
f 144/177/109 125/189/109 147/180/109
f 147/180/110 112/190/110 126/191/110
f 146/178/111 126/191/111 127/192/111
f 146/178/112 128/193/112 145/179/112
f 145/179/113 111/194/113 120/195/113
f 121/196/114 145/179/114 120/195/114
f 122/182/115 142/175/115 121/196/115
f 148/197/116 152/198/116 151/199/116
f 150/200/117 152/198/117 149/201/117
f 111/194/118 148/197/118 130/202/118
f 127/192/119 148/197/119 128/193/119
f 127/192/120 150/200/120 149/201/120
f 112/190/121 150/200/121 126/191/121
f 131/203/122 153/204/122 150/200/122
f 130/202/123 151/199/123 129/205/123
f 92/206/124 155/207/124 154/208/124
f 113/181/125 94/209/125 90/210/125
f 94/209/126 121/196/126 91/211/126
f 91/211/127 120/195/127 155/207/127
f 155/207/128 111/194/128 130/202/128
f 154/208/129 130/202/129 129/205/129
f 157/212/130 158/213/130 156/214/130
f 159/215/131 160/216/131 158/213/131
f 114/166/132 156/214/132 123/217/132
f 116/218/133 157/212/133 156/214/133
f 160/216/134 132/219/134 131/203/134
f 160/216/135 112/190/135 125/189/135
f 158/213/136 125/189/136 124/220/136
f 156/214/137 124/220/137 123/217/137
f 171/221/138 168/62/138 172/222/138
f 164/223/139 35/63/139 29/36/139
f 28/25/140 162/224/140 165/225/140
f 25/2/141 166/60/141 163/226/141
f 29/36/142 165/225/142 164/223/142
f 27/19/143 163/226/143 162/227/143
f 171/221/144 179/228/144 178/229/144
f 164/223/145 175/230/145 167/231/145
f 162/224/146 170/232/146 165/225/146
f 163/226/147 171/221/147 169/233/147
f 165/225/148 174/234/148 164/223/148
f 162/227/149 169/233/149 173/235/149
f 178/229/150 42/117/150 31/44/150
f 174/234/151 182/49/151 175/230/151
f 173/236/152 177/41/152 170/232/152
f 169/233/153 178/229/153 176/38/153
f 170/232/154 181/43/154 174/234/154
f 173/235/155 176/38/155 180/40/155
f 17/96/156 183/237/156 3/94/156
f 15/97/157 190/238/157 17/96/157
f 13/93/158 189/239/158 15/240/158
f 11/89/159 188/241/159 13/93/159
f 186/242/160 11/89/160 9/90/160
f 185/243/161 9/90/161 7/98/161
f 184/244/162 7/98/162 5/99/162
f 183/237/163 5/99/163 3/94/163
f 87/120/164 191/124/164 195/132/164
f 89/121/165 193/129/165 192/130/165
f 88/245/166 193/129/166 85/122/166
f 86/119/167 192/130/167 191/124/167
f 291/246/168 105/247/168 104/248/168
f 286/249/169 240/250/169 234/251/169
f 292/252/170 107/253/170 108/254/170
f 227/255/171 202/256/171 205/257/171
f 103/258/172 291/246/172 104/248/172
f 198/259/173 231/260/173 226/261/173
f 200/262/174 225/263/174 222/264/174
f 197/265/175 222/264/175 229/266/175
f 201/267/176 223/268/176 203/269/176
f 196/270/177 229/266/177 228/271/177
f 286/272/178 239/273/178 291/246/178
f 206/274/179 263/275/179 207/276/179
f 225/263/180 198/277/180 226/278/180
f 212/279/181 256/280/181 255/281/181
f 217/282/182 279/283/182 214/284/182
f 221/285/183 272/286/183 271/287/183
f 109/288/184 286/249/184 103/289/184
f 201/267/185 228/290/185 230/291/185
f 264/292/186 209/293/186 266/294/186
f 209/293/187 268/295/187 266/294/187
f 268/296/188 207/297/188 263/298/188
f 212/279/189 259/299/189 213/300/189
f 256/301/190 210/302/190 260/303/190
f 260/304/191 213/300/191 259/299/191
f 280/305/192 216/306/192 282/307/192
f 216/306/193 284/308/193 282/307/193
f 215/309/194 279/310/194 284/311/194
f 218/312/195 274/313/195 272/286/195
f 219/314/196 276/315/196 274/316/196
f 204/317/197 227/255/197 205/257/197
f 238/318/198 292/252/198 241/319/198
f 246/320/199 251/321/199 250/322/199
f 247/323/200 252/324/200 249/325/200
f 253/326/201 246/320/201 250/322/201
f 248/327/202 252/324/202 251/321/202
f 251/321/203 243/328/203 242/329/203
f 253/326/204 237/330/204 226/278/204
f 253/331/205 243/328/205 252/324/205
f 250/322/206 242/329/206 237/330/206
f 199/332/207 258/333/207 205/257/207
f 261/334/208 259/299/208 258/333/208
f 200/262/209 261/335/209 199/336/209
f 256/301/210 261/335/210 257/337/210
f 258/333/211 204/317/211 205/257/211
f 259/299/212 254/338/212 258/333/212
f 254/338/213 200/339/213 204/317/213
f 255/281/214 257/340/214 254/338/214
f 269/341/215 198/277/215 199/336/215
f 269/341/216 263/298/216 262/342/216
f 267/343/217 199/332/217 205/257/217
f 266/294/214 269/344/214 267/343/214
f 265/345/218 205/257/218 202/256/218
f 264/292/219 267/343/219 265/345/219
f 265/345/220 198/259/220 262/346/220
f 264/292/208 262/346/208 263/275/208
f 197/347/221 270/348/221 203/269/221
f 277/349/222 271/287/222 270/348/222
f 275/350/223 197/265/223 196/270/223
f 274/316/224 277/351/224 275/350/224
f 273/352/225 196/353/225 201/267/225
f 272/286/226 275/354/226 273/352/226
f 273/352/227 203/269/227 270/348/227
f 272/286/228 270/348/228 271/287/228
f 197/265/229 278/355/229 200/262/229
f 284/311/230 278/355/230 285/356/230
f 283/357/231 197/347/231 203/269/231
f 282/307/214 285/358/214 283/357/214
f 281/359/232 203/269/232 204/317/232
f 281/359/233 282/307/233 283/357/233
f 281/359/234 200/339/234 278/360/234
f 247/323/235 248/327/235 246/320/235
f 237/330/236 244/361/236 241/319/236
f 223/268/237 204/317/237 203/269/237
f 245/362/238 226/261/238 231/260/238
f 242/329/239 245/362/239 244/361/239
f 233/363/240 287/364/240 291/246/240
f 288/365/241 240/250/241 293/366/241
f 106/367/242 293/366/242 109/288/242
f 289/368/243 232/369/243 288/365/243
f 287/364/244 241/319/244 292/252/244
f 290/370/245 236/371/245 289/368/245
f 276/372/246 221/285/246 271/287/246
f 238/318/247 224/373/247 236/371/247
f 231/260/248 244/361/248 245/362/248
f 233/363/249 222/264/249 225/263/249
f 232/369/250 224/373/250 223/268/250
f 241/319/251 227/255/251 238/318/251
f 239/273/252 222/264/252 235/374/252
f 234/375/253 229/266/253 239/273/253
f 237/330/254 225/263/254 226/278/254
f 280/305/208 278/360/208 279/283/208
f 234/251/255 230/291/255 228/290/255
f 218/312/256 220/376/256 219/377/256
f 215/378/256 217/282/256 214/284/256
f 211/379/256 213/300/256 210/380/256
f 208/381/256 206/274/256 207/276/256
f 287/364/257 108/254/257 105/247/257
f 240/250/258 223/268/258 230/291/258
f 289/368/259 107/253/259 290/370/259
f 288/365/260 110/382/260 289/368/260
f 235/374/261 291/246/261 239/273/261
f 318/383/262 295/384/262 294/385/262
f 440/386/263 299/387/263 297/388/263
f 307/389/264 314/390/264 305/391/264
f 441/392/265 301/393/265 299/387/265
f 297/388/266 317/394/266 311/395/266
f 442/396/267 303/397/267 301/393/267
f 314/390/268 303/397/268 305/391/268
f 444/398/269 303/397/269 443/399/269
f 320/400/270 294/385/270 312/401/270
f 311/395/271 316/402/271 309/403/271
f 444/398/272 307/389/272 305/391/272
f 321/404/273 312/405/273 313/406/273
f 313/407/274 301/393/274 303/397/274
f 446/408/275 307/389/275 445/409/275
f 309/410/276 315/411/276 307/389/276
f 294/412/277 297/388/277 299/387/277
f 447/413/278 309/403/278 446/414/278
f 314/415/279 321/404/279 313/406/279
f 447/413/280 297/388/280 311/395/280
f 312/416/281 299/387/281 301/393/281
f 325/417/282 435/418/282 438/419/282
f 327/420/283 436/421/283 439/422/283
f 435/418/284 324/423/284 437/424/284
f 436/421/285 325/425/285 438/426/285
f 439/422/286 36/48/286 327/420/286
f 295/384/287 329/427/287 317/428/287
f 316/429/288 39/53/288 315/430/288
f 317/428/289 40/56/289 316/431/289
f 328/432/290 314/415/290 315/430/290
f 429/433/291 38/61/291 319/434/291
f 39/53/292 328/432/292 315/430/292
f 328/432/293 35/63/293 322/435/293
f 41/57/294 329/427/294 43/64/294
f 329/427/295 38/61/295 43/64/295
f 344/436/296 332/437/296 345/438/296
f 335/439/297 347/440/297 346/441/297
f 348/442/298 330/443/298 349/444/298
f 332/437/299 350/445/299 345/438/299
f 347/446/300 337/447/300 348/442/300
f 334/448/40 341/449/40 333/450/40
f 350/445/301 338/451/301 302/452/301
f 349/444/302 331/453/302 344/436/302
f 352/454/303 342/455/303 353/456/303
f 342/455/304 351/457/304 353/456/304
f 346/441/305 343/458/305 335/439/305
f 338/451/306 304/459/306 302/452/306
f 343/458/40 334/448/40 335/439/40
f 304/459/307 340/460/307 306/461/307
f 340/460/308 346/441/308 306/461/308
f 353/456/309 340/460/309 339/462/309
f 338/451/310 353/456/310 339/462/310
f 296/463/311 344/436/311 298/464/311
f 333/465/312 352/454/312 350/445/312
f 347/446/313 310/466/313 308/467/313
f 345/438/314 302/452/314 300/468/314
f 348/442/315 296/463/315 310/466/315
f 306/461/316 347/440/316 308/469/316
f 298/464/317 345/438/317 300/468/317
f 332/470/40 334/448/40 333/450/40
f 354/471/40 331/472/40 330/473/40
f 354/471/40 335/439/40 334/448/40
f 354/471/40 337/474/40 336/475/40
f 356/476/318 81/107/318 361/477/318
f 359/478/319 357/479/319 360/480/319
f 79/113/320 358/481/320 359/478/320
f 355/482/321 361/477/321 362/483/321
f 79/113/322 327/420/322 36/48/322
f 359/478/323 326/484/323 327/420/323
f 323/485/324 361/477/324 324/423/324
f 361/477/325 42/117/325 324/423/325
f 363/486/326 355/482/326 364/487/326
f 363/486/327 357/479/327 358/481/327
f 75/114/328 366/488/328 358/481/328
f 358/481/329 367/489/329 363/486/329
f 363/486/330 365/490/330 356/476/330
f 365/490/331 76/123/331 356/476/331
f 448/491/332 370/492/332 449/493/332
f 368/494/333 194/127/333 450/495/333
f 370/492/334 450/495/334 449/493/334
f 92/131/335 448/491/335 195/132/335
f 364/496/336 375/497/336 357/498/336
f 355/499/337 378/500/337 364/496/337
f 372/501/338 323/502/338 325/503/338
f 362/504/339 374/505/339 355/499/339
f 360/506/340 373/507/340 326/508/340
f 371/509/341 362/504/341 323/502/341
f 326/508/342 372/510/342 325/511/342
f 357/498/343 376/512/343 360/506/343
f 385/513/344 374/505/344 377/514/344
f 371/509/345 385/513/345 377/514/345
f 372/501/346 379/515/346 371/509/346
f 382/516/347 378/500/347 374/505/347
f 376/512/348 381/517/348 373/507/348
f 383/518/349 376/512/349 375/497/349
f 373/507/350 380/519/350 372/510/350
f 386/520/351 375/497/351 378/500/351
f 406/521/352 134/159/352 133/161/352
f 134/159/353 408/522/353 135/165/353
f 408/522/354 115/164/354 135/165/354
f 408/522/355 390/523/355 391/524/355
f 407/525/356 392/526/356 408/522/356
f 406/521/357 393/527/357 407/525/357
f 389/528/358 406/521/358 368/529/358
f 93/172/359 406/521/359 133/161/359
f 409/530/360 413/531/360 410/532/360
f 410/532/361 414/533/361 411/534/361
f 412/535/362 416/536/362 413/531/362
f 413/531/363 417/537/363 414/533/363
f 389/538/364 409/530/364 394/539/364
f 394/539/365 410/532/365 393/540/365
f 410/532/366 392/541/366 393/540/366
f 411/534/367 390/542/367 392/541/367
f 414/533/368 398/543/368 411/534/368
f 414/533/369 400/544/369 399/545/369
f 417/537/370 388/546/370 400/544/370
f 416/536/371 401/547/371 417/537/371
f 403/548/372 416/536/372 415/549/372
f 387/550/373 415/549/373 395/551/373
f 396/552/374 415/549/374 412/535/374
f 397/553/375 412/535/375 409/530/375
f 418/554/376 152/198/376 419/555/376
f 152/198/377 420/556/377 419/555/377
f 387/550/378 418/554/378 403/548/378
f 418/554/379 402/557/379 403/548/379
f 402/557/380 420/556/380 401/547/380
f 420/556/381 388/546/381 401/547/381
f 153/204/382 405/558/382 420/556/382
f 404/559/383 151/199/383 418/554/383
f 92/206/384 421/560/384 369/561/384
f 370/562/385 389/538/385 368/563/385
f 370/562/386 396/552/386 397/553/386
f 369/561/387 395/551/387 396/552/387
f 421/560/388 387/550/388 395/551/388
f 154/208/389 404/559/389 421/560/389
f 423/564/390 157/212/390 422/565/390
f 424/566/391 159/215/391 423/564/391
f 390/523/392 422/565/392 391/524/392
f 391/524/393 157/212/393 115/164/393
f 424/566/394 132/219/394 161/567/394
f 388/546/395 424/566/395 400/544/395
f 400/544/396 423/564/396 399/568/396
f 399/568/397 422/565/397 398/569/397
f 432/570/398 168/62/398 429/433/398
f 35/63/399 427/571/399 322/435/399
f 321/404/400 425/572/400 320/573/400
f 318/383/401 429/433/401 319/434/401
f 322/435/402 428/574/402 321/404/402
f 320/400/403 426/575/403 318/383/403
f 179/228/404 432/570/404 437/424/404
f 427/571/405 175/230/405 434/576/405
f 431/577/406 425/572/406 428/574/406
f 426/575/407 432/570/407 429/433/407
f 434/576/408 428/574/408 427/571/408
f 425/578/409 430/579/409 426/575/409
f 42/117/410 437/424/410 324/423/410
f 434/576/411 182/49/411 439/422/411
f 436/421/412 433/580/412 431/577/412
f 430/579/413 437/424/413 432/570/413
f 439/422/414 431/577/414 434/576/414
f 433/581/415 435/418/415 430/579/415
f 310/466/416 440/582/416 447/583/416
f 308/467/278 447/583/278 446/584/278
f 306/461/275 446/585/275 445/586/275
f 304/459/417 445/586/417 444/587/417
f 304/459/418 443/588/418 302/452/418
f 302/452/419 442/589/419 300/468/419
f 300/468/420 441/590/420 298/464/420
f 298/464/421 440/582/421 296/463/421
f 87/120/422 448/491/422 366/488/422
f 367/489/423 450/495/423 365/490/423
f 450/495/424 88/245/424 365/490/424
f 366/488/425 449/493/425 367/489/425
f 381/591/426 546/592/426 380/593/426
f 541/594/427 495/595/427 548/596/427
f 547/597/428 383/598/428 545/599/428
f 457/600/429 482/601/429 460/602/429
f 379/603/430 546/592/430 541/604/430
f 453/605/431 486/606/431 457/600/431
f 455/607/432 480/608/432 454/609/432
f 452/610/433 477/611/433 455/607/433
f 456/612/434 478/613/434 485/614/434
f 484/615/435 451/616/435 483/617/435
f 541/604/436 494/618/436 489/619/436
f 518/620/437 461/621/437 462/622/437
f 480/608/438 453/623/438 454/609/438
f 467/624/439 511/625/439 466/626/439
f 534/627/440 472/628/440 469/629/440
f 476/630/441 527/631/441 473/632/441
f 541/594/442 385/633/442 379/634/442
f 456/612/443 483/635/443 451/636/443
f 519/637/444 464/638/444 461/621/444
f 523/639/445 464/638/445 521/640/445
f 518/641/446 463/642/446 523/643/446
f 468/644/447 510/645/447 467/624/447
f 511/646/448 465/647/448 466/648/448
f 515/649/449 468/644/449 465/650/449
f 535/651/450 471/652/450 472/628/450
f 539/653/451 471/652/451 537/654/451
f 539/655/452 469/656/452 470/657/452
f 529/658/453 473/632/453 527/631/453
f 531/659/454 474/660/454 529/661/454
f 459/662/455 482/601/455 479/663/455
f 493/664/456 547/597/456 545/599/456
f 501/665/457 506/666/457 503/667/457
f 507/668/458 502/669/458 504/670/458
f 508/671/459 501/665/459 502/672/459
f 507/668/460 503/667/460 506/666/460
f 498/673/461 506/666/461 497/674/461
f 492/675/462 508/671/462 481/676/462
f 498/673/463 508/677/463 507/668/463
f 505/678/464 497/674/464 506/666/464
f 454/679/465 513/680/465 516/681/465
f 516/681/466 514/682/466 515/649/466
f 455/607/467 516/683/467 512/684/467
f 512/684/468 515/685/468 511/646/468
f 513/680/469 459/662/469 509/686/469
f 514/682/470 509/686/470 510/645/470
f 509/686/471 455/687/471 512/688/471
f 510/645/472 512/688/472 511/625/472
f 453/623/473 524/689/473 454/609/473
f 517/690/474 523/643/474 524/689/474
f 454/679/475 522/691/475 460/602/475
f 524/692/472 521/640/472 522/691/472
f 460/602/476 520/693/476 457/600/476
f 520/693/477 521/640/477 519/637/477
f 453/605/478 520/693/478 517/694/478
f 517/694/466 519/637/466 518/620/466
f 452/695/479 525/696/479 532/697/479
f 532/697/480 526/698/480 531/699/480
f 452/610/481 530/700/481 451/616/481
f 532/701/482 529/661/482 530/700/482
f 451/636/483 528/702/483 456/612/483
f 530/703/484 527/631/484 528/702/484
f 458/704/485 528/702/485 525/696/485
f 525/696/486 527/631/486 526/698/486
f 452/610/487 533/705/487 540/706/487
f 540/706/488 534/707/488 539/655/488
f 452/695/489 538/708/489 458/704/489
f 540/709/472 537/654/472 538/708/472
f 458/704/490 536/710/490 459/662/490
f 538/708/491 535/651/491 536/710/491
f 455/687/492 536/710/492 533/711/492
f 502/669/493 503/667/493 504/670/493
f 499/712/494 492/675/494 496/713/494
f 459/662/495 478/613/495 458/704/495
f 481/714/496 500/715/496 486/606/496
f 500/715/497 497/674/497 499/712/497
f 542/716/498 488/717/498 546/592/498
f 495/595/499 543/718/499 548/596/499
f 548/596/500 382/719/500 385/633/500
f 544/720/501 487/721/501 491/722/501
f 542/716/502 496/713/502 492/675/502
f 545/599/503 491/722/503 493/664/503
f 531/699/504 476/630/504 475/723/504
f 479/663/505 493/664/505 491/722/505
f 486/606/506 499/712/506 496/713/506
f 488/717/507 477/611/507 490/724/507
f 487/721/508 479/663/508 491/722/508
f 482/601/509 496/713/509 493/664/509
f 477/611/510 494/618/510 490/724/510
f 484/615/511 489/619/511 494/618/511
f 492/675/512 480/608/512 488/717/512
f 533/711/466 535/651/466 534/627/466
f 489/725/513 485/614/513 495/595/513
f 475/723/514 473/632/514 474/726/514
f 470/727/514 472/628/514 471/652/514
f 465/650/514 467/624/514 466/626/514
f 463/728/515 461/621/515 464/638/515
f 542/716/516 384/729/516 547/597/516
f 495/595/517 478/613/517 487/721/517
f 544/720/518 383/598/518 386/730/518
f 543/718/519 386/730/519 382/719/519
f 490/724/520 546/592/520 488/717/520
f 2/1/521 26/51/521 25/2/521
f 183/4/522 4/12/522 6/5/522
f 14/7/523 12/17/523 21/8/523
f 184/6/524 6/5/524 8/10/524
f 4/12/525 18/21/525 24/13/525
f 185/11/526 8/10/526 10/15/526
f 10/15/527 20/27/527 21/8/527
f 10/15/528 12/17/528 187/18/528
f 1/3/529 25/2/529 27/19/529
f 18/21/530 16/32/530 23/22/530
f 187/18/531 12/17/531 14/7/531
f 19/24/532 27/731/532 28/25/532
f 8/10/533 19/37/533 20/27/533
f 14/7/534 16/29/534 189/28/534
f 16/29/535 14/7/535 22/9/535
f 4/12/536 2/14/536 1/31/536
f 16/32/537 18/21/537 190/33/537
f 21/35/538 20/26/538 28/25/538
f 190/33/539 18/21/539 4/12/539
f 6/5/540 1/31/540 19/37/540
f 176/38/541 30/45/541 32/39/541
f 177/41/542 33/47/542 34/42/542
f 176/38/543 178/229/543 31/44/543
f 177/41/544 180/732/544 32/46/544
f 181/43/545 34/42/545 36/48/545
f 2/1/546 24/55/546 45/50/546
f 23/52/547 22/59/547 39/53/547
f 24/55/548 23/733/548 40/56/548
f 21/35/549 29/36/549 44/58/549
f 166/60/550 26/51/550 38/61/550
f 44/58/551 37/734/551 39/53/551
f 35/63/552 37/734/552 44/58/552
f 45/50/553 24/55/553 41/57/553
f 45/50/554 43/64/554 38/61/554
f 60/65/555 61/75/555 48/66/555
f 63/68/556 52/106/556 51/69/556
f 64/71/557 65/83/557 46/72/557
f 66/74/558 49/95/558 48/66/558
f 63/76/559 64/71/559 53/73/559
f 50/78/40 49/101/40 57/79/40
f 66/74/560 9/90/560 54/81/560
f 65/83/561 60/65/561 47/67/561
f 68/82/562 69/87/562 58/84/562
f 67/86/563 59/88/563 58/84/563
f 62/70/564 51/69/564 59/88/564
f 11/89/565 55/92/565 54/81/565
f 50/78/40 58/80/40 59/88/40
f 11/89/566 13/93/566 56/91/566
f 62/70/567 67/86/567 56/91/567
f 56/91/568 67/86/568 69/87/568
f 54/81/569 55/92/569 69/87/569
f 3/94/570 5/99/570 60/65/570
f 49/95/571 66/74/571 68/82/571
f 17/96/572 64/71/572 63/76/572
f 9/90/573 66/74/573 61/75/573
f 3/94/574 65/83/574 64/71/574
f 13/93/575 15/240/575 63/68/575
f 5/99/576 7/98/576 61/75/576
f 50/78/40 70/103/40 48/100/40
f 47/102/40 48/100/40 70/103/40
f 51/69/40 52/106/40 70/103/40
f 53/105/40 46/104/40 70/103/40
f 81/107/577 76/123/577 72/108/577
f 77/110/578 78/735/578 73/111/578
f 79/113/579 77/110/579 74/112/579
f 80/109/580 72/108/580 71/115/580
f 34/42/581 77/110/581 79/113/581
f 33/47/582 78/735/582 77/110/582
f 30/45/583 31/44/583 80/109/583
f 42/117/584 81/107/584 80/109/584
f 83/118/585 84/736/585 71/115/585
f 73/111/586 84/736/586 83/118/586
f 75/114/587 74/112/587 86/119/587
f 74/112/588 83/118/588 89/121/588
f 83/118/589 72/108/589 85/122/589
f 76/123/590 88/245/590 85/122/590
f 191/124/591 192/130/591 94/125/591
f 194/127/592 93/737/592 90/128/592
f 193/129/593 90/128/593 94/125/593
f 191/124/594 91/126/594 92/131/594
f 73/133/595 99/149/595 102/134/595
f 84/135/596 102/134/596 98/136/596
f 32/138/597 30/146/597 95/139/597
f 82/141/598 71/137/598 98/136/598
f 33/143/599 97/148/599 100/144/599
f 30/146/600 82/141/600 101/142/600
f 33/143/601 32/738/601 96/147/601
f 78/145/602 100/144/602 99/149/602
f 98/136/603 106/153/603 109/150/603
f 95/139/604 101/142/604 109/150/604
f 96/140/605 95/139/605 103/151/605
f 102/134/606 110/158/606 106/153/606
f 100/144/607 97/148/607 105/154/607
f 100/144/608 108/155/608 107/156/608
f 97/148/609 96/147/609 104/157/609
f 99/149/610 107/156/610 110/158/610
f 134/159/611 137/163/611 136/160/611
f 134/159/612 135/165/612 138/162/612
f 115/164/613 116/218/613 138/162/613
f 138/162/614 116/218/614 114/166/614
f 137/163/615 138/162/615 117/167/615
f 136/160/616 137/163/616 118/168/616
f 136/160/617 119/169/617 113/170/617
f 93/172/618 133/161/618 136/160/618
f 139/173/619 140/176/619 143/174/619
f 140/176/620 141/187/620 144/177/620
f 142/175/621 143/174/621 146/178/621
f 143/174/622 144/177/622 147/180/622
f 113/181/623 119/183/623 139/173/623
f 119/183/624 118/185/624 140/176/624
f 117/184/625 141/187/625 140/176/625
f 114/186/626 123/188/626 141/187/626
f 123/188/627 124/739/627 144/177/627
f 144/177/628 124/739/628 125/189/628
f 147/180/629 125/189/629 112/190/629
f 146/178/630 147/180/630 126/191/630
f 146/178/631 127/192/631 128/193/631
f 145/179/632 128/193/632 111/194/632
f 121/196/633 142/175/633 145/179/633
f 122/182/634 139/173/634 142/175/634
f 148/197/635 149/201/635 152/198/635
f 150/200/636 153/204/636 152/198/636
f 111/194/637 128/193/637 148/197/637
f 127/192/638 149/201/638 148/197/638
f 127/192/639 126/191/639 150/200/639
f 112/190/640 131/203/640 150/200/640
f 131/203/641 132/219/641 153/204/641
f 130/202/642 148/197/642 151/199/642
f 92/206/643 91/211/643 155/207/643
f 113/181/644 122/182/644 94/209/644
f 94/209/645 122/182/645 121/196/645
f 91/211/646 121/196/646 120/195/646
f 155/207/647 120/195/647 111/194/647
f 154/208/648 155/207/648 130/202/648
f 157/212/649 159/215/649 158/213/649
f 159/215/650 161/567/650 160/216/650
f 114/166/651 116/218/651 156/214/651
f 116/218/652 115/164/652 157/212/652
f 160/216/653 161/567/653 132/219/653
f 160/216/654 131/203/654 112/190/654
f 158/213/655 160/216/655 125/189/655
f 156/214/656 158/213/656 124/220/656
f 171/221/657 166/60/657 168/62/657
f 164/223/658 167/231/658 35/63/658
f 28/25/659 27/731/659 162/224/659
f 25/2/660 26/51/660 166/60/660
f 29/36/661 28/25/661 165/225/661
f 27/19/662 25/2/662 163/226/662
f 171/221/663 172/222/663 179/228/663
f 164/223/664 174/234/664 175/230/664
f 162/224/665 173/236/665 170/232/665
f 163/226/666 166/60/666 171/221/666
f 165/225/667 170/232/667 174/234/667
f 162/227/668 163/226/668 169/233/668
f 178/229/669 179/228/669 42/117/669
f 174/234/670 181/43/670 182/49/670
f 173/236/671 180/732/671 177/41/671
f 169/233/672 171/221/672 178/229/672
f 170/232/673 177/41/673 181/43/673
f 173/235/674 169/233/674 176/38/674
f 17/96/675 190/238/675 183/237/675
f 15/97/17 189/740/17 190/238/17
f 13/93/14 188/241/14 189/239/14
f 11/89/676 187/741/676 188/241/676
f 186/242/677 187/741/677 11/89/677
f 185/243/6 186/242/6 9/90/6
f 184/244/4 185/243/4 7/98/4
f 183/237/2 184/244/2 5/99/2
f 87/120/678 86/119/678 191/124/678
f 89/121/679 85/122/679 193/129/679
f 88/245/680 194/127/680 193/129/680
f 86/119/681 89/121/681 192/130/681
f 291/246/682 287/364/682 105/247/682
f 286/249/683 293/366/683 240/250/683
f 292/252/684 290/370/684 107/253/684
f 227/255/685 231/260/685 202/256/685
f 103/258/686 286/272/686 291/246/686
f 198/259/687 202/256/687 231/260/687
f 200/262/688 199/336/688 225/263/688
f 197/265/689 200/262/689 222/264/689
f 201/267/690 230/291/690 223/268/690
f 196/270/691 197/265/691 229/266/691
f 286/272/692 234/375/692 239/273/692
f 206/274/179 264/292/179 263/275/179
f 225/263/693 199/336/693 198/277/693
f 212/279/181 211/379/181 256/280/181
f 217/282/182 280/305/182 279/283/182
f 221/285/694 218/312/694 272/286/694
f 109/288/695 293/366/695 286/249/695
f 201/267/696 196/353/696 228/290/696
f 264/292/186 206/274/186 209/293/186
f 209/293/187 208/381/187 268/295/187
f 268/296/188 208/742/188 207/297/188
f 212/279/189 255/281/189 259/299/189
f 256/301/697 211/743/697 210/302/697
f 260/304/191 210/380/191 213/300/191
f 280/305/192 217/282/192 216/306/192
f 216/306/698 215/378/698 284/308/698
f 215/309/194 214/744/194 279/310/194
f 218/312/195 219/377/195 274/313/195
f 219/314/196 220/745/196 276/315/196
f 204/317/699 224/373/699 227/255/699
f 238/318/700 290/370/700 292/252/700
f 246/320/701 248/327/701 251/321/701
f 247/323/702 253/331/702 252/324/702
f 253/326/703 247/746/703 246/320/703
f 248/327/704 249/325/704 252/324/704
f 251/321/705 252/324/705 243/328/705
f 253/326/706 250/322/706 237/330/706
f 253/331/707 226/261/707 243/328/707
f 250/322/708 251/321/708 242/329/708
f 199/332/709 261/334/709 258/333/709
f 261/334/208 260/304/208 259/299/208
f 200/262/710 257/337/710 261/335/710
f 256/301/210 260/303/210 261/335/210
f 258/333/711 254/338/711 204/317/711
f 259/299/212 255/281/212 254/338/212
f 254/338/712 257/340/712 200/339/712
f 255/281/214 256/280/214 257/340/214
f 269/341/713 262/342/713 198/277/713
f 269/341/216 268/296/216 263/298/216
f 267/343/714 269/344/714 199/332/714
f 266/294/214 268/295/214 269/344/214
f 265/345/715 267/343/715 205/257/715
f 264/292/219 266/294/219 267/343/219
f 265/345/716 202/256/716 198/259/716
f 264/292/208 265/345/208 262/346/208
f 197/347/717 277/349/717 270/348/717
f 277/349/718 276/372/718 271/287/718
f 275/350/719 277/351/719 197/265/719
f 274/316/720 276/315/720 277/351/720
f 273/352/721 275/354/721 196/353/721
f 272/286/722 274/313/722 275/354/722
f 273/352/723 201/267/723 203/269/723
f 272/286/724 273/352/724 270/348/724
f 197/265/725 285/356/725 278/355/725
f 284/311/230 279/310/230 278/355/230
f 283/357/726 285/358/726 197/347/726
f 282/307/214 284/308/214 285/358/214
f 281/359/727 283/357/727 203/269/727
f 281/359/233 280/305/233 282/307/233
f 281/359/728 204/317/728 200/339/728
f 247/323/235 249/325/235 248/327/235
f 237/330/729 242/329/729 244/361/729
f 223/268/730 224/373/730 204/317/730
f 245/362/731 243/328/731 226/261/731
f 242/329/732 243/328/732 245/362/732
f 233/363/733 237/330/733 287/364/733
f 288/365/734 232/369/734 240/250/734
f 106/367/735 288/365/735 293/366/735
f 289/368/736 236/371/736 232/369/736
f 287/364/737 237/330/737 241/319/737
f 290/370/738 238/318/738 236/371/738
f 276/372/246 220/376/246 221/285/246
f 238/318/739 227/255/739 224/373/739
f 231/260/740 241/319/740 244/361/740
f 233/363/741 235/374/741 222/264/741
f 232/369/742 236/371/742 224/373/742
f 241/319/743 231/260/743 227/255/743
f 239/273/744 229/266/744 222/264/744
f 234/375/745 228/271/745 229/266/745
f 237/330/746 233/363/746 225/263/746
f 280/305/208 281/359/208 278/360/208
f 234/251/747 240/250/747 230/291/747
f 218/312/256 221/285/256 220/376/256
f 215/378/256 216/306/256 217/282/256
f 211/379/256 212/279/256 213/300/256
f 208/381/256 209/293/256 206/274/256
f 287/364/748 292/252/748 108/254/748
f 240/250/749 232/369/749 223/268/749
f 289/368/750 110/382/750 107/253/750
f 288/365/751 106/367/751 110/382/751
f 235/374/752 233/363/752 291/246/752
f 318/383/753 319/434/753 295/384/753
f 440/386/754 441/392/754 299/387/754
f 307/389/755 315/411/755 314/390/755
f 441/392/756 442/396/756 301/393/756
f 297/388/757 295/747/757 317/394/757
f 442/396/758 443/399/758 303/397/758
f 314/390/759 313/407/759 303/397/759
f 444/398/760 305/391/760 303/397/760
f 320/400/761 318/383/761 294/385/761
f 311/395/762 317/394/762 316/402/762
f 444/398/763 445/409/763 307/389/763
f 321/404/764 320/573/764 312/405/764
f 313/407/765 312/416/765 301/393/765
f 446/408/766 309/410/766 307/389/766
f 309/410/767 316/748/767 315/411/767
f 294/412/768 295/747/768 297/388/768
f 447/413/769 311/395/769 309/403/769
f 314/415/770 322/435/770 321/404/770
f 447/413/771 440/386/771 297/388/771
f 312/416/772 294/412/772 299/387/772
f 325/417/773 323/485/773 435/418/773
f 327/420/774 326/484/774 436/421/774
f 435/418/775 323/485/775 324/423/775
f 436/421/776 326/484/776 325/425/776
f 439/422/777 182/49/777 36/48/777
f 295/384/778 319/434/778 329/427/778
f 316/429/779 40/54/779 39/53/779
f 317/428/780 41/57/780 40/56/780
f 328/432/781 322/435/781 314/415/781
f 429/433/782 168/62/782 38/61/782
f 39/53/783 37/734/783 328/432/783
f 328/432/784 37/734/784 35/63/784
f 41/57/785 317/428/785 329/427/785
f 329/427/786 319/434/786 38/61/786
f 344/436/787 331/453/787 332/437/787
f 335/439/788 336/475/788 347/440/788
f 348/442/789 337/447/789 330/443/789
f 332/437/790 333/465/790 350/445/790
f 347/446/791 336/749/791 337/447/791
f 334/448/40 342/750/40 341/449/40
f 350/445/792 352/454/792 338/451/792
f 349/444/793 330/443/793 331/453/793
f 352/454/794 341/751/794 342/455/794
f 342/455/795 343/458/795 351/457/795
f 346/441/796 351/457/796 343/458/796
f 338/451/797 339/462/797 304/459/797
f 343/458/40 342/750/40 334/448/40
f 304/459/798 339/462/798 340/460/798
f 340/460/799 351/457/799 346/441/799
f 353/456/800 351/457/800 340/460/800
f 338/451/801 352/454/801 353/456/801
f 296/463/802 349/444/802 344/436/802
f 333/465/803 341/751/803 352/454/803
f 347/446/804 348/442/804 310/466/804
f 345/438/805 350/445/805 302/452/805
f 348/442/806 349/444/806 296/463/806
f 306/461/807 346/441/807 347/440/807
f 298/464/808 344/436/808 345/438/808
f 332/470/40 354/471/40 334/448/40
f 354/471/40 332/470/40 331/472/40
f 354/471/40 336/475/40 335/439/40
f 354/471/40 330/473/40 337/474/40
f 356/476/809 76/123/809 81/107/809
f 359/478/810 358/481/810 357/479/810
f 79/113/811 75/114/811 358/481/811
f 355/482/812 356/476/812 361/477/812
f 79/113/813 359/478/813 327/420/813
f 359/478/814 360/480/814 326/484/814
f 323/485/815 362/483/815 361/477/815
f 361/477/816 81/107/816 42/117/816
f 363/486/817 356/476/817 355/482/817
f 363/486/818 364/487/818 357/479/818
f 75/114/819 87/120/819 366/488/819
f 358/481/820 366/488/820 367/489/820
f 363/486/821 367/489/821 365/490/821
f 365/490/822 88/245/822 76/123/822
f 448/491/823 369/752/823 370/492/823
f 368/494/824 93/737/824 194/127/824
f 370/492/825 368/494/825 450/495/825
f 92/131/826 369/752/826 448/491/826
f 364/496/827 378/500/827 375/497/827
f 355/499/828 374/505/828 378/500/828
f 372/501/829 371/509/829 323/502/829
f 362/504/830 377/514/830 374/505/830
f 360/506/831 376/512/831 373/507/831
f 371/509/832 377/514/832 362/504/832
f 326/508/833 373/507/833 372/510/833
f 357/498/834 375/497/834 376/512/834
f 385/513/835 382/516/835 374/505/835
f 371/509/836 379/515/836 385/513/836
f 372/501/837 380/753/837 379/515/837
f 382/516/838 386/520/838 378/500/838
f 376/512/839 384/754/839 381/517/839
f 383/518/840 384/754/840 376/512/840
f 373/507/841 381/517/841 380/519/841
f 386/520/842 383/518/842 375/497/842
f 406/521/843 407/525/843 134/159/843
f 134/159/844 407/525/844 408/522/844
f 408/522/845 391/524/845 115/164/845
f 408/522/846 392/526/846 390/523/846
f 407/525/847 393/527/847 392/526/847
f 406/521/848 394/755/848 393/527/848
f 389/528/849 394/755/849 406/521/849
f 93/172/850 368/529/850 406/521/850
f 409/530/851 412/535/851 413/531/851
f 410/532/852 413/531/852 414/533/852
f 412/535/853 415/549/853 416/536/853
f 413/531/854 416/536/854 417/537/854
f 389/538/855 397/553/855 409/530/855
f 394/539/856 409/530/856 410/532/856
f 410/532/857 411/534/857 392/541/857
f 411/534/858 398/543/858 390/542/858
f 414/533/859 399/545/859 398/543/859
f 414/533/860 417/537/860 400/544/860
f 417/537/861 401/547/861 388/546/861
f 416/536/862 402/557/862 401/547/862
f 403/548/863 402/557/863 416/536/863
f 387/550/864 403/548/864 415/549/864
f 396/552/865 395/551/865 415/549/865
f 397/553/866 396/552/866 412/535/866
f 418/554/867 151/199/867 152/198/867
f 152/198/868 153/204/868 420/556/868
f 387/550/869 404/559/869 418/554/869
f 418/554/870 419/555/870 402/557/870
f 402/557/871 419/555/871 420/556/871
f 420/556/872 405/558/872 388/546/872
f 153/204/873 132/219/873 405/558/873
f 404/559/874 129/205/874 151/199/874
f 92/206/875 154/208/875 421/560/875
f 370/562/876 397/553/876 389/538/876
f 370/562/877 369/561/877 396/552/877
f 369/561/878 421/560/878 395/551/878
f 421/560/879 404/559/879 387/550/879
f 154/208/880 129/205/880 404/559/880
f 423/564/881 159/215/881 157/212/881
f 424/566/882 161/567/882 159/215/882
f 390/523/883 398/569/883 422/565/883
f 391/524/884 422/565/884 157/212/884
f 424/566/885 405/558/885 132/219/885
f 388/546/886 405/558/886 424/566/886
f 400/544/887 424/566/887 423/564/887
f 399/568/888 423/564/888 422/565/888
f 432/570/889 172/222/889 168/62/889
f 35/63/890 167/231/890 427/571/890
f 321/404/891 428/574/891 425/572/891
f 318/383/892 426/575/892 429/433/892
f 322/435/893 427/571/893 428/574/893
f 320/400/894 425/578/894 426/575/894
f 179/228/895 172/222/895 432/570/895
f 427/571/896 167/231/896 175/230/896
f 431/577/897 433/580/897 425/572/897
f 426/575/898 430/579/898 432/570/898
f 434/576/899 431/577/899 428/574/899
f 425/578/900 433/581/900 430/579/900
f 42/117/901 179/228/901 437/424/901
f 434/576/902 175/230/902 182/49/902
f 436/421/903 438/426/903 433/580/903
f 430/579/904 435/418/904 437/424/904
f 439/422/905 436/421/905 431/577/905
f 433/581/906 438/419/906 435/418/906
f 310/466/907 296/463/907 440/582/907
f 308/467/908 310/466/908 447/583/908
f 306/461/909 308/469/909 446/585/909
f 304/459/910 306/461/910 445/586/910
f 304/459/911 444/587/911 443/588/911
f 302/452/758 443/588/758 442/589/758
f 300/468/756 442/589/756 441/590/756
f 298/464/754 441/590/754 440/582/754
f 87/120/912 195/132/912 448/491/912
f 367/489/913 449/493/913 450/495/913
f 450/495/914 194/127/914 88/245/914
f 366/488/915 448/491/915 449/493/915
f 381/591/916 542/716/916 546/592/916
f 541/594/917 489/725/917 495/595/917
f 547/597/918 384/729/918 383/598/918
f 457/600/919 486/606/919 482/601/919
f 379/603/920 380/593/920 546/592/920
f 453/605/921 481/714/921 486/606/921
f 455/607/922 477/611/922 480/608/922
f 452/610/923 484/615/923 477/611/923
f 456/612/924 458/704/924 478/613/924
f 484/615/925 452/610/925 451/616/925
f 541/604/926 546/592/926 494/618/926
f 518/620/437 519/637/437 461/621/437
f 480/608/927 481/676/927 453/623/927
f 467/624/439 510/645/439 511/625/439
f 534/627/440 535/651/440 472/628/440
f 476/630/441 526/698/441 527/631/441
f 541/594/928 548/596/928 385/633/928
f 456/612/929 485/614/929 483/635/929
f 519/637/444 521/640/444 464/638/444
f 523/639/445 463/728/445 464/638/445
f 518/641/446 462/756/446 463/642/446
f 468/644/447 514/682/447 510/645/447
f 511/646/930 515/685/930 465/647/930
f 515/649/449 514/682/449 468/644/449
f 535/651/450 537/654/450 471/652/450
f 539/653/451 470/727/451 471/652/451
f 539/655/452 534/707/452 469/656/452
f 529/658/453 474/726/453 473/632/453
f 531/659/931 475/757/931 474/660/931
f 459/662/932 460/602/932 482/601/932
f 493/664/933 496/713/933 547/597/933
f 501/665/934 505/678/934 506/666/934
f 507/668/935 508/677/935 502/669/935
f 508/671/936 505/678/936 501/665/936
f 507/668/937 504/670/937 503/667/937
f 498/673/938 507/668/938 506/666/938
f 492/675/939 505/678/939 508/671/939
f 498/673/940 481/714/940 508/677/940
f 505/678/941 492/675/941 497/674/941
f 454/679/942 460/602/942 513/680/942
f 516/681/466 513/680/466 514/682/466
f 455/607/943 454/609/943 516/683/943
f 512/684/468 516/683/468 515/685/468
f 513/680/944 460/602/944 459/662/944
f 514/682/470 513/680/470 509/686/470
f 509/686/945 459/662/945 455/687/945
f 510/645/472 509/686/472 512/688/472
f 453/623/946 517/690/946 524/689/946
f 517/690/474 518/641/474 523/643/474
f 454/679/947 524/692/947 522/691/947
f 524/692/472 523/639/472 521/640/472
f 460/602/948 522/691/948 520/693/948
f 520/693/477 522/691/477 521/640/477
f 453/605/949 457/600/949 520/693/949
f 517/694/466 520/693/466 519/637/466
f 452/695/950 458/704/950 525/696/950
f 532/697/951 525/696/951 526/698/951
f 452/610/952 532/701/952 530/700/952
f 532/701/953 531/659/953 529/661/953
f 451/636/954 530/703/954 528/702/954
f 530/703/955 529/658/955 527/631/955
f 458/704/956 456/612/956 528/702/956
f 525/696/957 528/702/957 527/631/957
f 452/610/958 455/607/958 533/705/958
f 540/706/488 533/705/488 534/707/488
f 452/695/959 540/709/959 538/708/959
f 540/709/472 539/653/472 537/654/472
f 458/704/960 538/708/960 536/710/960
f 538/708/491 537/654/491 535/651/491
f 455/687/961 459/662/961 536/710/961
f 502/669/962 501/665/962 503/667/962
f 499/712/963 497/674/963 492/675/963
f 459/662/964 479/663/964 478/613/964
f 481/714/965 498/673/965 500/715/965
f 500/715/966 498/673/966 497/674/966
f 542/716/967 492/675/967 488/717/967
f 495/595/968 487/721/968 543/718/968
f 548/596/969 543/718/969 382/719/969
f 544/720/970 543/718/970 487/721/970
f 542/716/971 547/597/971 496/713/971
f 545/599/972 544/720/972 491/722/972
f 531/699/973 526/698/973 476/630/973
f 479/663/974 482/601/974 493/664/974
f 486/606/975 500/715/975 499/712/975
f 488/717/976 480/608/976 477/611/976
f 487/721/977 478/613/977 479/663/977
f 482/601/978 486/606/978 496/713/978
f 477/611/979 484/615/979 494/618/979
f 484/615/980 483/617/980 489/619/980
f 492/675/981 481/676/981 480/608/981
f 533/711/466 536/710/466 535/651/466
f 489/725/982 483/635/982 485/614/982
f 475/723/514 476/630/514 473/632/514
f 470/727/515 469/629/515 472/628/515
f 465/650/514 468/644/514 467/624/514
f 463/728/514 462/622/514 461/621/514
f 542/716/983 381/591/983 384/729/983
f 495/595/984 485/614/984 478/613/984
f 544/720/985 545/599/985 383/598/985
f 543/718/986 544/720/986 386/730/986
f 490/724/987 494/618/987 546/592/987
