# Blender 5.0.0
# www.blender.org
mtllib human2.mtl
o BaseHuman.002
v 0.292895 2.178667 -0.284968
v 0.286884 2.097394 -0.277099
v 0.284113 2.112772 -0.260997
v 0.326622 2.081415 -0.284985
v 0.321234 2.109771 -0.255361
v 0.301256 2.119061 -0.250026
v 0.313050 2.073696 -0.296658
v 0.328587 2.096080 -0.268524
v 0.323850 2.167028 -0.382684
v 0.323467 2.183865 -0.373635
v 0.313388 2.224325 -0.330537
v 0.321594 2.213835 -0.342826
v 0.325862 2.199262 -0.357807
v 0.335425 2.165010 -0.378462
v 0.328174 2.222653 -0.325695
v 0.338545 2.185896 -0.371051
v 0.340833 2.201411 -0.355333
v 0.336613 2.215743 -0.340379
v 0.320235 2.268649 -0.372647
v 0.311558 2.268367 -0.375037
v 0.314553 2.258774 -0.384778
v 0.323230 2.259056 -0.382388
v 0.320680 2.263063 -0.397254
v 0.323675 2.253470 -0.406995
v 0.331346 2.253720 -0.404882
v 0.328351 2.263313 -0.395142
v 0.317986 2.244315 -0.409778
v 0.320981 2.234722 -0.419518
v 0.329115 2.234987 -0.417278
v 0.326120 2.244580 -0.407537
v 0.327172 2.211358 -0.424180
v 0.317993 2.211060 -0.426708
v 0.314998 2.220653 -0.416967
v 0.324177 2.220951 -0.414439
v 0.310457 2.169088 -0.333347
v 0.340474 2.153627 -0.338926
v 0.338541 2.167873 -0.323643
v 0.304780 2.185121 -0.320071
v 0.298334 2.209581 -0.309432
v 0.333929 2.180764 -0.310695
v 0.321005 2.143795 -0.361453
v 0.314840 2.155425 -0.347876
v 0.331954 2.142766 -0.360335
v 0.319797 2.204067 -0.302907
v 0.338611 2.137578 -0.323741
v 0.299396 2.168457 -0.302475
v 0.315930 2.125299 -0.343913
v 0.305488 2.150968 -0.317019
v 0.336944 2.151922 -0.308432
v 0.291611 2.200387 -0.286669
v 0.332290 2.164810 -0.295496
v 0.309807 2.137162 -0.331240
v 0.327304 2.121977 -0.341952
v 0.313806 2.186798 -0.279965
v 0.303710 2.216951 -0.282273
v 0.308473 2.217801 -0.299709
v 0.309713 2.199908 -0.280169
v 0.315209 2.210803 -0.300406
v 0.271903 2.247427 -0.294632
v 0.276047 2.246778 -0.309600
v 0.282852 2.256534 -0.292636
v 0.286996 2.255884 -0.307604
v 0.279730 2.227217 -0.289591
v 0.292485 2.236992 -0.287176
v 0.297047 2.236072 -0.303631
v 0.284463 2.226527 -0.306693
v 0.339223 2.219359 -0.369721
v 0.336016 2.237449 -0.388523
v 0.325639 2.237111 -0.391381
v 0.326612 2.218948 -0.373194
v 0.335900 2.230003 -0.358913
v 0.332692 2.248092 -0.377715
v 0.322316 2.247755 -0.380573
v 0.323288 2.229592 -0.362387
v 0.315290 2.240783 -0.345623
v 0.313685 2.255802 -0.360907
v 0.324858 2.256166 -0.357830
v 0.328300 2.241207 -0.342039
v 0.328181 2.245522 -0.368638
v 0.331624 2.230563 -0.352847
v 0.317008 2.245158 -0.371715
v 0.318614 2.230139 -0.356430
v 0.337276 2.196420 -0.386641
v 0.333731 2.209830 -0.400921
v 0.332262 2.199186 -0.411728
v 0.335478 2.185081 -0.397151
v 0.320693 2.198810 -0.414915
v 0.322835 2.184889 -0.400704
v 0.317369 2.209454 -0.404107
v 0.319309 2.195996 -0.390265
v 0.321111 2.213552 -0.377418
v 0.319848 2.230268 -0.394270
v 0.335383 2.230618 -0.391311
v 0.338698 2.213968 -0.373894
v 0.338706 2.219974 -0.402118
v 0.342021 2.203324 -0.384701
v 0.323171 2.219624 -0.405077
v 0.324434 2.202908 -0.388225
v 0.309868 2.102626 -0.323044
v 0.291811 2.145294 -0.275831
v 0.333997 2.110953 -0.305875
v 0.332496 2.125324 -0.287841
v 0.328759 2.135780 -0.277338
v 0.295285 2.124114 -0.298090
v 0.312759 2.146572 -0.269411
v 0.322566 2.100585 -0.322172
v -0.158703 0.908270 0.115882
v -0.105208 0.908270 0.142384
v -0.095537 0.085135 0.063072
v -0.097527 0.560238 0.041391
v -0.120207 0.085135 0.038644
v -0.141747 0.553853 0.024538
v -0.132230 0.085135 0.015775
v -0.158690 0.547575 -0.020732
v -0.128664 0.086608 -0.018659
v -0.136668 0.538722 -0.061780
v -0.097848 0.086608 -0.047694
v -0.099919 0.535347 -0.090277
v -0.068211 0.086608 -0.020991
v -0.056974 0.539750 -0.064747
v -0.066873 0.085135 0.013022
v -0.030292 0.547833 -0.019542
v -0.079316 0.085135 0.043232
v -0.047741 0.556345 0.027392
v -0.194023 0.908270 0.020409
v -0.157250 0.908270 -0.067773
v -0.102961 0.908270 -0.080222
v -0.059426 0.908270 -0.067028
v -0.023460 0.908270 -0.021252
v -0.050349 0.908270 0.116221
v -0.166343 1.044728 0.127465
v -0.102226 1.044728 0.168292
v -0.192349 1.044728 0.022142
v -0.149205 1.044728 -0.052327
v -0.103377 1.044728 -0.062460
v -0.163011 1.494307 0.171844
v -0.105659 1.520252 0.163216
v -0.174416 1.458920 0.063670
v -0.188413 1.485878 -0.004388
v -0.105218 1.557776 -0.055897
v 0.000000 1.043982 -0.074866
v 0.000000 1.539507 -0.064997
v -0.000000 0.984515 -0.069439
v 0.000000 1.044748 0.165750
v 0.000000 0.964246 -0.044963
v 0.000000 0.944351 -0.018848
v 0.000000 0.964610 0.123233
v 0.000000 1.520603 0.142852
v 0.000000 0.986661 0.147516
v -0.060798 0.983639 -0.072162
v -0.051112 0.970184 0.159102
v -0.095537 0.000000 0.064276
v -0.120207 0.000000 0.053374
v -0.133012 0.000000 0.011863
v -0.137470 0.000000 -0.025042
v -0.099283 0.000000 -0.021136
v -0.071088 0.000000 -0.018915
v -0.068268 0.000000 0.015190
v -0.079316 0.000000 0.056956
v -0.150183 0.023792 -0.179684
v -0.098930 0.023792 -0.203072
v -0.058138 0.023792 -0.202238
v -0.153999 0.000000 -0.178041
v -0.099980 0.000000 -0.209286
v -0.054735 0.000000 -0.206327
v -0.120207 0.042721 0.045546
v -0.132879 0.042721 0.011590
v -0.063800 0.042721 -0.024653
v -0.067216 0.042721 0.011997
v -0.079316 0.042721 0.061129
v -0.095537 0.042721 0.070348
v -0.137496 0.042721 -0.024501
v -0.055037 0.014298 -0.208114
v -0.154299 0.014298 -0.179818
v -0.100184 0.014298 -0.210493
v -0.098615 0.000000 0.014049
v -0.242064 1.520632 0.158926
v -0.105294 1.666675 0.127740
v -0.262613 1.515425 0.046128
v -0.084531 1.655398 -0.004652
v 0.000000 1.652695 -0.014439
v 0.000000 1.665339 0.118573
v -0.101001 1.613984 -0.033608
v -0.219954 1.504684 0.013541
v 0.000000 1.602843 -0.035788
v -0.105294 1.580085 0.163612
v 0.000000 1.578080 0.137940
v -0.208171 1.505181 0.172051
v -0.106007 1.673362 0.067618
v -0.277167 1.516835 0.099655
v -0.056691 1.688870 0.112132
v -0.055551 1.683218 0.016583
v 0.000000 1.683550 -0.012510
v 0.000000 1.689392 0.111449
v -0.081083 1.688956 0.059605
v -0.036254 1.781985 0.079287
v -0.043599 1.745520 -0.005107
v 0.000000 1.731937 -0.034592
v 0.000000 1.786968 0.093034
v -0.057651 1.762644 0.042455
v -0.242495 1.200910 0.140901
v -0.235354 1.199566 0.112673
v -0.252596 1.202810 0.089698
v -0.308326 1.213297 0.144019
v -0.316444 1.214824 0.086443
v -0.284459 1.208806 0.073955
v -0.279807 1.207931 0.163789
v -0.320471 1.215582 0.116603
v -0.313207 0.949454 0.103146
v -0.311741 0.949178 0.081773
v -0.313792 0.949564 0.059432
v -0.346824 0.955779 0.106717
v -0.350323 0.956438 0.065511
v -0.333081 0.953194 0.051155
v -0.330688 0.952743 0.117228
v -0.353431 0.957023 0.085630
v -0.056245 1.800561 -0.067264
v -0.052766 1.936856 -0.061126
v -0.055226 1.800766 0.062041
v -0.069324 1.946548 0.069176
v 0.000000 1.969898 0.093633
v -0.046616 1.961936 0.085542
v -0.072578 1.916057 0.077286
v -0.072357 1.874539 0.079729
v -0.066819 1.836556 0.071826
v -0.063395 1.790114 -0.044194
v -0.067860 1.789107 -0.006832
v -0.072951 1.790586 0.033241
v -0.071081 1.953409 0.041065
v -0.067951 1.954899 -0.000829
v -0.061267 1.947351 -0.037806
v -0.056945 1.909922 -0.068526
v -0.059453 1.878144 -0.073410
v -0.060806 1.829290 -0.070587
v 0.000000 1.780037 -0.094794
v -0.037027 1.786474 -0.082849
v -0.034530 1.944823 -0.070665
v 0.000000 1.950927 -0.074790
v 0.000000 1.826962 0.108700
v 0.000000 1.872514 0.126626
v 0.000000 1.925751 0.124198
v -0.042035 1.831175 0.096734
v -0.047137 1.873558 0.110872
v -0.048597 1.921471 0.108493
v -0.083176 1.831753 0.034559
v -0.083746 1.876407 0.038300
v -0.080940 1.917383 0.040246
v -0.078471 1.829940 -0.007289
v -0.080575 1.876967 -0.003902
v -0.078522 1.918889 -0.000695
v -0.072425 1.829425 -0.045403
v -0.073019 1.877271 -0.043640
v -0.069896 1.915414 -0.039232
v -0.033158 1.827631 -0.087202
v -0.032173 1.879010 -0.090263
v -0.033660 1.911398 -0.086937
v 0.000000 1.824973 -0.097548
v -0.000000 1.880088 -0.096614
v 0.000000 1.915300 -0.092074
v 0.000000 1.746570 -0.069472
v -0.041371 1.760586 -0.053984
v -0.045863 1.979275 0.044286
v 0.000000 1.990065 0.046983
v -0.043017 1.980053 -0.002026
v 0.000000 1.990842 -0.002898
v -0.037517 1.968121 -0.042604
v 0.000000 1.976534 -0.046734
v -0.175290 1.148496 0.032390
v -0.146418 1.145899 0.108202
v -0.089275 1.146309 -0.075099
v -0.135178 1.146201 -0.050903
v -0.094767 1.141667 0.144463
v 0.000000 1.146267 -0.088696
v 0.000000 1.143516 0.146138
v -0.121837 1.290747 0.093072
v -0.136941 1.291139 -0.037859
v -0.087378 1.290591 0.113061
v 0.000000 1.290679 0.119004
v -0.146773 1.290773 0.031399
v -0.090565 1.290818 -0.077172
v 0.000000 1.290730 -0.089455
v -0.162024 1.461672 0.120875
v -0.169138 1.461672 -0.043579
v -0.102828 1.461672 0.150813
v 0.000000 1.461672 0.138671
v -0.185812 1.461672 0.027965
v -0.108522 1.461672 -0.072820
v 0.000000 1.461672 -0.083544
v -0.095654 0.113230 0.061790
v -0.121481 0.112852 0.037810
v -0.133795 0.112481 0.013616
v -0.129137 0.113343 -0.021209
v -0.097970 0.113144 -0.050212
v -0.067547 0.113404 -0.023579
v -0.064709 0.112496 0.011096
v -0.077449 0.113000 0.042295
v -0.043622 1.715756 0.004573
v -0.064216 1.723745 0.050508
v -0.040672 1.735787 0.087073
v 0.000000 1.738047 0.096149
v 0.000000 1.704883 -0.019875
v -0.344842 0.826155 0.115439
v -0.348496 0.820586 0.097519
v -0.351266 0.822060 0.037634
v -0.355857 0.821008 0.055133
v -0.355556 0.820872 0.076462
v -0.356393 0.830803 0.116362
v -0.366096 0.826966 0.038575
v -0.363912 0.821281 0.097555
v -0.370872 0.821404 0.076471
v -0.371177 0.821693 0.055336
v -0.359494 0.761092 0.038026
v -0.350644 0.759428 0.038026
v -0.350644 0.759428 0.052022
v -0.359494 0.761093 0.052022
v -0.355622 0.747720 0.059076
v -0.355622 0.747720 0.073071
v -0.363445 0.749192 0.073071
v -0.363445 0.749192 0.059076
v -0.348169 0.752133 0.080066
v -0.348169 0.752133 0.094061
v -0.356465 0.753694 0.094061
v -0.385626 0.683354 0.049145
v -0.349711 0.765544 0.114645
v -0.340351 0.763783 0.114645
v -0.340351 0.763783 0.100650
v -0.349711 0.765544 0.100649
v -0.338885 0.859187 0.076824
v -0.364876 0.866845 0.097728
v -0.367445 0.867473 0.076913
v -0.337817 0.857056 0.055379
v -0.337028 0.847075 0.029830
v -0.366852 0.867362 0.058079
v -0.341140 0.857535 0.115979
v -0.368071 0.788387 0.066318
v -0.351817 0.859281 0.118249
v -0.357975 0.856032 0.033661
v -0.362490 0.888889 0.097762
v -0.332223 0.881162 0.053403
v -0.335537 0.882907 0.115363
v -0.362442 0.813100 0.045895
v -0.365339 0.889472 0.076918
v -0.332072 0.869498 0.018850
v -0.364704 0.889353 0.058085
v -0.333262 0.883298 0.097101
v -0.346365 0.886881 0.118710
v -0.352422 0.884321 0.028248
v -0.347231 0.861102 0.007027
v -0.349626 0.848310 0.019598
v -0.350565 0.874796 0.018529
v -0.354952 0.852922 0.026322
v -0.319508 0.830117 -0.012069
v -0.321390 0.820115 -0.000319
v -0.331981 0.825295 -0.017356
v -0.333862 0.815292 -0.005606
v -0.324503 0.848165 -0.000049
v -0.338907 0.843201 -0.005699
v -0.340949 0.832352 0.007360
v -0.326660 0.836700 0.013339
v -0.370290 0.798504 0.073838
v -0.367564 0.772358 0.073838
v -0.356982 0.770366 0.073838
v -0.357428 0.796083 0.073838
v -0.370290 0.798504 0.058309
v -0.367564 0.772358 0.058309
v -0.356982 0.770366 0.058309
v -0.386590 0.725743 0.027388
v -0.353772 0.799796 0.037260
v -0.352586 0.778340 0.037260
v -0.363981 0.780484 0.037260
v -0.367040 0.802292 0.037260
v -0.363981 0.780484 0.052788
v -0.367040 0.802292 0.052788
v -0.352587 0.778340 0.052788
v -0.353772 0.799796 0.052788
v -0.357590 0.802704 0.099895
v -0.354382 0.783057 0.099883
v -0.354382 0.783057 0.115411
v -0.357194 0.803401 0.115622
v -0.342583 0.780837 0.115412
v -0.344327 0.800769 0.115521
v -0.342583 0.780837 0.099883
v -0.344155 0.800176 0.099888
v -0.350583 0.796819 0.079299
v -0.349797 0.773062 0.079299
v -0.360753 0.775123 0.079299
v -0.392794 0.728934 0.048379
v -0.360753 0.775123 0.094828
v -0.363632 0.799275 0.094828
v -0.378958 0.702722 0.063907
v -0.379745 0.726479 0.063907
v -0.328737 0.913566 0.115082
v -0.324648 0.916208 0.049113
v -0.356039 0.920264 0.102589
v -0.359428 0.922752 0.079866
v -0.358951 0.922662 0.064590
v -0.321479 0.915612 0.079866
v -0.346199 0.920263 0.048251
v -0.340920 0.915892 0.118591
v 0.158703 0.908270 0.115882
v 0.105208 0.908270 0.142384
v 0.095537 0.085135 0.063072
v 0.097527 0.560238 0.041391
v 0.120207 0.085135 0.038644
v 0.141747 0.553853 0.024538
v 0.132230 0.085135 0.015775
v 0.158690 0.547575 -0.020732
v 0.128664 0.086608 -0.018659
v 0.136668 0.538722 -0.061780
v 0.097848 0.086608 -0.047694
v 0.099919 0.535347 -0.090277
v 0.068211 0.086608 -0.020991
v 0.056974 0.539750 -0.064747
v 0.066873 0.085135 0.013022
v 0.030292 0.547833 -0.019542
v 0.079316 0.085135 0.043232
v 0.047741 0.556345 0.027392
v 0.194023 0.908270 0.020409
v 0.157250 0.908270 -0.067773
v 0.102961 0.908270 -0.080222
v 0.059426 0.908270 -0.067028
v 0.023460 0.908270 -0.021252
v 0.050349 0.908270 0.116221
v 0.166343 1.044728 0.127465
v 0.102226 1.044728 0.168292
v 0.192349 1.044728 0.022142
v 0.149205 1.044728 -0.052327
v 0.103377 1.044728 -0.062460
v 0.239503 1.694365 0.112775
v 0.105659 1.520252 0.163216
v 0.258465 1.661936 0.004734
v 0.245036 1.604870 -0.041284
v 0.105218 1.557776 -0.055897
v 0.060798 0.983639 -0.072162
v 0.051112 0.970184 0.159102
v 0.095537 0.000000 0.064275
v 0.120207 0.000000 0.053374
v 0.133012 0.000000 0.011863
v 0.137470 0.000000 -0.025042
v 0.099283 0.000000 -0.021136
v 0.071088 0.000000 -0.018915
v 0.068268 0.000000 0.015190
v 0.079316 0.000000 0.056956
v 0.150183 0.023792 -0.179684
v 0.098930 0.023792 -0.203072
v 0.058138 0.023792 -0.202238
v 0.153999 0.000000 -0.178041
v 0.099980 0.000000 -0.209286
v 0.054735 0.000000 -0.206327
v 0.120207 0.042721 0.045546
v 0.132879 0.042721 0.011590
v 0.063800 0.042721 -0.024653
v 0.067216 0.042721 0.011997
v 0.079316 0.042721 0.061129
v 0.095537 0.042721 0.070348
v 0.137496 0.042721 -0.024501
v 0.055037 0.014298 -0.208115
v 0.154299 0.014298 -0.179818
v 0.100184 0.014298 -0.210493
v 0.098615 0.000000 0.014049
v 0.159190 1.685445 0.088700
v 0.105294 1.666675 0.127740
v 0.158754 1.629052 -0.011261
v 0.084531 1.655398 -0.004652
v 0.101001 1.613984 -0.033608
v 0.206439 1.608232 -0.028286
v 0.105294 1.580085 0.163612
v 0.194152 1.696909 0.103053
v 0.106007 1.673362 0.067618
v 0.137260 1.662499 0.027446
v 0.056691 1.688870 0.112132
v 0.055551 1.683218 0.016583
v 0.081083 1.688956 0.059605
v 0.036254 1.781985 0.079287
v 0.043599 1.745520 -0.005107
v 0.057651 1.762644 0.042455
v 0.285792 1.923929 -0.124271
v 0.296875 1.906887 -0.145159
v 0.283232 1.895198 -0.167806
v 0.220625 1.931968 -0.137891
v 0.220932 1.899354 -0.186051
v 0.254173 1.889086 -0.188233
v 0.245817 1.940732 -0.115052
v 0.212631 1.917222 -0.162851
v 0.324725 2.114788 -0.261558
v 0.329242 2.102257 -0.278339
v 0.330442 2.089498 -0.296757
v 0.291162 2.120040 -0.266925
v 0.293653 2.096480 -0.300828
v 0.312670 2.086524 -0.308118
v 0.305512 2.124607 -0.254545
v 0.287702 2.108439 -0.285454
v 0.056245 1.800560 -0.067264
v 0.052766 1.936856 -0.061126
v 0.055226 1.800766 0.062041
v 0.069324 1.946548 0.069176
v 0.046616 1.961936 0.085542
v 0.072578 1.916057 0.077286
v 0.072357 1.874539 0.079729
v 0.066819 1.836556 0.071826
v 0.063395 1.790114 -0.044194
v 0.067860 1.789107 -0.006832
v 0.072951 1.790586 0.033241
v 0.071081 1.953409 0.041065
v 0.067951 1.954899 -0.000829
v 0.061267 1.947351 -0.037806
v 0.056945 1.909922 -0.068526
v 0.059453 1.878144 -0.073410
v 0.060806 1.829290 -0.070587
v 0.037027 1.786474 -0.082849
v 0.034530 1.944823 -0.070665
v 0.042035 1.831175 0.096734
v 0.047137 1.873558 0.110872
v 0.048597 1.921471 0.108493
v 0.083176 1.831754 0.034559
v 0.083746 1.876407 0.038300
v 0.080940 1.917383 0.040246
v 0.078471 1.829940 -0.007289
v 0.080575 1.876967 -0.003902
v 0.078522 1.918889 -0.000695
v 0.072425 1.829425 -0.045403
v 0.073019 1.877271 -0.043640
v 0.069896 1.915414 -0.039232
v 0.033158 1.827631 -0.087202
v 0.032173 1.879010 -0.090263
v 0.033660 1.911398 -0.086937
v 0.041371 1.760586 -0.053984
v 0.045863 1.979275 0.044286
v 0.043017 1.980053 -0.002026
v 0.037517 1.968121 -0.042604
v 0.175290 1.148496 0.032390
v 0.146418 1.145899 0.108202
v 0.089275 1.146308 -0.075099
v 0.135178 1.146201 -0.050903
v 0.094767 1.141667 0.144463
v 0.121837 1.290747 0.093072
v 0.136941 1.291139 -0.037859
v 0.087378 1.290591 0.113061
v 0.146773 1.290773 0.031399
v 0.090565 1.290818 -0.077172
v 0.162024 1.461672 0.120875
v 0.169138 1.461672 -0.043579
v 0.102828 1.461672 0.150813
v 0.185812 1.461672 0.027965
v 0.108522 1.461672 -0.072820
v 0.095654 0.113230 0.061790
v 0.121481 0.112852 0.037810
v 0.133795 0.112481 0.013616
v 0.129137 0.113343 -0.021209
v 0.097970 0.113144 -0.050212
v 0.067547 0.113404 -0.023579
v 0.064710 0.112496 0.011096
v 0.077449 0.113000 0.042296
v 0.043622 1.715756 0.004573
v 0.064216 1.723745 0.050508
v 0.040672 1.735787 0.087073
vn -0.9608 0.0984 -0.2593
vn -0.0570 -0.6710 -0.7393
vn 0.6095 0.4014 0.6837
vn 0.8850 0.2599 0.3863
vn 0.8192 -0.1000 0.5648
vn -0.1085 0.7895 0.6040
vn -0.8859 0.1800 -0.4275
vn -0.9274 0.3283 -0.1791
vn 0.9259 -0.3147 -0.2088
vn -0.9427 -0.1546 -0.2956
vn -0.9268 -0.0883 -0.3651
vn -0.2071 0.7154 0.6673
vn -0.8203 0.0276 -0.5713
vn 0.2195 -0.6597 -0.7188
vn -0.2078 0.7124 0.6703
vn 0.9383 0.3425 -0.0488
vn -0.9806 -0.1795 -0.0786
vn 0.1451 -0.6771 -0.7215
vn 0.9468 0.3210 -0.0250
vn 0.2205 -0.6543 -0.7234
vn -0.9694 -0.2369 -0.0648
vn 0.9579 0.2869 0.0120
vn -0.9736 -0.2076 -0.0950
vn -0.2083 0.7104 0.6723
vn 0.8935 0.4253 -0.1441
vn 0.1562 -0.6506 -0.7432
vn -0.9721 -0.2198 -0.0824
vn 0.2213 -0.6506 -0.7265
vn -0.9656 -0.2560 -0.0448
vn 0.9681 0.1338 0.2116
vn 0.6008 0.3701 0.7086
vn -0.2798 0.1279 0.9515
vn 0.2378 -0.0736 -0.9685
vn -0.8870 -0.4014 -0.2281
vn 0.8525 0.4788 0.2096
vn 0.8178 0.5190 0.2487
vn -0.7315 -0.5293 -0.4298
vn 0.2653 -0.0409 -0.9633
vn -0.2538 0.0934 0.9627
vn -0.1919 0.7723 0.6055
vn -0.2140 0.6854 0.6960
vn -0.9754 -0.1115 -0.1902
vn -0.9761 -0.1776 -0.1252
vn 0.9758 0.1833 0.1195
vn 0.9692 0.2380 0.0636
vn 0.2297 -0.6048 -0.7625
vn 0.2140 -0.6854 -0.6960
vn -0.8852 -0.3826 -0.2646
vn -0.9740 -0.2042 -0.0984
vn 0.2023 -0.5897 -0.7819
vn 0.8799 0.3107 0.3595
vn 0.9642 0.2623 0.0382
vn -0.2167 0.6731 0.7071
vn -0.1408 0.7828 0.6062
vn -0.1523 0.6979 0.6998
vn -0.9992 -0.0345 0.0220
vn -0.9694 -0.2318 -0.0809
vn 0.1464 -0.6743 -0.7238
vn 0.2080 -0.6796 -0.7035
vn 0.9921 -0.0508 -0.1150
vn 0.9835 0.0426 -0.1757
vn -0.9747 -0.1027 -0.1986
vn -0.9754 -0.1887 -0.1141
vn 0.1671 -0.6284 -0.7597
vn 0.1564 -0.6989 -0.6979
vn 0.9918 -0.0182 -0.1264
vn 0.9673 0.2481 0.0531
vn -0.1398 0.7838 0.6050
vn -0.6045 0.7709 -0.2008
vn -0.3387 -0.0912 0.9365
vn 0.9938 -0.0427 -0.1025
vn 0.3685 0.5336 -0.7613
vn 0.8407 0.3474 0.4154
vn -0.9737 0.0688 -0.2174
vn 0.8378 -0.4590 -0.2957
vn 0.6857 -0.6139 -0.3912
vn 0.9872 -0.0475 0.1520
vn -0.1758 0.1894 0.9660
vn 0.9570 0.0609 0.2836
vn -0.2062 0.7188 0.6640
vn 0.9663 0.1204 0.2277
vn 0.8592 0.2750 0.4314
vn -0.9401 -0.0465 -0.3378
vn 0.9943 0.0020 0.1064
vn 0.8122 0.3566 0.4618
vn -0.9568 0.0003 -0.2909
vn -0.9253 -0.0822 -0.3701
vn -0.9376 -0.0590 -0.3427
vn -0.1494 0.6964 0.7020
vn -0.0609 -0.6535 -0.7545
vn 0.1601 0.7275 -0.6672
vn 0.1601 0.7274 -0.6672
vn -0.2631 0.6268 0.7334
vn 0.9002 -0.3498 -0.2593
vn 0.9165 0.1278 0.3790
vn 0.9778 -0.2004 0.0618
vn -0.9029 0.0414 -0.4279
vn -0.4417 -0.1004 0.8915
vn -0.6803 -0.0092 0.7328
vn 0.2900 -0.0040 -0.9570
vn -0.8910 -0.0152 0.4537
vn 0.4174 -0.2447 0.8752
vn -0.9906 -0.0302 -0.1332
vn -0.6118 0.0163 -0.7909
vn -0.6792 -0.0816 -0.7294
vn -0.9379 0.0071 0.3470
vn 0.9806 -0.0411 0.1918
vn 0.6565 -0.0886 -0.7491
vn -0.9186 0.0975 -0.3831
vn -0.8848 -0.0568 -0.4625
vn 0.9961 -0.0327 -0.0824
vn 0.7862 -0.0178 -0.6177
vn -0.3129 -0.2511 0.9160
vn 0.9245 -0.0465 0.3783
vn -0.2142 0.1254 -0.9687
vn 0.7306 0.0342 0.6819
vn -0.9222 -0.1318 0.3634
vn 0.8584 0.4539 -0.2390
vn -0.4281 0.1710 -0.8874
vn -0.2614 -0.8152 0.5169
vn -0.9017 -0.3778 -0.2102
vn -0.0957 0.2307 -0.9683
vn -0.0921 -0.1838 0.9786
vn 0.7893 -0.4884 -0.3721
vn 0.7363 -0.6699 0.0955
vn 0.2895 -0.0598 -0.9553
vn -0.0211 0.1947 0.9806
vn 0.3930 -0.0554 -0.9179
vn -0.1183 0.0748 -0.9902
vn 0.3642 -0.6895 0.6261
vn 0.0247 -0.1056 0.9941
vn -0.9542 0.0539 0.2943
vn 0.9836 -0.1555 0.0917
vn 0.4097 -0.0887 0.9079
vn -0.9919 0.0039 0.1269
vn 0.9667 -0.0047 0.2557
vn -0.0000 -1.0000 -0.0000
vn -0.9173 0.3973 0.0265
vn -0.4008 -0.1289 0.9070
vn -0.4972 -0.1173 -0.8596
vn 0.0524 -0.0832 -0.9952
vn 0.9987 0.0265 0.0436
vn -0.2948 0.9029 -0.3128
vn 0.0077 0.9271 -0.3748
vn 0.9949 0.0982 0.0213
vn 0.0161 0.6144 -0.7888
vn -0.4810 0.2205 -0.8485
vn -0.7039 0.1201 0.7001
vn -0.9942 -0.0075 0.1074
vn 0.9245 -0.0167 0.3808
vn -0.9945 0.0253 -0.1019
vn 0.7480 0.2580 0.6115
vn 0.9915 0.0919 0.0924
vn -0.9354 0.0568 0.3491
vn 0.2265 0.3728 0.8999
vn -0.6978 0.5756 -0.4263
vn -0.0934 0.3919 -0.9152
vn -0.1886 0.3619 0.9130
vn -0.0058 0.4188 -0.9081
vn -0.5963 0.3342 -0.7299
vn 0.0237 0.0797 0.9965
vn 0.1893 -0.0076 0.9819
vn -0.7181 0.6907 0.0853
vn -0.6379 0.6814 -0.3589
vn -0.4635 0.0553 -0.8844
vn -0.4749 0.7903 -0.3872
vn -0.4663 0.8573 0.2180
vn 0.0833 0.4447 0.8918
vn -0.9634 -0.0822 -0.2550
vn -0.2238 0.1827 0.9574
vn -0.8502 0.2404 0.4683
vn -0.5216 -0.4077 -0.7494
vn -0.9819 0.1336 -0.1345
vn -0.8538 0.1601 0.4954
vn 0.9522 -0.1766 0.2493
vn -0.5522 0.1101 0.8264
vn -0.5203 -0.0605 -0.8519
vn -0.0195 -0.0997 0.9948
vn 0.9012 -0.3063 -0.3067
vn -0.3725 -0.0575 -0.9263
vn -0.5738 -0.0349 0.8183
vn 0.5707 -0.2766 0.7731
vn 0.9518 -0.2989 0.0691
vn -0.9092 0.0767 0.4092
vn 0.3954 0.0067 -0.9185
vn -0.3413 0.1203 -0.9322
vn 0.9703 -0.2234 -0.0929
vn -0.9808 0.1411 -0.1345
vn -0.2887 -0.3506 0.8909
vn -0.3160 0.0374 0.9480
vn -0.3012 0.5428 0.7840
vn -0.7900 0.2350 0.5663
vn -0.7762 0.0329 0.6296
vn -0.7135 -0.2409 0.6579
vn -0.7843 -0.2872 0.5499
vn -0.2897 -0.3500 0.8908
vn -0.9933 -0.0365 -0.1101
vn -0.9958 0.0544 -0.0741
vn -0.9876 -0.0065 -0.1566
vn -0.9775 0.1014 -0.1851
vn -0.7957 -0.2157 0.5660
vn -0.9125 -0.0457 0.4064
vn -0.9641 0.0105 0.2655
vn -0.9613 0.1619 0.2228
vn -0.9632 0.2647 -0.0472
vn -0.9361 0.2633 -0.2333
vn -0.8665 0.2527 -0.4305
vn -0.9032 0.1339 -0.4077
vn -0.9080 0.0042 -0.4190
vn -0.8998 -0.2183 -0.3777
vn -0.9666 -0.2258 -0.1216
vn -0.9614 -0.2511 -0.1129
vn -0.2967 0.0162 -0.9548
vn -0.1958 0.0913 -0.9764
vn -0.6391 -0.0212 -0.7689
vn -0.5163 -0.0352 -0.8557
vn -0.5260 0.0629 -0.8482
vn -0.6038 0.2969 -0.7398
vn -0.1846 0.4263 -0.8856
vn -0.3156 -0.0581 -0.9471
vn -0.4158 -0.8386 -0.3518
vn -0.7748 -0.2492 0.5810
vn -0.8695 -0.4872 -0.0815
vn -0.8159 -0.5410 -0.2039
vn -0.7378 -0.4436 -0.5088
vn -0.3405 -0.5673 -0.7498
vn -0.2291 0.9734 0.0023
vn -0.2376 0.9227 -0.3035
vn -0.7132 0.6694 0.2080
vn -0.2332 0.8980 0.3731
vn -0.2073 0.7417 -0.6379
vn -0.6256 0.6003 -0.4982
vn -0.6915 0.6730 -0.2624
vn -0.7140 0.6996 -0.0285
vn -0.0669 0.1809 0.9812
vn -0.1192 -0.1063 -0.9872
vn -0.8920 0.1294 -0.4331
vn -0.5407 0.2589 0.8004
vn -0.4657 -0.0453 -0.8838
vn -0.9268 0.1171 0.3570
vn 0.1148 -0.2042 0.9722
vn -0.1506 -0.0052 -0.9886
vn -0.9003 0.0281 -0.4343
vn -0.4937 0.1728 0.8523
vn -0.4662 -0.0168 -0.8845
vn -0.9110 0.1852 0.3684
vn 0.1863 -0.1949 0.9630
vn -0.1343 0.0342 -0.9904
vn -0.9722 -0.1882 -0.1390
vn -0.4377 -0.2437 0.8655
vn -0.6461 -0.0485 -0.7617
vn -0.9469 -0.2114 0.2424
vn 0.7738 0.0321 0.6326
vn 0.9235 -0.0491 0.3804
vn 0.9957 -0.0817 -0.0427
vn 0.6668 -0.0880 -0.7400
vn -0.6835 -0.0813 -0.7254
vn -0.9923 -0.0651 -0.1056
vn -0.8848 -0.0267 0.4652
vn -0.7033 0.0295 0.7103
vn -0.5214 -0.2785 -0.8066
vn -0.8005 0.4815 0.3569
vn 0.0063 0.4694 0.8829
vn -0.8883 0.1679 -0.4275
vn 0.9577 -0.2726 -0.0926
vn 0.2772 -0.0527 0.9594
vn -0.5774 0.2971 -0.7605
vn -0.9604 0.1064 -0.2576
vn 0.9570 -0.2816 0.0693
vn -0.2434 -0.1599 -0.9567
vn 0.9133 -0.3982 0.0851
vn -0.9155 0.2558 0.3104
vn -0.9246 -0.0210 0.3803
vn 0.7424 0.1753 -0.6466
vn 0.9511 -0.2500 0.1815
vn -0.0078 -0.0413 -0.9991
vn 0.8772 -0.4375 0.1980
vn -0.0064 -0.0342 0.9994
vn -0.0070 -0.0372 -0.9993
vn -0.9662 -0.2577 -0.0000
vn 0.6260 -0.0115 0.7798
vn 0.1920 -0.0956 0.9767
vn -0.9743 -0.2254 -0.0000
vn -0.0078 -0.0413 0.9991
vn 0.9948 0.1022 -0.0000
vn -0.9846 -0.1750 -0.0000
vn 0.9982 0.0599 -0.0000
vn -0.0064 -0.0342 -0.9994
vn -0.9806 -0.1962 -0.0000
vn 0.6468 0.1561 -0.7465
vn -0.4606 -0.0033 0.8876
vn -0.0087 -0.0460 0.9989
vn 0.9915 0.1298 -0.0000
vn -0.9955 0.0933 0.0156
vn -0.8352 0.3707 -0.4063
vn 0.1204 0.5731 -0.8106
vn -0.0869 -0.6254 0.7754
vn 0.9641 0.1041 0.2444
vn -0.9406 -0.1740 -0.2916
vn -0.9187 -0.1757 -0.3538
vn 0.8610 0.0571 0.5054
vn -0.1199 -0.6444 0.7552
vn 0.1708 0.6866 -0.7066
vn -0.0189 -0.1278 -0.9916
vn -0.7887 -0.0822 0.6093
vn 0.9972 -0.0738 -0.0146
vn 0.1112 0.5151 -0.8499
vn -0.9992 -0.0364 0.0139
vn -0.9946 -0.1037 -0.0000
vn -0.0034 -0.1143 0.9934
vn -0.0000 -0.0000 1.0000
vn 0.9641 0.0664 0.2569
vn 0.9985 0.0552 -0.0000
vn 0.0074 -0.1287 0.9917
vn -0.9601 0.0514 -0.2748
vn -0.9903 -0.1389 -0.0000
vn 0.0031 0.0165 -0.9999
vn -0.0000 -0.0000 -1.0000
vn -0.0081 -0.1277 -0.9918
vn -0.0004 0.0005 -1.0000
vn 0.9785 0.0192 -0.2055
vn 0.9962 0.0871 0.0077
vn 0.0680 -0.0289 0.9973
vn 0.0059 -0.0095 0.9999
vn -0.9474 -0.3177 0.0379
vn -0.9869 -0.1612 -0.0000
vn 0.9370 0.1569 -0.3120
vn -0.4391 -0.0145 0.8983
vn -0.0032 -0.1230 0.9924
vn 0.7768 0.0926 -0.6229
vn -0.9485 -0.0508 0.3128
vn -0.0273 -0.5429 0.8393
vn -0.0047 -0.1181 -0.9930
vn 0.4905 -0.7008 -0.5180
vn 0.2171 0.7176 -0.6618
vn -0.9494 -0.0213 0.3133
vn -0.3435 -0.9072 0.2430
vn -0.9356 0.0639 -0.3472
vn 0.9694 -0.2223 -0.1042
vn -0.7017 0.1346 0.6997
vn -0.5143 0.1739 0.8398
vn -0.9709 0.1744 0.1639
vn 0.1228 0.4663 -0.8761
vn -0.9836 0.1775 -0.0317
vn -0.0087 -0.0460 -0.9989
vn -0.9949 0.0952 -0.0342
vn -0.9173 0.0429 -0.3960
vn -0.6567 0.2117 0.7238
vn -0.9864 0.1066 0.1249
vn -0.9156 0.0896 -0.3920
vn -0.9193 0.3531 0.1739
vn 0.9430 -0.3282 -0.0544
vn 0.9808 -0.1696 0.0965
vn 0.2046 -0.0214 0.9786
vn -0.1849 -0.9828 -0.0000
vn 0.4130 0.1438 -0.8993
vn -0.8081 0.1501 0.5696
vn -0.9682 0.2482 -0.0317
vn -0.9764 0.1437 0.1614
vn 0.9115 -0.4093 0.0417
vn 0.4417 -0.1004 0.8915
vn 0.3610 0.0410 0.9317
vn -0.5087 0.0274 -0.8605
vn 0.9346 -0.0323 0.3543
vn -0.2460 -0.2355 0.9402
vn 0.8855 -0.0867 -0.4564
vn 0.6118 0.0163 -0.7909
vn 0.6792 -0.0816 -0.7294
vn 0.9379 0.0071 0.3470
vn -0.9362 -0.0161 0.3510
vn -0.5154 -0.0786 -0.8534
vn 0.9186 0.0975 -0.3831
vn 0.8848 -0.0568 -0.4625
vn -0.9961 -0.0327 -0.0824
vn -0.8610 0.0026 -0.5086
vn 0.3129 -0.2511 0.9160
vn -0.9245 -0.0465 0.3783
vn 0.2218 0.1226 -0.9674
vn -0.2717 0.0141 0.9623
vn 0.9222 -0.1318 0.3634
vn 0.9243 -0.2995 0.2366
vn 0.4281 0.1710 -0.8874
vn 0.4416 -0.2062 0.8732
vn 0.8667 -0.4561 -0.2020
vn 0.0546 0.1750 -0.9831
vn -0.3659 -0.5268 0.7672
vn -0.6769 -0.5089 -0.5318
vn -0.8225 -0.5455 0.1609
vn -0.2895 -0.0598 -0.9553
vn -0.0241 0.2369 0.9712
vn -0.3930 -0.0554 -0.9179
vn 0.1183 0.0748 -0.9902
vn -0.3642 -0.6895 0.6261
vn -0.2986 -0.2858 0.9106
vn 0.9369 0.0052 0.3496
vn -0.9836 -0.1555 0.0917
vn -0.4904 -0.1226 0.8628
vn 0.9919 0.0039 0.1269
vn -0.9707 -0.0233 0.2391
vn 0.9802 0.1897 0.0570
vn 0.7031 0.1282 0.6994
vn 0.4915 -0.0802 -0.8672
vn -0.0524 -0.0832 -0.9952
vn -0.9840 -0.1563 0.0859
vn 0.2948 0.9029 -0.3128
vn -0.2718 0.9139 -0.3016
vn -0.9949 0.0982 0.0213
vn -0.0161 0.6144 -0.7888
vn 0.3296 0.6081 -0.7222
vn 0.6990 0.1149 0.7059
vn 0.9942 -0.0020 0.1079
vn -0.9245 -0.0167 0.3808
vn 0.9945 0.0253 -0.1019
vn -0.7480 0.2580 0.6115
vn -0.9992 -0.0071 -0.0396
vn 0.8847 -0.0324 0.4651
vn -0.2265 0.3728 0.8999
vn 0.0741 0.7275 -0.6821
vn -0.0440 0.5606 -0.8269
vn -0.4603 0.6587 0.5952
vn 0.0058 0.4188 -0.9081
vn -0.1681 0.7109 -0.6830
vn 0.3572 -0.0040 0.9340
vn -0.1893 -0.0076 0.9819
vn -0.0865 0.9427 -0.3222
vn 0.2328 0.7961 -0.5586
vn 0.0670 0.6486 -0.7582
vn 0.5752 0.7374 -0.3542
vn 0.3845 0.9169 0.1065
vn -0.0833 0.4447 0.8918
vn 0.9061 0.0664 -0.4178
vn 0.2238 0.1827 0.9574
vn 0.8502 0.2404 0.4683
vn 0.5216 -0.4077 -0.7494
vn -0.8977 -0.0743 -0.4343
vn -0.9040 0.3888 0.1780
vn 0.9840 -0.0153 0.1773
vn -0.4616 0.6438 0.6103
vn -0.3218 -0.4267 -0.8452
vn -0.1054 0.7246 0.6811
vn 0.9829 -0.1651 -0.0821
vn -0.4540 -0.3814 -0.8052
vn -0.6483 0.5809 0.4922
vn 0.3827 0.4763 0.7916
vn 0.9133 0.1150 0.3907
vn -0.9159 0.3972 0.0587
vn 0.5557 -0.5456 -0.6273
vn -0.1933 -0.4394 -0.8772
vn 0.8678 -0.3700 -0.3318
vn -0.9096 0.1008 -0.4031
vn 0.2887 -0.3506 0.8909
vn 0.3107 0.0433 0.9495
vn 0.3012 0.5428 0.7840
vn 0.6963 0.3796 0.6092
vn 0.7934 0.0060 0.6086
vn 0.7484 -0.2892 0.5969
vn 0.7843 -0.2872 0.5499
vn 0.2888 -0.3492 0.8914
vn 0.9972 -0.0064 -0.0750
vn 0.9959 0.0709 -0.0562
vn 0.9819 -0.0305 -0.1869
vn 0.9725 0.0647 -0.2235
vn 0.8276 -0.3808 0.4123
vn 0.9487 -0.1908 0.2522
vn 0.9641 0.0105 0.2655
vn 0.9613 0.1619 0.2228
vn 0.9632 0.2647 -0.0472
vn 0.9352 0.2737 -0.2249
vn 0.8666 0.2533 -0.4299
vn 0.8991 0.1222 -0.4204
vn 0.9080 0.0042 -0.4190
vn 0.8998 -0.2183 -0.3777
vn 0.9567 -0.2503 -0.1484
vn 0.9665 -0.2369 -0.0984
vn 0.1916 -0.0547 -0.9799
vn 0.1958 0.0913 -0.9764
vn 0.5147 -0.1787 -0.8386
vn 0.5163 -0.0352 -0.8557
vn 0.6180 0.1669 -0.7682
vn 0.6038 0.2969 -0.7398
vn 0.1846 0.4263 -0.8856
vn 0.3024 -0.0721 -0.9505
vn 0.4537 -0.8456 -0.2813
vn 0.7748 -0.2492 0.5810
vn 0.8606 -0.5012 -0.0908
vn 0.8658 -0.4866 -0.1166
vn 0.7833 -0.4380 -0.4411
vn 0.4503 -0.6300 -0.6327
vn 0.2291 0.9734 0.0023
vn 0.2376 0.9227 -0.3035
vn 0.6681 0.6903 0.2779
vn 0.2201 0.8954 0.3871
vn 0.2332 0.7183 -0.6555
vn 0.6256 0.6003 -0.4982
vn 0.6915 0.6730 -0.2624
vn 0.7140 0.6996 -0.0285
vn 0.0213 0.2073 0.9780
vn 0.1192 -0.1063 -0.9872
vn 0.8498 0.1883 -0.4923
vn 0.5212 0.2413 0.8186
vn 0.2157 0.0435 -0.9755
vn 0.9447 0.2305 0.2333
vn -0.1148 -0.2042 0.9722
vn 0.1344 -0.0154 -0.9908
vn 0.9003 0.0281 -0.4343
vn 0.5523 0.1981 0.8098
vn 0.4662 -0.0168 -0.8845
vn 0.9149 0.1923 0.3550
vn -0.1863 -0.1949 0.9630
vn 0.0983 0.0150 -0.9950
vn 0.9722 -0.1882 -0.1390
vn 0.4891 -0.2298 0.8414
vn 0.6461 -0.0485 -0.7617
vn 0.8930 -0.2687 0.3610
vn -0.7305 -0.0260 0.6825
vn -0.6575 -0.0682 -0.7504
vn 0.6835 -0.0813 -0.7254
vn 0.9923 -0.0651 -0.1056
vn 0.8848 -0.0267 0.4652
vn 0.7033 0.0295 0.7103
vn 0.4576 -0.1554 -0.8755
vn 0.7995 0.4717 0.3720
vn -0.0063 0.4694 0.8829
vn 0.8149 0.2596 -0.5182
vn -0.9605 0.1109 -0.2554
vn -0.0665 -0.6660 -0.7430
vn 0.4073 0.4061 0.8180
vn 0.7897 0.3001 0.5350
vn 0.9434 -0.0379 0.3294
vn 0.0296 0.8094 0.5866
vn -0.8821 0.0730 -0.4654
vn -0.9531 0.0155 -0.3021
vn 0.9839 -0.0929 -0.1524
vn -0.9709 0.0958 -0.2194
vn -0.8952 -0.1044 -0.4333
vn -0.8234 0.0295 -0.5667
vn 0.2194 -0.6597 -0.7188
vn -0.1478 0.7064 0.6922
vn 0.8772 0.2770 -0.3921
vn -0.0582 -0.6762 -0.7344
vn 0.0195 -0.6334 -0.7736
vn 0.9468 0.3209 -0.0250
vn -0.9736 -0.2075 -0.0950
vn 0.2200 -0.6574 -0.7207
vn 0.2212 -0.6506 -0.7265
vn 0.9775 0.0877 0.1918
vn 0.7364 0.1537 0.6589
vn -0.2791 0.1292 0.9515
vn 0.2585 -0.0312 -0.9655
vn -0.8870 -0.4007 -0.2293
vn 0.8527 0.4758 0.2154
vn 0.8123 0.5498 0.1945
vn -0.8811 -0.4149 -0.2271
vn 0.3970 0.4539 -0.7977
vn -0.3037 -0.0308 0.9523
vn -0.1964 0.7735 0.6026
vn -0.9789 -0.1091 -0.1727
vn 0.9781 0.1815 0.1020
vn 0.2135 -0.5993 -0.7715
vn -0.9728 -0.0850 -0.2154
vn 0.2308 -0.5982 -0.7674
vn 0.9508 0.3096 -0.0125
vn -0.1683 0.6522 0.7391
vn -0.2041 0.8036 0.5591
vn -0.1570 0.7002 0.6965
vn -0.9502 -0.3115 0.0104
vn -0.9717 -0.2222 -0.0799
vn 0.2057 -0.6892 -0.6947
vn 0.2149 -0.6813 -0.6998
vn 0.9878 -0.1076 -0.1127
vn 0.9775 0.0374 -0.2076
vn -0.9786 -0.0523 0.1989
vn 0.2130 -0.6010 -0.7703
vn 0.1494 -0.6964 -0.7020
vn 0.9616 0.0225 0.2736
vn -0.2080 0.7989 0.5644
vn -0.3380 -0.0028 0.9411
vn 0.9946 0.0271 0.1006
vn 0.3933 0.4580 -0.7972
vn 0.7129 0.6635 0.2271
vn -0.9425 -0.0678 -0.3273
vn 0.9016 -0.3377 -0.2705
vn 0.8438 -0.4340 -0.3158
vn 0.9869 -0.0755 0.1423
vn -0.2977 0.2495 0.9215
vn 0.9575 0.0585 0.2824
vn -0.1506 0.7086 0.6894
vn 0.9667 0.1174 0.2274
vn 0.8119 0.3927 0.4319
vn -0.9397 -0.0531 -0.3378
vn 0.9923 0.0019 0.1237
vn 0.8163 0.3386 0.4680
vn -0.9573 0.0004 -0.2892
vn -0.9317 -0.0803 -0.3542
vn -0.9407 -0.1081 -0.3215
vn -0.1564 0.6989 0.6979
vn 0.0092 -0.6894 -0.7243
vn 0.1602 0.7275 -0.6672
vn -0.5928 0.4462 0.6705
vn 0.9142 -0.3633 -0.1795
vn 0.9439 0.0058 0.3301
vn 0.9911 -0.0511 0.1232
vn -0.9248 0.0910 -0.3693
vn -0.5313 -0.1468 0.8344
vn -0.3610 0.0410 0.9317
vn 0.5087 0.0274 -0.8605
vn -0.9346 -0.0323 0.3543
vn 0.2460 -0.2355 0.9402
vn -0.8855 -0.0867 -0.4564
vn -0.2234 -0.0282 -0.9743
vn -0.6154 -0.0773 -0.7844
vn -0.9681 -0.0745 0.2390
vn 0.9362 -0.0161 0.3510
vn 0.5154 -0.0786 -0.8534
vn -0.8652 0.0170 -0.5012
vn -0.9220 -0.0465 -0.3845
vn 0.8645 -0.1030 -0.4919
vn 0.8610 0.0026 -0.5086
vn -0.4286 -0.2605 0.8651
vn 0.9331 -0.0506 0.3561
vn -0.2218 0.1226 -0.9674
vn 0.2717 0.0141 0.9623
vn -0.9295 -0.1331 0.3439
vn -0.8942 -0.3846 0.2290
vn -0.7052 0.3934 -0.5898
vn 0.2299 -0.1909 0.9543
vn -0.8956 0.3187 0.3104
vn -0.0546 0.1750 -0.9831
vn 0.3659 -0.5268 0.7672
vn 0.6769 -0.5089 -0.5318
vn 0.8225 -0.5455 0.1609
vn -0.0409 0.1288 -0.9908
vn 0.0241 0.2369 0.9712
vn 0.0396 -0.7696 -0.6373
vn 0.0459 -0.0908 -0.9948
vn 0.4595 -0.5019 0.7328
vn 0.2986 -0.2858 0.9106
vn -0.9369 0.0052 0.3496
vn 0.9961 -0.0307 -0.0824
vn 0.4904 -0.1226 0.8628
vn -0.9928 -0.0021 0.1199
vn 0.9707 -0.0233 0.2391
vn -0.9802 0.1897 0.0570
vn -0.7031 0.1282 0.6994
vn -0.4915 -0.0802 -0.8672
vn 0.0648 -0.1224 -0.9904
vn 0.9840 -0.1563 0.0859
vn -0.1681 0.9143 -0.3685
vn 0.2718 0.9139 -0.3016
vn 0.9500 0.3121 -0.0030
vn 0.0444 0.5363 -0.8429
vn -0.3296 0.6081 -0.7222
vn -0.6990 0.1149 0.7059
vn -0.9942 -0.0020 0.1079
vn 0.9661 0.1004 0.2379
vn -0.9758 0.1798 0.1248
vn 0.4887 0.1475 0.8599
vn 0.9992 -0.0071 -0.0396
vn -0.8847 -0.0324 0.4651
vn 0.0874 0.2158 0.9725
vn -0.5070 0.3611 -0.7827
vn 0.0440 0.5606 -0.8269
vn -0.1942 0.3754 0.9063
vn 0.0204 0.3672 -0.9299
vn -0.5074 -0.0299 -0.8612
vn 0.1521 -0.0075 0.9883
vn 0.2375 0.0827 0.9678
vn -0.6082 0.7292 0.3135
vn -0.6812 0.7032 -0.2037
vn -0.0670 0.6486 -0.7582
vn -0.5752 0.7373 -0.3542
vn -0.3845 0.9169 0.1065
vn 0.0090 0.2840 0.9588
vn -0.9061 0.0664 -0.4178
vn -0.3610 0.0593 0.9307
vn -0.8876 0.1578 0.4328
vn -0.5946 -0.2483 -0.7648
vn -0.9551 0.1357 -0.2633
vn -0.8989 0.1523 0.4109
vn 0.9655 -0.2598 -0.0168
vn -0.3491 0.0298 0.9366
vn 0.3558 -0.3664 -0.8597
vn 0.4977 -0.1437 0.8554
vn 0.7458 -0.2887 -0.6004
vn -0.6113 -0.0282 -0.7909
vn -0.5505 -0.0385 0.8340
vn 0.4721 -0.2485 0.8458
vn 0.9224 -0.2965 0.2474
vn -0.9494 0.0848 0.3025
vn 0.4430 0.0001 -0.8965
vn -0.6081 0.1845 -0.7721
vn 0.7781 -0.1625 -0.6068
vn -0.9778 0.1408 -0.1551
vn -0.3054 -0.3342 0.8917
vn -0.3107 0.0433 0.9495
vn -0.2296 0.4887 0.8417
vn -0.6963 0.3796 0.6092
vn -0.7934 0.0060 0.6086
vn -0.7484 -0.2892 0.5969
vn -0.6935 -0.3902 0.6057
vn -0.2888 -0.3492 0.8914
vn -0.9972 -0.0064 -0.0750
vn -0.9959 0.0709 -0.0562
vn -0.9819 -0.0305 -0.1869
vn -0.9725 0.0647 -0.2235
vn -0.8276 -0.3808 0.4123
vn -0.9487 -0.1908 0.2522
vn -0.9735 0.0561 0.2218
vn -0.9579 0.2593 0.1232
vn -0.9578 0.2809 -0.0616
vn -0.9352 0.2737 -0.2249
vn -0.8666 0.2533 -0.4299
vn -0.8991 0.1222 -0.4204
vn -0.9100 0.0012 -0.4146
vn -0.8920 -0.1891 -0.4105
vn -0.9567 -0.2503 -0.1484
vn -0.9665 -0.2369 -0.0984
vn -0.1916 -0.0547 -0.9799
vn -0.1639 0.1262 -0.9784
vn -0.5147 -0.1787 -0.8386
vn -0.5242 -0.0406 -0.8506
vn -0.6180 0.1669 -0.7682
vn -0.5502 0.3539 -0.7563
vn -0.1816 0.4292 -0.8848
vn -0.3024 -0.0721 -0.9505
vn -0.4537 -0.8456 -0.2813
vn -0.7856 -0.2425 0.5692
vn -0.8606 -0.5012 -0.0908
vn -0.8658 -0.4866 -0.1166
vn -0.7833 -0.4380 -0.4411
vn -0.4503 -0.6300 -0.6327
vn -0.2430 0.9699 0.0151
vn -0.2401 0.9228 -0.3012
vn -0.6681 0.6903 0.2779
vn -0.2201 0.8954 0.3871
vn -0.2332 0.7183 -0.6555
vn -0.5601 0.6071 -0.5637
vn -0.6623 0.6897 -0.2926
vn -0.7106 0.7029 -0.0319
vn -0.0213 0.2073 0.9780
vn -0.1493 -0.1325 -0.9799
vn -0.8498 0.1883 -0.4923
vn -0.5212 0.2413 0.8186
vn -0.2157 0.0435 -0.9755
vn -0.9447 0.2305 0.2333
vn -0.0673 -0.1140 0.9912
vn -0.1344 -0.0154 -0.9908
vn -0.9715 0.1938 -0.1369
vn -0.5523 0.1981 0.8098
vn -0.6452 0.0607 -0.7616
vn -0.9149 0.1923 0.3550
vn 0.1170 -0.0703 0.9906
vn -0.0983 0.0150 -0.9950
vn -0.9497 -0.2214 -0.2213
vn -0.4891 -0.2298 0.8414
vn -0.4318 -0.1115 -0.8951
vn -0.8930 -0.2687 0.3610
vn 0.7305 -0.0260 0.6825
vn 0.6575 -0.0682 -0.7504
vn -0.6797 -0.0724 -0.7299
vn -0.4576 -0.1554 -0.8755
vn -0.7995 0.4717 0.3720
vn -0.2237 0.2924 0.9298
vn -0.8149 0.2596 -0.5182
vn 0.9548 -0.2786 -0.1038
vn 0.2683 -0.0464 0.9622
vn -0.7556 0.2099 -0.6205
vn -0.8944 0.1808 -0.4091
vn 0.9237 -0.3430 0.1705
vn -0.1076 -0.1364 -0.9848
vn 0.8942 -0.4474 -0.0155
vn -0.9062 0.3957 -0.1491
vn -0.8236 0.0952 0.5592
vn 0.9799 -0.1128 -0.1647
vn 0.9699 -0.2141 0.1163
vn 0.8751 -0.4393 0.2032
vn 0.3973 0.1875 -0.8983
vn 0.2696 -0.0393 0.9622
vn 0.0695 -0.0254 0.9973
vn -0.9022 0.1073 0.4178
vn 0.0898 0.4774 -0.8741
vn -0.8487 0.5288 -0.0000
vn -0.9967 0.0745 -0.0318
vn -0.7453 0.2495 -0.6183
vn 0.1213 0.5741 -0.8098
vn -0.1146 -0.6530 0.7487
vn 0.9640 0.1053 0.2441
vn -0.9411 -0.1678 -0.2936
vn -0.9110 -0.2358 -0.3384
vn 0.9603 0.1158 0.2539
vn -0.3531 -0.8758 0.3290
vn 0.1001 0.6070 -0.7884
vn -0.7388 0.3969 -0.5446
vn -0.0982 -0.5220 0.8473
vn 0.9430 -0.2358 -0.2350
vn 0.9998 0.0174 -0.0000
vn -0.9997 -0.0254 -0.0000
vn -0.0195 -0.1038 0.9944
vn 0.9937 -0.1119 -0.0000
vn -0.0211 -0.1119 0.9935
vn -0.9780 -0.2085 -0.0000
vn -0.0451 0.0549 -0.9975
vn -0.0231 -0.1201 -0.9925
vn 0.0001 0.0003 -1.0000
vn 0.9780 0.2084 0.0029
vn 0.9967 0.0810 -0.0000
vn 0.0086 0.0034 1.0000
vn -0.0011 -0.0056 1.0000
vn -0.9314 0.0174 0.3636
vn -0.9901 -0.1372 0.0310
vn 0.7778 -0.4240 0.4640
vn 0.4702 -0.4312 0.7701
vn 0.8319 0.0275 -0.5543
vn -0.8926 0.0766 0.4444
vn -0.9930 -0.1184 -0.0000
vn 0.3600 0.1920 -0.9130
vn 0.2012 0.6583 -0.7254
vn -0.9896 0.0724 0.1243
vn -0.3502 -0.8785 0.3251
vn -0.8371 -0.2956 -0.4603
vn 0.9766 -0.2022 0.0725
vn -0.7875 0.0677 0.6126
vn -0.7089 0.1028 0.6978
vn -0.9772 0.1613 0.1381
vn 0.0076 0.5429 -0.8398
vn -0.9837 0.1766 -0.0343
vn -0.0086 -0.0460 -0.9989
vn -0.9948 0.0972 -0.0319
vn -0.9439 0.1269 -0.3048
vn -0.8600 0.5018 -0.0927
vn -0.9860 0.0943 0.1374
vn -0.9175 0.1068 -0.3831
vn 0.9441 -0.3093 -0.1140
vn 0.9704 -0.2115 0.1164
vn 0.9725 -0.2193 0.0783
vn 0.8663 -0.4060 -0.2911
vn 0.2712 -0.0696 0.9600
vn 0.6738 -0.5754 0.4636
vn 0.0524 0.0670 -0.9964
vn -0.7857 0.0841 0.6129
vn -0.9683 0.1956 -0.1553
vn -0.9302 0.2061 0.3036
vn 0.9452 -0.3242 0.0383
vn 0.5313 -0.1468 0.8344
vn 0.6803 -0.0092 0.7328
vn -0.2900 -0.0040 -0.9570
vn 0.8910 -0.0152 0.4537
vn -0.4174 -0.2447 0.8752
vn 0.9906 -0.0302 -0.1332
vn 0.2234 -0.0282 -0.9743
vn 0.6154 -0.0773 -0.7844
vn 0.9681 -0.0745 0.2390
vn -0.9806 -0.0411 0.1918
vn -0.6565 -0.0886 -0.7491
vn 0.8652 0.0170 -0.5012
vn 0.9220 -0.0465 -0.3845
vn -0.8645 -0.1030 -0.4919
vn -0.7862 -0.0178 -0.6177
vn 0.4286 -0.2605 0.8651
vn -0.9331 -0.0506 0.3561
vn 0.2142 0.1254 -0.9687
vn -0.7306 0.0342 0.6819
vn 0.9295 -0.1331 0.3439
vn 0.9186 -0.3040 0.2525
vn 0.1197 -0.0475 -0.9917
vn 0.5002 -0.1368 0.8551
vn 0.9369 -0.3249 0.1295
vn 0.0957 0.2307 -0.9683
vn 0.0921 -0.1838 0.9786
vn -0.7893 -0.4884 -0.3721
vn -0.7363 -0.6699 0.0955
vn 0.0409 0.1288 -0.9908
vn 0.0211 0.1947 0.9806
vn -0.0396 -0.7696 -0.6373
vn -0.0459 -0.0908 -0.9948
vn -0.4595 -0.5019 0.7328
vn -0.0247 -0.1056 0.9941
vn 0.9542 0.0539 0.2943
vn -0.9961 -0.0307 -0.0824
vn -0.4097 -0.0887 0.9079
vn 0.9928 -0.0021 0.1199
vn -0.9667 -0.0047 0.2557
vn 0.9173 0.3973 0.0265
vn 0.4008 -0.1289 0.9070
vn 0.4972 -0.1173 -0.8596
vn -0.0648 -0.1224 -0.9904
vn -0.9987 0.0265 0.0436
vn 0.1681 0.9143 -0.3685
vn -0.0077 0.9271 -0.3748
vn -0.9500 0.3121 -0.0030
vn -0.0444 0.5363 -0.8429
vn 0.4810 0.2205 -0.8485
vn 0.7039 0.1201 0.7001
vn 0.9942 -0.0075 0.1074
vn -0.9661 0.1004 0.2379
vn 0.9758 0.1798 0.1248
vn -0.4887 0.1475 0.8599
vn -0.9915 0.0919 0.0924
vn 0.9354 0.0568 0.3491
vn -0.0874 0.2158 0.9725
vn 0.1451 0.6050 -0.7829
vn 0.0934 0.3919 -0.9152
vn 0.4724 0.3373 0.8143
vn -0.0204 0.3672 -0.9299
vn 0.0670 0.3721 -0.9258
vn -0.1471 0.5411 0.8280
vn -0.2375 0.0827 0.9678
vn -0.2593 0.9602 0.1037
vn 0.0197 0.9689 -0.2467
vn 0.4635 0.0553 -0.8844
vn 0.4749 0.7903 -0.3872
vn 0.4663 0.8573 0.2179
vn -0.0090 0.2840 0.9588
vn 0.9634 -0.0822 -0.2550
vn 0.3610 0.0593 0.9307
vn 0.8876 0.1578 0.4328
vn 0.5945 -0.2483 -0.7648
vn -0.9372 0.0170 -0.3484
vn -0.9333 0.3465 0.0942
vn 0.9108 0.1020 0.4000
vn -0.6420 0.5994 0.4781
vn 0.5833 -0.3878 -0.7137
vn 0.4027 0.5614 0.7230
vn 0.8715 -0.3480 -0.3454
vn -0.2087 -0.4967 -0.8424
vn -0.6269 0.5897 0.5091
vn 0.4971 0.4376 0.7493
vn 0.9644 -0.0065 0.2645
vn -0.9428 0.3319 -0.0317
vn 0.5112 -0.5580 -0.6536
vn -0.4874 -0.3431 -0.8029
vn 0.9786 -0.1339 0.1565
vn -0.9043 0.0871 -0.4178
vn 0.3054 -0.3342 0.8917
vn 0.3160 0.0374 0.9480
vn 0.2296 0.4887 0.8417
vn 0.7900 0.2350 0.5663
vn 0.7762 0.0329 0.6296
vn 0.7135 -0.2409 0.6579
vn 0.6935 -0.3902 0.6057
vn 0.2897 -0.3500 0.8908
vn 0.9933 -0.0365 -0.1101
vn 0.9958 0.0544 -0.0741
vn 0.9876 -0.0065 -0.1566
vn 0.9775 0.1014 -0.1851
vn 0.7957 -0.2157 0.5660
vn 0.9125 -0.0457 0.4064
vn 0.9735 0.0561 0.2218
vn 0.9579 0.2593 0.1232
vn 0.9578 0.2809 -0.0616
vn 0.9361 0.2633 -0.2333
vn 0.8665 0.2527 -0.4305
vn 0.9033 0.1339 -0.4077
vn 0.9100 0.0012 -0.4146
vn 0.8920 -0.1891 -0.4105
vn 0.9666 -0.2258 -0.1216
vn 0.9614 -0.2511 -0.1129
vn 0.2967 0.0162 -0.9548
vn 0.1639 0.1262 -0.9784
vn 0.6391 -0.0212 -0.7689
vn 0.5242 -0.0406 -0.8506
vn 0.5260 0.0629 -0.8482
vn 0.5502 0.3539 -0.7563
vn 0.1816 0.4292 -0.8848
vn 0.3156 -0.0581 -0.9471
vn 0.4158 -0.8386 -0.3518
vn 0.7856 -0.2425 0.5692
vn 0.8695 -0.4872 -0.0815
vn 0.8159 -0.5410 -0.2039
vn 0.7378 -0.4436 -0.5088
vn 0.3405 -0.5673 -0.7498
vn 0.2430 0.9699 0.0151
vn 0.2401 0.9228 -0.3012
vn 0.7132 0.6694 0.2080
vn 0.2332 0.8980 0.3731
vn 0.2073 0.7417 -0.6379
vn 0.5601 0.6071 -0.5637
vn 0.6623 0.6897 -0.2926
vn 0.7106 0.7029 -0.0319
vn 0.0669 0.1809 0.9812
vn 0.1493 -0.1325 -0.9799
vn 0.8920 0.1294 -0.4331
vn 0.5407 0.2589 0.8004
vn 0.4657 -0.0453 -0.8838
vn 0.9268 0.1171 0.3570
vn 0.0673 -0.1140 0.9912
vn 0.1506 -0.0052 -0.9886
vn 0.9715 0.1938 -0.1369
vn 0.4937 0.1728 0.8523
vn 0.6452 0.0607 -0.7616
vn 0.9110 0.1852 0.3684
vn -0.1170 -0.0703 0.9906
vn 0.1343 0.0342 -0.9904
vn 0.9497 -0.2214 -0.2213
vn 0.4377 -0.2437 0.8655
vn 0.4318 -0.1115 -0.8951
vn 0.9469 -0.2114 0.2424
vn -0.7738 0.0321 0.6326
vn -0.9235 -0.0491 0.3804
vn -0.9957 -0.0817 -0.0427
vn -0.6668 -0.0880 -0.7400
vn 0.6797 -0.0724 -0.7299
vn 0.5214 -0.2785 -0.8066
vn 0.8005 0.4815 0.3569
vn 0.2237 0.2924 0.9298
vn 0.8883 0.1679 -0.4275
vt 0.100529 0.969390
vt 0.117854 0.966555
vt 0.106363 0.976677
vt 0.053958 0.943742
vt 0.058616 0.930351
vt 0.059519 0.943432
vt 0.098717 0.947435
vt 0.084995 0.961271
vt 0.087813 0.945450
vt 0.108052 0.888533
vt 0.092484 0.914486
vt 0.096272 0.876756
vt 0.111829 0.983799
vt 0.127920 0.978716
vt 0.115874 0.889660
vt 0.109439 0.909304
vt 0.157438 0.944907
vt 0.137573 0.943343
vt 0.153960 0.936597
vt 0.160348 0.953749
vt 0.140931 0.952478
vt 0.050171 0.903569
vt 0.069656 0.916670
vt 0.056069 0.917717
vt 0.145011 0.960539
vt 0.161084 0.961739
vt 0.149128 0.967523
vt 0.135179 0.965459
vt 0.139269 0.972186
vt 0.127352 0.876590
vt 0.127897 0.870944
vt 0.131074 0.870526
vt 0.150085 0.930040
vt 0.089623 0.838819
vt 0.083715 0.843142
vt 0.088713 0.836058
vt 0.054779 0.849574
vt 0.047964 0.848555
vt 0.047431 0.845176
vt 0.024106 0.890234
vt 0.029522 0.894847
vt 0.024200 0.893758
vt 0.058606 0.960000
vt 0.048858 0.960585
vt 0.051146 0.919299
vt 0.044307 0.906358
vt 0.123530 0.874428
vt 0.126726 0.867859
vt 0.121709 0.865022
vt 0.121115 0.869545
vt 0.169418 0.927371
vt 0.173736 0.918222
vt 0.176397 0.923468
vt 0.093547 0.846932
vt 0.093298 0.839291
vt 0.174265 0.929679
vt 0.185499 0.931792
vt 0.176764 0.935742
vt 0.098041 0.845267
vt 0.094830 0.836192
vt 0.052547 0.853753
vt 0.044594 0.850028
vt 0.042110 0.856621
vt 0.047052 0.856815
vt 0.177248 0.940665
vt 0.187460 0.944043
vt 0.179131 0.946895
vt 0.026666 0.898545
vt 0.176497 0.948665
vt 0.185446 0.951892
vt 0.178813 0.954758
vt 0.075008 0.874789
vt 0.081270 0.915021
vt 0.092353 0.927645
vt 0.140829 0.911992
vt 0.132420 0.913488
vt 0.136444 0.910192
vt 0.130702 0.907649
vt 0.139916 0.904499
vt 0.135610 0.908340
vt 0.140793 0.922740
vt 0.145811 0.915584
vt 0.121079 0.909173
vt 0.124103 0.917695
vt 0.125530 0.928164
vt 0.137611 0.931264
vt 0.130749 0.901273
vt 0.135271 0.918476
vt 0.103630 0.867309
vt 0.092355 0.859573
vt 0.098626 0.856937
vt 0.164223 0.933818
vt 0.166722 0.939882
vt 0.084637 0.858013
vt 0.087294 0.845980
vt 0.070970 0.862682
vt 0.079375 0.853657
vt 0.161364 0.931458
vt 0.158411 0.925638
vt 0.112366 0.873218
vt 0.112993 0.866837
vt 0.116232 0.879105
vt 0.120980 0.882238
vt 0.044037 0.879699
vt 0.038805 0.888511
vt 0.034934 0.882770
vt 0.029603 0.889176
vt 0.026583 0.885057
vt 0.170980 0.957785
vt 0.168886 0.951561
vt 0.038035 0.896220
vt 0.034552 0.901075
vt 0.055219 0.885470
vt 0.167711 0.943547
vt 0.169594 0.949777
vt 0.045069 0.867259
vt 0.052355 0.867392
vt 0.059588 0.863194
vt 0.062042 0.856912
vt 0.116604 0.922921
vt 0.110872 0.927390
vt 0.121220 0.901339
vt 0.115292 0.909885
vt 0.108913 0.953801
vt 0.126551 0.947080
vt 0.069541 0.943832
vt 0.067013 0.960046
vt 0.080344 0.944850
vt 0.071214 0.928299
vt 0.082023 0.927700
vt 0.020584 0.889387
vt 0.130891 0.957483
vt 0.053280 0.930300
vt 0.021299 0.894953
vt 0.042234 0.848149
vt 0.128658 0.865781
vt 0.093753 0.964089
vt 0.076461 0.960389
vt 0.904465 0.899530
vt 0.924658 0.831033
vt 0.934085 0.895223
vt 0.535743 0.012872
vt 0.536108 0.239144
vt 0.518685 0.014979
vt 0.438766 0.230021
vt 0.446224 0.414874
vt 0.423565 0.412805
vt 0.510874 0.237063
vt 0.505234 0.016443
vt 0.561097 0.239294
vt 0.624385 0.412074
vt 0.596742 0.421448
vt 0.487082 0.232311
vt 0.487893 0.018405
vt 0.463705 0.229719
vt 0.466798 0.019302
vt 0.975359 0.823994
vt 0.983416 0.890010
vt 0.587084 0.232118
vt 0.684499 0.384248
vt 0.446387 0.017802
vt 0.972235 0.056605
vt 0.917340 0.118845
vt 0.925345 0.047894
vt 0.473702 0.418243
vt 0.429260 0.015112
vt 0.412429 0.231537
vt 0.394697 0.410172
vt 0.568179 0.424093
vt 0.610527 0.221135
vt 0.548681 0.011454
vt 0.565218 0.009276
vt 0.897218 0.045344
vt 0.892385 0.117732
vt 0.520126 0.422270
vt 0.974509 0.611134
vt 0.924940 0.550543
vt 0.984688 0.557431
vt 0.921944 0.336862
vt 0.887719 0.381305
vt 0.889527 0.334346
vt 0.891257 0.601435
vt 0.925086 0.601813
vt 0.958313 0.335766
vt 0.927700 0.396622
vt 0.837462 0.371572
vt 0.837072 0.333213
vt 0.870403 0.874613
vt 0.889785 0.834207
vt 0.851807 0.030112
vt 0.833995 0.061952
vt 0.833763 0.042264
vt 0.877725 0.911594
vt 0.838536 0.974099
vt 0.838536 0.893471
vt 0.870742 0.082020
vt 0.875968 0.042637
vt 0.888076 0.784630
vt 0.838535 0.836714
vt 0.838533 0.783098
vt 0.834626 0.115839
vt 0.838536 0.872169
vt 0.641572 0.638053
vt 0.645063 0.609993
vt 0.659975 0.626189
vt 0.518603 0.639788
vt 0.504621 0.618401
vt 0.526098 0.623692
vt 0.658440 0.655930
vt 0.668417 0.636949
vt 0.674206 0.643542
vt 0.615258 0.610254
vt 0.628341 0.624805
vt 0.673451 0.674184
vt 0.687990 0.659327
vt 0.491717 0.612893
vt 0.487741 0.531992
vt 0.517079 0.524665
vt 0.581099 0.542672
vt 0.584566 0.539446
vt 0.652903 0.649693
vt 0.560507 0.524094
vt 0.589060 0.534331
vt 0.543444 0.536988
vt 0.560732 0.531891
vt 0.537770 0.532082
vt 0.570139 0.624330
vt 0.596856 0.632141
vt 0.546574 0.540791
vt 0.560859 0.537139
vt 0.548725 0.637661
vt 0.638042 0.664168
vt 0.633047 0.595436
vt 0.646485 0.674244
vt 0.656829 0.686903
vt 0.614496 0.643290
vt 0.624868 0.652003
vt 0.471285 0.622636
vt 0.474679 0.605441
vt 0.470534 0.643006
vt 0.486338 0.628924
vt 0.479721 0.651692
vt 0.488050 0.651019
vt 0.499533 0.634368
vt 0.838421 0.545692
vt 0.884006 0.501239
vt 0.889026 0.543908
vt 0.921026 0.416000
vt 0.876447 0.433780
vt 0.885144 0.410172
vt 0.837753 0.404444
vt 0.837939 0.429232
vt 0.913965 0.507285
vt 0.920353 0.526695
vt 0.838465 0.574157
vt 0.891017 0.571871
vt 0.885981 0.471384
vt 0.919203 0.443777
vt 0.861466 0.447255
vt 0.838034 0.441861
vt 0.871690 0.468125
vt 0.861172 0.492419
vt 0.838311 0.505580
vt 0.849915 0.453513
vt 0.846745 0.465786
vt 0.844301 0.458605
vt 0.838204 0.480191
vt 0.842774 0.470360
vt 0.849092 0.477374
vt 0.855946 0.466199
vt 0.838202 0.455289
vt 0.838115 0.449272
vt 0.407852 0.770141
vt 0.561750 0.752585
vt 0.561253 0.768210
vt 0.561246 0.783312
vt 0.405565 0.804692
vt 0.446742 0.894010
vt 0.565157 0.822512
vt 0.569025 0.836465
vt 0.411887 0.823512
vt 0.561938 0.800797
vt 0.411932 0.698768
vt 0.563054 0.734412
vt 0.406180 0.717379
vt 0.414891 0.846470
vt 0.435773 0.671856
vt 0.565622 0.715807
vt 0.405565 0.743240
vt 0.692435 0.788818
vt 0.694604 0.799901
vt 0.697881 0.810077
vt 0.692556 0.779007
vt 0.697085 0.736839
vt 0.696451 0.747102
vt 0.694858 0.757919
vt 0.697531 0.725882
vt 0.693582 0.767934
vt 0.352629 0.662764
vt 0.375711 0.684516
vt 0.352629 0.685543
vt 0.373993 0.640144
vt 0.374999 0.661891
vt 0.352629 0.619924
vt 0.352629 0.640858
vt 0.390272 0.618482
vt 0.394687 0.637296
vt 0.395863 0.661381
vt 0.395139 0.683779
vt 0.391351 0.705783
vt 0.374801 0.713472
vt 0.352629 0.709297
vt 0.429977 0.487939
vt 0.411776 0.514664
vt 0.407449 0.490697
vt 0.435257 0.513038
vt 0.412904 0.537768
vt 0.391944 0.514942
vt 0.389435 0.493723
vt 0.391976 0.533639
vt 0.445689 0.461586
vt 0.423690 0.464370
vt 0.454843 0.485640
vt 0.460592 0.536773
vt 0.461318 0.510082
vt 0.455235 0.556696
vt 0.436814 0.537277
vt 0.436822 0.560636
vt 0.386559 0.552424
vt 0.376459 0.540914
vt 0.377584 0.528295
vt 0.377617 0.514860
vt 0.377999 0.495357
vt 0.376230 0.483944
vt 0.384507 0.477021
vt 0.401557 0.469375
vt 0.365546 0.495482
vt 0.352629 0.515249
vt 0.352629 0.494926
vt 0.365580 0.527419
vt 0.364983 0.514976
vt 0.366112 0.480220
vt 0.366623 0.542110
vt 0.352629 0.528572
vt 0.352629 0.479469
vt 0.352629 0.442862
vt 0.372220 0.465485
vt 0.352629 0.464150
vt 0.423586 0.443547
vt 0.454658 0.442462
vt 0.388734 0.442624
vt 0.352629 0.598935
vt 0.372703 0.577617
vt 0.373578 0.599225
vt 0.352629 0.577880
vt 0.369415 0.558031
vt 0.392550 0.601070
vt 0.372731 0.619408
vt 0.352629 0.543611
vt 0.392109 0.575830
vt 0.890158 0.699352
vt 0.838524 0.699444
vt 0.882884 0.172228
vt 0.956591 0.176057
vt 0.910157 0.172097
vt 0.920644 0.780869
vt 0.960541 0.774523
vt 0.838491 0.603886
vt 0.836144 0.247980
vt 0.835284 0.172602
vt 0.915237 0.248700
vt 0.912988 0.699795
vt 0.883504 0.248073
vt 0.949929 0.701438
vt 0.951284 0.247889
vt 0.627829 0.673824
vt 0.636321 0.683824
vt 0.544999 0.658667
vt 0.535995 0.651040
vt 0.556903 0.648407
vt 0.590730 0.645046
vt 0.605372 0.653566
vt 0.615335 0.661972
vt 0.838268 0.495676
vt 0.561594 0.970556
vt 0.578891 0.974730
vt 0.572454 0.981661
vt 0.627329 0.952198
vt 0.623557 0.938649
vt 0.628823 0.938950
vt 0.582367 0.952749
vt 0.595135 0.967657
vt 0.586120 0.969873
vt 0.591229 0.920394
vt 0.578102 0.893469
vt 0.590702 0.882956
vt 0.566395 0.988467
vt 0.570318 0.893857
vt 0.574882 0.913811
vt 0.563973 0.904838
vt 0.522905 0.945370
vt 0.543485 0.945401
vt 0.539274 0.954456
vt 0.534465 0.962370
vt 0.519247 0.954233
vt 0.633788 0.912970
vt 0.613630 0.924354
vt 0.630237 0.894838
vt 0.529731 0.969201
vt 0.550482 0.982121
vt 0.544114 0.968132
vt 0.560244 0.874416
vt 0.560263 0.880000
vt 0.557168 0.873717
vt 0.531874 0.930593
vt 0.544576 0.933068
vt 0.600463 0.846951
vt 0.605692 0.851516
vt 0.602058 0.853925
vt 0.640980 0.855953
vt 0.635306 0.863964
vt 0.633440 0.859697
vt 0.659996 0.905356
vt 0.655055 0.900449
vt 0.660360 0.901909
vt 0.621659 0.968165
vt 0.631418 0.969379
vt 0.631656 0.928299
vt 0.626939 0.926392
vt 0.564206 0.878230
vt 0.561673 0.871500
vt 0.567019 0.873664
vt 0.566849 0.869178
vt 0.512264 0.925963
vt 0.508719 0.916139
vt 0.515868 0.920270
vt 0.596004 0.854290
vt 0.596944 0.847057
vt 0.492894 0.929181
vt 0.505721 0.927578
vt 0.502502 0.934185
vt 0.591869 0.852282
vt 0.643386 0.860927
vt 0.640454 0.867388
vt 0.645313 0.867580
vt 0.500470 0.945772
vt 0.494297 0.936571
vt 0.502875 0.939514
vt 0.657209 0.909857
vt 0.654696 0.906012
vt 0.493629 0.950452
vt 0.503054 0.947809
vt 0.500222 0.953888
vt 0.611677 0.882821
vt 0.590296 0.933471
vt 0.571847 0.931672
vt 0.543357 0.913391
vt 0.551606 0.915764
vt 0.548237 0.920457
vt 0.545076 0.906022
vt 0.553916 0.910121
vt 0.548955 0.910300
vt 0.542257 0.924164
vt 0.547928 0.912060
vt 0.563344 0.912601
vt 0.559498 0.920789
vt 0.557056 0.931144
vt 0.554531 0.903783
vt 0.584351 0.873068
vt 0.596017 0.866539
vt 0.590190 0.863425
vt 0.513365 0.939416
vt 0.527252 0.936954
vt 0.516556 0.933020
vt 0.603622 0.865693
vt 0.616566 0.871305
vt 0.609051 0.861899
vt 0.520143 0.930950
vt 0.523747 0.925256
vt 0.575258 0.878061
vt 0.575224 0.871752
vt 0.570931 0.883480
vt 0.565992 0.886117
vt 0.641642 0.890047
vt 0.646088 0.899086
vt 0.650325 0.893759
vt 0.508034 0.957580
vt 0.517894 0.962378
vt 0.510648 0.951350
vt 0.646248 0.906701
vt 0.639321 0.916147
vt 0.649286 0.911726
vt 0.512454 0.943196
vt 0.510049 0.949454
vt 0.634442 0.877344
vt 0.641592 0.877776
vt 0.627680 0.872673
vt 0.625757 0.866329
vt 0.566505 0.926710
vt 0.569019 0.913847
vt 0.554351 0.950153
vt 0.571613 0.958364
vt 0.611804 0.951274
vt 0.621812 0.951546
vt 0.613235 0.967624
vt 0.600957 0.951532
vt 0.611236 0.935734
vt 0.593445 0.951587
vt 0.600560 0.934335
vt 0.658332 0.896645
vt 0.602286 0.921832
vt 0.549094 0.960356
vt 0.662746 0.906751
vt 0.663877 0.901351
vt 0.645844 0.859267
vt 0.601569 0.844453
vt 0.595794 0.843981
vt 0.559970 0.869288
vt 0.603760 0.967346
vt 0.752415 0.831036
vt 0.772608 0.899530
vt 0.742989 0.895223
vt 0.173929 0.017464
vt 0.173565 0.243736
vt 0.148576 0.243886
vt 0.270907 0.234612
vt 0.263449 0.419466
vt 0.245968 0.234310
vt 0.190988 0.019570
vt 0.198799 0.241654
vt 0.085288 0.416666
vt 0.122589 0.236709
vt 0.204438 0.021034
vt 0.222591 0.236902
vt 0.242875 0.023894
vt 0.221780 0.022997
vt 0.701718 0.823998
vt 0.693661 0.890011
vt 0.025174 0.388840
vt 0.099146 0.225726
vt 0.752014 0.120776
vt 0.695686 0.059854
vt 0.742348 0.050045
vt 0.235971 0.422834
vt 0.280413 0.019703
vt 0.263286 0.022393
vt 0.297244 0.236129
vt 0.286108 0.417397
vt 0.141494 0.428685
vt 0.160991 0.016046
vt 0.144454 0.013868
vt 0.770403 0.046835
vt 0.189547 0.426862
vt 0.702578 0.611193
vt 0.752108 0.550675
vt 0.751962 0.601876
vt 0.787514 0.382295
vt 0.752438 0.338675
vt 0.784722 0.335461
vt 0.785974 0.571949
vt 0.785758 0.601481
vt 0.748076 0.398337
vt 0.716147 0.338423
vt 0.806668 0.874614
vt 0.799346 0.911594
vt 0.815439 0.030540
vt 0.791581 0.043630
vt 0.817634 0.978693
vt 0.797729 0.082876
vt 0.788992 0.784635
vt 0.787286 0.834210
vt 0.776931 0.119081
vt 0.065607 0.622003
vt 0.062116 0.593942
vt 0.078837 0.608754
vt 0.202557 0.602350
vt 0.188576 0.623737
vt 0.181081 0.607641
vt 0.048738 0.639879
vt 0.038761 0.620898
vt 0.054275 0.633643
vt 0.091920 0.594203
vt 0.033728 0.658133
vt 0.032973 0.627491
vt 0.215462 0.596842
vt 0.219437 0.515941
vt 0.232500 0.589390
vt 0.126080 0.526621
vt 0.110322 0.616091
vt 0.047203 0.610138
vt 0.122612 0.523396
vt 0.146672 0.508043
vt 0.146446 0.515840
vt 0.163734 0.520938
vt 0.169409 0.516031
vt 0.137040 0.608280
vt 0.160604 0.524741
vt 0.158454 0.621610
vt 0.146319 0.521089
vt 0.069136 0.648117
vt 0.082310 0.635952
vt 0.074132 0.579385
vt 0.060694 0.658193
vt 0.050349 0.670852
vt 0.092683 0.627239
vt 0.171183 0.634989
vt 0.235893 0.606586
vt 0.220841 0.612873
vt 0.236645 0.626955
vt 0.227458 0.635641
vt 0.219129 0.634968
vt 0.207646 0.618317
vt 0.792798 0.501449
vt 0.787927 0.544029
vt 0.790621 0.411026
vt 0.757367 0.444932
vt 0.755059 0.417467
vt 0.799687 0.434451
vt 0.763056 0.507591
vt 0.756691 0.526906
vt 0.790680 0.471800
vt 0.757080 0.472869
vt 0.814778 0.447731
vt 0.804896 0.468457
vt 0.815451 0.492568
vt 0.826283 0.453862
vt 0.829962 0.465924
vt 0.820655 0.466455
vt 0.833551 0.470432
vt 0.827376 0.477431
vt 0.300664 0.767698
vt 0.146765 0.750143
vt 0.302950 0.740797
vt 0.147270 0.780870
vt 0.302950 0.802249
vt 0.261774 0.891567
vt 0.143359 0.820069
vt 0.293624 0.844027
vt 0.146578 0.798355
vt 0.296628 0.821070
vt 0.145462 0.731970
vt 0.296584 0.696326
vt 0.302336 0.714937
vt 0.142893 0.713365
vt 0.272742 0.669414
vt 0.015960 0.776565
vt 0.016081 0.786376
vt 0.010635 0.807635
vt 0.139491 0.834023
vt 0.014933 0.765492
vt 0.147263 0.765768
vt 0.012064 0.744660
vt 0.013657 0.755477
vt 0.010985 0.723440
vt 0.140267 0.698919
vt 0.329547 0.684516
vt 0.331266 0.640144
vt 0.314986 0.618482
vt 0.332527 0.619408
vt 0.330259 0.661891
vt 0.310571 0.637296
vt 0.309396 0.661381
vt 0.313908 0.705783
vt 0.330458 0.713472
vt 0.275281 0.487939
vt 0.293482 0.514664
vt 0.270002 0.513038
vt 0.292355 0.537768
vt 0.268445 0.537277
vt 0.297810 0.490697
vt 0.313314 0.514942
vt 0.313283 0.533639
vt 0.259570 0.461586
vt 0.250416 0.485640
vt 0.243940 0.510082
vt 0.244666 0.536773
vt 0.250024 0.556696
vt 0.268436 0.560636
vt 0.318699 0.552424
vt 0.295333 0.560082
vt 0.328799 0.540914
vt 0.327675 0.528295
vt 0.327260 0.495357
vt 0.315824 0.493722
vt 0.329028 0.483944
vt 0.320752 0.477021
vt 0.303701 0.469374
vt 0.281569 0.464370
vt 0.339713 0.495482
vt 0.340276 0.514976
vt 0.339679 0.527419
vt 0.327642 0.514860
vt 0.338636 0.542110
vt 0.339147 0.480220
vt 0.333038 0.465485
vt 0.316525 0.442624
vt 0.281673 0.443547
vt 0.250601 0.442462
vt 0.332555 0.577617
vt 0.331680 0.599225
vt 0.335844 0.558031
vt 0.352629 0.558670
vt 0.313149 0.575830
vt 0.312709 0.601070
vt 0.786899 0.699366
vt 0.787696 0.173331
vt 0.714129 0.178874
vt 0.708117 0.127209
vt 0.760437 0.173832
vt 0.756427 0.780875
vt 0.788818 0.249146
vt 0.757130 0.250497
vt 0.716534 0.774531
vt 0.764074 0.699812
vt 0.721110 0.250523
vt 0.727144 0.701455
vt 0.079350 0.657773
vt 0.070857 0.667773
vt 0.060007 0.680509
vt 0.162180 0.642616
vt 0.150275 0.632357
vt 0.134873 0.625773
vt 0.116449 0.628995
vt 0.101807 0.637516
vt 0.091843 0.645921
vt 0.166464 0.921551
vt 0.183247 0.926327
vt 0.185763 0.938428
vt 0.183359 0.946401
vt 0.961389 0.124246
vt 0.964118 0.387620
vt 0.859438 0.978693
vt 0.834220 0.081183
vt 0.919824 0.472099
vt 0.838207 0.471178
vt 0.568248 0.701361
vt 0.409926 0.560082
vt 0.647171 0.696560
vt 0.572306 0.641824
vt 0.539452 0.974670
vt 0.640197 0.859223
vt 0.505472 0.921270
vt 0.495773 0.923155
vt 0.492129 0.942211
vt 0.496181 0.944973
vt 0.537986 0.916463
vt 0.112931 0.426039
vt 0.314976 0.414763
vt 0.692422 0.557544
vt 0.711571 0.390222
vt 0.019189 0.643276
vt 0.190099 0.508614
vt 0.118118 0.518280
vt 0.831905 0.459007
vt 0.013912 0.797459
vt 0.011431 0.734397
vt 0.310119 0.683779
s 0
usemtl マテリアル
f 3/1/1 104/2/1 2/3/1
f 99/4/2 53/5/2 106/6/2
f 105/7/3 5/8/3 103/9/3
f 15/10/4 40/11/4 18/12/4
f 1/13/5 104/2/5 99/14/5
f 11/15/6 44/16/6 15/10/6
f 13/17/7 38/18/7 12/19/7
f 10/20/8 35/21/8 13/17/8
f 14/22/9 36/23/9 43/24/9
f 42/25/10 9/26/10 41/27/10
f 99/14/11 52/28/11 47/29/11
f 76/30/12 19/31/12 20/32/12
f 38/18/13 11/33/13 12/19/13
f 25/34/14 69/35/14 24/36/14
f 92/37/15 30/38/15 27/39/15
f 34/40/16 85/41/16 31/42/16
f 99/4/17 7/43/17 1/44/17
f 14/22/18 41/45/18 9/46/18
f 77/47/19 22/48/19 19/31/19
f 81/49/20 22/48/20 79/50/20
f 81/51/21 20/52/21 21/53/21
f 72/54/22 25/34/22 26/55/22
f 73/56/23 24/57/23 69/58/23
f 73/59/24 26/55/24 23/60/24
f 93/61/25 29/62/25 30/38/25
f 97/63/26 29/62/26 95/64/26
f 92/65/27 28/66/27 97/67/27
f 87/68/28 31/42/28 85/41/28
f 89/69/29 32/70/29 87/71/29
f 17/72/30 40/11/30 37/73/30
f 51/74/31 105/7/31 103/9/31
f 59/75/32 64/76/32 61/77/32
f 65/78/33 60/79/33 62/80/33
f 66/81/34 59/75/34 60/82/34
f 65/78/35 61/77/35 64/76/35
f 56/83/36 64/76/36 55/84/36
f 50/85/37 66/81/37 39/86/37
f 56/83/38 66/87/38 65/78/38
f 63/88/39 55/84/39 64/76/39
f 12/89/40 71/90/40 74/91/40
f 74/91/41 72/54/41 73/59/41
f 13/17/42 74/92/42 70/93/42
f 74/92/43 69/58/43 70/93/43
f 71/90/44 17/72/44 67/94/44
f 72/54/45 67/94/45 68/95/45
f 67/94/46 13/96/46 70/97/46
f 68/95/47 70/97/47 69/35/47
f 11/33/48 82/98/48 12/19/48
f 75/99/49 81/51/49 82/98/49
f 12/89/50 80/100/50 18/12/50
f 82/101/47 79/50/47 80/100/47
f 18/12/51 78/102/51 15/10/51
f 78/102/52 79/50/52 77/47/52
f 11/15/53 78/102/53 75/103/53
f 75/103/41 77/47/41 76/30/41
f 10/104/54 83/105/54 90/106/54
f 90/106/55 84/107/55 89/108/55
f 10/20/56 88/109/56 9/26/56
f 90/110/57 87/71/57 88/109/57
f 9/46/58 86/111/58 14/22/58
f 88/112/59 85/41/59 86/111/59
f 16/113/60 86/111/60 83/105/60
f 84/107/61 86/111/61 85/41/61
f 10/20/62 91/114/62 98/115/62
f 91/114/63 97/67/63 98/115/63
f 16/113/64 98/116/64 96/117/64
f 98/116/65 95/64/65 96/117/65
f 16/113/66 94/118/66 17/72/66
f 96/117/67 93/61/67 94/118/67
f 13/96/68 94/118/68 91/119/68
f 60/79/69 61/77/69 62/80/69
f 57/120/70 50/85/70 54/121/70
f 17/72/71 36/23/71 16/113/71
f 39/122/72 58/123/72 44/16/72
f 58/123/73 55/84/73 57/120/73
f 100/124/74 46/125/74 104/2/74
f 53/5/75 101/126/75 106/6/75
f 106/6/76 4/127/76 7/43/76
f 102/128/77 45/129/77 49/130/77
f 100/124/78 54/121/78 50/85/78
f 103/9/79 49/130/79 51/74/79
f 89/108/80 34/40/80 33/131/80
f 37/73/81 51/74/81 49/130/81
f 44/16/82 57/120/82 54/121/82
f 46/125/83 35/21/83 48/132/83
f 45/129/84 37/73/84 49/130/84
f 40/11/85 54/121/85 51/74/85
f 35/21/86 52/28/86 48/132/86
f 42/25/87 47/29/87 52/28/87
f 50/85/88 38/18/88 46/125/88
f 91/119/89 93/61/89 92/37/89
f 47/133/90 43/24/90 53/5/90
f 32/134/91 34/40/91 31/42/91
f 27/39/92 29/62/92 28/135/92
f 23/60/92 25/34/92 24/36/92
f 20/32/91 22/48/91 21/136/91
f 100/124/93 6/137/93 105/7/93
f 53/5/94 36/23/94 45/129/94
f 102/128/95 5/8/95 8/138/95
f 101/126/96 8/138/96 4/127/96
f 48/132/97 104/2/97 46/125/97
f 108/139/98 131/140/98 107/141/98
f 289/142/99 112/143/99 290/144/99
f 120/145/100 127/146/100 128/147/100
f 290/144/101 114/148/101 291/149/101
f 110/150/102 130/151/102 108/152/102
f 291/149/103 116/153/103 292/154/103
f 116/153/104 127/146/104 118/155/104
f 116/153/105 293/156/105 292/154/105
f 107/141/106 133/157/106 125/158/106
f 124/159/107 129/160/107 130/151/107
f 293/156/108 120/145/108 294/161/108
f 125/162/109 134/163/109 126/164/109
f 114/148/110 126/165/110 116/153/110
f 120/145/111 295/166/111 294/161/111
f 122/167/112 128/147/112 129/168/112
f 110/150/113 107/169/113 112/143/113
f 122/170/114 296/171/114 295/172/114
f 127/173/115 134/163/115 135/174/115
f 296/171/116 110/150/116 289/142/116
f 112/143/117 125/175/117 114/148/117
f 286/176/118 136/177/118 138/178/118
f 283/179/119 140/180/119 287/181/119
f 284/182/120 136/177/120 282/183/120
f 286/184/121 139/185/121 283/179/121
f 287/181/122 142/186/122 288/187/122
f 108/139/123 151/188/123 132/189/123
f 129/190/124 145/191/124 146/192/124
f 130/193/125 146/194/125 147/195/125
f 127/173/126 150/196/126 128/197/126
f 272/198/127 144/199/127 274/200/127
f 150/196/128 145/191/128 128/197/128
f 141/201/129 150/196/129 135/174/129
f 151/188/130 147/195/130 149/202/130
f 151/188/131 144/199/131 132/189/131
f 166/203/132 154/204/132 153/205/132
f 169/206/133 157/207/133 168/208/133
f 170/209/134 152/210/134 159/211/134
f 172/212/135 154/204/135 167/213/135
f 169/214/136 159/211/136 158/215/136
f 156/216/137 163/217/137 164/218/137
f 172/212/138 160/219/138 174/220/138
f 171/221/139 153/205/139 152/210/139
f 174/220/140 164/222/140 163/223/140
f 173/224/141 164/222/141 175/225/141
f 168/208/142 165/226/142 173/224/142
f 117/227/143 160/219/143 115/228/143
f 156/216/137 165/226/137 157/207/137
f 117/227/144 162/229/144 161/230/144
f 168/208/145 162/229/145 119/231/145
f 162/229/146 175/225/146 161/230/146
f 160/219/147 175/225/147 174/220/147
f 109/232/148 166/203/148 171/221/148
f 155/233/149 174/220/149 163/223/149
f 123/234/150 169/214/150 121/235/150
f 115/228/151 167/213/151 113/236/151
f 109/232/152 170/209/152 123/234/152
f 119/231/153 169/206/153 168/208/153
f 111/237/154 167/213/154 166/203/154
f 156/216/137 154/238/137 155/239/137
f 153/240/137 176/241/137 152/242/137
f 157/207/137 176/241/137 156/216/137
f 159/243/137 176/241/137 158/244/137
f 187/245/155 178/246/155 186/247/155
f 184/248/156 180/249/156 183/250/156
f 185/251/157 180/249/157 181/252/157
f 186/247/158 177/253/158 188/254/158
f 140/180/159 185/251/159 142/186/159
f 140/180/160 184/248/160 183/250/160
f 136/177/161 186/247/161 188/254/161
f 148/255/162 186/247/162 137/256/162
f 189/257/163 177/253/163 178/246/163
f 179/258/164 189/257/164 180/249/164
f 181/252/165 192/259/165 193/260/165
f 180/249/166 195/261/166 192/259/166
f 189/257/167 191/262/167 195/261/167
f 182/263/168 191/262/168 178/246/168
f 297/264/169 200/265/169 197/266/169
f 300/267/170 196/268/170 299/269/170
f 299/269/171 200/265/171 298/270/171
f 297/264/172 198/271/172 301/272/172
f 190/273/173 205/274/173 208/275/173
f 190/273/174 204/276/174 177/277/174
f 138/278/175 201/279/175 202/280/175
f 188/281/176 204/276/176 207/282/176
f 139/283/177 206/284/177 184/285/177
f 188/281/178 201/279/178 136/286/178
f 138/287/179 203/288/179 139/283/179
f 179/289/180 206/284/180 205/274/180
f 204/276/181 215/290/181 207/282/181
f 201/279/182 215/290/182 209/291/182
f 202/280/183 209/291/183 210/292/183
f 208/275/184 212/293/184 204/276/184
f 206/284/185 211/294/185 214/295/185
f 206/284/186 213/296/186 205/274/186
f 203/288/187 210/297/187 211/294/187
f 205/274/188 216/298/188 208/275/188
f 240/299/189 242/300/189 239/301/189
f 240/299/190 244/302/190 243/303/190
f 221/304/191 244/302/191 241/305/191
f 244/302/192 220/306/192 223/307/192
f 243/303/193 223/307/193 224/308/193
f 242/300/194 224/308/194 225/309/194
f 242/300/195 219/310/195 196/311/195
f 199/312/196 242/300/196 196/311/196
f 245/313/197 249/314/197 248/315/197
f 246/316/198 250/317/198 249/314/198
f 248/315/199 252/318/199 251/319/199
f 249/314/200 253/320/200 252/318/200
f 219/321/201 245/313/201 228/322/201
f 225/323/202 246/316/202 245/313/202
f 223/324/203 246/316/203 224/325/203
f 220/326/204 247/327/204 223/324/204
f 229/328/205 250/317/205 247/327/205
f 250/317/206 231/329/206 253/320/206
f 253/320/207 218/330/207 232/331/207
f 252/318/208 232/331/208 233/332/208
f 252/318/209 234/333/209 251/319/209
f 251/319/210 217/334/210 226/335/210
f 227/336/211 251/319/211 226/335/211
f 228/322/212 248/315/212 227/336/212
f 254/337/213 258/338/213 257/339/213
f 256/340/214 258/338/214 255/341/214
f 217/334/215 254/337/215 236/342/215
f 233/332/216 254/337/216 234/333/216
f 233/332/217 256/340/217 255/341/217
f 218/330/218 256/340/218 232/331/218
f 237/343/219 259/344/219 256/340/219
f 236/342/220 257/339/220 235/345/220
f 198/346/221 261/347/221 260/348/221
f 219/321/222 200/349/222 196/350/222
f 200/349/223 227/336/223 197/351/223
f 197/351/224 226/335/224 261/347/224
f 261/347/225 217/334/225 236/342/225
f 260/348/226 236/342/226 235/345/226
f 263/352/227 264/353/227 262/354/227
f 265/355/228 266/356/228 264/353/228
f 220/306/229 262/354/229 229/357/229
f 222/358/230 263/352/230 262/354/230
f 266/356/231 238/359/231 237/343/231
f 266/356/232 218/330/232 231/329/232
f 264/353/233 231/329/233 230/360/233
f 262/354/234 230/360/234 229/357/234
f 277/361/235 274/200/235 278/362/235
f 270/363/236 141/201/236 135/174/236
f 134/163/237 268/364/237 271/365/237
f 131/140/238 272/198/238 269/366/238
f 135/174/239 271/365/239 270/363/239
f 133/157/240 269/366/240 268/367/240
f 277/361/241 285/368/241 284/182/241
f 270/363/242 281/369/242 273/370/242
f 268/364/243 276/371/243 271/365/243
f 269/366/244 277/361/244 275/372/244
f 271/365/245 280/373/245 270/363/245
f 268/367/246 275/372/246 279/374/246
f 284/182/247 148/255/247 137/256/247
f 280/373/248 288/187/248 281/369/248
f 279/375/249 283/179/249 276/371/249
f 275/372/250 284/182/250 282/183/250
f 276/371/251 287/181/251 280/373/251
f 279/374/252 282/183/252 286/176/252
f 123/234/253 289/376/253 109/232/253
f 121/235/254 296/377/254 123/234/254
f 119/231/255 295/378/255 121/379/255
f 117/227/256 294/380/256 119/231/256
f 292/381/257 117/227/257 115/228/257
f 291/382/258 115/228/258 113/236/258
f 290/383/259 113/236/259 111/237/259
f 289/376/260 111/237/260 109/232/260
f 193/260/261 297/264/261 301/272/261
f 195/261/262 299/269/262 298/270/262
f 194/384/263 299/269/263 191/262/263
f 192/259/264 298/270/264 297/264/264
f 397/385/265 211/386/265 210/387/265
f 392/388/266 346/389/266 340/390/266
f 398/391/267 213/392/267 214/393/267
f 333/394/268 308/395/268 311/396/268
f 209/397/269 397/385/269 210/387/269
f 304/398/270 337/399/270 332/400/270
f 306/401/271 331/402/271 328/403/271
f 306/401/272 335/404/272 303/405/272
f 307/406/273 329/407/273 309/408/273
f 334/409/274 303/405/274 335/404/274
f 392/410/275 345/411/275 397/385/275
f 312/412/276 369/413/276 313/414/276
f 331/402/277 304/415/277 332/416/277
f 318/417/278 362/418/278 361/419/278
f 320/420/279 386/421/279 385/422/279
f 324/423/280 377/424/280 327/425/280
f 215/426/281 392/388/281 209/427/281
f 307/406/282 334/428/282 336/429/282
f 370/430/283 315/431/283 372/432/283
f 315/431/284 374/433/284 372/432/284
f 374/434/285 313/435/285 369/436/285
f 318/417/286 365/437/286 319/438/286
f 317/439/287 366/440/287 362/441/287
f 366/442/288 319/438/288 365/437/288
f 386/421/289 322/443/289 388/444/289
f 322/443/290 390/445/290 388/444/290
f 390/446/291 320/447/291 385/448/291
f 324/423/292 380/449/292 378/450/292
f 325/451/293 382/452/293 380/453/293
f 310/454/294 333/394/294 311/396/294
f 344/455/295 398/391/295 347/456/295
f 352/457/296 357/458/296 356/459/296
f 353/460/297 358/461/297 355/462/297
f 359/463/298 352/457/298 356/459/298
f 354/464/299 358/461/299 357/458/299
f 357/458/300 349/465/300 348/466/300
f 359/463/301 343/467/301 332/416/301
f 359/468/302 349/465/302 358/461/302
f 356/459/303 348/466/303 343/467/303
f 305/469/304 364/470/304 311/396/304
f 367/471/305 365/437/305 364/470/305
f 363/472/306 305/473/306 306/401/306
f 363/472/307 366/440/307 367/474/307
f 364/470/308 310/454/308 311/396/308
f 365/437/309 360/475/309 364/470/309
f 360/475/310 306/476/310 310/454/310
f 361/419/311 363/477/311 360/475/311
f 375/478/312 304/415/312 305/473/312
f 374/434/313 368/479/313 375/478/313
f 373/480/314 305/469/314 311/396/314
f 372/432/311 375/481/311 373/480/311
f 371/482/315 311/396/315 308/395/315
f 371/482/316 372/432/316 373/480/316
f 371/482/317 304/398/317 368/483/317
f 370/430/318 368/483/318 369/413/318
f 303/484/319 376/485/319 309/408/319
f 383/486/320 377/424/320 376/485/320
f 381/487/321 303/405/321 302/488/321
f 380/453/322 383/489/322 381/487/322
f 379/490/323 302/491/323 307/406/323
f 378/450/324 381/492/324 379/490/324
f 379/490/325 309/408/325 376/485/325
f 378/450/326 376/485/326 377/424/326
f 303/405/327 384/493/327 306/401/327
f 391/494/328 385/448/328 384/493/328
f 389/495/329 303/484/329 309/408/329
f 388/444/330 391/496/330 389/495/330
f 310/454/331 389/495/331 309/408/331
f 386/421/332 389/495/332 387/497/332
f 384/498/333 310/454/333 306/476/333
f 353/460/334 354/464/334 352/457/334
f 343/467/335 350/499/335 347/456/335
f 329/407/336 310/454/336 309/408/336
f 351/500/337 332/400/337 337/399/337
f 348/466/338 351/500/338 350/499/338
f 339/501/339 393/502/339 397/385/339
f 394/503/340 346/389/340 399/504/340
f 212/505/341 399/504/341 215/426/341
f 395/506/342 338/507/342 394/503/342
f 393/502/343 347/456/343 398/391/343
f 396/508/344 342/509/344 395/506/344
f 382/510/345 327/425/345 377/424/345
f 344/455/346 330/511/346 342/509/346
f 337/399/347 350/499/347 351/500/347
f 341/512/348 331/402/348 339/501/348
f 338/507/349 330/511/349 329/407/349
f 347/456/350 333/394/350 344/455/350
f 341/512/351 335/404/351 328/403/351
f 345/411/352 334/409/352 335/404/352
f 343/467/353 331/402/353 332/416/353
f 386/421/318 384/498/318 385/422/318
f 340/390/354 336/429/354 334/428/354
f 325/513/355 327/425/355 326/514/355
f 322/443/355 320/420/355 321/515/355
f 317/516/355 319/438/355 316/517/355
f 315/431/355 313/414/355 314/518/355
f 393/502/356 214/393/356 211/386/356
f 346/389/357 329/407/357 336/429/357
f 395/506/358 213/392/358 396/508/358
f 394/503/359 216/519/359 395/506/359
f 339/501/360 345/411/360 341/512/360
f 424/520/361 401/521/361 400/522/361
f 546/523/362 405/524/362 403/525/362
f 413/526/363 420/527/363 411/528/363
f 547/529/364 407/530/364 405/524/364
f 403/525/365 423/531/365 417/532/365
f 548/533/366 409/534/366 407/530/366
f 420/527/367 409/534/367 411/528/367
f 550/535/368 409/534/368 549/536/368
f 426/537/369 400/522/369 418/538/369
f 417/532/370 422/539/370 415/540/370
f 550/535/371 413/526/371 411/528/371
f 427/541/372 418/542/372 419/543/372
f 419/544/373 407/530/373 409/534/373
f 552/545/374 413/526/374 551/546/374
f 415/547/375 421/548/375 413/526/375
f 400/549/376 403/525/376 405/524/376
f 553/550/377 415/540/377 552/551/377
f 420/552/378 427/541/378 419/543/378
f 553/550/379 403/525/379 417/532/379
f 418/553/380 405/524/380 407/530/380
f 544/554/381 429/555/381 541/556/381
f 433/557/382 542/558/382 545/559/382
f 541/556/383 430/560/383 543/561/383
f 432/562/384 544/563/384 542/558/384
f 545/559/385 142/186/385 433/557/385
f 401/521/386 435/564/386 423/565/386
f 422/566/387 145/191/387 421/567/387
f 423/565/388 146/194/388 422/568/388
f 434/569/389 420/552/389 421/567/389
f 535/570/390 144/199/390 425/571/390
f 145/191/391 434/569/391 421/567/391
f 434/569/392 141/201/392 428/572/392
f 147/195/393 435/564/393 149/202/393
f 435/564/394 144/199/394 149/202/394
f 450/573/395 438/574/395 451/575/395
f 441/576/396 453/577/396 452/578/396
f 454/579/397 436/580/397 455/581/397
f 438/574/398 456/582/398 451/575/398
f 453/583/399 443/584/399 454/579/399
f 440/585/137 447/586/137 439/587/137
f 456/582/400 444/588/400 408/589/400
f 455/581/401 437/590/401 450/573/401
f 458/591/402 448/592/402 459/593/402
f 448/592/403 457/594/403 459/593/403
f 452/578/404 449/595/404 441/576/404
f 444/588/405 410/596/405 408/589/405
f 449/595/137 440/585/137 441/576/137
f 410/596/406 446/597/406 412/598/406
f 446/597/407 452/578/407 412/598/407
f 459/593/408 446/597/408 445/599/408
f 444/588/409 459/593/409 445/599/409
f 402/600/410 450/573/410 404/601/410
f 439/602/411 458/591/411 456/582/411
f 453/583/412 416/603/412 414/604/412
f 451/575/413 408/589/413 406/605/413
f 454/579/414 402/600/414 416/603/414
f 412/598/415 453/577/415 414/606/415
f 404/601/416 451/575/416 406/605/416
f 438/607/137 440/585/137 439/587/137
f 460/608/137 437/609/137 436/610/137
f 460/608/137 441/576/137 440/585/137
f 460/608/137 443/611/137 442/612/137
f 462/613/417 187/245/417 467/614/417
f 465/615/418 463/616/418 466/617/418
f 185/251/419 464/618/419 465/615/419
f 461/619/420 467/614/420 468/620/420
f 185/251/421 433/557/421 142/186/421
f 433/557/422 466/617/422 432/562/422
f 429/555/423 467/614/423 430/560/423
f 467/614/424 148/255/424 430/560/424
f 469/621/425 461/619/425 470/622/425
f 464/618/426 470/622/426 463/616/426
f 181/252/427 472/623/427 464/618/427
f 464/618/428 473/624/428 469/621/428
f 469/621/429 471/625/429 462/613/429
f 471/625/430 182/263/430 462/613/430
f 554/626/431 476/627/431 555/628/431
f 474/629/432 300/267/432 556/630/432
f 476/627/433 556/630/433 555/628/433
f 198/271/434 554/626/434 301/272/434
f 470/631/435 481/632/435 463/633/435
f 480/634/436 470/631/436 461/635/436
f 431/636/437 477/637/437 429/638/437
f 483/639/438 461/635/438 468/640/438
f 482/641/439 432/642/439 466/643/439
f 477/637/440 468/640/440 429/638/440
f 479/644/441 431/645/441 432/642/441
f 463/633/442 482/641/442 466/643/442
f 483/639/443 488/646/443 480/634/443
f 477/637/444 491/647/444 483/639/444
f 486/648/445 477/637/445 478/649/445
f 480/634/446 492/650/446 484/651/446
f 490/652/447 479/644/447 482/641/447
f 489/653/448 482/641/448 481/632/448
f 479/644/449 486/654/449 478/655/449
f 484/651/450 489/653/450 481/632/450
f 512/656/451 240/299/451 239/301/451
f 240/299/452 514/657/452 241/305/452
f 514/657/453 221/304/453 241/305/453
f 514/657/454 496/658/454 497/659/454
f 513/660/455 498/661/455 514/657/455
f 512/656/456 499/662/456 513/660/456
f 495/663/457 512/656/457 474/664/457
f 199/312/458 512/656/458 239/301/458
f 515/665/459 519/666/459 516/667/459
f 516/667/460 520/668/460 517/669/460
f 518/670/461 522/671/461 519/666/461
f 519/666/462 523/672/462 520/668/462
f 495/673/463 515/665/463 500/674/463
f 500/674/464 516/667/464 499/675/464
f 516/667/465 498/676/465 499/675/465
f 517/669/466 496/677/466 498/676/466
f 520/668/467 504/678/467 517/669/467
f 520/668/468 506/679/468 505/680/468
f 523/672/469 494/681/469 506/679/469
f 522/671/470 507/682/470 523/672/470
f 509/683/471 522/671/471 521/684/471
f 493/685/472 521/684/472 501/686/472
f 502/687/473 521/684/473 518/670/473
f 503/688/474 518/670/474 515/665/474
f 524/689/475 258/338/475 525/690/475
f 258/338/476 526/691/476 525/690/476
f 493/685/477 524/689/477 509/683/477
f 524/689/478 508/692/478 509/683/478
f 508/692/479 526/691/479 507/682/479
f 526/691/480 494/681/480 507/682/480
f 259/344/481 511/693/481 526/691/481
f 510/694/482 257/339/482 524/689/482
f 198/346/483 527/695/483 475/696/483
f 476/697/484 495/673/484 474/698/484
f 476/697/485 502/687/485 503/688/485
f 475/696/486 501/686/486 502/687/486
f 527/695/487 493/685/487 501/686/487
f 260/348/488 510/694/488 527/695/488
f 529/699/489 263/352/489 528/700/489
f 530/701/490 265/355/490 529/699/490
f 496/658/491 528/700/491 497/659/491
f 497/659/492 263/352/492 221/304/492
f 530/701/493 238/359/493 267/702/493
f 494/681/494 530/701/494 506/679/494
f 506/679/495 529/699/495 505/703/495
f 505/703/496 528/700/496 504/704/496
f 538/705/497 274/200/497 535/570/497
f 141/201/498 533/706/498 428/572/498
f 427/541/499 531/707/499 426/708/499
f 424/520/500 535/570/500 425/571/500
f 428/572/501 534/709/501 427/541/501
f 426/537/502 532/710/502 424/520/502
f 285/368/503 538/705/503 543/561/503
f 533/706/504 281/369/504 540/711/504
f 537/712/505 531/707/505 534/709/505
f 532/710/506 538/705/506 535/570/506
f 540/711/507 534/709/507 533/706/507
f 531/713/508 536/714/508 532/710/508
f 148/255/509 543/561/509 430/560/509
f 540/711/510 288/187/510 545/559/510
f 542/558/511 539/715/511 537/712/511
f 536/714/512 543/561/512 538/705/512
f 545/559/513 537/712/513 540/711/513
f 539/716/514 541/556/514 536/714/514
f 416/603/515 546/717/515 553/718/515
f 414/604/377 553/718/377 552/719/377
f 412/598/374 552/720/374 551/721/374
f 410/596/516 551/721/516 550/722/516
f 410/596/517 549/723/517 408/589/517
f 408/589/518 548/724/518 406/605/518
f 406/605/519 547/725/519 404/601/519
f 404/601/520 546/717/520 402/600/520
f 193/260/521 554/626/521 472/623/521
f 473/624/522 556/630/522 471/625/522
f 556/630/523 194/384/523 471/625/523
f 472/623/524 555/628/524 473/624/524
f 3/1/525 100/124/525 104/2/525
f 99/4/526 47/133/526 53/5/526
f 105/7/527 6/137/527 5/8/527
f 15/10/528 44/16/528 40/11/528
f 1/13/529 2/3/529 104/2/529
f 11/15/530 39/122/530 44/16/530
f 13/17/531 35/21/531 38/18/531
f 10/20/532 42/25/532 35/21/532
f 14/22/533 16/113/533 36/23/533
f 42/25/534 10/20/534 9/26/534
f 99/14/535 104/2/535 52/28/535
f 76/30/12 77/47/12 19/31/12
f 38/18/536 39/86/536 11/33/536
f 25/34/537 68/95/537 69/35/537
f 92/37/538 93/61/538 30/38/538
f 34/40/539 84/107/539 85/41/539
f 99/4/540 106/6/540 7/43/540
f 14/22/541 43/24/541 41/45/541
f 77/47/542 79/50/542 22/48/542
f 81/49/20 21/136/20 22/48/20
f 81/51/21 76/726/21 20/52/21
f 72/54/22 68/95/22 25/34/22
f 73/56/543 23/727/543 24/57/543
f 73/59/24 72/54/24 26/55/24
f 93/61/25 95/64/25 29/62/25
f 97/63/544 28/135/544 29/62/544
f 92/65/27 27/728/27 28/66/27
f 87/68/545 32/134/545 31/42/545
f 89/69/29 33/729/29 32/70/29
f 17/72/546 18/12/546 40/11/546
f 51/74/547 54/121/547 105/7/547
f 59/75/548 63/88/548 64/76/548
f 65/78/549 66/87/549 60/79/549
f 66/81/550 63/88/550 59/75/550
f 65/78/551 62/80/551 61/77/551
f 56/83/552 65/78/552 64/76/552
f 50/85/553 63/88/553 66/81/553
f 56/83/554 39/122/554 66/87/554
f 63/88/555 50/85/555 55/84/555
f 12/89/556 18/12/556 71/90/556
f 74/91/41 71/90/41 72/54/41
f 13/17/557 12/19/557 74/92/557
f 74/92/43 73/56/43 69/58/43
f 71/90/558 18/12/558 17/72/558
f 72/54/45 71/90/45 67/94/45
f 67/94/559 17/72/559 13/96/559
f 68/95/47 67/94/47 70/97/47
f 11/33/560 75/99/560 82/98/560
f 75/99/49 76/726/49 81/51/49
f 12/89/561 82/101/561 80/100/561
f 82/101/47 81/49/47 79/50/47
f 18/12/562 80/100/562 78/102/562
f 78/102/52 80/100/52 79/50/52
f 11/15/563 15/10/563 78/102/563
f 75/103/41 78/102/41 77/47/41
f 10/104/564 16/113/564 83/105/564
f 90/106/565 83/105/565 84/107/565
f 10/20/566 90/110/566 88/109/566
f 90/110/567 89/69/567 87/71/567
f 9/46/568 88/112/568 86/111/568
f 88/112/569 87/68/569 85/41/569
f 16/113/570 14/22/570 86/111/570
f 84/107/571 83/105/571 86/111/571
f 10/20/572 13/17/572 91/114/572
f 91/114/63 92/65/63 97/67/63
f 16/113/573 10/104/573 98/116/573
f 98/116/574 97/63/574 95/64/574
f 16/113/575 96/117/575 94/118/575
f 96/117/67 95/64/67 93/61/67
f 13/96/576 17/72/576 94/118/576
f 60/79/69 59/75/69 61/77/69
f 57/120/577 55/84/577 50/85/577
f 17/72/578 37/73/578 36/23/578
f 39/122/579 56/83/579 58/123/579
f 58/123/580 56/83/580 55/84/580
f 100/124/581 50/85/581 46/125/581
f 53/5/582 45/129/582 101/126/582
f 106/6/583 101/126/583 4/127/583
f 102/128/584 101/126/584 45/129/584
f 100/124/585 105/7/585 54/121/585
f 103/9/586 102/128/586 49/130/586
f 89/108/587 84/107/587 34/40/587
f 37/73/588 40/11/588 51/74/588
f 44/16/589 58/123/589 57/120/589
f 46/125/590 38/18/590 35/21/590
f 45/129/591 36/23/591 37/73/591
f 40/11/592 44/16/592 54/121/592
f 35/21/593 42/25/593 52/28/593
f 42/25/594 41/27/594 47/29/594
f 50/85/595 39/86/595 38/18/595
f 91/119/596 94/118/596 93/61/596
f 47/133/597 41/45/597 43/24/597
f 32/134/91 33/131/91 34/40/91
f 27/39/598 30/38/598 29/62/598
f 23/60/91 26/55/91 25/34/91
f 20/32/598 19/31/598 22/48/598
f 100/124/599 3/1/599 6/137/599
f 53/5/600 43/24/600 36/23/600
f 102/128/601 103/9/601 5/8/601
f 101/126/602 102/128/602 8/138/602
f 48/132/603 52/28/603 104/2/603
f 108/139/604 132/189/604 131/140/604
f 289/142/605 110/150/605 112/143/605
f 120/145/606 118/155/606 127/146/606
f 290/144/607 112/143/607 114/148/607
f 110/150/608 124/159/608 130/151/608
f 291/149/609 114/148/609 116/153/609
f 116/153/610 126/165/610 127/146/610
f 116/153/611 118/155/611 293/156/611
f 107/141/612 131/140/612 133/157/612
f 124/159/613 122/170/613 129/160/613
f 293/156/614 118/155/614 120/145/614
f 125/162/615 133/730/615 134/163/615
f 114/148/616 125/175/616 126/165/616
f 120/145/617 122/167/617 295/166/617
f 122/167/618 120/145/618 128/147/618
f 110/150/619 108/152/619 107/169/619
f 122/170/620 124/159/620 296/171/620
f 127/173/621 126/164/621 134/163/621
f 296/171/622 124/159/622 110/150/622
f 112/143/623 107/169/623 125/175/623
f 286/176/624 282/183/624 136/177/624
f 283/179/625 139/185/625 140/180/625
f 284/182/626 137/256/626 136/177/626
f 286/184/627 138/731/627 139/185/627
f 287/181/628 140/180/628 142/186/628
f 108/139/629 130/193/629 151/188/629
f 129/190/630 128/197/630 145/191/630
f 130/193/631 129/732/631 146/194/631
f 127/173/632 135/174/632 150/196/632
f 272/198/633 132/189/633 144/199/633
f 150/196/634 143/733/634 145/191/634
f 141/201/635 143/733/635 150/196/635
f 151/188/636 130/193/636 147/195/636
f 151/188/637 149/202/637 144/199/637
f 166/203/638 167/213/638 154/204/638
f 169/206/639 158/244/639 157/207/639
f 170/209/640 171/221/640 152/210/640
f 172/212/641 155/233/641 154/204/641
f 169/214/642 170/209/642 159/211/642
f 156/216/137 155/239/137 163/217/137
f 172/212/643 115/228/643 160/219/643
f 171/221/644 166/203/644 153/205/644
f 174/220/645 175/225/645 164/222/645
f 173/224/646 165/226/646 164/222/646
f 168/208/647 157/207/647 165/226/647
f 117/227/648 161/230/648 160/219/648
f 156/216/137 164/218/137 165/226/137
f 117/227/649 119/231/649 162/229/649
f 168/208/650 173/224/650 162/229/650
f 162/229/651 173/224/651 175/225/651
f 160/219/652 161/230/652 175/225/652
f 109/232/653 111/237/653 166/203/653
f 155/233/654 172/212/654 174/220/654
f 123/234/655 170/209/655 169/214/655
f 115/228/656 172/212/656 167/213/656
f 109/232/657 171/221/657 170/209/657
f 119/231/658 121/379/658 169/206/658
f 111/237/659 113/236/659 167/213/659
f 156/216/137 176/241/137 154/238/137
f 153/240/137 154/238/137 176/241/137
f 157/207/137 158/244/137 176/241/137
f 159/243/137 152/242/137 176/241/137
f 187/245/660 182/263/660 178/246/660
f 184/248/661 179/258/661 180/249/661
f 185/251/662 183/250/662 180/249/662
f 186/247/663 178/246/663 177/253/663
f 140/180/664 183/250/664 185/251/664
f 140/180/665 139/185/665 184/248/665
f 136/177/666 137/256/666 186/247/666
f 148/255/667 187/245/667 186/247/667
f 189/257/668 190/734/668 177/253/668
f 179/258/669 190/734/669 189/257/669
f 181/252/670 180/249/670 192/259/670
f 180/249/671 189/257/671 195/261/671
f 189/257/672 178/246/672 191/262/672
f 182/263/673 194/384/673 191/262/673
f 297/264/674 298/270/674 200/265/674
f 300/267/675 199/735/675 196/268/675
f 299/269/676 196/268/676 200/265/676
f 297/264/677 197/266/677 198/271/677
f 190/273/678 179/289/678 205/274/678
f 190/273/679 208/275/679 204/276/679
f 138/278/680 136/286/680 201/279/680
f 188/281/681 177/277/681 204/276/681
f 139/283/682 203/288/682 206/284/682
f 188/281/683 207/282/683 201/279/683
f 138/287/684 202/736/684 203/288/684
f 179/289/685 184/285/685 206/284/685
f 204/276/686 212/293/686 215/290/686
f 201/279/687 207/282/687 215/290/687
f 202/280/688 201/279/688 209/291/688
f 208/275/689 216/298/689 212/293/689
f 206/284/690 203/288/690 211/294/690
f 206/284/691 214/295/691 213/296/691
f 203/288/692 202/736/692 210/297/692
f 205/274/693 213/296/693 216/298/693
f 240/299/694 243/303/694 242/300/694
f 240/299/695 241/305/695 244/302/695
f 221/304/696 222/358/696 244/302/696
f 244/302/697 222/358/697 220/306/697
f 243/303/698 244/302/698 223/307/698
f 242/300/699 243/303/699 224/308/699
f 242/300/700 225/309/700 219/310/700
f 199/312/701 239/301/701 242/300/701
f 245/313/702 246/316/702 249/314/702
f 246/316/703 247/327/703 250/317/703
f 248/315/704 249/314/704 252/318/704
f 249/314/705 250/317/705 253/320/705
f 219/321/706 225/323/706 245/313/706
f 225/323/707 224/325/707 246/316/707
f 223/324/708 247/327/708 246/316/708
f 220/326/709 229/328/709 247/327/709
f 229/328/710 230/737/710 250/317/710
f 250/317/711 230/737/711 231/329/711
f 253/320/712 231/329/712 218/330/712
f 252/318/713 253/320/713 232/331/713
f 252/318/714 233/332/714 234/333/714
f 251/319/715 234/333/715 217/334/715
f 227/336/716 248/315/716 251/319/716
f 228/322/717 245/313/717 248/315/717
f 254/337/718 255/341/718 258/338/718
f 256/340/719 259/344/719 258/338/719
f 217/334/720 234/333/720 254/337/720
f 233/332/721 255/341/721 254/337/721
f 233/332/722 232/331/722 256/340/722
f 218/330/723 237/343/723 256/340/723
f 237/343/724 238/359/724 259/344/724
f 236/342/725 254/337/725 257/339/725
f 198/346/726 197/351/726 261/347/726
f 219/321/727 228/322/727 200/349/727
f 200/349/728 228/322/728 227/336/728
f 197/351/729 227/336/729 226/335/729
f 261/347/730 226/335/730 217/334/730
f 260/348/731 261/347/731 236/342/731
f 263/352/732 265/355/732 264/353/732
f 265/355/733 267/702/733 266/356/733
f 220/306/734 222/358/734 262/354/734
f 222/358/735 221/304/735 263/352/735
f 266/356/736 267/702/736 238/359/736
f 266/356/737 237/343/737 218/330/737
f 264/353/738 266/356/738 231/329/738
f 262/354/739 264/353/739 230/360/739
f 277/361/740 272/198/740 274/200/740
f 270/363/741 273/370/741 141/201/741
f 134/163/742 133/730/742 268/364/742
f 131/140/743 132/189/743 272/198/743
f 135/174/744 134/163/744 271/365/744
f 133/157/745 131/140/745 269/366/745
f 277/361/746 278/362/746 285/368/746
f 270/363/747 280/373/747 281/369/747
f 268/364/748 279/375/748 276/371/748
f 269/366/749 272/198/749 277/361/749
f 271/365/750 276/371/750 280/373/750
f 268/367/751 269/366/751 275/372/751
f 284/182/752 285/368/752 148/255/752
f 280/373/753 287/181/753 288/187/753
f 279/375/754 286/184/754 283/179/754
f 275/372/755 277/361/755 284/182/755
f 276/371/756 283/179/756 287/181/756
f 279/374/757 275/372/757 282/183/757
f 123/234/758 296/377/758 289/376/758
f 121/235/114 295/738/114 296/377/114
f 119/231/111 294/380/111 295/378/111
f 117/227/759 293/739/759 294/380/759
f 292/381/760 293/739/760 117/227/760
f 291/382/103 292/381/103 115/228/103
f 290/383/101 291/382/101 113/236/101
f 289/376/99 290/383/99 111/237/99
f 193/260/761 192/259/761 297/264/761
f 195/261/762 191/262/762 299/269/762
f 194/384/763 300/267/763 299/269/763
f 192/259/764 195/261/764 298/270/764
f 397/385/765 393/502/765 211/386/765
f 392/388/766 399/504/766 346/389/766
f 398/391/767 396/508/767 213/392/767
f 333/394/768 337/399/768 308/395/768
f 209/397/769 392/410/769 397/385/769
f 304/398/770 308/395/770 337/399/770
f 306/401/771 305/473/771 331/402/771
f 306/401/772 328/403/772 335/404/772
f 307/406/773 336/429/773 329/407/773
f 334/409/774 302/488/774 303/405/774
f 392/410/775 340/740/775 345/411/775
f 312/412/276 370/430/276 369/413/276
f 331/402/776 305/473/776 304/415/776
f 318/417/278 317/516/278 362/418/278
f 320/420/777 323/741/777 386/421/777
f 324/423/280 378/450/280 377/424/280
f 215/426/778 399/504/778 392/388/778
f 307/406/779 302/491/779 334/428/779
f 370/430/283 312/412/283 315/431/283
f 315/431/284 314/518/284 374/433/284
f 374/434/285 314/742/285 313/435/285
f 318/417/286 361/419/286 365/437/286
f 317/439/287 316/743/287 366/440/287
f 366/442/288 316/517/288 319/438/288
f 386/421/780 323/741/780 322/443/780
f 322/443/781 321/515/781 390/445/781
f 390/446/782 321/744/782 320/447/782
f 324/423/292 325/513/292 380/449/292
f 325/451/293 326/745/293 382/452/293
f 310/454/783 330/511/783 333/394/783
f 344/455/784 396/508/784 398/391/784
f 352/457/785 354/464/785 357/458/785
f 353/460/786 359/468/786 358/461/786
f 359/463/787 353/746/787 352/457/787
f 354/464/788 355/462/788 358/461/788
f 357/458/789 358/461/789 349/465/789
f 359/463/790 356/459/790 343/467/790
f 359/468/791 332/400/791 349/465/791
f 356/459/792 357/458/792 348/466/792
f 305/469/793 367/471/793 364/470/793
f 367/471/794 366/442/794 365/437/794
f 363/472/795 367/474/795 305/473/795
f 363/472/796 362/441/796 366/440/796
f 364/470/797 360/475/797 310/454/797
f 365/437/309 361/419/309 360/475/309
f 360/475/798 363/477/798 306/476/798
f 361/419/311 362/418/311 363/477/311
f 375/478/799 368/479/799 304/415/799
f 374/434/313 369/436/313 368/479/313
f 373/480/800 375/481/800 305/469/800
f 372/432/311 374/433/311 375/481/311
f 371/482/801 373/480/801 311/396/801
f 371/482/316 370/430/316 372/432/316
f 371/482/802 308/395/802 304/398/802
f 370/430/318 371/482/318 368/483/318
f 303/484/803 383/486/803 376/485/803
f 383/486/804 382/510/804 377/424/804
f 381/487/805 383/489/805 303/405/805
f 380/453/806 382/452/806 383/489/806
f 379/490/807 381/492/807 302/491/807
f 378/450/808 380/449/808 381/492/808
f 379/490/809 307/406/809 309/408/809
f 378/450/810 379/490/810 376/485/810
f 303/405/811 391/494/811 384/493/811
f 391/494/328 390/446/328 385/448/328
f 389/495/812 391/496/812 303/484/812
f 388/444/813 390/445/813 391/496/813
f 310/454/814 387/497/814 389/495/814
f 386/421/815 388/444/815 389/495/815
f 384/498/816 387/497/816 310/454/816
f 353/460/334 355/462/334 354/464/334
f 343/467/817 348/466/817 350/499/817
f 329/407/818 330/511/818 310/454/818
f 351/500/819 349/465/819 332/400/819
f 348/466/820 349/465/820 351/500/820
f 339/501/821 343/467/821 393/502/821
f 394/503/822 338/507/822 346/389/822
f 212/505/823 394/503/823 399/504/823
f 395/506/824 342/509/824 338/507/824
f 393/502/825 343/467/825 347/456/825
f 396/508/826 344/455/826 342/509/826
f 382/510/827 326/514/827 327/425/827
f 344/455/828 333/394/828 330/511/828
f 337/399/829 347/456/829 350/499/829
f 341/512/830 328/403/830 331/402/830
f 338/507/831 342/509/831 330/511/831
f 347/456/832 337/399/832 333/394/832
f 341/512/833 345/411/833 335/404/833
f 345/411/834 340/740/834 334/409/834
f 343/467/835 339/501/835 331/402/835
f 386/421/836 387/497/836 384/498/836
f 340/390/837 346/389/837 336/429/837
f 325/513/355 324/423/355 327/425/355
f 322/443/838 323/741/838 320/420/838
f 317/516/355 318/417/355 319/438/355
f 315/431/355 312/412/355 313/414/355
f 393/502/839 398/391/839 214/393/839
f 346/389/840 338/507/840 329/407/840
f 395/506/841 216/519/841 213/392/841
f 394/503/842 212/505/842 216/519/842
f 339/501/843 397/385/843 345/411/843
f 424/520/844 425/571/844 401/521/844
f 546/523/845 547/529/845 405/524/845
f 413/526/846 421/548/846 420/527/846
f 547/529/847 548/533/847 407/530/847
f 403/525/848 401/747/848 423/531/848
f 548/533/849 549/536/849 409/534/849
f 420/527/850 419/544/850 409/534/850
f 550/535/851 411/528/851 409/534/851
f 426/537/852 424/520/852 400/522/852
f 417/532/853 423/531/853 422/539/853
f 550/535/854 551/546/854 413/526/854
f 427/541/855 426/708/855 418/542/855
f 419/544/856 418/553/856 407/530/856
f 552/545/857 415/547/857 413/526/857
f 415/547/858 422/748/858 421/548/858
f 400/549/859 401/747/859 403/525/859
f 553/550/860 417/532/860 415/540/860
f 420/552/861 428/572/861 427/541/861
f 553/550/862 546/523/862 403/525/862
f 418/553/863 400/549/863 405/524/863
f 544/554/864 431/749/864 429/555/864
f 433/557/865 432/562/865 542/558/865
f 541/556/866 429/555/866 430/560/866
f 432/562/867 431/750/867 544/563/867
f 545/559/868 288/187/868 142/186/868
f 401/521/869 425/571/869 435/564/869
f 422/566/870 146/192/870 145/191/870
f 423/565/871 147/195/871 146/194/871
f 434/569/872 428/572/872 420/552/872
f 535/570/873 274/200/873 144/199/873
f 145/191/874 143/733/874 434/569/874
f 434/569/875 143/733/875 141/201/875
f 147/195/876 423/565/876 435/564/876
f 435/564/877 425/571/877 144/199/877
f 450/573/878 437/590/878 438/574/878
f 441/576/879 442/612/879 453/577/879
f 454/579/880 443/584/880 436/580/880
f 438/574/881 439/602/881 456/582/881
f 453/583/882 442/751/882 443/584/882
f 440/585/137 448/752/137 447/586/137
f 456/582/883 458/591/883 444/588/883
f 455/581/884 436/580/884 437/590/884
f 458/591/885 447/753/885 448/592/885
f 448/592/886 449/595/886 457/594/886
f 452/578/887 457/594/887 449/595/887
f 444/588/888 445/599/888 410/596/888
f 449/595/137 448/752/137 440/585/137
f 410/596/889 445/599/889 446/597/889
f 446/597/890 457/594/890 452/578/890
f 459/593/891 457/594/891 446/597/891
f 444/588/892 458/591/892 459/593/892
f 402/600/893 455/581/893 450/573/893
f 439/602/894 447/753/894 458/591/894
f 453/583/895 454/579/895 416/603/895
f 451/575/896 456/582/896 408/589/896
f 454/579/897 455/581/897 402/600/897
f 412/598/898 452/578/898 453/577/898
f 404/601/899 450/573/899 451/575/899
f 438/607/137 460/608/137 440/585/137
f 460/608/137 438/607/137 437/609/137
f 460/608/137 442/612/137 441/576/137
f 460/608/137 436/610/137 443/611/137
f 462/613/900 182/263/900 187/245/900
f 465/615/901 464/618/901 463/616/901
f 185/251/902 181/252/902 464/618/902
f 461/619/903 462/613/903 467/614/903
f 185/251/904 465/615/904 433/557/904
f 433/557/905 465/615/905 466/617/905
f 429/555/906 468/620/906 467/614/906
f 467/614/907 187/245/907 148/255/907
f 469/621/908 462/613/908 461/619/908
f 464/618/909 469/621/909 470/622/909
f 181/252/910 193/260/910 472/623/910
f 464/618/911 472/623/911 473/624/911
f 469/621/912 473/624/912 471/625/912
f 471/625/913 194/384/913 182/263/913
f 554/626/914 475/754/914 476/627/914
f 474/629/915 199/735/915 300/267/915
f 476/627/916 474/629/916 556/630/916
f 198/271/917 475/754/917 554/626/917
f 470/631/918 484/651/918 481/632/918
f 480/634/919 484/651/919 470/631/919
f 431/636/920 478/649/920 477/637/920
f 483/639/921 480/634/921 461/635/921
f 482/641/922 479/644/922 432/642/922
f 477/637/923 483/639/923 468/640/923
f 479/644/924 478/655/924 431/645/924
f 463/633/925 481/632/925 482/641/925
f 483/639/926 491/647/926 488/646/926
f 477/637/927 485/755/927 491/647/927
f 486/648/928 485/755/928 477/637/928
f 480/634/929 488/646/929 492/650/929
f 490/652/930 487/756/930 479/644/930
f 489/653/931 490/652/931 482/641/931
f 479/644/932 487/756/932 486/654/932
f 484/651/933 492/650/933 489/653/933
f 512/656/934 513/660/934 240/299/934
f 240/299/935 513/660/935 514/657/935
f 514/657/936 497/659/936 221/304/936
f 514/657/937 498/661/937 496/658/937
f 513/660/938 499/662/938 498/661/938
f 512/656/939 500/757/939 499/662/939
f 495/663/940 500/757/940 512/656/940
f 199/312/941 474/664/941 512/656/941
f 515/665/942 518/670/942 519/666/942
f 516/667/943 519/666/943 520/668/943
f 518/670/944 521/684/944 522/671/944
f 519/666/945 522/671/945 523/672/945
f 495/673/946 503/688/946 515/665/946
f 500/674/947 515/665/947 516/667/947
f 516/667/948 517/669/948 498/676/948
f 517/669/949 504/678/949 496/677/949
f 520/668/950 505/680/950 504/678/950
f 520/668/951 523/672/951 506/679/951
f 523/672/952 507/682/952 494/681/952
f 522/671/953 508/692/953 507/682/953
f 509/683/954 508/692/954 522/671/954
f 493/685/955 509/683/955 521/684/955
f 502/687/956 501/686/956 521/684/956
f 503/688/957 502/687/957 518/670/957
f 524/689/958 257/339/958 258/338/958
f 258/338/959 259/344/959 526/691/959
f 493/685/960 510/694/960 524/689/960
f 524/689/961 525/690/961 508/692/961
f 508/692/962 525/690/962 526/691/962
f 526/691/963 511/693/963 494/681/963
f 259/344/964 238/359/964 511/693/964
f 510/694/965 235/345/965 257/339/965
f 198/346/966 260/348/966 527/695/966
f 476/697/967 503/688/967 495/673/967
f 476/697/968 475/696/968 502/687/968
f 475/696/969 527/695/969 501/686/969
f 527/695/970 510/694/970 493/685/970
f 260/348/971 235/345/971 510/694/971
f 529/699/972 265/355/972 263/352/972
f 530/701/973 267/702/973 265/355/973
f 496/658/974 504/704/974 528/700/974
f 497/659/975 528/700/975 263/352/975
f 530/701/976 511/693/976 238/359/976
f 494/681/977 511/693/977 530/701/977
f 506/679/978 530/701/978 529/699/978
f 505/703/979 529/699/979 528/700/979
f 538/705/980 278/362/980 274/200/980
f 141/201/981 273/370/981 533/706/981
f 427/541/982 534/709/982 531/707/982
f 424/520/983 532/710/983 535/570/983
f 428/572/984 533/706/984 534/709/984
f 426/537/985 531/713/985 532/710/985
f 285/368/986 278/362/986 538/705/986
f 533/706/987 273/370/987 281/369/987
f 537/712/988 539/715/988 531/707/988
f 532/710/989 536/714/989 538/705/989
f 540/711/990 537/712/990 534/709/990
f 531/713/991 539/716/991 536/714/991
f 148/255/992 285/368/992 543/561/992
f 540/711/993 281/369/993 288/187/993
f 542/558/994 544/563/994 539/715/994
f 536/714/995 541/556/995 543/561/995
f 545/559/996 542/558/996 537/712/996
f 539/716/997 544/554/997 541/556/997
f 416/603/998 402/600/998 546/717/998
f 414/604/999 416/603/999 553/718/999
f 412/598/1000 414/606/1000 552/720/1000
f 410/596/1001 412/598/1001 551/721/1001
f 410/596/1002 550/722/1002 549/723/1002
f 408/589/849 549/723/849 548/724/849
f 406/605/847 548/724/847 547/725/847
f 404/601/845 547/725/845 546/717/845
f 193/260/1003 301/272/1003 554/626/1003
f 473/624/1004 555/628/1004 556/630/1004
f 556/630/1005 300/267/1005 194/384/1005
f 472/623/1006 554/626/1006 555/628/1006
