# Blender 5.0.0
# www.blender.org
mtllib titlePlayer.mtl
o Cube.007
v -1.775114 0.484413 -0.356545
v -1.775114 0.017535 0.189496
v -1.775115 2.706125 1.543071
v -2.522455 0.484414 -0.356544
v -2.522455 0.017536 0.189497
v -2.522455 2.706125 1.543071
v -2.522455 2.239247 2.089112
v -1.775115 2.239247 2.089112
v 1.000002 1.494564 1.000000
v 1.000002 1.494564 -1.000000
v 1.000001 -1.428541 1.000000
v -0.999998 1.494565 1.000000
v -0.999998 1.494565 -1.000000
v -0.999999 -1.428540 1.000000
v -0.999999 -1.428540 -1.000000
v 1.000001 -1.428541 -1.000000
v -0.041798 -1.302896 0.359213
v -0.696607 -4.151714 0.359213
v -0.041798 -1.302896 -0.359213
v -0.758418 -1.138178 0.359213
v -0.758418 -1.138178 -0.359213
v -1.413228 -3.986998 0.359213
v -1.413228 -3.986998 -0.359213
v -0.696607 -4.151715 -0.359213
v 1.000000 3.906149 1.000000
v 1.000000 3.906149 -1.000000
v 1.000000 1.906149 1.000000
v -1.000000 3.906149 1.000000
v -1.000000 3.906149 -1.000000
v -1.000000 1.906150 1.000000
v -1.000000 1.906150 -1.000000
v 1.000000 1.906149 -1.000000
v 0.625553 2.110749 0.494767
v 0.625553 2.110749 -0.494767
v 0.625553 1.406035 0.494767
v -0.625554 2.110749 0.494767
v -0.625554 2.110749 -0.494767
v -0.625554 1.406035 0.494767
v -0.625554 1.406035 -0.494767
v 0.625553 1.406035 -0.494767
v 2.046506 0.911734 0.359213
v 2.046506 0.911734 -0.359213
v 2.046507 0.150728 0.359213
v 1.000567 0.911735 0.359213
v 1.000567 0.911735 -0.359213
v 1.000567 0.150728 0.359213
v 1.000567 0.150728 -0.359213
v 2.046507 0.150728 -0.359213
v 2.571073 -1.393025 -1.690689
v 2.571073 -1.763895 -1.075391
v 2.571073 1.110478 -0.181709
v 1.894458 -1.393024 -1.690688
v 1.894458 -1.763894 -1.075390
v 1.894458 1.110478 -0.181709
v 1.894458 0.739608 0.433589
v 2.571073 0.739608 0.433589
v -0.909228 0.911734 0.359213
v -0.909228 0.911734 -0.359213
v -0.909228 0.150728 0.359213
v -1.955168 0.911734 0.359213
v -1.955168 0.911734 -0.359213
v -1.955168 0.150728 0.359213
v -1.955168 0.150728 -0.359213
v -0.909228 0.150728 -0.359213
v 0.946952 -1.147549 0.359213
v 0.946952 -1.147549 -0.359213
v 1.334564 -4.044840 0.359213
v 0.218138 -1.245052 0.359213
v 0.218138 -1.245052 -0.359213
v 0.605750 -4.142344 0.359213
v 0.605750 -4.142344 -0.359213
v 1.334564 -4.044840 -0.359213
vn 1.0000 -0.0000 -0.0000
vn -0.0000 -0.7601 -0.6499
vn -0.0000 0.6499 -0.7601
vn -1.0000 -0.0000 -0.0000
vn -0.0000 0.7601 0.6499
vn -0.0000 -0.6499 0.7601
vn -0.0000 1.0000 -0.0000
vn -0.0000 -0.0000 1.0000
vn -0.0000 -0.0000 -1.0000
vn -0.0000 -1.0000 -0.0000
vn 0.9746 -0.2240 -0.0000
vn 0.2240 0.9746 -0.0000
vn -0.9746 0.2240 -0.0000
vn -0.2240 -0.9746 -0.0000
vn -0.0000 -0.8565 -0.5162
vn -0.0000 0.5162 -0.8565
vn -0.0000 0.8565 0.5162
vn -0.0000 -0.5162 0.8565
vn 0.9912 0.1326 -0.0000
vn -0.1326 0.9912 -0.0000
vn -0.9912 -0.1326 -0.0000
vn 0.1326 -0.9912 -0.0000
vt 0.625000 0.750000
vt 0.375000 0.500000
vt 0.625000 0.500000
vt 0.375000 0.250000
vt 0.625000 0.250000
vt 0.875000 0.500000
vt 0.625000 0.000000
vt 0.375000 0.000000
vt 0.625000 1.000000
vt 0.375000 0.750000
vt 0.125000 0.500000
vt 0.875000 0.750000
vt 0.125000 0.750000
vt 0.375000 1.000000
s 1
usemtl Material.007
f 20/6/8 18/1/8 17/3/8
f 18/1/11 19/2/11 17/3/11
f 17/3/12 21/4/12 20/5/12
f 22/7/13 21/4/13 23/8/13
f 22/9/14 24/10/14 18/1/14
f 24/10/9 21/11/9 19/2/9
f 20/6/8 22/12/8 18/1/8
f 18/1/11 24/10/11 19/2/11
f 17/3/12 19/2/12 21/4/12
f 22/7/13 20/5/13 21/4/13
f 22/9/14 23/14/14 24/10/14
f 24/10/9 23/13/9 21/11/9
usemtl Material.010
f 25/3/7 29/4/7 28/5/7
f 27/1/1 26/2/1 25/3/1
f 28/6/8 27/1/8 25/3/8
f 28/5/4 31/8/4 30/7/4
f 30/9/10 32/10/10 27/1/10
f 32/10/9 29/11/9 26/2/9
f 25/3/7 26/2/7 29/4/7
f 27/1/1 32/10/1 26/2/1
f 28/6/8 30/12/8 27/1/8
f 28/5/4 29/4/4 31/8/4
f 30/9/10 31/14/10 32/10/10
f 32/10/9 31/13/9 29/11/9
usemtl Material.012
f 35/1/1 34/2/1 33/3/1
f 33/3/7 37/4/7 36/5/7
f 36/6/8 35/1/8 33/3/8
f 36/5/4 39/8/4 38/7/4
f 38/9/10 40/10/10 35/1/10
f 40/10/9 37/11/9 34/2/9
f 35/1/1 40/10/1 34/2/1
f 33/3/7 34/2/7 37/4/7
f 36/6/8 38/12/8 35/1/8
f 36/5/4 37/4/4 39/8/4
f 38/9/10 39/14/10 40/10/10
f 40/10/9 39/13/9 37/11/9
usemtl Material.013
f 12/5/4 15/8/4 14/7/4
f 9/3/7 13/4/7 12/5/7
f 12/6/8 11/1/8 9/3/8
f 16/10/9 13/11/9 10/2/9
f 14/9/10 16/10/10 11/1/10
f 11/1/1 10/2/1 9/3/1
f 12/5/4 13/4/4 15/8/4
f 9/3/7 10/2/7 13/4/7
f 12/6/8 14/12/8 11/1/8
f 16/10/9 15/13/9 13/11/9
f 14/9/10 15/14/10 16/10/10
f 11/1/1 16/10/1 10/2/1
usemtl Material.014
f 43/1/1 42/2/1 41/3/1
f 41/3/7 45/4/7 44/5/7
f 41/3/8 46/12/8 43/1/8
f 44/5/4 47/8/4 46/7/4
f 46/9/10 48/10/10 43/1/10
f 42/2/9 47/13/9 45/11/9
f 43/1/1 48/10/1 42/2/1
f 41/3/7 42/2/7 45/4/7
f 41/3/8 44/6/8 46/12/8
f 44/5/4 45/4/4 47/8/4
f 46/9/10 47/14/10 48/10/10
f 42/2/9 48/10/9 47/13/9
usemtl Material.015
f 52/5/15 50/2/15 53/4/15
f 51/1/1 50/2/1 49/3/1
f 52/6/16 51/1/16 49/3/16
f 52/5/4 55/8/4 54/7/4
f 54/9/17 56/10/17 51/1/17
f 56/10/18 53/11/18 50/2/18
f 52/5/15 49/3/15 50/2/15
f 51/1/1 56/10/1 50/2/1
f 52/6/16 54/12/16 51/1/16
f 52/5/4 53/4/4 55/8/4
f 54/9/17 55/14/17 56/10/17
f 56/10/18 55/13/18 53/11/18
usemtl Material.016
f 3/1/1 2/2/1 1/3/1
f 1/3/2 5/4/2 4/5/2
f 4/6/3 3/1/3 1/3/3
f 6/7/4 5/4/4 7/8/4
f 6/9/5 8/10/5 3/1/5
f 8/10/6 5/11/6 2/2/6
f 3/1/1 8/10/1 2/2/1
f 1/3/2 2/2/2 5/4/2
f 4/6/3 6/12/3 3/1/3
f 6/7/4 4/5/4 5/4/4
f 6/9/5 7/14/5 8/10/5
f 8/10/6 7/13/6 5/11/6
usemtl Material.017
f 57/3/7 61/4/7 60/5/7
f 59/1/1 58/2/1 57/3/1
f 60/6/8 59/1/8 57/3/8
f 60/5/4 63/8/4 62/7/4
f 62/9/10 64/10/10 59/1/10
f 64/10/9 61/11/9 58/2/9
f 57/3/7 58/2/7 61/4/7
f 59/1/1 64/10/1 58/2/1
f 60/6/8 62/12/8 59/1/8
f 60/5/4 61/4/4 63/8/4
f 62/9/10 63/14/10 64/10/10
f 64/10/9 63/13/9 61/11/9
usemtl Material.018
f 65/3/19 72/10/19 66/2/19
f 68/5/20 66/2/20 69/4/20
f 65/3/8 70/12/8 67/1/8
f 68/5/21 71/8/21 70/7/21
f 70/9/22 72/10/22 67/1/22
f 66/2/9 71/13/9 69/11/9
f 65/3/19 67/1/19 72/10/19
f 68/5/20 65/3/20 66/2/20
f 65/3/8 68/6/8 70/12/8
f 68/5/21 69/4/21 71/8/21
f 70/9/22 71/14/22 72/10/22
f 66/2/9 72/10/9 71/13/9
